<svg version="1.2" xmlns="http://www.w3.org/2000/svg" viewBox="0 0 2205 2100" width="1365" height="1300">
	<title>Author writing-ai</title>
	<defs>
		<clipPath clipPathUnits="userSpaceOnUse" id="cp1">
			<path d="m2390 2100h-2600v-2100h2600z"/>
		</clipPath>
	</defs>
	<style>
		.s0 { fill: #f0f2f5 } 
		.s1 { fill: #e1e6eb } 
		.s2 { fill: #5681a3 } 
		.s3 { fill: #d2d9e1 } 
		.s4 { fill: #1f4168 } 
		.s5 { fill: #ffffff } 
		.s6 { fill: #112e4c } 
		.s7 { fill: #ffe5d4 } 
		.s8 { fill: #1b1a2e } 
		.s9 { fill: #1f4068 } 
		.s10 { fill: #ff9a6c } 
		.s11 { fill: #e43f5a } 
		.s12 { fill: #0d0d0d } 
	</style>
	<g id="BACK">
		<g id="&lt;Clip Group&gt;" clip-path="url(#cp1)">
			<g id="&lt;Group&gt;">
				<g id="&lt;Group&gt;">
					<g id="&lt;Group&gt;">
						<g id="&lt;Group&gt;">
							<path id="&lt;Path&gt;" class="s0" d="m1937.3 1229.2c1.8-40.7-5.7-79.7-20.7-114.8-18.1 33.6-29.1 71.8-30.9 112.5-1.8 40.8 5.8 79.7 20.8 114.9 18-33.7 29-71.9 30.8-112.6z"/>
						</g>
					</g>
					<g id="&lt;Group&gt;">
						<g id="&lt;Group&gt;">
							<path id="&lt;Path&gt;" class="s0" d="m1819.4 1384.3c-35.6-25.5-84.2-20.1-84.2-20.1 13 23.3 32.2 42.3 55.4 58.7 23.3 16.4 39.8 25.4 59.7 42 0.8 0.7-2.3-60.2-30.9-80.6z"/>
						</g>
					</g>
					<g id="&lt;Group&gt;">
						<g id="&lt;Group&gt;">
							<path id="&lt;Path&gt;" class="s0" d="m1797.3 1336c38.3 28.8 70.9 48.9 101.7 85.5-7.6-60.2-27.4-104.8-65.3-133.9-46-35.3-81.1-47.2-125.1-55.9 20.7 39.7 50.4 75.6 88.7 104.3z"/>
						</g>
					</g>
					<g id="&lt;Group&gt;">
						<g id="&lt;Group&gt;">
							<path id="&lt;Path&gt;" class="s0" d="m2089.3 1511.3c38.4 51.4 63.2 108.7 74.9 167.7 0 0-81.9-35.3-139.9-119-29-41.8-56.2-56.7-85.1-47.4 63.7-55.6 111.6-52.6 150.1-1.3z"/>
						</g>
					</g>
					<g id="&lt;Group&gt;">
						<g id="&lt;Group&gt;">
							<path id="&lt;Path&gt;" class="s0" d="m2035.9 1633.9l-11.2 48.2-0.5 2.2-37.3 160.9h-185l-37.3-160.9-0.5-2.2-11.2-48.2z"/>
						</g>
					</g>
					<g id="&lt;Group&gt;">
						<g id="&lt;Group&gt;">
							<path id="&lt;Path&gt;" class="s1" d="m2015.5 1819h-242.2l28.6 26.2h185z"/>
						</g>
					</g>
					<g id="&lt;Group&gt;">
						<g id="&lt;Group&gt;">
							<path id="&lt;Path&gt;" class="s1" d="m2024.7 1682.1l-0.5 2.2h-259.6l-0.5-2.2z"/>
						</g>
					</g>
					<g id="&lt;Group&gt;">
						<path id="&lt;Path&gt;" class="s1" d="m1906.5 1633.9l-0.2-89.4-0.1-89.3 0.1-89.4 0.2-89.4 0.2 89.4 0.2 89.4-0.2 89.3z"/>
					</g>
					<g id="&lt;Group&gt;">
						<path id="&lt;Path&gt;" class="s1" d="m1906.5 1564.2c1.1-11.1 5.3-21.8 11.5-31.1 6.1-9.4 14.7-17 24.4-22.6 9.7-5.5 20.6-8.9 31.5-10.8 2.8-0.5 5.6-0.7 8.3-1.1q4.2-0.4 8.4-0.6c2.8-0.1 5.6-0.2 8.3-0.2l8.4 0.3-8.4-0.1c-2.7 0.1-5.5 0.2-8.3 0.3q-4.2 0.3-8.3 0.7c-2.8 0.4-5.6 0.6-8.3 1.2-10.9 1.9-21.7 5.3-31.3 10.9-9.7 5.4-18.2 13-24.4 22.2-3.1 4.6-5.6 9.6-7.7 14.8-1.9 5.2-3.5 10.6-4.1 16.1z"/>
					</g>
					<g id="&lt;Group&gt;">
						<path id="&lt;Path&gt;" class="s1" d="m1906.5 1471.9c0-4.6-0.3-9.1-0.7-13.6q-0.6-6.8-1.7-13.6c-1.5-8.9-3.5-17.8-6.2-26.5-2.7-8.6-6.1-17.1-10.3-25.2-2-4-4.4-8-6.8-11.8-2.5-3.8-5.2-7.4-8.1-11 5.9 6.9 11.1 14.5 15.3 22.6 4.3 8.1 7.7 16.5 10.5 25.2 2.7 8.7 4.6 17.7 6 26.7 1.4 9 2.2 18.1 2 27.2z"/>
					</g>
					<g id="&lt;Group&gt;">
						<g id="&lt;Group&gt;">
							<path id="&lt;Path&gt;" class="s0" d="m1979.8 1410.7c-23.7 11.5-43.4 18.9-63.9 35.4 10.4-31.7 25.8-53.6 49.4-65.4 28.5-14.2 48.7-16.9 73.3-17-15.3 19.3-35.1 35.5-58.8 47z"/>
						</g>
					</g>
					<g id="&lt;Group&gt;">
						<path id="&lt;Path&gt;" class="s1" d="m1906.5 1472.5c0.9-5 2.2-9.8 3.9-14.5 1.6-4.8 3.7-9.4 6.1-13.8 2.3-4.4 5.1-8.6 8.3-12.5 3.1-4 6.8-7.3 10.7-10.5l-2.8 2.5-1.4 1.3-1.2 1.4c-0.9 0.9-1.7 1.8-2.6 2.7l-2.3 2.9c-3.1 3.9-5.9 8.1-8.2 12.5-2.4 4.4-4.4 9-6.2 13.6q-1.3 3.5-2.4 7.1-1.1 3.6-1.9 7.3z"/>
					</g>
					<g id="&lt;Group&gt;">
						<g id="&lt;Group&gt;">
							<path id="&lt;Path&gt;" class="s0" d="m1760 1497.4c-40.8 22.3-74.3 52.6-99.7 88 0 0 64.5 1.3 127.9-36.4 31.7-18.9 54.1-20.5 70.4-5.7-25.3-55.7-57.8-68.2-98.6-45.9z"/>
						</g>
					</g>
					<g id="&lt;Group&gt;">
						<path id="&lt;Path&gt;" class="s1" d="m1881.5 1633.9c0.2-9.6-0.1-19.1-0.6-28.7q-0.8-14.4-2.4-28.6c-2-19.1-5.3-38-9.8-56.6-2.2-9.3-4.8-18.5-7.8-27.6-3-9.1-6.4-18.1-10.3-26.8-4-8.7-8.4-17.2-13.4-25.4-5-8.2-10.6-15.9-16.8-23.3 6.3 7.3 12 15 17.1 23.1 5 8.2 9.5 16.7 13.5 25.4 3.9 8.8 7.3 17.7 10.4 26.8 3 9.1 5.7 18.3 8 27.6 4.4 18.7 7.5 37.7 9.5 56.7 2.1 19.1 3.1 38.3 2.6 57.4z"/>
					</g>
					<g id="&lt;Group&gt;">
						<path id="&lt;Path&gt;" class="s1" d="m1879.3 1585.1c-0.8-3.7-2-7.3-3.3-10.9q-2-5.4-4.6-10.5c-3.4-6.8-7.5-13.3-12.2-19.2-2.4-3-4.9-5.8-7.6-8.5-2.7-2.7-5.6-5.2-8.6-7.6-6-4.6-12.6-8.6-19.5-11.8 7 3 13.7 6.8 19.8 11.5q4.6 3.5 8.7 7.5c2.7 2.7 5.3 5.5 7.7 8.5 4.7 6 8.9 12.5 12.2 19.4 3.3 6.9 5.9 14.1 7.4 21.6z"/>
					</g>
				</g>
				<g id="&lt;Group&gt;">
					<g id="&lt;Group&gt;">
						<g id="&lt;Group&gt;">
							<g id="&lt;Group&gt;">
								<g id="&lt;Group&gt;">
									<path id="&lt;Path&gt;" class="s1" d="m2040.8 1198.6c2 0.3 3.9-1.2 4.1-3.2l2.5-21.3c0.2-2.1-1.2-3.9-3.3-4.2-2-0.2-3.9 1.3-4.1 3.3l-2.5 21.3c-0.2 2.1 1.3 3.9 3.3 4.1z"/>
								</g>
							</g>
						</g>
					</g>
					<g id="&lt;Group&gt;">
						<g id="&lt;Group&gt;">
							<g id="&lt;Group&gt;">
								<path id="&lt;Path&gt;" class="s2" d="m2158.1 491.7l-54.8 472.7c-8.4 71.9-26 142.6-52.3 210.1l-14.6-1.7c-10.2-71.8-11.1-144.5-2.8-216.5l54.8-472.7c0.7-6.4 6.6-11.1 13-10.3l46.3 5.4c6.5 0.7 11.1 6.5 10.4 13z"/>
							</g>
						</g>
					</g>
					<g id="&lt;Group&gt;">
						<g id="&lt;Group&gt;">
							<g id="&lt;Group&gt;">
								<path id="&lt;Path&gt;" class="s1" d="m2108.9 474.2l31.4 3.6 4.9-42.1c0.4-4.2-2.5-7.9-6.7-8.4l-16.3-1.9c-4.2-0.5-8 2.5-8.4 6.7z"/>
							</g>
						</g>
					</g>
					<g id="&lt;Group&gt;">
						<g id="&lt;Group&gt;">
							<g id="&lt;Group&gt;">
								<path id="&lt;Path&gt;" class="s1" d="m2138.1 805.1c5.4 0.7 10.3-3.1 11-8.5l35.6-264.8c2.3-17.2-10-33-27.2-35l-4 33.9c8.3 1.5 14.1 9.2 13.1 17.6l-30 255c-0.1 0.9 0.6 1.7 1.5 1.8z"/>
							</g>
						</g>
					</g>
					<g id="&lt;Group&gt;">
						<g id="&lt;Group&gt;">
							<g id="&lt;Group&gt;">
								<path id="&lt;Path&gt;" class="s1" d="m2028 1056.9l57.7 6.7 0.2-0.8-57.9-6.7z"/>
							</g>
						</g>
					</g>
					<g id="&lt;Group&gt;">
						<g id="&lt;Group&gt;">
							<g id="&lt;Group&gt;">
								<path id="&lt;Path&gt;" class="s1" d="m2046.9 842l69.6 8.1 0.1-0.8-69.7-8z"/>
							</g>
						</g>
					</g>
					<g id="&lt;Group&gt;">
						<g id="&lt;Group&gt;">
							<g id="&lt;Group&gt;">
								<path id="&lt;Path&gt;" class="s1" d="m2048.5 827.4l69.7 8.1 0.1-0.7-69.7-8.1z"/>
							</g>
						</g>
					</g>
				</g>
				<g id="&lt;Group&gt;">
					<g id="&lt;Group&gt;">
						<g id="&lt;Group&gt;">
							<path id="&lt;Path&gt;" class="s3" d="m1921.7 777.9l-586.8 156.2-156.2-586.8 586.8-156.2z"/>
						</g>
					</g>
					<g id="&lt;Group&gt;">
						<g id="&lt;Group&gt;">
							<path id="&lt;Path&gt;" class="s2" d="m1814.7 234.9l55.3 472.4-115.4 146-472.4 55.3-70.6-603.1z"/>
						</g>
					</g>
					<g id="&lt;Group&gt;">
						<g id="&lt;Group&gt;">
							<g id="&lt;Group&gt;">
								<path id="&lt;Path&gt;" class="s3" d="m1780.3 322.8l-46.7 5.4-5.4-46.6 46.6-5.5z"/>
							</g>
						</g>
						<g id="&lt;Group&gt;">
							<g id="&lt;Group&gt;">
								<path id="&lt;Path&gt;" class="s3" d="m1686.6 333.7l-46.6 5.5-5.5-46.7 46.7-5.4z"/>
							</g>
						</g>
						<g id="&lt;Group&gt;">
							<g id="&lt;Group&gt;">
								<path id="&lt;Path&gt;" class="s3" d="m1593 344.7l-46.7 5.4-5.4-46.6 46.6-5.5z"/>
							</g>
						</g>
						<g id="&lt;Group&gt;">
							<g id="&lt;Group&gt;">
								<path id="&lt;Path&gt;" class="s3" d="m1499.3 355.6l-46.6 5.5-5.5-46.7 46.7-5.4z"/>
							</g>
						</g>
						<g id="&lt;Group&gt;">
							<g id="&lt;Group&gt;">
								<path id="&lt;Path&gt;" class="s3" d="m1405.7 366.6l-46.7 5.5-5.4-46.7 46.6-5.5z"/>
							</g>
						</g>
						<g id="&lt;Group&gt;">
							<g id="&lt;Group&gt;">
								<path id="&lt;Path&gt;" class="s3" d="m1312.1 377.6l-46.7 5.4-5.5-46.6 46.7-5.5z"/>
							</g>
						</g>
					</g>
					<g id="&lt;Group&gt;">
						<g id="&lt;Group&gt;">
							<g id="&lt;Group&gt;">
								<path id="&lt;Path&gt;" class="s1" d="m1770.5 441.5l-468.2 54.8-1.2-10.4 468.2-54.8z"/>
							</g>
						</g>
						<g id="&lt;Group&gt;">
							<g id="&lt;Group&gt;">
								<path id="&lt;Path&gt;" class="s1" d="m1775.2 481.3l-468.2 54.8-1.3-10.4 468.3-54.8z"/>
							</g>
						</g>
						<g id="&lt;Group&gt;">
							<g id="&lt;Group&gt;">
								<path id="&lt;Path&gt;" class="s1" d="m1779.9 521.2l-468.3 54.8-1.2-10.4 468.2-54.8z"/>
							</g>
						</g>
						<g id="&lt;Group&gt;">
							<g id="&lt;Group&gt;">
								<path id="&lt;Path&gt;" class="s1" d="m1784.5 561l-468.2 54.8-1.2-10.4 468.2-54.8z"/>
							</g>
						</g>
						<g id="&lt;Group&gt;">
							<g id="&lt;Group&gt;">
								<path id="&lt;Path&gt;" class="s1" d="m1789.2 600.9l-468.3 54.8-1.2-10.4 468.3-54.8z"/>
							</g>
						</g>
						<g id="&lt;Group&gt;">
							<g id="&lt;Group&gt;">
								<path id="&lt;Path&gt;" class="s1" d="m1793.8 640.7l-468.2 54.8-1.2-10.4 468.2-54.8z"/>
							</g>
						</g>
						<g id="&lt;Group&gt;">
							<g id="&lt;Group&gt;">
								<path id="&lt;Path&gt;" class="s1" d="m1798.5 680.6l-468.2 54.8-1.2-10.4 468.2-54.8z"/>
							</g>
						</g>
						<g id="&lt;Group&gt;">
							<g id="&lt;Group&gt;">
								<path id="&lt;Path&gt;" class="s1" d="m1569.1 747.8l-234.2 27.4-1.2-10.4 234.1-27.4z"/>
							</g>
						</g>
					</g>
					<g id="&lt;Group&gt;">
						<g id="&lt;Group&gt;">
							<path id="&lt;Path&gt;" class="s1" d="m1870 707.3l-115.4 146-15.3-130.7z"/>
						</g>
					</g>
					<g id="&lt;Group&gt;">
						<g id="&lt;Group&gt;">
							<path id="&lt;Path&gt;" class="s3" d="m1871.5 384.8l-58.7 6.9-0.6-5 58.7-6.9c10.4-1.2 18-10.7 16.7-21.1-1.2-10.5-10.7-18-21.2-16.8l-38.6 4.5-0.6-5 38.6-4.5c13.3-1.5 25.3 8 26.8 21.2 1.6 13.2-7.9 25.2-21.1 26.7z"/>
						</g>
					</g>
					<g id="&lt;Group&gt;">
						<g id="&lt;Group&gt;">
							<path id="&lt;Compound Path&gt;" fill-rule="evenodd" class="s3" d="m1855.9 386.7l-71.8 8.4c-10.6 1.2-20.1-6.4-21.4-16.9-1.2-10.6 6.4-20.1 16.9-21.4l71.9-8.4c10.5-1.2 20.1 6.4 21.3 16.9 1.2 10.5-6.3 20.1-16.9 21.4zm-75.7-24.9c-7.8 0.9-13.4 8-12.5 15.8 0.9 7.8 8 13.4 15.8 12.5l71.8-8.4c7.8-0.9 13.4-8 12.5-15.8-0.9-7.8-8-13.4-15.8-12.5z"/>
						</g>
					</g>
				</g>
			</g>
		</g>
	</g>
	<g id="BOOK">
		<g id="&lt;Group&gt;">
			<g id="&lt;Group&gt;">
				<g id="&lt;Group&gt;">
					<path id="&lt;Path&gt;" class="s4" d="m732.6 1688.1h-488.2v101.9h488.2z"/>
				</g>
				<g id="&lt;Group&gt;">
					<path id="&lt;Path&gt;" class="s5" d="m295.4 1790h-9.9v-101.9h9.9z"/>
				</g>
			</g>
			<g id="&lt;Group&gt;">
				<g id="&lt;Group&gt;">
					<path id="&lt;Path&gt;" class="s2" d="m700.4 1790h-490.7v55.2h490.7z"/>
				</g>
				<g id="&lt;Group&gt;">
					<path id="&lt;Path&gt;" class="s5" d="m562.1 1845.2h30.7v-55.2h-30.7z"/>
				</g>
				<g id="&lt;Group&gt;">
					<path id="&lt;Path&gt;" class="s5" d="m528.7 1845.2h15.3v-55.2h-15.3z"/>
				</g>
			</g>
			<g id="&lt;Group&gt;">
				<path id="&lt;Path&gt;" class="s4" d="m737.4 1568.5h-556.8v37.2h556.8z"/>
			</g>
			<g id="&lt;Group&gt;">
				<g id="&lt;Group&gt;">
					<path id="&lt;Path&gt;" class="s0" d="m665.7 1605.7h-440.3v82.4h440.3z"/>
				</g>
				<g id="&lt;Group&gt;">
					<path id="&lt;Path&gt;" class="s6" d="m411.3 1677h-201.6v11.1h201.6z"/>
				</g>
				<g id="&lt;Group&gt;">
					<path id="&lt;Path&gt;" class="s6" d="m411.3 1605.7h-201.6v11.1h201.6z"/>
				</g>
				<g id="&lt;Group&gt;">
					<path id="&lt;Path&gt;" class="s6" d="m411.3 1605.7v82.4h265.5v-82.4z"/>
				</g>
				<g id="&lt;Group&gt;">
					<path id="&lt;Path&gt;" class="s5" d="m469.1 1677h-23.6v-60.2h23.6z"/>
				</g>
			</g>
			<g id="&lt;Group&gt;">
				<g id="&lt;Group&gt;">
					<path id="&lt;Path&gt;" class="s0" d="m694.1 1511.5h-251.7v57h251.7z"/>
				</g>
				<g id="&lt;Group&gt;">
					<path id="&lt;Path&gt;" class="s2" d="m493.3 1511.5h-248.9v57h248.9z"/>
				</g>
				<g id="&lt;Group&gt;">
					<path id="&lt;Path&gt;" class="s2" d="m700.4 1511.5h-207.1v6.9h207.1z"/>
				</g>
				<g id="&lt;Group&gt;">
					<path id="&lt;Path&gt;" class="s2" d="m700.4 1561.7h-207.1v6.8h207.1z"/>
				</g>
				<g id="&lt;Group&gt;">
					<path id="&lt;Path&gt;" class="s5" d="m304.6 1568.5h3.2v-57h-3.2z"/>
				</g>
				<g id="&lt;Group&gt;">
					<path id="&lt;Path&gt;" class="s5" d="m283.1 1568.5h3.2v-57h-3.2z"/>
				</g>
			</g>
			<g id="&lt;Group&gt;" style="opacity: .4;mix-blend-mode: multiply">
				<path id="&lt;Path&gt;" class="s4" d="m700.4 1568.5v17l-456-17z"/>
			</g>
			<g id="&lt;Group&gt;" style="opacity: .4;mix-blend-mode: multiply">
				<path id="&lt;Path&gt;" class="s4" d="m244.4 1688.1v37.2l432.4-37.2z"/>
			</g>
		</g>
	</g>
	<g id="ARTICLE">
		<g id="&lt;Group&gt;">
			<g id="&lt;Group&gt;">
				<path id="&lt;Path&gt;" class="s0" d="m1000.9 238.6v1120.9h-689.3l-209.1-209v-911.9z"/>
			</g>
			<g id="&lt;Group&gt;">
				<g id="&lt;Group&gt;">
					<path id="&lt;Path&gt;" class="s5" d="m948.5 295.7v1120.9h-689.3l-209-209v-911.9z"/>
				</g>
				<g id="&lt;Group&gt;">
					<path id="&lt;Path&gt;" class="s0" d="m259.2 1207.6v209l-209-209z"/>
				</g>
				<g id="&lt;Group&gt;">
					<path id="&lt;Compound Path&gt;" fill-rule="evenodd" class="s4" d="m949 1417.1h-690l-209.3-209.3v-912.6h899.3zm-689.6-1h688.6v-1119.9h-897.3v911.2z"/>
				</g>
			</g>
			<g id="&lt;Group&gt;">
				<g id="&lt;Group&gt;">
					<path id="&lt;Path&gt;" class="s4" d="m887.9 1297.6h-6.5c-0.3 0-0.5-0.2-0.5-0.5 0-0.3 0.2-0.5 0.5-0.5h5.5v-5.5c0-0.3 0.2-0.5 0.5-0.5 0.3 0 0.5 0.2 0.5 0.5z"/>
				</g>
				<g id="&lt;Group&gt;">
					<path id="&lt;Compound Path&gt;" class="s4" d="m869.1 1297.6h-12.2c-0.3 0-0.5-0.2-0.5-0.5 0-0.3 0.2-0.5 0.5-0.5h12.2c0.3 0 0.5 0.2 0.5 0.5 0 0.3-0.2 0.5-0.5 0.5zm-24.4 0h-12.3c-0.2 0-0.5-0.2-0.5-0.5 0-0.3 0.3-0.5 0.5-0.5h12.3c0.2 0 0.5 0.2 0.5 0.5 0 0.3-0.3 0.5-0.5 0.5zm-24.5 0h-12.2c-0.3 0-0.5-0.2-0.5-0.5 0-0.3 0.2-0.5 0.5-0.5h12.2c0.3 0 0.5 0.2 0.5 0.5 0 0.3-0.2 0.5-0.5 0.5zm-24.5 0h-12.2c-0.3 0-0.5-0.2-0.5-0.5 0-0.3 0.2-0.5 0.5-0.5h12.2c0.3 0 0.5 0.2 0.5 0.5 0 0.3-0.2 0.5-0.5 0.5zm-24.5 0h-12.2c-0.3 0-0.5-0.2-0.5-0.5 0-0.3 0.2-0.5 0.5-0.5h12.2c0.3 0 0.5 0.2 0.5 0.5 0 0.3-0.2 0.5-0.5 0.5zm-24.4 0h-12.3c-0.2 0-0.5-0.2-0.5-0.5 0-0.3 0.3-0.5 0.5-0.5h12.3c0.2 0 0.5 0.2 0.5 0.5 0 0.3-0.3 0.5-0.5 0.5zm-24.5 0h-12.2c-0.3 0-0.5-0.2-0.5-0.5 0-0.3 0.2-0.5 0.5-0.5h12.2c0.3 0 0.5 0.2 0.5 0.5 0 0.3-0.2 0.5-0.5 0.5zm-24.5 0h-12.2c-0.3 0-0.5-0.2-0.5-0.5 0-0.3 0.2-0.5 0.5-0.5h12.2c0.3 0 0.5 0.2 0.5 0.5 0 0.3-0.2 0.5-0.5 0.5zm-24.4 0h-12.3c-0.3 0-0.5-0.2-0.5-0.5 0-0.3 0.2-0.5 0.5-0.5h12.3c0.2 0 0.5 0.2 0.5 0.5 0 0.3-0.3 0.5-0.5 0.5zm-24.5 0h-12.3c-0.2 0-0.5-0.2-0.5-0.5 0-0.3 0.3-0.5 0.5-0.5h12.3c0.3 0 0.5 0.2 0.5 0.5 0 0.3-0.2 0.5-0.5 0.5zm-24.5 0h-12.2c-0.3 0-0.5-0.2-0.5-0.5 0-0.3 0.2-0.5 0.5-0.5h12.2c0.3 0 0.5 0.2 0.5 0.5 0 0.3-0.2 0.5-0.5 0.5zm-24.5 0h-12.2c-0.3 0-0.5-0.2-0.5-0.5 0-0.3 0.2-0.5 0.5-0.5h12.2c0.3 0 0.5 0.2 0.5 0.5 0 0.3-0.2 0.5-0.5 0.5zm-24.4 0h-12.3c-0.3 0-0.5-0.2-0.5-0.5 0-0.3 0.2-0.5 0.5-0.5h12.3c0.2 0 0.5 0.2 0.5 0.5 0 0.3-0.3 0.5-0.5 0.5zm-24.5 0h-12.3c-0.2 0-0.5-0.2-0.5-0.5 0-0.3 0.3-0.5 0.5-0.5h12.3c0.3 0 0.5 0.2 0.5 0.5 0 0.3-0.2 0.5-0.5 0.5z"/>
				</g>
				<g id="&lt;Group&gt;">
					<path id="&lt;Path&gt;" class="s4" d="m526.5 1297.6h-6.5v-6.5c0-0.3 0.2-0.5 0.5-0.5 0.3 0 0.5 0.2 0.5 0.5v5.5h5.5c0.3 0 0.5 0.2 0.5 0.5 0 0.3-0.2 0.5-0.5 0.5z"/>
				</g>
				<g id="&lt;Group&gt;">
					<path id="&lt;Compound Path&gt;" class="s4" d="m520.5 1280c-0.3 0-0.5-0.2-0.5-0.5v-11.6c0-0.3 0.2-0.5 0.5-0.5 0.3 0 0.5 0.2 0.5 0.5v11.6c0 0.3-0.2 0.5-0.5 0.5zm0-23.2c-0.3 0-0.5-0.2-0.5-0.5v-11.6c0-0.3 0.2-0.5 0.5-0.5 0.3 0 0.5 0.2 0.5 0.5v11.6c0 0.3-0.2 0.5-0.5 0.5zm0-23.2c-0.3 0-0.5-0.3-0.5-0.5v-11.7c0-0.2 0.2-0.5 0.5-0.5 0.3 0 0.5 0.3 0.5 0.5v11.7c0 0.2-0.2 0.5-0.5 0.5zm0-23.3c-0.3 0-0.5-0.2-0.5-0.5v-11.6c0-0.2 0.2-0.5 0.5-0.5 0.3 0 0.5 0.3 0.5 0.5v11.6c0 0.3-0.2 0.5-0.5 0.5zm0-23.2c-0.3 0-0.5-0.2-0.5-0.5v-11.6c0-0.3 0.2-0.5 0.5-0.5 0.3 0 0.5 0.2 0.5 0.5v11.6c0 0.3-0.2 0.5-0.5 0.5zm0-23.2c-0.3 0-0.5-0.2-0.5-0.5v-11.6c0-0.3 0.2-0.5 0.5-0.5 0.3 0 0.5 0.2 0.5 0.5v11.6c0 0.3-0.2 0.5-0.5 0.5zm0-23.2c-0.3 0-0.5-0.2-0.5-0.5v-11.6c0-0.3 0.2-0.5 0.5-0.5 0.3 0 0.5 0.2 0.5 0.5v11.6c0 0.3-0.2 0.5-0.5 0.5zm0-23.2c-0.3 0-0.5-0.3-0.5-0.5v-11.7c0-0.2 0.2-0.5 0.5-0.5 0.3 0 0.5 0.3 0.5 0.5v11.7c0 0.2-0.2 0.5-0.5 0.5zm0-23.3c-0.3 0-0.5-0.2-0.5-0.5v-11.6c0-0.3 0.2-0.5 0.5-0.5 0.3 0 0.5 0.2 0.5 0.5v11.6c0 0.3-0.2 0.5-0.5 0.5zm0-23.2c-0.3 0-0.5-0.2-0.5-0.5v-11.6c0-0.3 0.2-0.5 0.5-0.5 0.3 0 0.5 0.2 0.5 0.5v11.6c0 0.3-0.2 0.5-0.5 0.5zm0-23.2c-0.3 0-0.5-0.2-0.5-0.5v-11.6c0-0.3 0.2-0.5 0.5-0.5 0.3 0 0.5 0.2 0.5 0.5v11.6c0 0.3-0.2 0.5-0.5 0.5zm0-23.2c-0.3 0-0.5-0.2-0.5-0.5v-11.6c0-0.3 0.2-0.5 0.5-0.5 0.3 0 0.5 0.2 0.5 0.5v11.6c0 0.3-0.2 0.5-0.5 0.5zm0-23.2c-0.3 0-0.5-0.3-0.5-0.5v-11.7c0-0.2 0.2-0.5 0.5-0.5 0.3 0 0.5 0.3 0.5 0.5v11.7c0 0.2-0.2 0.5-0.5 0.5zm0-23.3c-0.3 0-0.5-0.2-0.5-0.5v-11.6c0-0.3 0.2-0.5 0.5-0.5 0.3 0 0.5 0.2 0.5 0.5v11.6c0 0.3-0.2 0.5-0.5 0.5zm0-23.2c-0.3 0-0.5-0.2-0.5-0.5v-11.6c0-0.3 0.2-0.5 0.5-0.5 0.3 0 0.5 0.2 0.5 0.5v11.6c0 0.3-0.2 0.5-0.5 0.5z"/>
				</g>
				<g id="&lt;Group&gt;">
					<path id="&lt;Path&gt;" class="s4" d="m520.5 931.7c-0.3 0-0.5-0.2-0.5-0.5v-6.5h6.5c0.3 0 0.5 0.2 0.5 0.5 0 0.3-0.2 0.5-0.5 0.5h-5.5v5.5c0 0.3-0.2 0.5-0.5 0.5z"/>
				</g>
				<g id="&lt;Group&gt;">
					<path id="&lt;Compound Path&gt;" class="s4" d="m869.1 925.7h-12.2c-0.3 0-0.5-0.2-0.5-0.5 0-0.3 0.2-0.5 0.5-0.5h12.2c0.3 0 0.5 0.2 0.5 0.5 0 0.3-0.2 0.5-0.5 0.5zm-24.4 0h-12.3c-0.2 0-0.5-0.2-0.5-0.5 0-0.3 0.3-0.5 0.5-0.5h12.3c0.2 0 0.5 0.2 0.5 0.5 0 0.3-0.3 0.5-0.5 0.5zm-24.5 0h-12.2c-0.3 0-0.5-0.2-0.5-0.5 0-0.3 0.2-0.5 0.5-0.5h12.2c0.3 0 0.5 0.2 0.5 0.5 0 0.3-0.2 0.5-0.5 0.5zm-24.5 0h-12.2c-0.3 0-0.5-0.2-0.5-0.5 0-0.3 0.2-0.5 0.5-0.5h12.2c0.3 0 0.5 0.2 0.5 0.5 0 0.3-0.2 0.5-0.5 0.5zm-24.5 0h-12.2c-0.3 0-0.5-0.2-0.5-0.5 0-0.3 0.2-0.5 0.5-0.5h12.2c0.3 0 0.5 0.2 0.5 0.5 0 0.3-0.2 0.5-0.5 0.5zm-24.4 0h-12.3c-0.2 0-0.5-0.2-0.5-0.5 0-0.3 0.3-0.5 0.5-0.5h12.3c0.2 0 0.5 0.2 0.5 0.5 0 0.3-0.3 0.5-0.5 0.5zm-24.5 0h-12.2c-0.3 0-0.5-0.2-0.5-0.5 0-0.3 0.2-0.5 0.5-0.5h12.2c0.3 0 0.5 0.2 0.5 0.5 0 0.3-0.2 0.5-0.5 0.5zm-24.5 0h-12.2c-0.3 0-0.5-0.2-0.5-0.5 0-0.3 0.2-0.5 0.5-0.5h12.2c0.3 0 0.5 0.2 0.5 0.5 0 0.3-0.2 0.5-0.5 0.5zm-24.4 0h-12.3c-0.3 0-0.5-0.2-0.5-0.5 0-0.3 0.2-0.5 0.5-0.5h12.3c0.2 0 0.5 0.2 0.5 0.5 0 0.3-0.3 0.5-0.5 0.5zm-24.5 0h-12.3c-0.2 0-0.5-0.2-0.5-0.5 0-0.3 0.3-0.5 0.5-0.5h12.3c0.3 0 0.5 0.2 0.5 0.5 0 0.3-0.2 0.5-0.5 0.5zm-24.5 0h-12.2c-0.3 0-0.5-0.2-0.5-0.5 0-0.3 0.2-0.5 0.5-0.5h12.2c0.3 0 0.5 0.2 0.5 0.5 0 0.3-0.2 0.5-0.5 0.5zm-24.5 0h-12.2c-0.3 0-0.5-0.2-0.5-0.5 0-0.3 0.2-0.5 0.5-0.5h12.2c0.3 0 0.5 0.2 0.5 0.5 0 0.3-0.2 0.5-0.5 0.5zm-24.4 0h-12.3c-0.3 0-0.5-0.2-0.5-0.5 0-0.3 0.2-0.5 0.5-0.5h12.3c0.2 0 0.5 0.2 0.5 0.5 0 0.3-0.3 0.5-0.5 0.5zm-24.5 0h-12.3c-0.2 0-0.5-0.2-0.5-0.5 0-0.3 0.3-0.5 0.5-0.5h12.3c0.3 0 0.5 0.2 0.5 0.5 0 0.3-0.2 0.5-0.5 0.5z"/>
				</g>
				<g id="&lt;Group&gt;">
					<path id="&lt;Path&gt;" class="s4" d="m887.4 931.7c-0.3 0-0.5-0.2-0.5-0.5v-5.5h-5.5c-0.3 0-0.5-0.2-0.5-0.5 0-0.3 0.2-0.5 0.5-0.5h6.5v6.5c0 0.3-0.2 0.5-0.5 0.5z"/>
				</g>
				<g id="&lt;Group&gt;">
					<path id="&lt;Compound Path&gt;" class="s4" d="m887.4 1280c-0.3 0-0.5-0.2-0.5-0.5v-11.6c0-0.3 0.2-0.5 0.5-0.5 0.3 0 0.5 0.2 0.5 0.5v11.6c0 0.3-0.2 0.5-0.5 0.5zm0-23.2c-0.3 0-0.5-0.2-0.5-0.5v-11.6c0-0.3 0.2-0.5 0.5-0.5 0.3 0 0.5 0.2 0.5 0.5v11.6c0 0.3-0.2 0.5-0.5 0.5zm0-23.2c-0.3 0-0.5-0.3-0.5-0.5v-11.7c0-0.2 0.2-0.5 0.5-0.5 0.3 0 0.5 0.3 0.5 0.5v11.7c0 0.2-0.2 0.5-0.5 0.5zm0-23.3c-0.3 0-0.5-0.2-0.5-0.5v-11.6c0-0.3 0.2-0.5 0.5-0.5 0.3 0 0.5 0.2 0.5 0.5v11.6c0 0.3-0.2 0.5-0.5 0.5zm0-23.2c-0.3 0-0.5-0.2-0.5-0.5v-11.6c0-0.3 0.2-0.5 0.5-0.5 0.3 0 0.5 0.2 0.5 0.5v11.6c0 0.3-0.2 0.5-0.5 0.5zm0-23.2c-0.3 0-0.5-0.2-0.5-0.5v-11.6c0-0.3 0.2-0.5 0.5-0.5 0.3 0 0.5 0.2 0.5 0.5v11.6c0 0.3-0.2 0.5-0.5 0.5zm0-23.2c-0.3 0-0.5-0.2-0.5-0.5v-11.6c0-0.3 0.2-0.5 0.5-0.5 0.3 0 0.5 0.2 0.5 0.5v11.6c0 0.3-0.2 0.5-0.5 0.5zm0-23.2c-0.3 0-0.5-0.3-0.5-0.5v-11.7c0-0.2 0.2-0.5 0.5-0.5 0.3 0 0.5 0.3 0.5 0.5v11.7c0 0.2-0.2 0.5-0.5 0.5zm0-23.3c-0.3 0-0.5-0.2-0.5-0.5v-11.6c0-0.3 0.2-0.5 0.5-0.5 0.3 0 0.5 0.2 0.5 0.5v11.6c0 0.3-0.2 0.5-0.5 0.5zm0-23.2c-0.3 0-0.5-0.2-0.5-0.5v-11.6c0-0.3 0.2-0.5 0.5-0.5 0.3 0 0.5 0.2 0.5 0.5v11.6c0 0.3-0.2 0.5-0.5 0.5zm0-23.2c-0.3 0-0.5-0.2-0.5-0.5v-11.6c0-0.3 0.2-0.5 0.5-0.5 0.3 0 0.5 0.2 0.5 0.5v11.6c0 0.3-0.2 0.5-0.5 0.5zm0-23.2c-0.3 0-0.5-0.2-0.5-0.5v-11.6c0-0.3 0.2-0.5 0.5-0.5 0.3 0 0.5 0.2 0.5 0.5v11.6c0 0.3-0.2 0.5-0.5 0.5zm0-23.2c-0.3 0-0.5-0.3-0.5-0.5v-11.7c0-0.2 0.2-0.5 0.5-0.5 0.3 0 0.5 0.3 0.5 0.5v11.7c0 0.2-0.2 0.5-0.5 0.5zm0-23.3c-0.3 0-0.5-0.2-0.5-0.5v-11.6c0-0.3 0.2-0.5 0.5-0.5 0.3 0 0.5 0.2 0.5 0.5v11.6c0 0.3-0.2 0.5-0.5 0.5zm0-23.2c-0.3 0-0.5-0.2-0.5-0.5v-11.6c0-0.3 0.2-0.5 0.5-0.5 0.3 0 0.5 0.2 0.5 0.5v11.6c0 0.3-0.2 0.5-0.5 0.5z"/>
				</g>
			</g>
			<g id="&lt;Group&gt;">
				<path id="&lt;Path&gt;" class="s2" d="m887.4 490.2h-404.5v-136.2h404.5z"/>
			</g>
			<g id="&lt;Group&gt;">
				<path id="&lt;Path&gt;" class="s3" d="m887.4 610.8h-404.5v-71.4h404.5z"/>
			</g>
			<g id="&lt;Group&gt;">
				<path id="&lt;Path&gt;" class="s0" d="m482.9 708.6h-366.9v-35.7h366.9z"/>
			</g>
			<g id="&lt;Group&gt;">
				<path id="&lt;Path&gt;" class="s0" d="m887.4 708.6h-366.9v-35.7h366.9z"/>
			</g>
			<g id="&lt;Group&gt;">
				<path id="&lt;Path&gt;" class="s0" d="m482.9 771.7h-366.9v-35.7h366.9z"/>
			</g>
			<g id="&lt;Group&gt;">
				<path id="&lt;Path&gt;" class="s0" d="m887.4 771.7h-366.9v-35.7h366.9z"/>
			</g>
			<g id="&lt;Group&gt;">
				<path id="&lt;Path&gt;" class="s0" d="m482.9 834.7h-366.9v-35.7h366.9z"/>
			</g>
			<g id="&lt;Group&gt;">
				<path id="&lt;Path&gt;" class="s0" d="m887.4 834.7h-366.9v-35.7h366.9z"/>
			</g>
			<g id="&lt;Group&gt;">
				<path id="&lt;Path&gt;" class="s0" d="m482.9 897.8h-366.9v-35.7h366.9z"/>
			</g>
			<g id="&lt;Group&gt;">
				<path id="&lt;Path&gt;" class="s0" d="m887.4 897.8h-366.9v-35.7h366.9z"/>
			</g>
			<g id="&lt;Group&gt;">
				<path id="&lt;Path&gt;" class="s0" d="m482.9 960.9h-366.9v-35.7h366.9z"/>
			</g>
			<g id="&lt;Group&gt;">
				<path id="&lt;Path&gt;" class="s0" d="m482.9 1024h-366.9v-35.7h366.9z"/>
			</g>
			<g id="&lt;Group&gt;">
				<path id="&lt;Path&gt;" class="s0" d="m482.9 1087.1h-366.9v-35.7h366.9z"/>
			</g>
			<g id="&lt;Group&gt;">
				<path id="&lt;Path&gt;" class="s0" d="m299.4 1150.1h-183.4v-35.7h183.4z"/>
			</g>
			<g id="&lt;Group&gt;">
				<g id="&lt;Group&gt;">
					<path id="&lt;Compound Path&gt;" fill-rule="evenodd" class="s4" d="m336.7 526.8h-97.2l-17.1 39.6q-6.3 14.6-6.3 21.9 0 5.7 5.5 10 5.4 4.4 23.6 5.7v6.8h-79.1v-6.8q15.8-2.8 20.4-7.2 9.4-8.9 20.9-36.1l88.3-206.7h6.5l87.4 208.9q10.6 25.2 19.2 32.7 8.6 7.5 24 8.4v6.8h-99.1v-6.8q15-0.7 20.3-5 5.3-4.3 5.3-10.4 0-8.1-7.5-25.7zm-5.1-13.7l-42.6-101.5-43.7 101.5z"/>
				</g>
			</g>
			<g id="&lt;Group&gt;">
				<g id="&lt;Group&gt;">
					<path id="&lt;Path&gt;" class="s0" d="m817.5 966.8l0.3 250.6-37.6 0.1-0.2-250.7z"/>
				</g>
				<g id="&lt;Group&gt;">
					<path id="&lt;Path&gt;" class="s0" d="m765 1053.7l0.2 163.8-37.5 0.1-0.2-163.8z"/>
				</g>
				<g id="&lt;Group&gt;">
					<path id="&lt;Path&gt;" class="s0" d="m607.3 1054l0.1 163.9-37.5 0.1-0.1-163.9z"/>
				</g>
				<g id="&lt;Group&gt;">
					<path id="&lt;Path&gt;" class="s0" d="m712.4 1013.7l0.2 203.9-37.5 0.1-0.2-204z"/>
				</g>
				<g id="&lt;Group&gt;">
					<path id="&lt;Path&gt;" class="s0" d="m659.9 1090.8l0.1 126.9-37.5 0.1-0.1-126.9z"/>
				</g>
			</g>
			<g id="&lt;Group&gt;">
				<g id="&lt;Group&gt;">
					<path id="&lt;Path&gt;" class="s4" d="m827.7 1004.3l0.2 213.1-37.5 0.1-0.2-213.1z"/>
				</g>
				<g id="&lt;Group&gt;">
					<path id="&lt;Path&gt;" class="s4" d="m775.2 1078.2l0.1 139.3-37.5 0.1-0.1-139.3z"/>
				</g>
				<g id="&lt;Group&gt;">
					<path id="&lt;Path&gt;" class="s4" d="m617.5 1078.6l0.1 139.3-37.5 0.1-0.1-139.3z"/>
				</g>
				<g id="&lt;Group&gt;">
					<path id="&lt;Path&gt;" class="s4" d="m722.6 1044.2l0.2 173.4-37.5 0.1-0.2-173.4z"/>
				</g>
				<g id="&lt;Group&gt;">
					<path id="&lt;Path&gt;" class="s4" d="m670.1 1109.8l0.1 107.9-37.5 0.1-0.1-107.9z"/>
				</g>
			</g>
			<g id="&lt;Group&gt;">
				<path id="&lt;Path&gt;" class="s0" d="m482.9 1258.8h-144.4v-144.4h144.4z"/>
			</g>
			<g id="&lt;Group&gt;">
				<g id="&lt;Group&gt;">
					<g id="&lt;Group&gt;">
						<g id="&lt;Group&gt;">
							<path id="&lt;Compound Path&gt;" fill-rule="evenodd" class="s3" d="m376 1227.6c-0.9-0.7-1.5-1.7-1.6-2.8-0.1-1.1 0.2-2.2 0.9-3.1l13.4-17.1c0.8-1 1.9-1.5 3.1-1.6l9.8-12.4c-4.4-4.3-7.1-9.9-7.9-16-0.8-7.1 1.2-14.1 5.6-19.7 4.4-5.6 10.8-9.2 17.9-10 7-0.9 14 1.1 19.6 5.5 5.7 4.5 9.2 10.8 10 17.9 0.9 7.1-1.1 14.1-5.5 19.7-8.5 10.8-23.8 13.2-35.2 6.1l-9.9 12.4c0.2 1.2 0 2.4-0.8 3.4l-13.5 17c-1.4 1.9-4.1 2.2-5.9 0.7zm23.4-53.7c0.6 5.6 3.4 10.6 7.8 14.1 9.2 7.2 22.5 5.6 29.7-3.5 3.4-4.4 5-10 4.3-15.6-0.6-5.5-3.4-10.5-7.8-14-4.5-3.5-10-5.1-15.6-4.4-5.6 0.6-10.6 3.4-14.1 7.9-3.4 4.4-5 9.9-4.3 15.5z"/>
						</g>
					</g>
				</g>
			</g>
			<g id="&lt;Group&gt;">
				<path id="&lt;Path&gt;" class="s3" d="m405.8 1297.1h-67.3v-26.6h67.3z"/>
			</g>
		</g>
	</g>
	<g id="CHARACTER">
		<g id="&lt;Group&gt;">
			<g id="&lt;Group&gt;">
				<path id="&lt;Path&gt;" class="s2" d="m1923.8 1800.5c0 0-103.3 64.1-143.4-15.6 0 0-59.6-34.6-45.7-105.9 0 0-9.2-19.9-17.9-50.4q0 0 0 0c-4.3-14.8-8.3-31.9-11.2-50.5 0 0-2.1 38.3 7.3 101.5q0 0.1 0 0.2 0 0.2 0.1 0.5 0 0.3 0.1 0.6c6.6 44.2 18.9 100.5 41.4 164.3h-729.7c0 0 0.4-132.1 3.1-209.9l-33.8 57.9c0 0 13.6 129.6-98.8 127.2-140.9-3.1-146.9-150.3-88.9-192.1l-2.3-11.5c-1.4-6.5 1.1-13.3 6.4-17.4l6.5-4.9c0 0 10.7-89.2 71.7-145 0 0 108-291.5 136.7-288.3 7.8-21 82.8-20 210.1-54.8 0 0 17.4-38.8 51.7-52.3 42.1-16.7 95.3-8 215.5-8.1 30.4 0 61.6 57.4 61.6 57.4 83.8 53.3 211.8 46.6 208.8 66.3 10.5-11.5 57.3 76.3 85.6 237.1 0 0 60.6 33.7 68.3 166.4l20 75.7c0 0 55.5 95.9-23.2 151.6z"/>
			</g>
			<g id="&lt;Group&gt;">
				<path id="&lt;Path&gt;" class="s7" d="m1331.2 1418.1c0 0 39-90.1-30.2-110.1 0 0-33.2-36.5-17.7-210.5 0 0 201.8-0.6 223.1 27.5 0 0 10.2 123.4-30.8 219.4 0 0-38.2 24.4-68.1 73.7 0 0-40 21.8-76.3 0z"/>
			</g>
			<g id="&lt;Group&gt;">
				<path id="&lt;Path&gt;" class="s4" d="m1458.3 1845.2h-218l25.2-188.3c4.3-29 10.8-57.6 19.3-85.7l20.2-66.5q0.3-1 0.4-1.4l25.8-85.2c0 0 40.2 12.9 76.3 0-0.2 0.2-3.4 4.7-7.4 11.4-8.4 13.9-11.9 30.2-9.9 46.2 3.6 30.7 11.2 89.9 21.9 155.9 4.9 30 10.5 61.4 16.6 92.2 8.7 43.6 18.6 86 29.6 121.4z"/>
			</g>
			<g id="&lt;Group&gt;">
				<g id="&lt;Group&gt;">
					<path id="&lt;Path&gt;" class="s8" d="m1159.3 983.1c0 0-49.5 36.1-32.9 75.5 0 0 0.9-11.1 5.8-15.4 0 0-3.8 25.2 15.9 36.7 0 0-8.4-28.9 17-43.1 0 0 8.9 17.7 28.2 13 0 0-3.5 5.9-15.3 6.7 0 0 21.7 11.8 45.7-2.4 0 0 24.7 18.8 60.6 2.1h240.4c19.1-59.5 93.6-350.5-103.9-442.2 0 0-285.4 90.3-274.4 214.5 10.9 124.2 12.9 154.6 12.9 154.6z"/>
				</g>
				<g id="&lt;Group&gt;">
					<g id="&lt;Group&gt;">
						<g id="&lt;Group&gt;">
							<path id="&lt;Path&gt;" class="s7" d="m1283.3 932.7v242.6h223.1v-242.6z"/>
						</g>
						<g id="&lt;Group&gt;">
							<path id="&lt;Path&gt;" class="s7" d="m1360.1 1088.8c82.1 0 148.6-66.6 148.6-148.7v-181.5c0-82.1-66.5-148.6-148.6-148.6-82.1 0-148.6 66.5-148.6 148.6v181.5c0 82.1 66.5 148.7 148.6 148.7z"/>
						</g>
						<g id="&lt;Group&gt;">
							<path id="&lt;Path&gt;" class="s2" d="m1283.3 1067.5v30c18.9 1.4 49.4 2.1 76.8-11.5-22.3 5.3-58.1-6.1-76.8-18.5z"/>
						</g>
					</g>
					<g id="&lt;Group&gt;">
						<g id="&lt;Group&gt;">
							<g id="&lt;Group&gt;">
								<path id="&lt;Path&gt;" class="s8" d="m1248.2 843.4c0 7.4 6 13.4 13.4 13.4 7.4 0 13.4-6 13.4-13.4 0-7.4-6-13.3-13.4-13.3-7.4 0-13.4 5.9-13.4 13.3z"/>
							</g>
							<g id="&lt;Group&gt;">
								<path id="&lt;Path&gt;" class="s8" d="m1241.8 820.4c3.6-3.5 8-6.2 12.7-8 4.7-1.9 9.8-2.9 14.9-2.8 1.2-0.1 2.5 0.2 3.8 0.3l1.9 0.2c0.6 0.1 1.2 0.3 1.8 0.4 1.3 0.3 2.5 0.6 3.7 0.9q1.8 0.6 3.6 1.3l1.7 0.7 1.7 0.9 3.3 1.8c2.1 1.3 4.2 2.8 6.2 4.3-2.3-1.1-4.4-2.5-6.6-3.6l-3.3-1.5-1.7-0.8-1.8-0.6q-1.7-0.5-3.5-1.1c-1.2-0.3-2.4-0.5-3.6-0.8-0.6-0.1-1.2-0.2-1.8-0.3l-1.8-0.2c-1.2-0.1-2.4-0.3-3.7-0.2-4.8-0.2-9.7 0.7-14.4 2.3-1.1 0.3-2.3 0.8-3.4 1.3q-1.7 0.7-3.4 1.6-3.3 1.7-6.3 3.9z"/>
							</g>
						</g>
						<g id="&lt;Group&gt;">
							<g id="&lt;Group&gt;">
								<path id="&lt;Path&gt;" class="s8" d="m1387 842.7c0 7.4 6 13.4 13.4 13.4 7.4 0 13.3-6 13.3-13.4 0-7.4-5.9-13.4-13.3-13.4-7.4 0-13.4 6-13.4 13.4z"/>
							</g>
							<g id="&lt;Group&gt;">
								<path id="&lt;Path&gt;" class="s8" d="m1379.2 822.2c3.6-3.5 8-6.2 12.7-8 4.7-1.9 9.8-2.9 14.9-2.8 1.2-0.1 2.5 0.2 3.8 0.3l1.8 0.2c0.7 0.1 1.3 0.3 1.9 0.4 1.2 0.3 2.5 0.6 3.7 0.9q1.8 0.7 3.5 1.4l1.8 0.6 1.7 0.9 3.3 1.8c2.1 1.4 4.1 2.9 6.1 4.3-2.2-1.1-4.3-2.5-6.5-3.6l-3.4-1.5-1.6-0.8-1.8-0.6q-1.8-0.5-3.5-1.1c-1.2-0.3-2.4-0.5-3.6-0.8-0.6-0.1-1.2-0.2-1.8-0.3l-1.8-0.2c-1.2 0-2.4-0.3-3.7-0.2-4.9-0.2-9.7 0.7-14.4 2.3-1.2 0.3-2.3 0.8-3.4 1.3q-1.7 0.7-3.4 1.6-3.3 1.7-6.3 3.9z"/>
							</g>
						</g>
						<g id="&lt;Group&gt;">
							<path id="&lt;Path&gt;" class="s8" d="m1323.7 889.7c-0.5 5.8-1.1 11.5-1.8 17.3-0.6 5.7-1.4 11.5-2.2 17.2-0.4 2.9-0.9 5.7-0.7 8.5 0.2 2.8 0.8 5.5 1.9 8.1 1.1 2.6 2.8 5 5.2 6.5 2.4 1.6 4.8 3.1 7.2 4.7-2.6-1.3-5.1-2.7-7.7-4-2.6-1.5-4.5-4-5.8-6.6-1.4-2.7-2.1-5.7-2.3-8.6-0.3-3 0.2-6 0.5-8.8 0.9-5.8 1.7-11.5 2.7-17.2 0.9-5.7 1.9-11.4 3-17.1z"/>
						</g>
						<g id="&lt;Group&gt;">
							<path id="&lt;Path&gt;" class="s8" d="m1241.8 773.2c0.1-3.1 1-5.9 2.3-8.5q1-1.9 2.3-3.7 0.7-0.9 1.4-1.7c0.5-0.6 0.9-1.2 1.5-1.6 4.1-4.2 9.7-7.2 15.6-8.3 1.4-0.4 3-0.4 4.4-0.6l2.3-0.1c0.7 0 1.5 0.1 2.2 0.2 1.5 0.1 2.9 0.3 4.4 0.5 1.4 0.4 2.8 0.9 4.2 1.4q1 0.3 2 0.7c0.6 0.4 1.2 0.7 1.9 1.1q1.8 1 3.6 2.3c1.1 0.8 2.1 1.9 3.1 2.9q1.5 1.6 2.8 3.5c-3.1 0.8-5.7 1.1-8.2 1.4q-1.9 0.3-3.7 0.5c-0.6 0.1-1.1 0.1-1.7 0.2-0.6 0.1-1.2 0.2-1.7 0.3-1.1 0.2-2.2 0.3-3.3 0.4-1 0.2-2 0.4-3.1 0.5-0.5 0.1-1 0.1-1.5 0.2q-0.7 0.2-1.4 0.4l-1.5 0.2q-0.8 0.1-1.5 0.3c-3.9 0.7-7.6 1.8-11.9 2.9-4.3 1.2-8.7 2.8-14.5 4.6z"/>
						</g>
						<g id="&lt;Group&gt;">
							<path id="&lt;Path&gt;" class="s8" d="m1381.2 764.8c1-2.9 2.9-5.2 5-7.2q1.6-1.5 3.4-2.7 0.9-0.6 1.9-1.2c0.6-0.3 1.3-0.7 1.9-1 5.4-2.4 11.6-3.4 17.5-2.4 1.5 0.1 3 0.6 4.4 1l2.2 0.6c0.7 0.3 1.3 0.6 2 0.9 1.3 0.6 2.7 1.3 3.9 2 1.2 0.9 2.4 1.8 3.5 2.7q0.8 0.7 1.6 1.4c0.5 0.5 1 1.1 1.4 1.6q1.4 1.7 2.7 3.4c0.7 1.2 1.3 2.6 1.9 3.9q0.9 2 1.4 4.2c-3.2-0.3-5.7-0.9-8.2-1.5q-1.9-0.3-3.6-0.7c-0.6-0.1-1.1-0.3-1.7-0.5-0.6-0.1-1.1-0.1-1.7-0.3-1.1-0.2-2.1-0.4-3.2-0.7-1-0.2-2.1-0.3-3.1-0.5-0.5-0.1-0.9-0.3-1.4-0.4q-0.8-0.1-1.5-0.2l-1.5-0.2q-0.7-0.2-1.5-0.3c-3.9-0.6-7.8-0.9-12.2-1.3-4.4-0.3-9.1-0.4-15.1-0.6z"/>
						</g>
					</g>
				</g>
				<g id="&lt;Group&gt;">
					<path id="&lt;Path&gt;" class="s8" d="m1414 632c0 0-38-13.8-94 31.9-55.9 45.7-94.7 126.1-156.3 159.6 0 0-18.8 143.4 46.9 183.8 0 0-51.2 9.5-64.8-58.9 0 0-75.2-65.7 54.9-296.9 22.4-53 179.8-172.7 343.6-47.4 0 0 80.3 43.4 103.6 195.1 0 0 69.4 208.4-98.2 252 0 0-48.5 47.8-89.3 13.3 0 0 28.6-9 38.7-22 0 0-55.1 25.9-85.8 2.3 0 0 66-10.4 84.5-42.1 0 0-29.8 30.1-58.3-1.6 0 0 120-7.7 100.8-170.4 0 0-86 40.8-97-60.3-10.6-97.8-29.3-138.4-29.3-138.4z"/>
				</g>
				<g id="&lt;Group&gt;">
					<path id="&lt;Path&gt;" class="s8" d="m1145.7 948.6c-12-6.9-21.4-18-27.8-30.3-6.5-12.5-9.6-26.5-10-40.4-0.1-13.9 2.2-27.6 5.7-40.9 3.5-13.3 7.8-26.3 13-39l4-9.5q2.1-4.7 4.3-9.4c2.9-6.2 5.7-12.4 8.7-18.6 5.9-12.3 11.7-24.7 17.8-36.9 6.2-12.2 12.4-24.4 18.9-36.4 6.5-12.1 13-24.1 20.1-35.8l0.5 0.2c-11.3 24.9-22.7 49.8-34.7 74.4-12 24.5-24.7 48.8-37.1 73.1-5.9 12.2-10.9 25-13.9 38.3-0.8 3.3-1.3 6.7-2 10l-0.6 5.1c-0.2 1.7-0.4 3.3-0.5 5-0.5 6.8-0.5 13.6-0.1 20.3 0.5 6.7 1.4 13.3 2.9 19.8 1.5 6.5 3.6 12.9 6.4 19 2.8 6 6.3 11.8 10.4 17.2 2.1 2.6 4.3 5.2 6.6 7.6 2.4 2.4 4.9 4.7 7.6 6.7z"/>
				</g>
				<g id="&lt;Group&gt;">
					<path id="&lt;Path&gt;" class="s8" d="m1414.2 631.9c4.9 11.3 8.5 23.1 11.5 35 1.5 6 2.9 12 4 18 1.3 6 2.2 12.1 3.1 18.1 0.8 6.1 1.5 12.2 2 18.3l0.8 9.2c0.2 3 0.4 6.1 0.6 9.1l3 36.6c0.3 3.1 0.5 6.1 0.9 9.1q0.5 4.5 1.4 9c1.1 5.9 2.6 11.7 4.9 17.2 2.1 5.4 5.1 10.6 9.1 14.7 3.9 4.2 8.7 7.4 14.1 9.4 5.4 2 11.2 3 17.1 3.2 5.9 0.3 11.9-0.1 17.9-0.9 11.9-1.5 23.8-4.4 35.7-7.4l0.1 0.4c-11.3 4.7-23 8.7-35.2 11-6.1 1.2-12.3 1.9-18.6 1.9-6.3-0.1-12.8-0.9-18.9-3.2-3-1.2-5.9-2.7-8.7-4.5-2.7-1.8-5.1-4-7.3-6.5-4.3-4.8-7.4-10.6-9.6-16.5-2.1-6-3.4-12.1-4.1-18.3-0.8-6.1-0.9-12.4-1-18.4-0.3-12.3-1.1-24.5-2.6-36.6-0.4-3-0.9-6-1.3-9l-1.4-9.1c-0.9-6-2.2-12-3.1-18-4.1-24-8.5-48-14.9-71.6z"/>
				</g>
				<g id="&lt;Group&gt;">
					<path id="&lt;Path&gt;" class="s9" d="m1211.5 785.6c-3.1 4.1-6.5 8-10.1 11.7-3.6 3.7-7.4 7.1-11.4 10.4-4 3.2-8.1 6.2-12.5 8.9-4.4 2.7-9 5.1-13.8 6.9 4.1-3 8.2-6 12.3-9 4-3.1 8-6.2 11.9-9.4 4-3.2 7.9-6.5 11.8-9.7 3.8-3.3 7.7-6.6 11.8-9.8z"/>
				</g>
				<g id="&lt;Group&gt;">
					<path id="&lt;Path&gt;" class="s9" d="m1413.9 631.7c-9.9-1.5-20.1-0.7-29.9 0.8-9.9 1.6-19.6 4.3-29 7.7-19.1 6.3-37 16.4-52.5 29.3-7.9 6.4-15.4 13.1-22.8 20-7.4 6.8-14.6 13.9-22 20.9-14.7 13.8-29.6 27.7-46.1 39.5l-0.2-0.3c15.1-13.4 29.4-27.7 43.9-41.8q10.9-10.6 22.3-20.7c7.6-6.7 15.5-13.1 23.7-19 2.1-1.5 4.1-3 6.3-4.4l3.1-2.2q1.6-1.1 3.2-2.1c2.1-1.3 4.2-2.7 6.4-4.1l6.5-3.9 3.3-2 3.3-1.8c2.2-1.2 4.5-2.5 6.7-3.7 4.6-2.2 9.1-4.5 13.9-6.3 9.5-3.8 19.4-6.4 29.6-7.7 10.1-1.2 20.6-1.3 30.4 1.5z"/>
				</g>
				<g id="&lt;Group&gt;">
					<path id="&lt;Path&gt;" class="s9" d="m1439.5 1000.9c18.2-3.2 35.5-10.4 50.7-20.6 7.6-5 14.8-10.9 20.9-17.8 6.1-7 11-14.9 14.8-23.3 7.8-16.7 11.7-34.9 13.6-53.1 2.1-18.3 1.7-36.9 0.7-55.4h0.3q1.1 6.9 2 13.8c0.4 4.6 0.8 9.3 1.1 13.9 0.2 4.7 0.2 9.3 0.3 14l-0.4 7c-0.1 2.3-0.1 4.7-0.4 7l-0.9 7c-0.1 1.1-0.2 2.3-0.4 3.5l-0.7 3.4-1.4 6.9-1.8 6.8c-0.3 1.1-0.5 2.3-0.9 3.4l-1.1 3.3c-0.8 2.2-1.5 4.5-2.4 6.6q-1.3 3.3-2.8 6.5c-0.9 2.1-2.1 4.1-3.2 6.2-4.4 8.2-9.6 16-15.6 23.2-5.9 7.1-12.6 13.8-20.1 19.4-7.6 5.5-16.1 9.8-24.9 13-8.8 3.2-18.1 5.3-27.4 5.6z"/>
				</g>
				<g id="&lt;Group&gt;">
					<path id="&lt;Path&gt;" class="s9" d="m1217.8 1001.3c-8.2 2.5-17 3.1-25.6 2-4.3-0.6-8.5-1.7-12.6-3.3-4.1-1.6-8-3.7-11.5-6.4-7.1-5.2-12.5-12.5-16-20.4-3.6-7.9-5.6-16.3-6.3-24.8 2.1 8.2 4.7 16.3 8.6 23.7 0.9 1.9 2.1 3.6 3.1 5.4 0.6 0.9 1.2 1.7 1.8 2.5 0.6 0.9 1.2 1.7 1.9 2.5 2.6 3.2 5.6 6 8.9 8.5 6.5 5 14.4 8.1 22.5 9.7 8.2 1.6 16.7 1.7 25.2 0.6z"/>
				</g>
				<g id="&lt;Group&gt;">
					<path id="&lt;Path&gt;" class="s9" d="m1167 780.5c-1.1 9.9-1.9 19.8-2.4 29.7q-0.8 14.9-1 29.8c-0.2 19.9 0.5 39.7 2.9 59.4 1.2 9.8 2.9 19.6 5.1 29.2 2.2 9.6 5.1 19.1 8.9 28.2 3.8 9.1 8.5 17.8 14.7 25.5 6.1 7.8 13.8 14.3 22.6 19-9.2-4-17.2-10.4-23.8-17.9-6.6-7.6-11.8-16.4-15.9-25.6-8.2-18.4-12.4-38.2-14.9-58-2.3-19.9-2.9-39.9-2.2-59.8 0.7-20 2.6-39.9 6-59.5z"/>
				</g>
				<g id="&lt;Group&gt;">
					<path id="&lt;Path&gt;" class="s9" d="m1410.3 627c-3-1.8-6.4-3.1-9.8-4-3.3-0.9-6.8-1.2-10.3-1.5-6.9-0.3-13.9 1-20.5 3.1-3.4 0.8-6.6 2.3-9.9 3.6l-1.2 0.5-1.2 0.6-2.3 1.2-4.8 2.4c-3 1.8-6.1 3.5-9.1 5.4-3 1.9-5.9 3.9-9 5.8 2.6-2.4 5.3-4.8 8-7.2 2.9-2.2 5.9-4.2 8.8-6.3 1.6-0.9 3.1-1.8 4.7-2.7l2.4-1.3 1.2-0.7 1.2-0.5c3.4-1.5 6.7-3 10.2-4 7-2.1 14.4-3.3 21.7-2.5 3.6 0.5 7.3 1.2 10.6 2.6 3.4 1.3 6.7 3.1 9.3 5.5z"/>
				</g>
				<g id="&lt;Group&gt;">
					<path id="&lt;Path&gt;" class="s9" d="m1419.3 616.7c6.6-7 14.3-12.9 22.6-17.8 8.3-4.9 17.3-8.8 26.7-11.2 9.4-2.4 19.2-3.3 28.9-2.3 9.7 0.9 19 4.1 27.5 8.5-4.6-1.5-9-3.1-13.7-4-2.3-0.6-4.7-0.9-7-1.3l-3.5-0.3q-1.7-0.3-3.5-0.3c-4.7-0.3-9.4-0.1-14.1 0.4-4.6 0.4-9.2 1.3-13.8 2.5-9.1 2.3-17.9 5.9-26.2 10.2q-6.3 3.4-12.3 7.2c-4 2.6-7.9 5.4-11.6 8.4z"/>
				</g>
				<g id="&lt;Group&gt;">
					<path id="&lt;Path&gt;" class="s9" d="m1533.2 822.7c-2.2-4.7-4.2-9.5-6.3-14.4q-2.9-7.2-5.7-14.6c-3.6-9.8-7-19.7-10.1-29.7-3-10-5.6-20.1-8.1-30.2l-7.6-30.4c-2.5-10.2-5.4-20.2-8.1-30.3-2.9-10-5.8-20-9.3-29.7-1.7-4.9-3.5-9.8-5.6-14.5-2.1-4.7-4.3-9.3-7.2-13.5-2.9-4.2-6.3-8.1-10.6-10.6-2.2-1.3-4.6-2.2-7.1-2.7-2.5-0.6-5.1-0.6-7.6-0.4l-0.1-0.3c5.1-1.2 10.8-0.7 15.6 1.8 4.9 2.4 8.9 6.3 12 10.6 6.4 8.6 10.5 18.5 14 28.4 1.7 5 3.2 10 4.6 15 1.4 5.1 2.8 10.1 4 15.2 2.5 10.2 4.4 20.5 6.6 30.7 4.3 20.4 10.9 40.2 17.4 60.1 6.2 19.8 12.7 39.6 19.5 59.4z"/>
				</g>
				<g id="&lt;Group&gt;">
					<path id="&lt;Path&gt;" class="s9" d="m1513.1 636.5c12 14.4 21.2 31 29 48.1 7.7 17.2 13.6 35.1 18.2 53.4 1 4.6 1.9 9.2 2.9 13.8 0.4 2.3 1 4.6 1.4 6.9l1 7c0.6 4.7 1.4 9.3 1.9 14l1.2 14.1 0.5 7 0.2 7 0.2 14.1c0.1 2.4-0.1 4.7-0.2 7l-0.4 7.1q-0.3 7-0.8 14-0.1-7-0.1-14v-7.1c0-2.3 0.1-4.6-0.1-7l-0.8-14-0.4-7-0.7-6.9-1.5-14c-0.6-4.6-1.4-9.2-2.1-13.8l-1.1-6.9c-0.4-2.3-0.9-4.6-1.4-6.8-1-4.6-1.9-9.2-2.9-13.7-4.5-18.1-10.2-35.9-17.4-53.1l-2.7-6.5-3-6.3c-1-2.1-1.9-4.3-3-6.3l-3.2-6.2c-4.4-8.3-9.2-16.3-14.7-23.9z"/>
				</g>
				<g id="&lt;Group&gt;">
					<path id="&lt;Path&gt;" class="s9" d="m1413.9 622.7c2.1-1.1 4.7-1.2 7-0.4 2.3 0.7 4.3 2.2 5.9 4 1.6 1.8 2.9 3.8 4 5.9q1.7 3.1 2.8 6.4c3.3 8.8 4.5 18.1 5.8 27.1 1.3 9.1 2.4 18.2 4.1 27.2 1.7 9 3.8 17.9 6.4 26.7 5.2 17.6 11 34.9 18.5 51.6 7.2 16.7 16 32.7 26.6 47.7l-0.3 0.3c-12.2-13.8-22-29.8-29.6-46.6-3.8-8.4-7-17.1-9.8-25.9-2.8-8.7-5.2-17.7-7.1-26.6-2-9-3.8-18-5.8-27-1.9-9-4-17.9-5.7-27-0.9-4.5-1.6-9-2.3-13.5-0.8-4.4-1.8-8.9-3.2-13.2-1.4-4.2-3.1-8.4-5.8-11.9-1.3-1.8-2.9-3.3-4.9-4.2-2-0.9-4.4-1.1-6.4-0.3z"/>
				</g>
				<g id="&lt;Group&gt;">
					<path id="&lt;Path&gt;" class="s9" d="m1427.9 609.5c-5-8.8-13.3-15.2-22.4-18.7-9.3-3.5-19.4-4.1-29.2-2.9-9.8 1.1-19.5 4-28.9 7.5-9.3 3.5-18.5 7.7-27.6 12.2 8.4-5.6 17.3-10.6 26.7-14.6 4.6-2.1 9.5-3.8 14.4-5.3 4.9-1.3 9.9-2.5 15-3.1 5.2-0.5 10.4-0.7 15.5-0.1 5.2 0.6 10.3 1.8 15 3.9 4.8 2 9.2 5 12.9 8.6 1.8 1.8 3.5 3.8 4.9 5.8 1.5 2.1 2.8 4.4 3.7 6.7z"/>
				</g>
				<g id="&lt;Group&gt;">
					<path id="&lt;Path&gt;" class="s9" d="m1310.7 614.1c-13.9 11.5-26.4 24.3-38.2 37.8-3 3.3-5.9 6.7-8.7 10.2-1.5 1.7-2.8 3.5-4.2 5.2-1.3 1.9-2.7 3.6-4 5.5-5.1 7.4-9.5 15.3-13.3 23.4-0.9 2-1.8 4-2.8 6.1l-2.6 6.1c-1.8 4.2-3.5 8.4-5.5 12.4-4 8.2-8.3 16.2-13.1 23.8-5 7.6-10.4 14.9-16.5 21.7-6.1 6.6-12.6 13-20.4 17.8l-0.2-0.3c7.1-5.6 13.1-12.3 18.7-19.2 5.5-7 10.6-14.3 15.4-21.9 2.3-3.8 4.7-7.6 6.8-11.5 2.3-3.8 4.4-7.8 6.4-11.8 1.1-1.9 2-4 3-6l3-6q1.4-3.1 3-6.1c1-2 2.1-4 3.2-6 4.4-7.9 9.1-15.5 14-23.1 5-7.6 10-15 15.7-22.1 5.7-7.1 11.9-13.6 18.6-19.7 6.7-6.1 13.8-11.8 21.5-16.6z"/>
				</g>
				<g id="&lt;Group&gt;">
					<path id="&lt;Path&gt;" class="s9" d="m1494.8 591c6.8 0.6 13.5 2.5 19.8 5.5 6.1 3.1 12 7 16.9 11.8 10.3 9.3 18.3 20.7 25.2 32.6l1.3 2.2 1.2 2.3 2.4 4.5 2.3 4.6 2.2 4.6c1.4 3.2 2.9 6.3 4.2 9.4l3.8 9.5c0.6 1.6 1.3 3.2 1.9 4.8l1.7 4.8 3.3 9.7c1.1 3.3 2 6.6 3 9.8q1.5 4.9 2.9 9.8c-2.6-6.3-4.9-12.7-7.4-19l-3.8-9.5-1.9-4.7c-0.7-1.6-1.4-3.1-2.1-4.7l-4.1-9.3c-1.4-3.1-2.9-6.1-4.3-9.2l-2.2-4.6-2.4-4.5-2.4-4.5-1.2-2.2-1.3-2.2c-6.7-11.7-14.4-22.9-24-32.3-1.2-1.2-2.4-2.4-3.7-3.5l-3.9-3.2c-1.3-1.1-2.7-1.9-4.1-2.9-1.4-0.9-2.8-1.9-4.3-2.6-5.8-3.4-12.3-5.7-19-7z"/>
				</g>
				<g id="&lt;Group&gt;">
					<path id="&lt;Path&gt;" class="s9" d="m1596.8 738l10.7 27.4c3.5 9.2 7.2 18.3 10.7 27.5 3.5 9.1 7.1 18.3 11.4 27.1 2.1 4.4 4.4 8.8 6.4 13.3l1.6 3.4 1.4 3.4c1 2.3 1.8 4.6 2.7 6.9 3.3 9.3 5.6 19.1 7 28.9 0.7 4.9 1.1 9.9 1.4 14.8 0.1 5 0.1 9.9-0.1 14.9-0.5 9.9-1.9 19.7-3.8 29.4-1 4.9-2.1 9.7-3.2 14.5-1.1 4.8-2.2 9.5-2.9 14.4l-0.4-0.1c0.2-4.9 1-9.8 1.7-14.6 0.8-4.9 1.6-9.8 2.3-14.6 1.4-9.7 2.4-19.4 2.8-29.2 0.3-9.7 0.1-19.4-1-29.1-1.2-9.7-3.2-19.2-5.9-28.6-1.4-4.7-3-9.3-4.8-13.8-0.9-2.3-2-4.6-3-6.8-1-2.2-2.1-4.4-3.1-6.6-4.2-8.9-8.7-17.7-12.8-26.7-4.2-8.9-7.6-18.2-10.9-27.4-3.3-9.3-6.2-18.8-8.6-28.3z"/>
				</g>
				<g id="&lt;Group&gt;">
					<path id="&lt;Path&gt;" class="s9" d="m1535.6 601.4c8.3 7 15.8 15 22.7 23.3 6.9 8.4 13.3 17.3 18.8 26.7 2.6 4.7 5.2 9.5 7.5 14.5 0.6 1.2 1.2 2.4 1.8 3.6l1.6 3.8c1.1 2.5 2.2 4.9 3.2 7.4l12.6 30c4.3 9.9 8.3 20 12.2 30.1l11.8 30.2 5.7 15.1 2.9 7.6 3 7.5c2.1 5 4 10 6.3 14.9 2.2 5 4.5 9.8 7.2 14.5l-0.2 0.2c-3.2-4.4-6-9.1-8.5-13.9-2.5-4.8-4.9-9.7-7.2-14.6-4.4-9.9-8.6-19.9-12.5-30-4-10.1-7.7-20.3-11.4-30.4-3.8-10.2-7.3-20.4-11-30.6-3.7-10.1-7.5-20.3-11.9-30.1-4.4-9.9-9.7-19.3-15.5-28.4-5.7-9.1-11.8-17.9-18.4-26.5-6.5-8.5-13.5-16.8-20.9-24.6z"/>
				</g>
				<g id="&lt;Group&gt;">
					<path id="&lt;Path&gt;" class="s9" d="m1557.2 1014.1c5.3-3.8 9.4-8.9 12.9-14.2 3.4-5.3 6.4-11.1 9-16.9 2.7-5.9 5-11.9 7.3-17.9 2.2-6.1 4.3-12.2 6.3-18.4-0.7 6.5-2.1 12.9-3.9 19.2-1.7 6.3-4 12.4-6.7 18.5-1.3 2.9-2.8 5.9-4.4 8.8-1.7 2.8-3.5 5.6-5.5 8.2-4 5.2-8.9 10.1-15 12.7z"/>
				</g>
				<g id="&lt;Group&gt;">
					<path id="&lt;Path&gt;" class="s9" d="m1573 958.6c2.2 0.6 4.4 1 6.4 0.7 2-0.2 3.8-1 5.3-2.3 0.8-0.5 1.5-1.4 2.2-2.1 0.7-0.8 1.3-1.7 2-2.5 0.6-1 1.3-1.9 1.9-2.8 0.6-1 1.2-2 1.9-2.9 0 1.1-0.2 2.3-0.4 3.5-0.3 1.2-0.7 2.3-1.1 3.4-0.2 0.6-0.5 1.1-0.8 1.7-0.4 0.5-0.6 1-1 1.5-0.8 1-1.5 2-2.6 2.8-2 1.7-4.8 2.6-7.4 2.3-2.6-0.2-4.9-1.5-6.4-3.3z"/>
				</g>
				<g id="&lt;Group&gt;">
					<path id="&lt;Path&gt;" class="s9" d="m1563 758.2c4.8 7.5 8.8 15.4 12.5 23.5 3.7 8.1 7 16.4 9.7 24.8 2.6 8.5 4.7 17.2 6.7 25.8 2 8.6 3.9 17.3 5.4 26 1.6 8.8 2.4 17.7 2.4 26.6 0.2 4.5-0.2 9-0.4 13.4l-0.8 6.7c-0.3 2.2-0.7 4.4-1.1 6.6-1.9 8.8-4.7 17.4-8.8 25.4-4.1 7.9-9.3 15.3-15.5 21.7l-0.3-0.2c5.3-7.1 9.9-14.6 13.5-22.6 3.5-8 5.9-16.4 7.6-25 1.7-8.5 2.5-17.3 2.7-26 0.2-8.8-0.2-17.6-1.1-26.3-0.9-8.8-2.4-17.5-4.6-26.1-2.3-8.5-5.3-16.8-8.4-25.1-5.9-16.5-12.5-32.9-19.8-49z"/>
				</g>
				<g id="&lt;Group&gt;">
					<path id="&lt;Path&gt;" class="s9" d="m1499.1 1042.5c6.2-3.6 11.9-8.1 17.2-13 5.3-4.9 10.2-10.1 14.6-15.7 9-11.3 16.2-23.8 21.7-37 2.8-6.5 5.1-13.3 7.1-20.2 0.9-3.5 2-6.9 2.7-10.4l1.2-5.3 1-5.3c2.6-14.1 3.9-28.5 4.3-43 0.9 14.5 0.4 29.1-1.7 43.4l-0.8 5.4-1.1 5.4c-0.7 3.6-1.7 7.1-2.5 10.6-2 7.1-4.3 14-7.1 20.7-2.9 6.7-6.2 13.3-10 19.6-3.8 6.2-8 12.2-12.8 17.7-4.7 5.6-9.9 10.7-15.6 15.3-2.8 2.3-5.7 4.5-8.7 6.5-3.1 2-6.2 3.8-9.5 5.3z"/>
				</g>
				<g id="&lt;Group&gt;">
					<path id="&lt;Path&gt;" class="s9" d="m1170.9 754.5c0.5-6.8 1.5-13.5 2.6-20.1 1.1-6.6 2.5-13.2 4-19.8 1.5-6.6 3.2-13.1 5.2-19.5 2.1-6.5 4.3-12.9 7.3-19-1.7 6.6-3.2 13.1-4.8 19.6l-4.5 19.6c-3.1 13.1-6.1 26.2-9.8 39.2z"/>
				</g>
				<g id="&lt;Group&gt;">
					<path id="&lt;Path&gt;" class="s9" d="m1451.8 595.3c0.8-2.6 1-5.4 0.6-8-0.4-2.7-1.5-5.1-3-7.2-1.6-2-3.5-3.8-5.7-5.3l-3.5-2.2q-1.7-1-3.5-2c-4.8-2.5-9.9-4.6-15.1-6.6q-7.7-2.7-15.8-5c5.6 0.1 11.2 1.1 16.6 2.6 5.5 1.4 10.8 3.5 15.8 6.1q1.9 1.1 3.7 2.2c1.2 0.8 2.4 1.5 3.6 2.4 2.3 1.7 4.5 3.8 6 6.4 1.6 2.5 2.5 5.5 2.5 8.4 0 3-0.7 5.9-2.2 8.2z"/>
				</g>
				<g id="&lt;Group&gt;">
					<path id="&lt;Path&gt;" class="s9" d="m1483 586.8c-0.5-3.5-0.9-6.6-1.8-9.5-0.5-1.5-0.9-2.9-1.6-4.4-0.6-1.5-1.3-2.9-2-4.6 3.3 1.4 5.8 4.6 6.8 8.1 0.5 1.7 0.7 3.6 0.5 5.4-0.3 1.7-0.8 3.5-1.9 5z"/>
				</g>
				<g id="&lt;Group&gt;">
					<path id="&lt;Path&gt;" class="s9" d="m1627.2 904.4c-0.4 12.2-1.9 24.4-4.2 36.4-2.4 12-5.6 23.9-10.3 35.4-2.4 5.6-5.2 11.2-8.5 16.4-3.3 5.3-7.3 10.2-12.1 14.3-4.7 4-10.4 7.1-16.6 8.4-6.1 1.2-12.4 0.7-18.3-1.2 6 1.1 12.2 1.3 18-0.4 5.7-1.6 10.9-4.8 15.2-8.8 4.4-4 8.1-8.8 11.1-13.9 3.2-5.1 5.8-10.6 8.1-16.1 4.6-11.2 8-22.8 10.8-34.6q2.1-8.9 3.8-17.9c1.2-5.9 2.1-12 3-18z"/>
				</g>
				<g id="&lt;Group&gt;">
					<path id="&lt;Path&gt;" class="s9" d="m1186.7 1000.8c1 3.6 0.9 7.6 0.3 11.3-0.2 1-0.4 1.9-0.6 2.9l-0.9 2.7c-0.4 0.9-0.8 1.8-1.2 2.7-0.4 0.9-0.9 1.7-1.3 2.6-2.1 3.3-4.6 6.3-7.7 8.6-1.5 1.3-3.3 2.1-4.9 3.1-1.7 0.8-3.5 1.5-5.3 2.1 1.5-1.3 3-2.3 4.4-3.5 1.4-1.2 2.8-2.3 4-3.7 0.6-0.6 1.3-1.2 1.9-1.9l1.7-2.1c0.6-0.6 1.1-1.4 1.6-2.1 0.5-0.7 1-1.4 1.4-2.2 1.9-3 3.3-6.3 4.4-9.8q1.6-5.1 2.2-10.7z"/>
				</g>
				<g id="&lt;Group&gt;">
					<path id="&lt;Path&gt;" class="s9" d="m1239.6 1027.2c0.1 2.8-0.4 5.5-1.1 8.1-0.8 2.6-1.8 5.1-3.2 7.5-1.3 2.4-3 4.6-4.9 6.6-1.9 2-4.3 3.6-6.7 4.7 1.6-2.2 3.2-4.2 4.7-6.4 1.4-2.1 2.8-4.3 4-6.5q1.9-3.4 3.7-6.9z"/>
				</g>
				<g id="&lt;Group&gt;">
					<g id="&lt;Group&gt;">
						<g id="&lt;Group&gt;">
							<g id="&lt;Group&gt;">
								<path id="&lt;Path&gt;" class="s7" d="m1522.9 925.4h-7.7c-15.1 0-27.4-12.3-27.4-27.4v-48.8c0-15.1 12.3-27.4 27.4-27.4h7.7c15.1 0 27.3 12.3 27.3 27.4v48.8c0 15.1-12.2 27.4-27.3 27.4z"/>
							</g>
						</g>
						<g id="&lt;Group&gt;">
							<g id="&lt;Group&gt;">
								<path id="&lt;Path&gt;" class="s10" d="m1510.6 838.1c2.7-0.4 5.4-0.2 8 0.4 2.7 0.6 5.2 1.7 7.5 3.2 4.7 3 8.4 7.6 10.2 12.9 0.9 2.6 1.5 5.4 1.5 8.2-0.1 2.7-0.1 5.3-0.3 7.9-0.2 5.3-0.6 10.5-1.3 15.8-0.7-5.3-1-10.5-1.3-15.8-0.2-2.6-0.1-5.3-0.3-7.8-0.1-2.5-0.6-4.9-1.4-7.2-0.8-2.3-2-4.5-3.4-6.5-1.5-2-3.2-3.8-5.2-5.4-1.9-1.5-4.1-2.8-6.5-3.8-2.3-0.9-4.9-1.5-7.5-1.9z"/>
							</g>
						</g>
						<g id="&lt;Group&gt;">
							<g id="&lt;Group&gt;">
								<path id="&lt;Path&gt;" class="s10" d="m1520.8 894.1c-1.5-0.7-2.8-1.8-3.8-3-1-1.3-1.8-2.7-2.4-4.2-0.5-1.5-0.8-3.1-0.9-4.7 0-1.6 0.2-3.3 0.9-4.8 0.7 1.5 1.2 2.9 1.7 4.3l1.5 4 1.5 4c0.5 1.4 1 2.8 1.5 4.4z"/>
							</g>
						</g>
					</g>
				</g>
			</g>
			<g id="&lt;Group&gt;">
				<path id="&lt;Path&gt;" class="s11" d="m1366.1 977.9c-3.2 4.5-8.4 8-14 9.5-5.6 1.5-11.5 1-16.5-1-2.5-1-4.8-2.4-6.8-4.1-1-0.8-2-1.7-2.8-2.8-0.9-1-1.7-2.1-2.3-3.4 1.8-0.3 3.5-0.4 5-0.6q1.3-0.1 2.5-0.3 3.4-0.3 6.4-0.7c4-0.5 7.4-1.1 10.6-1.9 3.1-0.9 6.2-2 9.7-3.6q1.4-0.7 2.8-1.4 1.4-0.7 2.8-1.5 0.6-0.3 1.1-0.6 0.2-0.1 0.4-0.2 0.8-0.5 1.6-0.9 1.6-0.9 3.6-1.8c0.7 5.5-1 10.7-4.1 15.3z"/>
			</g>
			<g id="&lt;Group&gt;">
				<path id="&lt;Path&gt;" class="s5" d="m1364.6 965.5q-0.6 1.2-1.3 2.4c-3.1 5-8.6 8.9-14.6 10.4-6 1.6-12.3 1-17.4-1.4q-1.3-0.6-2.6-1.4 1.3-0.1 2.5-0.3 3.4-0.3 6.4-0.7c4-0.5 7.4-1.1 10.6-1.9 3.1-0.9 6.2-2 9.7-3.6q1.4-0.7 2.8-1.4 1.4-0.7 2.8-1.5 0.6-0.3 1.1-0.6z"/>
			</g>
			<g id="&lt;Group&gt;">
				<path id="&lt;Path&gt;" class="s2" d="m1534.6 919.6c0 8.4-6.8 15.1-15.2 15.1-8.4 0-15.2-6.7-15.2-15.1 0-8.4 6.8-15.2 15.2-15.2 8.4 0 15.2 6.8 15.2 15.2z"/>
			</g>
			<g id="&lt;Group&gt;" style="opacity: .4;mix-blend-mode: multiply">
				<path id="&lt;Path&gt;" class="s4" d="m1699.4 1483.7c-30.9 13.6-52.2 34.7-63.4 48-6.2 7.2-15.7 10.8-25 9.1-31.6-5.8-64.2-7.3-84.7-7.7 0 0 51.9 12.3 89.9 14.1 8.7 0.5 17.2-3.1 23.1-9.6 14.3-16 43.2-46.6 60.1-53.9z"/>
			</g>
			<g id="&lt;Group&gt;" style="opacity: .4;mix-blend-mode: multiply">
				<path id="&lt;Path&gt;" class="s4" d="m1488.2 1354.7c42.9-41.7 82.7 20.3 133.3 9.2-57.3 17.2-97.2-26.7-133.3-9.2z"/>
			</g>
			<g id="&lt;Group&gt;" style="opacity: .4;mix-blend-mode: multiply">
				<path id="&lt;Path&gt;" class="s4" d="m1283.8 1845.2h-43.5l25.2-188.3c4.3-29 10.8-57.6 19.3-85.7l20.2-66.5c-4.8 16.6-41 163.3-21.2 340.5z"/>
			</g>
			<g id="&lt;Group&gt;" style="opacity: .4;mix-blend-mode: multiply">
				<path id="&lt;Path&gt;" class="s4" d="m1169.1 1333.2c0 0 15.3 7.5 43.2-17 27.8-24.5 66.4-28.5 82.6-0.6-22.3-21.4-89.1 31.6-125.8 17.6z"/>
			</g>
			<g id="&lt;Group&gt;" style="opacity: .4;mix-blend-mode: multiply">
				<path id="&lt;Path&gt;" class="s4" d="m1019.2 1451c15.2 8.8 37.6 22.8 60.1 41 5.1 4.2 11.6 6.3 18.2 5.9l88.8-4.3-88.2 12.1c-7.8 1.1-15.8-1.2-21.8-6.3-29.6-24.9-57.1-48.4-57.1-48.4z"/>
			</g>
			<g id="&lt;Group&gt;" style="opacity: .4;mix-blend-mode: multiply">
				<path id="&lt;Path&gt;" class="s4" d="m1428.7 1723.8c0 0-24.5 37.1-86 57.7 0 0 79.7-30.3 69.4-149.9 4.9 30 10.5 61.4 16.6 92.2z"/>
			</g>
			<g id="&lt;Group&gt;" style="opacity: .4;mix-blend-mode: multiply">
				<path id="&lt;Path&gt;" class="s4" d="m911.9 1798.3c0 0-18 23.1-48.6 16.5-30.1-6.5 48.6-16.5 48.6-16.5z"/>
			</g>
			<g id="&lt;Group&gt;" style="opacity: .4;mix-blend-mode: multiply">
				<path id="&lt;Path&gt;" class="s4" d="m822.9 1602.6c0 0 65.7-8.8 125.7 39 0 0-23.9-20.4-47.8-36.2-8.6-5.7-18.7-8.4-28.9-7.8-11.6 0.7-29 2.1-49 5z"/>
			</g>
			<g id="&lt;Group&gt;" style="opacity: .4;mix-blend-mode: multiply">
				<path id="&lt;Path&gt;" class="s4" d="m1025.3 1526.6c0 0 3.4 58.6 2.6 108.7l-33.8 57.9c34-73.6 31.2-166.6 31.2-166.6z"/>
			</g>
			<g id="&lt;Group&gt;" style="opacity: .4;mix-blend-mode: multiply">
				<path id="&lt;Path&gt;" class="s4" d="m1754.5 1845.2h-87.1c67.3-33.2 48-147.4 45.7-164.3 6.6 44.2 18.9 100.5 41.4 164.3z"/>
			</g>
			<g id="&lt;Group&gt;" style="opacity: .4;mix-blend-mode: multiply">
				<path id="&lt;Path&gt;" class="s4" d="m1716.8 1628.6c-4.3-14.8-8.3-31.9-11.2-50.5 0 0 3.7-76 13.7-138.5 0 0-6.8 75.9-2.5 189z"/>
			</g>
			<g id="&lt;Group&gt;">
				<path id="&lt;Path&gt;" class="s4" d="m1294.9 1315.6l-2.2 11.7c-0.4 2-0.9 4-1.2 5.9-0.2 1.9 0.3 3.9 1.4 5.4 1 1.6 2.7 2.8 4.5 3.2 0.9 0.3 1.9 0.4 2.9 0.5q1.5 0.2 3 0.5c3.9 0.7 7.8 1.8 11.6 3.3 3.7 1.5 7.3 3.5 10.5 6q2.4 1.8 4.4 4.1c1.4 1.5 2.6 3.1 3.6 4.9 1.1 1.7 1.9 3.5 2.7 5.4 0.3 0.9 0.7 1.9 0.9 2.9l0.4 1.4 0.3 1.5c0.7 3.9 0.9 8 0.6 12 0.1-4-0.2-8-1.1-11.9l-0.3-1.5-0.5-1.4c-0.2-0.9-0.6-1.8-0.9-2.8-0.8-1.8-1.6-3.6-2.7-5.2-2.1-3.4-4.9-6.3-8-8.7-3.1-2.4-6.6-4.3-10.3-5.8-3.7-1.5-7.5-2.6-11.4-3.3q-1.4-0.3-2.9-0.5c-1-0.2-2-0.2-3-0.5-2.1-0.5-3.8-1.9-5-3.6-1.1-1.8-1.6-3.9-1.3-6 0.4-2 0.9-3.9 1.3-5.9z"/>
			</g>
			<g id="&lt;Group&gt;">
				<path id="&lt;Path&gt;" class="s4" d="m1169.2 1333.1c2.8 1 5.8 1.1 8.7 0.8 3-0.3 5.8-1.1 8.6-2 5.6-2 10.8-5 15.7-8.3 4.9-3.3 9.4-7.2 14.1-10.9 4.7-3.7 9.8-6.9 15.1-9.6 5.3-2.7 11-4.9 16.8-6.1 5.9-1.3 12-1.7 18-0.9 5.9 0.8 11.8 2.8 16.8 6.2 2.5 1.7 4.8 3.7 6.8 5.9 2 2.3 3.7 4.8 5.1 7.3l-0.1 0.1q-2.3-3.8-5.4-7c-2-2.2-4.4-4-6.8-5.6-5-3.3-10.7-5.1-16.5-5.9-5.9-0.7-11.9-0.4-17.7 0.8-5.8 1.2-11.4 3.2-16.8 5.6-5.3 2.6-10.5 5.7-15.1 9.4-2.4 1.8-4.5 3.9-6.8 5.8-2.2 2-4.7 3.8-7 5.6-4.9 3.4-10.2 6.3-15.9 8.3-2.9 0.9-5.8 1.6-8.8 1.8-3 0.2-6.1 0-8.9-1.2z"/>
			</g>
			<g id="&lt;Group&gt;">
				<path id="&lt;Path&gt;" class="s4" d="m1235.5 1106.5c-4.8 8.7-9.2 17.6-13.4 26.5q-6.4 13.5-12.2 27.3c-7.6 18.3-14.5 36.9-20.4 55.9-1.5 4.7-2.8 9.5-4.2 14.3-1.3 4.8-2.7 9.5-3.8 14.4-1.3 4.8-2.3 9.6-3.4 14.5-0.5 2.4-1 4.8-1.5 7.3l-0.7 3.6-0.7 3.7c-3.6 19.5-5.7 39.3-6.1 59.2 0.1-9.9 0.4-19.9 1.4-29.8 0.9-9.9 2.2-19.8 3.9-29.6q2.6-14.7 6.2-29.1c1.1-4.9 2.5-9.7 3.8-14.5 1.3-4.8 2.7-9.5 4.2-14.3 5.9-19 12.8-37.6 20.6-55.9 7.9-18.3 16.5-36.3 26.3-53.5z"/>
			</g>
			<g id="&lt;Group&gt;">
				<path id="&lt;Path&gt;" class="s4" d="m817 1603.3c14.5-2.1 29.3-1.7 43.8 0.3 7.2 0.9 14.4 2.4 21.5 4.2q10.7 2.8 20.9 6.9c13.7 5.4 26.6 12.6 38.5 21.2l4.3 3.3c0.8 0.6 1.5 1.1 2.2 1.7l2.1 1.8 4.2 3.5 4 3.7c2.8 2.5 5.2 5.2 7.8 7.8 1.3 1.3 2.5 2.7 3.7 4.1l3.6 4.1-3.7-4c-1.2-1.4-2.4-2.8-3.8-4-2.6-2.6-5.1-5.2-7.9-7.6l-4.1-3.7-4.2-3.4-2.1-1.8c-0.7-0.5-1.5-1.1-2.2-1.6l-4.4-3.3c-11.9-8.4-24.7-15.6-38.3-20.9q-10.2-4.1-20.8-6.9c-7-1.9-14.2-3.3-21.4-4.4-7.3-1-14.5-1.7-21.8-1.9-7.3-0.2-14.7-0.1-21.9 0.9z"/>
			</g>
			<g id="&lt;Group&gt;">
				<path id="&lt;Path&gt;" class="s4" d="m817 1594.5c9.1-6.8 19.1-12.4 29.4-17.2 10.4-4.7 21.2-8.5 32.3-11 5.6-1.2 11.3-2 16.9-2.5 5.7-0.6 11.4-0.6 17.1-0.2 5.7 0.4 11.4 1.4 16.9 2.8l4.1 1.1c1.4 0.4 2.7 0.9 4 1.4l2.1 0.7q1 0.4 1.9 0.8l4 1.7c-10.5-4.4-21.7-7.1-33-7.7-11.3-0.7-22.7 0.4-33.8 2.9q-8.3 1.8-16.3 4.5c-5.4 1.8-10.7 4-15.9 6.2q-7.7 3.5-15.2 7.6c-5 2.7-9.9 5.7-14.5 8.9z"/>
			</g>
			<g id="&lt;Group&gt;">
				<path id="&lt;Path&gt;" class="s4" d="m907.4 1616.9c8.6 5.1 15.9 12 22 19.9 6.1 7.9 10.9 16.7 14.8 25.9 3.9 9.1 6.8 18.8 8.6 28.6 1.9 9.7 2.8 19.7 2.5 29.7-0.3 10-1.7 19.9-4.5 29.5-2.8 9.6-7 18.8-12.7 27-5.7 8.2-12.9 15.4-21.1 21-8.3 5.6-17.5 9.7-27 12.5 9.5-3 18.6-7.2 26.7-12.9 8.1-5.7 15.2-12.9 20.7-21 5.6-8.2 9.8-17.3 12.5-26.8 2.7-9.6 4.1-19.4 4.4-29.3 0.6-19.8-3.2-39.7-10.8-58-3.7-9.2-8.5-17.9-14.5-25.9-5.9-7.9-13.1-15-21.6-20.2z"/>
			</g>
			<g id="&lt;Group&gt;">
				<path id="&lt;Path&gt;" class="s4" d="m931.1 1456.7c9.5 3 18.6 7 27.6 11.4 4.4 2.3 8.8 4.7 13 7.3q6.5 3.8 12.6 8.2c4.1 2.9 8 5.9 11.8 9.2 1.9 1.6 3.8 3.3 5.6 4.9 1.8 1.8 3.7 3.5 5.4 5.3 3.5 3.6 6.7 7.4 9.8 11.3l2.3 3c0.7 1 1.4 2 2.1 3 1.5 2.1 2.7 4.2 4 6.3-5.4-8.3-11.7-16.1-18.8-23.1-1.7-1.7-3.6-3.4-5.4-5.1-1.8-1.7-3.6-3.4-5.6-4.9-3.8-3.2-7.7-6.2-11.8-9.1-8.1-5.8-16.6-10.9-25.4-15.6q-6.6-3.5-13.4-6.5-6.8-3.1-13.8-5.6z"/>
			</g>
			<g id="&lt;Group&gt;">
				<path id="&lt;Path&gt;" class="s4" d="m1314.8 1354.7c-5.2 20.7-11.3 41.1-18 61.3q-5 15.2-10.4 30.2-5.4 15-11.4 29.8c-7.9 19.8-16.4 39.4-25.6 58.5q-3.5 7.2-7 14.4l-7.2 14.3c-4.7 9.5-9 19.2-12.7 29.2-7.3 20-12.6 40.7-15.7 61.7-1.6 10.5-2.5 21.1-3.1 31.8l-2.1 31.8c-1.3 21.3-2.9 42.5-4.3 63.8l-2.2 31.8-2.3 31.9h-0.1l1.9-31.9 2-31.9c1.4-21.2 2.6-42.5 4-63.7l2.1-31.9c0.6-10.6 1.6-21.3 3.2-31.8 3.1-21.1 8.5-41.9 16.1-61.8 3.7-10 8-19.7 12.8-29.2l7.3-14.3c2.3-4.7 4.7-9.5 7-14.3 9.1-19.2 17.4-38.8 25.3-58.6 3.9-9.9 7.6-19.9 11.2-29.9q5.5-15 10.6-30.1 5-15.2 9.7-30.4c3-10.2 6.1-20.4 8.8-30.7z"/>
			</g>
			<g id="&lt;Group&gt;">
				<path id="&lt;Path&gt;" class="s4" d="m1028 1622.5q-0.1-10.7-0.3-21.5-0.3-10.7-0.6-21.4c-0.4-14.3-1-28.6-1.7-42.9-0.4-7.2-0.8-14.3-1.2-21.5q-0.7-10.7-1.4-21.4l-0.8-10.7-0.9-10.7-0.4-5.3-0.5-5.4-1-10.7c1.7 14.3 3.2 28.5 4.3 42.8 1.2 14.2 2.1 28.5 2.9 42.8 0.6 14.3 1.2 28.6 1.5 42.9q0.2 10.8 0.3 21.5 0 10.8-0.2 21.5z"/>
			</g>
			<g id="&lt;Group&gt;">
				<path id="&lt;Path&gt;" class="s8" d="m1374.4 1469.8c-4.8 0.1-9.6-0.3-14.4-1-4.7-0.6-9.4-1.6-14-2.9-4.6-1.4-9.1-3.1-13.4-5.3-4.3-2.2-8.2-4.9-11.8-8.1 2 1.3 3.8 2.9 5.9 4l1.5 0.9 0.8 0.5 0.8 0.4 3.1 1.6c4.4 2 8.8 3.7 13.4 5 4.5 1.4 9.2 2.4 13.9 3.2q3.5 0.6 7 1c2.4 0.3 4.8 0.5 7.2 0.7z"/>
			</g>
			<g id="&lt;Group&gt;">
				<path id="&lt;Path&gt;" class="s8" d="m1428.7 1723.8c-7.7 9.7-16.7 18.3-26.3 26.2-9.6 7.8-19.9 14.8-30.9 20.6-2.8 1.4-5.6 2.7-8.4 4-2.9 1.2-5.7 2.5-8.6 3.5-1.5 0.6-2.9 1.1-4.4 1.6-1.5 0.4-3 0.9-4.5 1.4-3 0.8-5.9 1.7-9 2.3-12.1 2.8-24.6 3.5-37 2.4l4.7 0.2 2.3 0.1 2.3-0.1 4.7-0.1 4.6-0.3c0.7-0.1 1.5-0.1 2.3-0.2l2.3-0.3c1.5-0.2 3-0.4 4.6-0.6 3-0.6 6.1-1.1 9-1.8 3.1-0.7 6-1.6 9-2.4 1.5-0.5 2.9-1 4.4-1.5 1.5-0.4 2.9-1 4.3-1.5 2.9-1.1 5.8-2.3 8.6-3.6 2.8-1.3 5.6-2.6 8.3-4 11-5.7 21.3-12.6 30.9-20.3q7.3-5.8 14-12.2c4.5-4.2 8.8-8.7 12.8-13.4z"/>
			</g>
			<g id="&lt;Group&gt;">
				<path id="&lt;Path&gt;" class="s4" d="m1318.4 1431.3c-0.4 0-9.4-0.1-18.5-3.9-0.8-0.3-1.1-1.2-0.8-2 0.3-0.7 1.2-1.1 2-0.8 8.5 3.6 17.2 3.7 17.3 3.7 0.8 0 1.5 0.6 1.5 1.5 0 0.8-0.7 1.5-1.5 1.5z"/>
			</g>
			<g id="&lt;Group&gt;">
				<path id="&lt;Path&gt;" class="s4" d="m1252.4 1627.8c-0.4 0-9.4-0.1-18.5-3.9-0.8-0.3-1.1-1.2-0.8-2 0.3-0.7 1.2-1.1 2-0.8 8.6 3.6 17.2 3.7 17.3 3.7 0.8 0 1.5 0.6 1.5 1.5 0 0.8-0.7 1.5-1.5 1.5z"/>
			</g>
			<g id="&lt;Group&gt;">
				<path id="&lt;Path&gt;" class="s4" d="m1227 1798c-3.5 0-8.7-0.3-14.1-1.9-0.8-0.2-1.3-1.1-1-1.8 0.2-0.8 1-1.3 1.8-1.1 9 2.6 17.6 1.6 17.7 1.6 0.8-0.1 1.5 0.5 1.6 1.3 0.1 0.8-0.5 1.6-1.3 1.7-0.1 0-1.9 0.2-4.7 0.2z"/>
			</g>
			<g id="&lt;Group&gt;">
				<path id="&lt;Path&gt;" class="s4" d="m1216.5 1447.9q0.6-1.6 0.6-3.4c0-1.1-0.2-2.2-0.6-3.3-0.7-2.1-2.3-3.9-4.3-5-1.9-1.1-4.3-1.3-6.5-1.7l-6.7-1.2-6.7-1.2-6.7-1.3c-4.5-0.9-9-1.7-13.4-2.7-17.9-3.6-35.6-7.8-53.2-12.4-17.6-4.6-35.1-9.5-52.5-15-8.7-2.8-17.3-5.6-25.9-8.6l-6.4-2.3-3.2-1.2c-1.1-0.4-2.2-0.8-3.3-0.9-2.2-0.2-4.5 0.5-6.4 1.7-1.9 1.3-3.2 3.3-3.8 5.5 0.6-2.2 1.9-4.2 3.7-5.5 1.9-1.4 4.2-2.1 6.5-1.9 1.2 0.1 2.3 0.4 3.4 0.8l3.2 1.1 6.4 2.2q13 4.3 26 8.3c17.4 5.4 34.9 10.3 52.5 14.9 17.6 4.6 35.3 8.7 53.1 12.6 4.5 1 8.9 1.9 13.4 2.8l6.7 1.3 6.7 1.3 6.7 1.3 3.3 0.7c1.1 0.2 2.2 0.6 3.2 1.2 2 1.1 3.6 3 4.3 5.2 0.4 1.1 0.6 2.2 0.6 3.3q-0.1 1.8-0.7 3.4z"/>
			</g>
			<g id="&lt;Group&gt;">
				<path id="&lt;Path&gt;" class="s4" d="m1017.5 1394.9c-2.9 12.5-7.1 24.6-12.3 36.3-1 2.9-0.9 6.3 0.4 9.1 0.7 1.4 1.6 2.7 2.7 3.8 1.1 1.1 2.4 1.9 3.9 2.7q8.4 4.6 16.6 9.5 16.4 9.9 32 21.1c5.2 3.7 10.3 7.6 15.3 11.5 2.6 2 4.9 4.1 7.7 5.5 2.8 1.5 5.8 2.5 9 2.9q2.3 0.3 4.6 0.2l4.8-0.3 9.6-0.4 19.1-0.9 38.3-1.8 19.1-0.9c1.6-0.1 3.2-0.1 4.8-0.4 1.5-0.3 3-0.9 4.3-1.7 1.3-0.9 2.4-1.9 3.3-3.2 0.5-0.7 0.9-1.3 1.2-2.1 0.3-0.7 0.6-1.4 0.9-2.2l13.7-35.7-13.2 35.9c-0.3 0.8-0.6 1.5-0.9 2.3-0.4 0.7-0.8 1.4-1.2 2.1-1 1.3-2.2 2.4-3.5 3.3-1.4 0.9-2.9 1.6-4.5 1.9-1.7 0.3-3.3 0.3-4.8 0.4l-19.2 1-38.2 1.9-19.2 1-9.5 0.5-4.8 0.2q-2.5 0.2-4.9-0.2c-3.2-0.4-6.3-1.4-9.2-2.9q-2.2-1.2-4.1-2.7l-3.7-3c-5-3.9-10.1-7.8-15.3-11.5q-15.5-11.2-31.9-21.2-8.1-5-16.5-9.6c-1.4-0.8-2.9-1.6-4-2.8-1.2-1.1-2.1-2.5-2.8-4-1.3-2.9-1.4-6.4-0.3-9.5 5.3-11.6 9.6-23.7 12.7-36.1z"/>
			</g>
			<g id="&lt;Group&gt;">
				<path id="&lt;Path&gt;" class="s4" d="m1002.2 1282.2c1.6 10 2.9 20 4.3 30 1.3 10 2.4 20.1 3.6 30.1 1.1 10.1 2.1 20.1 3 30.2 0.9 10.1 1.7 20.1 2.4 30.2l-3.1-30.1c-1.1-10.1-2.1-20.1-3.3-30.2l-3.4-30.1z"/>
			</g>
			<g id="&lt;Group&gt;">
				<path id="&lt;Path&gt;" class="s4" d="m1023.7 1163.6c-2.2 3.1-4.1 6.5-5.9 9.9l-1.2 2.6-1.2 2.6c-0.9 1.7-1.5 3.5-2.3 5.3-2.8 7.1-5.1 14.4-6.9 21.8l-1.3 5.6q-0.4 1.4-0.6 2.8l-0.6 2.8-0.5 2.8q-0.3 1.4-0.4 2.8l-0.8 5.7c-0.3 1.9-0.5 3.8-0.7 5.7l-0.6 5.7c-0.3 3.9-0.4 7.7-0.7 11.5 0.1-3.8 0.1-7.7 0.3-11.5l0.4-5.7c0.1-1.9 0.2-3.9 0.5-5.8 0.4-3.8 0.9-7.6 1.7-11.4l0.5-2.8q0.2-1.4 0.5-2.8l1.3-5.7c1.9-7.4 4.2-14.8 7.2-21.8 3.1-7.1 6.6-14 11.3-20.1z"/>
			</g>
			<g id="&lt;Group&gt;">
				<path id="&lt;Path&gt;" class="s4" d="m1498.9 1482.3c-0.2-2.2 0.2-4.7 1.3-6.7 1.1-2.1 3-3.7 5.1-4.7 1.1-0.5 2.3-0.8 3.4-0.9l3.5-0.4 6.8-0.8c9.2-1.2 18.3-2.5 27.4-4 9.1-1.4 18.2-3 27.2-4.9 9-1.8 18-4.1 26.8-6.6 17.8-5 35.2-11 52-18.7 8.3-3.8 16.5-8.1 24.3-12.9 2-1.2 3.8-2.5 5.8-3.8 1-0.6 2.2-1 3.3-1.3 1.2-0.2 2.4-0.3 3.5-0.1 2.4 0.2 4.6 1.3 6.3 2.9 1.7 1.6 2.9 3.7 3.3 6h-0.1c-0.5-2.2-1.7-4.3-3.4-5.8-1.7-1.5-3.9-2.5-6.1-2.6-1.1-0.2-2.3 0-3.4 0.2-1 0.3-2.1 0.6-3 1.3-2 1.2-3.9 2.5-5.8 3.8-7.8 5-15.9 9.4-24.3 13.3-16.8 7.7-34.4 13.5-52.2 18.2-8.9 2.4-17.9 4.5-26.9 6.5-9.1 1.9-18.1 3.8-27.2 5.4-9.1 1.5-18.2 2.8-27.4 3.8q-3.4 0.4-6.9 0.8l-3.4 0.3q-1.7 0.2-3.3 0.8c-2 0.9-3.9 2.4-5 4.4-1.2 1.9-1.7 4.3-1.5 6.5z"/>
			</g>
			<g id="&lt;Group&gt;">
				<path id="&lt;Path&gt;" class="s4" d="m1698.9 1425.4q4.1 19.8 8 39.6l0.5 2.5q0.3 1.2 0.4 2.5c0.2 1.8 0 3.5-0.4 5.2-0.9 3.4-3.2 6.3-6.2 8.1-3.1 1.7-6.1 2.8-9.1 4.4-1.5 0.8-3.1 1.5-4.5 2.3l-4.4 2.4c-11.7 6.8-22.6 14.8-32.4 24-5 4.6-9.6 9.4-14 14.6-1.1 1.3-2.2 2.5-3.5 3.7-1.2 1.1-2.6 2.1-4.1 3q-2.2 1.3-4.6 2.2-2.4 0.8-4.9 1.2c-1.7 0.3-3.4 0.4-5.1 0.3-1.7 0-3.4-0.3-5.1-0.5-3.3-0.6-6.6-1.2-10-1.6q-10-1.5-20-2.5c-13.4-1.4-26.9-2.3-40.3-2.8-6.7-0.3-13.5-0.4-20.2-0.5-1.7 0-3.4 0-5.1-0.4-1.7-0.4-3.4-1.1-4.8-2.1-2.8-1.9-4.9-5-5.6-8.4-1.7-13.5-3.1-26.8-4.6-40.3h0.1l2.6 20.1 1.3 10 0.6 5 0.3 2.6q0.2 1.2 0.4 2.4c0.7 3.2 2.7 6.1 5.4 7.9 1.3 0.9 2.9 1.6 4.5 2 1.5 0.3 3.2 0.3 4.9 0.3 6.7 0 13.5 0.1 20.2 0.4 13.5 0.4 27 1.4 40.4 2.9q10.1 1 20.1 2.6c3.3 0.5 6.6 1.1 9.9 1.7 1.7 0.3 3.3 0.6 5 0.6 1.7 0.1 3.3 0 5-0.2q2.5-0.4 4.8-1.2 2.4-0.9 4.6-2.1c1.4-0.9 2.8-1.8 4-2.9 1.3-1.2 2.4-2.4 3.5-3.7 4.4-5.1 9.1-9.9 14-14.6 9.9-9.2 20.6-17.5 32.3-24.4l4.4-2.4c1.4-0.9 3-1.6 4.5-2.4 1.5-0.8 3-1.5 4.5-2.2 1.6-0.7 3.2-1.4 4.6-2.2 2.8-1.6 4.9-4.4 5.8-7.5 0.4-1.6 0.6-3.2 0.4-4.9q-0.1-1.2-0.4-2.4l-0.4-2.5q-3.8-19.9-7.4-39.8z"/>
			</g>
			<g id="&lt;Group&gt;">
				<path id="&lt;Path&gt;" class="s4" d="m1621.5 1363.9c-0.5-11.2-1.3-22.3-2.3-33.5q-1.5-16.7-3.6-33.3c-2.9-22.2-6.5-44.3-11-66.1-1.1-5.5-2.4-11-3.6-16.4-1.2-5.5-2.5-10.9-3.9-16.3-2.7-10.9-5.7-21.6-9-32.3-6.7-21.3-14.5-42.3-23.9-62.6 4.8 10.1 9.4 20.3 13.4 30.7 4 10.5 7.8 21 11.1 31.7 3.4 10.7 6.5 21.4 9.2 32.3 1.5 5.4 2.7 10.8 4 16.3 1.3 5.4 2.5 10.9 3.6 16.4 4.5 21.9 8 44 10.7 66.2q2.1 16.7 3.4 33.4c0.9 11.1 1.6 22.3 1.9 33.5z"/>
			</g>
			<g id="&lt;Group&gt;">
				<path id="&lt;Path&gt;" class="s4" d="m1488.2 1354.6c4.1-4.2 8.8-7.9 14.2-10.6 0.6-0.3 1.3-0.7 2-0.9l2.1-0.8c1.3-0.6 2.8-1 4.2-1.4 2.9-0.8 5.9-1.1 8.9-1.2 5.9-0.2 11.8 1.1 17.5 2.7 5.7 1.6 11.2 3.7 16.7 5.9 5.5 2.2 10.9 4.5 16.3 6.8 5.5 2.2 11 4.3 16.6 6 5.6 1.7 11.4 3 17.2 3.5 5.8 0.6 11.8 0.3 17.6-0.8v0.1c-5.8 1.4-11.7 1.9-17.7 1.5-5.9-0.4-11.7-1.6-17.4-3.3-5.7-1.7-11.2-3.9-16.6-6.2-5.5-2.3-10.8-4.8-16.2-7.1-5.4-2.4-10.9-4.6-16.6-6.1-1.4-0.4-2.9-0.7-4.3-1-1.4-0.4-2.9-0.5-4.4-0.8-1.4-0.2-2.9-0.2-4.3-0.4-1.5 0-3 0-4.4 0-5.9 0.3-11.6 1.7-16.9 4.2-5.3 2.5-10 6.1-14.4 10z"/>
			</g>
			<g id="&lt;Group&gt;">
				<path id="&lt;Path&gt;" class="s4" d="m1394.9 1444.5c7-9.4 15.3-17.8 24.4-25.3 4.4-3.8 9.3-7.2 14.1-10.4 5-3.2 10-6.2 15.3-8.8l3.9-2c1.4-0.7 2.7-1.2 4.1-1.8l4-1.8 4.1-1.5c1.4-0.5 2.8-1.1 4.2-1.6l4.2-1.3 4.1-1.4c1.4-0.4 2.7-1 3.9-1.7 2.5-1.5 4.5-3.7 5.8-6.3 1.3-2.5 1.9-5.4 1.7-8.3l-0.5-17.6 1 17.5c0.2 3-0.3 6-1.6 8.7-1.4 2.7-3.4 5-5.9 6.6-1.3 0.8-2.7 1.5-4.1 1.9l-4.2 1.4-4.1 1.4c-1.4 0.5-2.8 1-4.1 1.5l-4.1 1.6-4 1.8c-1.4 0.6-2.7 1.1-4 1.8l-4 1.9c-5.2 2.6-10.2 5.6-15.2 8.7-4.8 3.3-9.6 6.6-14.2 10.3-2.3 1.8-4.5 3.7-6.7 5.6l-3.2 3c-1.1 1-2.1 2.1-3.2 3.1q-6.2 6.1-11.7 13z"/>
			</g>
			<g id="&lt;Group&gt;">
				<path id="&lt;Path&gt;" class="s4" d="m1743.8 1296.2l-12.2 70.2c-4 23.3-7.8 46.8-11.3 70.2-3.6 23.5-6.8 47-9.4 70.6l-1.8 17.7c-0.5 5.9-1 11.8-1.5 17.7-0.5 5.9-0.8 11.8-1.2 17.7-0.3 6-0.5 11.9-0.8 17.8 0.2-5.9 0.3-11.9 0.5-17.8 0.4-5.9 0.6-11.8 1-17.8 0.5-5.9 0.9-11.8 1.4-17.7l1.7-17.7c2.5-23.6 5.6-47.2 9.1-70.6 3.6-23.5 7.5-46.9 11.7-70.3l6.3-35z"/>
			</g>
			<g id="&lt;Group&gt;">
				<path id="&lt;Path&gt;" class="s4" d="m1767.7 1176.8c-1.8 3.3-3.2 6.6-4.6 10.1l-0.9 2.5c-0.4 0.9-0.6 1.8-0.9 2.6-0.3 0.9-0.7 1.8-0.9 2.6l-0.8 2.7q-3.2 10.5-5.1 21.4c-0.5 3.6-1.2 7.3-1.5 10.9-0.2 1.8-0.4 3.7-0.5 5.5l-0.4 5.5-0.2 2.7-0.1 2.8-0.1 5.5c0 3.7 0.1 7.4 0.1 11.1l-0.3-5.6c-0.1-1.8-0.3-3.6-0.3-5.5v-5.5-2.8l0.1-2.7 0.3-5.6c0.1-1.8 0.3-3.6 0.5-5.5 0.2-1.8 0.4-3.7 0.7-5.5l0.7-5.5c1.4-7.2 3-14.4 5.3-21.4 2.4-7 5.1-14 8.9-20.3z"/>
			</g>
			<g id="&lt;Group&gt;">
				<path id="&lt;Path&gt;" class="s4" d="m1525 1845.1c-5.7-16.8-11.1-33.6-16.3-50.6-5.3-16.9-10.4-33.9-15.2-50.9l-3.6-12.8-3.6-12.8c-2.3-8.5-4.7-17.1-6.9-25.6l-6.9-25.7-6.6-25.8c-2.2-8.5-4.3-17.2-6.4-25.8l-3.1-12.9-3-12.9-2.9-13c-1-4.3-2-8.6-2.8-13l-5.3-26c-1-4.3-1.7-8.7-2.5-13.1l-2.3-13.1-2.3-13.1-1.9-13.1-2-13.1-1-6.6c-0.2-2.2-0.5-4.4-0.7-6.6l-3-26.4h0.1l3.4 26.3c0.2 2.2 0.5 4.4 0.8 6.6l1 6.6 2.1 13.1 2 13.1 2.4 13.1 2.4 13c0.8 4.4 1.6 8.8 2.5 13.1l5.3 26c0.8 4.4 1.8 8.7 2.8 13l2.9 13 2.8 12.9 3.1 13c2 8.6 4 17.2 6.1 25.8l6.5 25.8c2.2 8.6 4.5 17.1 6.8 25.7 2.3 8.5 4.8 17 7.2 25.5l3.6 12.8 3.7 12.8 7.5 25.5c2.5 8.5 5 17 7.6 25.4 2.6 8.5 5.2 17 7.8 25.4 2.7 8.5 5.3 16.9 8 25.4z"/>
			</g>
			<g id="&lt;Group&gt;">
				<path id="&lt;Path&gt;" class="s4" d="m1734.6 1679c2.2-10.2 6.1-19.9 11.3-29 5.2-9 11.6-17.3 18.9-24.7 7.2-7.4 15.4-14 24.1-19.7 8.6-5.7 17.9-10.6 27.5-14.4 9.7-3.8 19.8-6.5 30.2-7.7 10.3-1.2 20.9-0.8 31.1 1.5 10.2 2.3 19.9 6.5 28.4 12.6 4.3 2.9 8.3 6.4 11.9 10.1 3.6 3.7 6.9 7.8 9.8 12l-0.1 0.1c-6.1-8.4-13.4-15.8-22-21.7-8.5-5.8-18.2-9.8-28.2-12.1-10.1-2.2-20.5-2.6-30.8-1.5-10.3 1.1-20.4 3.5-30.1 7.2-9.7 3.6-18.9 8.4-27.6 14.2-8.6 5.7-16.5 12.5-23.6 20-7.2 7.4-13.6 15.6-18.8 24.5-5.3 8.9-9.4 18.5-11.9 28.6z"/>
			</g>
			<g id="&lt;Group&gt;">
				<path id="&lt;Path&gt;" class="s4" d="m1186.3 1493.6c-8 20.8-15.5 41.9-22.4 63.1-3.4 10.6-6.8 21.2-9.6 32-1.4 5.4-2.6 10.8-3.8 16.3l-1.6 8.2c-0.5 2.8-2 5.4-4.1 7.3-1.1 0.9-2.3 1.7-3.7 2.2-1.3 0.5-2.6 0.8-4 1.3q-4 1.2-7.9 2.5-8 2.7-15.7 5.7-7.8 3.1-15.4 6.6c-2.5 1.2-5 2.4-7.5 3.6-2.5 1.3-5 2.5-7.4 3.9-1.2 0.6-2.5 1.3-3.7 2l-3.6 2.1c-2.4 1.4-4.7 2.9-7.2 4.3-2.6 1.4-5.7 1.6-8.4 0.8-1.4-0.4-2.7-1.1-3.8-2-1.2-0.9-2.1-2-3-3-7.7-8.2-15.3-16.3-22.8-24.5v-0.1c7.8 8 15.6 16 23.3 24.1 1 1 1.9 2 2.9 2.9 1.1 0.8 2.3 1.4 3.6 1.8 2.6 0.7 5.4 0.4 7.8-0.8 2.3-1.4 4.7-3 7.1-4.4l3.6-2.1c1.2-0.7 2.5-1.4 3.7-2 9.8-5.4 20-10 30.4-14.1q7.8-3 15.8-5.5 4-1.3 8-2.5c1.4-0.4 2.8-0.7 4-1.2 1.3-0.4 2.5-1.1 3.5-2 2.1-1.8 3.5-4.3 4-7l1.7-8.2c0.6-2.7 1.3-5.4 1.9-8.2 0.6-2.7 1.3-5.4 2-8.1 0.7-2.7 1.4-5.4 2.1-8.1l2.3-8.1c1.5-5.3 3.1-10.7 4.8-16 3.3-10.6 7-21.2 10.8-31.7 3.9-10.4 7.9-20.8 12.2-31.1z"/>
			</g>
			<g id="&lt;Group&gt;">
				<path id="&lt;Path&gt;" class="s4" d="m1526.1 1533.1q9.4 39.2 18.2 78.6c2.9 13.1 5.8 26.3 8.7 39.4l2.3 9.8c0.7 3.3 2.1 6.4 4.2 9 2.1 2.6 4.8 4.7 7.9 5.9 3.1 1.4 6.4 1.6 9.8 2.1l39.9 5.7 20 2.9 10 1.5c1.6 0.2 3.2 0.6 4.9 0.5 1.6 0 3.3-0.1 4.9-0.6 3.1-0.7 6.1-2.3 8.6-4.5 2.5-2.1 4.3-4.9 5.6-8q4.1-9.2 8.9-18.1c3.2-5.9 6.6-11.7 10.4-17.4 3.7-5.6 7.8-10.9 12.3-15.9-8.7 10.3-15.8 21.8-22 33.6q-4.7 9-8.7 18.2c-0.7 1.5-1.5 3.1-2.4 4.5-1 1.5-2.2 2.7-3.4 3.9-2.6 2.3-5.8 3.9-9.1 4.7-1.7 0.5-3.4 0.6-5.1 0.7l-1.3-0.1-1.3-0.1c-0.9-0.1-1.7-0.2-2.5-0.3l-10-1.5-19.9-3-39.9-6.1c-1.7-0.3-3.3-0.5-5-0.8-1.7-0.2-3.3-0.8-4.9-1.4-3.1-1.4-5.9-3.5-8-6.2-2.1-2.6-3.6-5.8-4.2-9.1l-2.3-9.8c-3-13.1-6.1-26.2-9.2-39.3q-9.1-39.3-17.5-78.8z"/>
			</g>
			<g id="&lt;Group&gt;">
				<path id="&lt;Path&gt;" class="s4" d="m1117.9 1459c0 8.1-6.5 14.6-14.6 14.6-8 0-14.6-6.5-14.6-14.6 0-8 6.6-14.6 14.6-14.6 8.1 0 14.6 6.6 14.6 14.6z"/>
			</g>
			<g id="&lt;Group&gt;">
				<path id="&lt;Path&gt;" class="s4" d="m1628.9 1502.9c0 8.1-6.5 14.6-14.5 14.6-8.1 0-14.6-6.5-14.6-14.6 0-8 6.5-14.5 14.6-14.5 8 0 14.5 6.5 14.5 14.5z"/>
			</g>
			<g id="&lt;Group&gt;">
				<path id="&lt;Path&gt;" class="s4" d="m1420.8 1465c0 5.9-4.7 10.7-10.6 10.7-6 0-10.7-4.8-10.7-10.7 0-5.9 4.7-10.7 10.7-10.7 5.9 0 10.6 4.8 10.6 10.7z"/>
			</g>
			<g id="&lt;Group&gt;">
				<path id="&lt;Path&gt;" class="s4" d="m1454.2 1639.2c0 5.9-4.8 10.7-10.7 10.7-5.9 0-10.7-4.8-10.7-10.7 0-5.9 4.8-10.7 10.7-10.7 5.9 0 10.7 4.8 10.7 10.7z"/>
			</g>
			<g id="&lt;Group&gt;">
				<path id="&lt;Path&gt;" class="s4" d="m1499 1808.1c0 5.9-4.8 10.6-10.7 10.6-5.9 0-10.7-4.7-10.7-10.6 0-6 4.8-10.7 10.7-10.7 5.9 0 10.7 4.7 10.7 10.7z"/>
			</g>
			<g id="&lt;Group&gt;">
				<path id="&lt;Path&gt;" class="s7" d="m1942.6 1687.9c-3.8 20-6.2 40.3-6.7 60.7-0.7 30.6-10.4 78-62.6 87.4-50.2 9.1-72.6-27.6-82.2-55-5.7-16.4-13-32.2-22.2-46.8-11.7-18.5-26.1-51.5-28.9-104.5-8.9-163.8-39.3-281.4-56.6-340.3-5.3-17.9-16.8-33.2-32.4-43.3-25.3-16.3-68.4-47.6-115.1-97.5 0 0-10.8-1-17.1-0.4l-9.1 23.7c0 0 8.9 34.7-6.9 40.9-4.6 1.8-9.6-1.3-10.3-6.2l-1.6-11.4c0 0-0.1 0.3-0.4 0.6-2.6 2.8-7.4 1.7-8.6-1.9-1.8-5-5.2-13.5-10.8-21.8-2.8-4.1-3.8-9.1-2.8-14 2-9.4 6.1-25.4 13-38.6 1.1-2.1 2.7-3.8 4.7-5.1-0.3-3.4 1.3-6.7 4.2-8.7l9.8-6.5 0.7-1.4c1.7-3.6 4.6-6.3 8.2-7.9 10.9-4.6 35.9-14.7 58.9-19.8l-27.6-25.5-39.8-2.9c0 0-19 10.6-33.2 1.9-4.4-2.6-3.9-9.1 0.7-11.3 6.8-3.3 16.5-8.2 24.2-13.1 1.3-0.8 2.8-1.3 4.3-1.5 7.8-0.8 33.1-3.5 49.6-6.8 2.9-0.6 5.9 0.1 8.3 1.9 10.8 8.1 43.2 31.7 72.5 44.3 2.9 1.3 5.3 3.4 6.7 6.1 9.1 16.6 45.2 78.6 109.4 133.6 12.8 11 22.4 25.1 27.8 41.1 16.9 49.9 57 162.9 97.5 239.4 48.1 91 93.4 112.1 74.4 210.6z"/>
			</g>
			<g id="&lt;Group&gt;">
				<path id="&lt;Path&gt;" class="s10" d="m1567.8 1070.1c2.1-0.7 4.1-1.4 6.2-2 2.1-0.6 4.2-1.1 6.4-1.6 2.1-0.5 4.2-0.9 6.3-1.3l3.2-0.6c1.1-0.1 2.2-0.3 3.3-0.4-2.1 0.6-4.2 1.2-6.3 1.7-2.1 0.6-4.2 1.1-6.3 1.6-2.1 0.5-4.3 1-6.4 1.4l-3.2 0.6c-1 0.2-2.1 0.4-3.2 0.6z"/>
			</g>
			<g id="&lt;Group&gt;">
				<path id="&lt;Path&gt;" class="s10" d="m1597.4 1063.1c3.8-1.6 8.4-1.4 12.2 0.5 1.9 1 3.6 2.3 5 3.9q0.2 0.3 0.5 0.6l0.4 0.6 0.9 1.3q0.7 1.4 1.4 2.8c-0.7-0.8-1.2-1.7-1.8-2.5l-1-1.2-0.5-0.5q-0.2-0.3-0.5-0.6l-1.1-1q-0.6-0.5-1.2-0.9-0.3-0.3-0.6-0.5l-0.6-0.4c-0.5-0.2-0.9-0.5-1.3-0.7-1.8-0.9-3.8-1.5-5.7-1.7-2-0.2-4.1-0.1-6.1 0.3z"/>
			</g>
			<g id="&lt;Group&gt;">
				<path id="&lt;Path&gt;" class="s10" d="m1583 1082.1c3.8-1.5 8.4-1.4 12.2 0.5 1.9 1 3.6 2.3 5 3.9q0.2 0.3 0.5 0.6l0.4 0.7 0.9 1.3q0.7 1.3 1.4 2.8c-0.7-0.9-1.2-1.7-1.8-2.6l-1-1.1-0.5-0.6q-0.2-0.3-0.5-0.5l-1.1-1.1q-0.6-0.5-1.2-0.9c-0.2-0.2-0.4-0.3-0.6-0.5l-0.6-0.4c-0.5-0.2-0.8-0.5-1.3-0.7-1.8-0.9-3.7-1.4-5.7-1.7-2-0.2-4.1-0.1-6.1 0.3z"/>
			</g>
			<g id="&lt;Group&gt;">
				<path id="&lt;Path&gt;" class="s10" d="m1499.4 1100.2c0-1 0.3-2 0.7-2.9q0.6-1.4 1.6-2.6c0.6-0.7 1.3-1.5 2.1-2q1.3-1 2.7-1.5c-0.7 0.7-1.5 1.4-2.1 2q-1.1 1.1-2 2.2-0.9 1.1-1.6 2.3-0.8 1.2-1.4 2.5z"/>
			</g>
			<g id="&lt;Group&gt;">
				<path id="&lt;Path&gt;" class="s10" d="m1571.6 1107.1c2.7-1.2 6.1-1.4 9.1-0.3 0.7 0.2 1.4 0.6 2.1 1 0.7 0.4 1.3 0.9 1.8 1.5 0.6 0.5 1.1 1.2 1.5 1.8 0.4 0.6 0.8 1.3 1.1 2-1-1.2-1.9-2.3-3.1-3.2-1.1-1-2.4-1.7-3.8-2.2-1.3-0.5-2.8-0.8-4.2-0.9-1.5 0-3 0.1-4.5 0.3z"/>
			</g>
			<g id="&lt;Group&gt;">
				<path id="&lt;Path&gt;" class="s10" d="m1518.8 1148.3q-5.5 0-11 0.1l-5.4 0.2c-1.8 0.1-3.6 0.2-5.4 0.3l0.2-0.2q-0.4 2.3-0.9 4.5c-0.4 1.5-0.7 3-1.1 4.5-0.4 1.5-0.8 3-1.3 4.5-0.5 1.4-1.1 2.9-1.9 4.2v-0.4c1.3 2.3 2.2 4.7 2.9 7.2 0.7 2.5 1.1 5.1 1.2 7.7 0 2.6-0.3 5.3-1.1 7.7-0.5 1.3-1 2.4-1.7 3.6-0.6 1.1-1.5 2.1-2.3 3h-0.1c1.5-2.1 2.7-4.3 3.4-6.8 0.7-2.4 0.9-4.9 0.8-7.4-0.1-2.6-0.5-5.1-1.2-7.5-0.6-2.4-1.5-4.8-2.6-7.1l-0.2-0.2 0.2-0.2c0.8-1.3 1.4-2.7 2-4.1 0.6-1.4 1.1-2.8 1.6-4.3 0.4-1.5 0.8-2.9 1-4.5q0.5-2.2 0.8-4.5v-0.2h0.2c1.8-0.3 3.6-0.5 5.5-0.6q2.7-0.2 5.4-0.2 2.8 0 5.5 0.1 2.7 0.1 5.5 0.5z"/>
			</g>
			<g id="&lt;Group&gt;">
				<g id="&lt;Group&gt;">
					<path id="&lt;Path&gt;" class="s7" d="m814.6 1603c0 0 69.7 3.4 81.1 80.9 11.4 77.5-54.7 101.2-54.7 101.2 0 0-111.9-36.6-207-102.7 0 0-29.7 8.7-58.3-5.4 0 0-32.7-2.4-60.6-19.5-3-1.9-5.7-4.3-7.7-7.2-3.5-5.1-10.8-14.9-22.4-27.6-7.5-8.2-9.7-20.1-5.4-30.3 1.3-2.9 2.8-6.1 4.8-9.6l2.1-16c1.4-10.1 6.2-19.4 13.6-26.3l6.2-5.8 2.2-19.4c0.8-6.8 5.8-12.3 12.5-13.6l8.7-1.8 8.3-11.2c4.9-6.5 11.9-11.1 19.8-13 11.8-2.9 24.3 0.6 32.9 9.3 16.9 17 48.2 44.1 80.8 50.5 7.8 1.6 14.5 6.8 18.1 13.9 5.9 11.3 13.6 29.1 15.8 47.7z"/>
				</g>
				<g id="&lt;Group&gt;">
					<g id="&lt;Group&gt;">
						<g id="&lt;Group&gt;">
							<g id="&lt;Group&gt;">
								<g id="&lt;Group&gt;">
									<path id="&lt;Path&gt;" class="s12" d="m669.4 1696c0.8-0.4 1.2-1.4 0.8-2.2l-4-9c-0.3-0.9-1.3-1.2-2.2-0.9-0.9 0.4-1.3 1.4-0.9 2.3l4 9c0.4 0.8 1.4 1.2 2.3 0.8z"/>
								</g>
							</g>
						</g>
						<g id="&lt;Group&gt;">
							<g id="&lt;Group&gt;">
								<path id="&lt;Path&gt;" class="s4" d="m550.7 1390.1l88.6 199.1c13.5 30.3 23.1 62.2 28.5 94.9l-6.2 2.8c-20.7-25.9-38.1-54.4-51.6-84.7l-88.7-199c-1.2-2.7 0.1-5.9 2.8-7.1l19.5-8.7c2.7-1.2 5.9 0 7.1 2.7z"/>
							</g>
						</g>
						<g id="&lt;Group&gt;">
							<g id="&lt;Group&gt;">
								<path id="&lt;Path&gt;" class="s2" d="m527.2 1394.7l13.2-5.9-7.9-17.7c-0.7-1.7-2.8-2.5-4.6-1.8l-6.8 3.1c-1.8 0.8-2.6 2.8-1.8 4.6z"/>
							</g>
						</g>
						<g id="&lt;Group&gt;">
							<g id="&lt;Group&gt;">
								<path id="&lt;Path&gt;" class="s2" d="m615.9 1518.3c2.3-1 3.3-3.6 2.4-5.9l-47.8-112.7c-3.1-7.3-11.6-10.6-18.9-7.4l6.4 14.3c3.6-1.4 7.7 0.3 9.2 3.9l47.7 107.4c0.2 0.4 0.6 0.6 1 0.4z"/>
							</g>
						</g>
						<g id="&lt;Group&gt;">
							<g id="&lt;Group&gt;">
								<path id="&lt;Path&gt;" class="s5" d="m631.3 1643.2l24.3-10.9-0.1-0.3-24.4 10.9z"/>
							</g>
						</g>
						<g id="&lt;Group&gt;">
							<g id="&lt;Group&gt;">
								<path id="&lt;Path&gt;" class="s5" d="m588.6 1554.1l29.3-13.1-0.1-0.3-29.4 13.1z"/>
							</g>
						</g>
						<g id="&lt;Group&gt;">
							<g id="&lt;Group&gt;">
								<path id="&lt;Path&gt;" class="s5" d="m585.8 1548l29.4-13.1-0.2-0.3-29.3 13.1z"/>
							</g>
						</g>
					</g>
					<g id="&lt;Group&gt;">
						<path id="&lt;Path&gt;" class="s7" d="m632.6 1575.7c0 0-26.1-4.8-33.4-22.6-9.2-22.3 25.7-25 25.7-25l7-4c6.6-3.8 14.8-3.8 21.1 0.4 13.4 9.1 25.5 11.2 28.9 15.7 0 0 2.7 26.2-32.2 49.7z"/>
					</g>
					<g id="&lt;Group&gt;">
						<path id="&lt;Path&gt;" class="s7" d="m556.3 1494.6l-36.4 40.3 34.7 32.9 29.9 33.4c0 0 28.8 28.4 41.5 11.3 12.7-17.1-23.3-45-23.3-45 0 0-25.9-49.9-46.4-72.9z"/>
					</g>
				</g>
				<g id="&lt;Group&gt;">
					<path id="&lt;Path&gt;" class="s10" d="m529.7 1499.9c-1.5 6.4-3.7 12.7-3.8 19.2-0.2 6.5 1.1 13.1 3.5 19.1 2.5 6 6.2 11.5 11 15.9q7.1 6.9 14.3 13.5v0.1l14 15.2c4.6 5.1 9.3 10.2 13.9 15.4l1.7 1.9c0.5 0.7 1.1 1.2 1.8 1.8q1.9 1.7 3.9 3.4c2.6 2.2 5.3 4.3 8.2 6.1 2.9 1.9 5.9 3.5 9.1 4.7 3.2 1.2 6.7 2 10.1 1.6v0.1c-3.4 0.6-7-0.1-10.2-1.2-3.3-1.1-6.4-2.8-9.4-4.6-2.9-1.8-5.8-3.8-8.5-6q-2-1.6-3.9-3.3c-0.6-0.6-1.3-1.2-1.9-1.9l-1.7-1.9c-4.6-5.1-9.2-10.3-13.8-15.5l-13.6-15.5q-7-6.9-14.2-13.6c-4.9-4.4-9-9.8-11.6-15.9-2.6-6.1-3.7-12.8-3.4-19.4 0.2-3.3 0.7-6.6 1.7-9.7l2.7-9.5z"/>
				</g>
				<g id="&lt;Group&gt;">
					<path id="&lt;Path&gt;" class="s10" d="m600.5 1613.2c8.8 8.2 17.2 16.7 25.1 25.8 3.9 4.5 7.7 9.2 11.1 14.2 1.7 2.5 3.3 5.1 4.6 7.8 1.2 2.7 2.3 5.7 2.1 8.9-0.1 1.5-0.5 3.1-1.3 4.4-0.8 1.4-1.9 2.5-3.2 3.4-2.6 1.7-5.8 2.2-8.8 2.1-3.1-0.2-6-0.9-8.8-2-2.9-1.1-5.5-2.4-8.1-4-5.1-3.3-9.6-7.3-13.8-11.6-2.1-2.1-3.9-4.5-6.1-6.5l-6.5-6.3q-13-12.4-26.2-24.6c-4.4-4.1-8.9-8.1-13.4-12.1-2.2-1.9-4.4-3.9-6.7-5.9-2.3-1.9-4.6-4-6.5-6.3-2-2.3-3.7-4.8-5.3-7.4-1.5-2.6-2.9-5.2-4.3-7.9q-4.1-8-7.8-16.2c-2.5-5.5-4.8-11.1-6.7-16.7q-1.5-4.3-2.5-8.7c-0.7-2.9-1.2-5.9-1.1-8.9h0.1c0 3 0.5 5.9 1.3 8.8 0.7 2.9 1.7 5.8 2.7 8.6 2 5.6 4.3 11.2 6.8 16.6q3.8 8.1 8 16.1c2.9 5.2 5.6 10.6 9.6 15 1.9 2.3 4 4.3 6.4 6.2q3.4 3 6.7 6c4.5 4 8.9 8 13.3 12.1 8.8 8.2 17.4 16.6 26 24.9l6.4 6.3c2.2 2.1 4 4.5 6.1 6.7 4.1 4.3 8.6 8.3 13.7 11.4 2.5 1.6 5.2 3 8 4 2.8 1 5.7 1.7 8.7 1.8 2.9 0 6-0.5 8.4-2.2 2.4-1.6 3.9-4.3 4.1-7.2 0.1-2.9-0.9-5.8-2.1-8.4-1.3-2.7-2.9-5.2-4.5-7.7-3.4-5-7.1-9.7-11-14.2q-5.8-6.9-12-13.4c-4.1-4.3-8.3-8.6-12.6-12.8z"/>
				</g>
				<g id="&lt;Group&gt;">
					<path id="&lt;Path&gt;" class="s10" d="m596.9 1659.3c-6-1.1-12.1-1.9-18.3-2.4-3-0.3-6.1-0.4-9.2-0.7-3.1-0.3-6.1-0.9-9.1-1.7q-4.5-1.2-8.8-3-4.2-1.9-8.4-3.9c-5.5-2.7-11-5.5-16.4-8.4-5.4-3-10.7-6.3-15.7-9.9q-1.9-1.3-3.7-2.7c-1.2-1-2.4-2-3.6-3-1.2-1-2.4-1.9-3.5-3l-1.7-1.7-0.4-0.4q-0.2-0.2-0.4-0.4-0.4-0.5-0.7-0.9c-7.6-9.9-12.2-22-12.6-34.4h0.1c0.5 6.2 1.9 12.2 4.2 17.9 2.3 5.6 5.3 11 9.1 15.8q0.3 0.5 0.7 0.9 0.2 0.2 0.4 0.4l0.4 0.4 1.6 1.6c1.1 1.1 2.3 2 3.4 3.1 1.2 1 2.4 1.9 3.6 2.9q1.8 1.4 3.7 2.8c4.9 3.6 10.1 6.9 15.4 10.1 5.3 3.1 10.7 6 16.3 8.6q4.2 1.9 8.4 3.6 4.3 1.7 8.8 2.8c3 0.7 6 1.2 9 1.6 3.1 0.3 6.2 0.5 9.2 0.8 6.2 0.7 12.3 1.6 18.3 3.1z"/>
				</g>
				<g id="&lt;Group&gt;">
					<path id="&lt;Path&gt;" class="s10" d="m575.7 1677q3.9-1.1 7.4-3.1c2.3-1.4 4.5-2.9 7-4.1 1.3-0.6 2.5-1 3.4-1.9 0.9-0.9 1.5-2 1.7-3.3 0.2-1.3 0-2.6-0.7-3.7-0.5-1.2-1.6-2.1-2.8-2.7 1.3 0.4 2.5 1.2 3.3 2.4 0.7 1.2 1 2.7 0.9 4.1-0.1 1.4-0.7 2.8-1.7 3.9q-0.8 0.8-1.8 1.2c-0.7 0.4-1.2 0.6-1.9 0.9-2.4 1.1-4.6 2.6-7 3.8-1.3 0.6-2.5 1.2-3.8 1.6-1.3 0.4-2.6 0.7-4 0.9z"/>
				</g>
				<g id="&lt;Group&gt;">
					<path id="&lt;Path&gt;" class="s10" d="m632.6 1575.7c2.2 1.7 4.4 3.4 6.6 5.2 1.1 0.8 2.2 1.7 3.2 2.6q1.6 1.5 2.9 3.2c1.7 2.2 3 4.8 3.9 7.5q0.7 2 1 4.1c0.2 1.4 0.3 2.8 0.6 4.2 0.7 5.4 2.2 10.8 4.5 15.8 2.3 5.1 5.6 9.7 9.6 13.5-2.1-1.8-4.1-3.8-5.8-6-1.8-2.2-3.2-4.6-4.5-7.1-2.5-5.1-4-10.6-4.8-16.1-0.2-1.4-0.3-2.8-0.5-4.2q-0.3-2-1-3.9c-0.8-2.7-2-5.1-3.6-7.4q-1.2-1.6-2.7-3.1c-1-1-2.1-1.8-3.1-2.8-2.1-1.8-4.2-3.6-6.3-5.5z"/>
				</g>
				<g id="&lt;Group&gt;">
					<path id="&lt;Path&gt;" class="s10" d="m705.4 1597.1c0.4 1.7 0.5 3.4 0.6 5.1q0.1 2.7-0.1 5.3c-0.2 3.5-0.8 6.9-1.7 10.3-0.9 3.4-2 6.7-3.6 9.8-0.7 1.6-1.6 3.1-2.5 4.6-0.4 0.8-0.9 1.5-1.4 2.2q-0.7 1.1-1.4 2.2c1.6-3.1 3.3-6.1 4.6-9.3l1-2.4 0.8-2.4q0.5-1.2 0.8-2.5c0.3-0.8 0.6-1.6 0.8-2.5 0.9-3.3 1.5-6.7 1.9-10.1 0.3-3.4 0.5-6.9 0.2-10.3z"/>
				</g>
			</g>
			<g id="&lt;Group&gt;">
				<path id="&lt;Path&gt;" class="s10" d="m1486 1114.4c-0.2-1.8 0.2-3.8 1.1-5.4q0.6-1.3 1.7-2.3c0.6-0.7 1.4-1.2 2.2-1.8 1.5-1 3-2.1 4.6-3.1q2.4-1.5 5.1-2.5 2.7-1 5.5-1.5l5.5-0.8q5.6-0.9 11.1-1.9 11-1.9 21.9-4.3c3.7-0.8 7.3-1.6 10.9-2.7 3.6-1 7.2-2 10.6-3.6-3.3 1.8-6.9 2.9-10.5 4.1-3.5 1.1-7.2 2-10.8 3-7.3 1.7-14.6 3.1-22 4.5q-5.5 0.9-11 1.8l-5.6 0.8q-2.7 0.4-5.3 1.3-2.7 0.9-5 2.3c-1.6 1-3.2 2-4.7 3-0.8 0.5-1.6 1-2.3 1.7q-1 0.9-1.7 2.1c-0.9 1.6-1.4 3.5-1.3 5.3z"/>
			</g>
			<g id="&lt;Group&gt;">
				<path id="&lt;Path&gt;" class="s10" d="m1491 1195.2c-1.1 1.8-3.4 2.7-5.5 2.2-1-0.2-2-0.8-2.7-1.5-0.8-0.8-1.2-1.9-1.5-2.8-1.4-3.8-3.1-7.6-4.9-11.2-1.9-3.6-4-7.1-6.3-10.5-2.1-3.6-3-8-2.3-12.1 0.8-4.1 1.8-8 2.9-11.9q1.7-6 3.6-11.8 2-5.8 4.5-11.4c0.8-1.9 1.7-3.7 2.7-5.6 1-1.8 2.5-3.3 4.3-4.5 2.8-2 6.1-3.2 9.5-3.7 1.8-0.2 3.5-0.1 5.2-0.2l5 0.1c6.8 0.1 13.6 0.2 20.3 0.3 6.8 0 13.6 0 20.3-0.3 3.4-0.1 6.8-0.3 10.1-0.7 1.7-0.2 3.4-0.3 5-0.6 0.9-0.2 1.7-0.2 2.5-0.5l2.5-0.6v0.1l-2.4 0.7c-0.8 0.3-1.7 0.4-2.5 0.6-1.7 0.4-3.4 0.6-5 0.8-3.4 0.4-6.8 0.7-10.2 0.9q-10.1 0.6-20.3 0.6-10.1 0-20.3-0.3l-5-0.1c-1.7 0-3.4-0.1-5.1 0.1-3.2 0.4-6.5 1.6-9.2 3.4-1.7 1.1-3.2 2.5-4.2 4.2-1 1.8-1.9 3.6-2.8 5.5-1.7 3.7-3.2 7.5-4.6 11.3-2.6 7.7-4.7 15.7-6.1 23.7-0.5 4 0.3 8.1 2.4 11.5 2.2 3.4 4.4 7 6.2 10.7 1.8 3.6 3.4 7.4 4.7 11.3 0.3 1 0.6 1.9 1.3 2.7 0.7 0.7 1.5 1.2 2.5 1.5 1.9 0.5 4.1-0.2 5.3-1.9z"/>
			</g>
			<g id="&lt;Group&gt;">
				<path id="&lt;Path&gt;" class="s10" d="m1502.8 1212.8c-0.9 0.5-2 0.7-3.1 0.7-1.1 0-2.2-0.2-3.2-0.7-2-0.9-3.6-2.7-4.2-4.9-0.3-1.1-0.4-2.2-0.5-3.2-0.2-1.1-0.3-2.1-0.4-3.2l-0.3-3.1c0-1.1-0.1-2.1-0.2-3.2 0.3 1 0.5 2.1 0.7 3.1l0.6 3.1c0.2 1.1 0.3 2.1 0.5 3.2 0.2 1 0.3 2.1 0.5 3 0.5 1.9 1.9 3.6 3.7 4.5 1.7 1 3.9 1.2 5.9 0.7z"/>
			</g>
			<g id="&lt;Group&gt;">
				<path id="&lt;Path&gt;" class="s0" d="m730.6 1783l278.8 50.6c0 0-258.7-107.6-278.8-50.6z"/>
			</g>
			<g id="&lt;Group&gt;">
				<g id="&lt;Group&gt;">
					<path id="&lt;Path&gt;" class="s0" d="m730.6 1783c-69.1-67.8-357.1 1.4-357.1 1.4v49h357.1z"/>
				</g>
			</g>
			<g id="&lt;Group&gt;">
				<g id="&lt;Group&gt;">
					<path id="&lt;Path&gt;" class="s4" d="m1007.6 1845.2l-267.2-50.7 1.8-11.5 267.2 50.6z"/>
				</g>
			</g>
			<g id="&lt;Group&gt;">
				<g id="&lt;Group&gt;">
					<path id="&lt;Path&gt;" class="s4" d="m742.3 1845.1h-11.7v-62.1h11.7z"/>
				</g>
			</g>
			<g id="&lt;Group&gt;">
				<g id="&lt;Group&gt;">
					<path id="&lt;Path&gt;" class="s4" d="m736.4 1845.1h-373.1v-11.7h373.1z"/>
				</g>
			</g>
		</g>
	</g>
	<g id="FRONT">
		<g id="&lt;Group&gt;">
			<g id="&lt;Group&gt;">
				<path id="&lt;Path&gt;" class="s8" d="m2040.5 1846.6h-1899.5v-3h1899.5z"/>
			</g>
			<g id="&lt;Group&gt;">
				<g id="&lt;Group&gt;">
					<g id="&lt;Group&gt;">
						<g id="&lt;Group&gt;">
							<g id="&lt;Group&gt;">
								<g id="&lt;Group&gt;">
									<g id="&lt;Group&gt;">
										<path id="&lt;Path&gt;" class="s5" d="m1900.9 775.8c-36.2-38-96.3-39.4-134.3-3.1-28.6 27.2-36.4 68-23.1 102.7l-30.5 30.4 50.5 1.2c36.2 37.9 96.4 39.3 134.3 3.1 38-36.2 39.4-96.4 3.1-134.3z"/>
									</g>
								</g>
							</g>
							<g id="&lt;Group&gt;">
								<g id="&lt;Group&gt;">
									<g id="&lt;Group&gt;">
										<g id="&lt;Group&gt;">
											<path id="&lt;Path&gt;" class="s9" d="m1713 905.8q3.6-4 7.4-7.8 3.7-3.9 7.5-7.7 3.9-3.8 7.7-7.5 3.9-3.7 7.9-7.4-3.6 4-7.4 7.9-3.7 3.8-7.5 7.6-3.9 3.8-7.7 7.5-3.9 3.8-7.9 7.4z"/>
										</g>
									</g>
								</g>
								<g id="&lt;Group&gt;">
									<g id="&lt;Group&gt;">
										<g id="&lt;Group&gt;">
											<path id="&lt;Path&gt;" class="s9" d="m1763.5 907q-6.3 0.1-12.6 0-6.4 0-12.7-0.2-6.3-0.1-12.6-0.4-6.3-0.2-12.6-0.6 6.3-0.1 12.6 0 6.3 0 12.7 0.2 6.3 0.1 12.6 0.3 6.3 0.3 12.6 0.7z"/>
										</g>
									</g>
								</g>
								<g id="&lt;Group&gt;">
									<g id="&lt;Group&gt;">
										<g id="&lt;Group&gt;">
											<path id="&lt;Path&gt;" class="s9" d="m1743.5 875.4c-2.1-5.4-3.7-11-4.8-16.7-1.1-5.8-1.6-11.6-1.6-17.4-0.1-11.7 2-23.4 6.2-34.3 4.2-11 10.4-21.1 18.3-29.8 7.9-8.6 17.2-15.9 27.7-21.2 5.3-2.6 10.7-4.8 16.4-6.4 5.6-1.6 11.4-2.7 17.2-3.3 11.7-1.2 23.5-0.2 34.8 3 11.4 3 22.1 8.3 31.5 15.3 4.7 3.5 9.1 7.4 13.1 11.7 4 4.3 7.6 8.9 10.7 13.9 6.3 9.9 10.7 21 13 32.5 2.2 11.5 2.4 23.4 0.4 35-2 11.5-6.2 22.7-12.2 32.8-6 10-14 18.9-23.2 26.1-9.2 7.2-19.8 12.7-31 16-11.2 3.4-23.1 4.7-34.7 3.8-11.7-0.9-23.2-3.9-33.7-9-10.5-5-20.1-12-28.1-20.4 8.1 8.3 17.7 15.2 28.3 20.2 10.5 4.9 21.9 7.8 33.5 8.6 11.6 0.8 23.3-0.5 34.4-3.9 11.1-3.4 21.6-8.9 30.7-16.1 4.6-3.5 8.8-7.6 12.6-11.9 3.8-4.4 7.3-9 10.2-14 6-9.9 10.1-21 12-32.4 2-11.4 1.8-23.2-0.4-34.6-2.3-11.3-6.7-22.2-12.9-32-3-4.9-6.6-9.5-10.6-13.7-3.9-4.3-8.2-8.2-12.9-11.6-9.2-6.9-19.8-12.2-31-15.2-11.1-3.1-22.9-4.1-34.4-3-11.5 1.1-22.9 4.3-33.2 9.5-10.4 5.2-19.8 12.4-27.6 20.9-7.9 8.6-14.1 18.6-18.3 29.4-4.3 10.8-6.5 22.4-6.5 34.1-0.1 5.8 0.5 11.6 1.5 17.3 1 5.8 2.6 11.4 4.6 16.8z"/>
										</g>
									</g>
								</g>
							</g>
						</g>
					</g>
				</g>
				<g id="&lt;Group&gt;">
					<g id="&lt;Group&gt;">
						<path id="&lt;Path&gt;" class="s4" d="m1858.2 808.2l-28 72.6-10.8-4.2 11.4-29.4-1.8-0.7-11.4 29.4-10.8-4.2 28.1-72.5z"/>
					</g>
					<g id="&lt;Group&gt;">
						<path id="&lt;Path&gt;" class="s4" d="m1860.9 801.4l-23.3-9.1-1.8 4.6 23.3 9z"/>
					</g>
					<g id="&lt;Group&gt;">
						<path id="&lt;Path&gt;" class="s4" d="m1829.3 883.1l-23.4-9.1-1.7 4.6 6.3 18.2 17-9.1z"/>
					</g>
				</g>
			</g>
		</g>
	</g>
</svg>