<svg version="1.2" xmlns="http://www.w3.org/2000/svg" viewBox="0 0 163 159" width="163" height="159">
	<title>logo-2-ai</title>
	<style>
		.s0 { fill: #1f4168 } 
	</style>
	<g id="Layer 1">
		<path id="&lt;Path&gt;" class="s0" d="m106.4 7.5c-1.5 0.9-3.2 0.5-4.8 0.5-18 0-33.7 5.9-47.4 17.5-12.4 10.4-20.3 23.5-23.5 39.1-3.9 19.6-0.5 37.4 14.6 51.8 8.3 7.8 18.1 12.6 29.5 14 18.9 2.4 34.7-3.5 47.4-17.4 6.7-7.4 10.7-16.1 12.3-26 1.3-8.4 0.8-16.5-3-24.1-6.1-12-15.7-19.5-28.9-22.1-17.6-3.3-34.4 5.1-42.8 20.7-4.3 7.8-5.7 16.6-3 25.3 3 9.6 9.8 15.5 19.7 17.6 10.5 2.3 19.2-1 26.3-8.8 5.1-5.7 6.3-12.6 5.4-19.9-0.4-3.3-2.8-5.5-5.4-7.4-7-5-18-1.1-20.3 7.1-0.3 1.1-0.4 2.3 0.5 4 3.8 0 7.8 0 11.9 0-1.5 10.8-11.6 15.7-20.2 10-3.1-2-4.9-5.1-5.3-9-1.2-13.7 9.8-24.9 21.1-26.5 17.2-2.6 28 8.6 30.4 20.1 2 9.6-0.6 18.7-6.3 26.7-7 10-16.7 15.6-29.1 16.7-12.3 1.1-22.9-2.8-31.5-11.4-8.7-8.9-12.3-19.7-10.8-32.5 1.1-9.2 4-17.5 8.9-25.3 6.5-10.3 15.6-17.4 26.6-22.3 7.5-3.3 15.6-4.9 23.6-4.8 12 0.2 23.1 3.6 33.2 10.4 11 7.4 18.5 17.3 22.6 29.7 3.8 11.9 3.7 23.8 0.6 36-6 23.4-19.9 40.2-41.3 51-9.1 4.7-18.8 7.2-29 8.1-21.4 1.8-40.1-4.8-56.8-17.8-12.5-9.7-20.4-22.8-25.3-37.6-2.4-7.2-3.7-14.9-3.5-22.4 0.6-13.8 4.1-27 11.6-38.9 12.9-20.7 31.5-33 55.7-36.8 11.2-1.7 22.5-1.3 33.5 2 1.3 0.4 3 0.5 2.8 2.7z"/>
		<path id="&lt;Path&gt;" class="s0" d="m246.9 81.4c-5.7 0-10.9 0-16 0-1.3-1-0.7-2.4-0.7-3.7q-0.1-12.6-0.1-25.3c0-2.2-0.3-4.2-0.7-6.4-0.9-4.6-3.8-7.3-8.3-8-4.7-0.7-8.9 0.7-11.8 4.7-2.4 3.5-2.8 7.7-2.8 11.9-0.1 8.7-0.1 17.5-0.1 26.6-5.3 0-10.5 0-16 0 0-18.8 0-37.6 0-56.8 5 0 10 0 14.8 0 1.5 1.7 0.3 3.6 1.4 5.5 5.3-4.9 11.6-6.5 18.6-6.3 7.1 0.2 12.8 3 17.3 8.3 1.3 0.1 1.8-0.9 2.5-1.5 7.6-6.9 16.5-8 26-5.9 7.6 1.7 12.3 6.8 14.6 14.2 0.8 2.6 1.4 5.4 1.4 8.2 0 10.9 0 21.9 0 32.8 0 0.5 0.2 1-0.8 1.6-4.8 0-10.1 0-15.5 0-1-1-0.5-2.4-0.5-3.6-0.1-8.5 0-16.9 0-25.4q0-1.5-0.1-2.9c-0.3-7.1-4.1-11.3-10.4-11.6-6.2-0.2-11.6 4.1-12.5 10.5-0.3 2.4-0.2 4.9-0.3 7.4 0 8.4 0 16.8 0 25.7z"/>
		<path id="&lt;Compound Path&gt;" fill-rule="evenodd" class="s0" d="m449.4 29c0-8.7 0-17.2 0-25.9 5.6 0 10.7 0 15.8 0 1 4.1 1.3 55.4 0.5 77.9-2.4 1-5.1 0.4-7.7 0.5-2.5 0.1-4.9 0-7.4 0-1.4-1.7-0.2-3.7-1.1-5.6-3.5 3.1-7.5 5-12.1 6-16.4 3.4-33.2-8.6-33.7-26.1-0.3-7.4 0.5-14.5 5-20.8 5.1-7 12-10.6 20.6-11.3 6.6-0.5 12.9 0.5 18.2 4.9 0.3 0.2 0.9 0.2 1.9 0.4zm-28.8 23.6c0 0.8 0 1.7 0 2.5 0.3 5.6 3 9.9 8 12.2 4.9 2.3 10 2 14.6-1 5.1-3.4 7.4-11.1 6-17.7-1.5-7-9.4-13.5-18.2-10.9-6.5 1.9-10.4 7.1-10.4 14.9z"/>
		<path id="&lt;Path&gt;" class="s0" d="m350.1 81.3c-5.4 0-10.5 0-15.6 0-0.8-3.4-1.1-50.3-0.2-57.2 4.9 0.1 10-0.2 14.6 0.2 1.4 2 0.3 3.8 1.2 5.3 1.1 0 1.8-0.7 2.6-1.3 7.6-5.5 16.1-5.9 24.7-3.4 8.8 2.6 13.4 9.2 14.5 18.2 1.5 12.5 0.2 25.1 0.8 37.8-2.9 1.2-5.7 0.5-8.4 0.6-2.7 0.1-5.3 0-7.8 0-1.2-1.4-0.7-2.7-0.7-4-0.1-8.3 0-16.5 0-24.8 0-1.7 0-3.3-0.4-4.9-1.5-7-5.4-10.4-12-9.9-7 0.4-11.7 4.4-12.5 11.1-0.5 3.5-0.9 7.1-0.8 10.8 0.1 7.1 0 14.2 0 21.5z"/>
		<path id="&lt;Path&gt;" class="s0" d="m302.1 81.3c0-19.1 0-37.9 0-56.9 5.2 0 10.3 0 15.3 0 1 3.5 1.3 48.4 0.4 56.9-5 0-10.1 0-15.7 0z"/>
		<path id="&lt;Path&gt;" class="s0" d="m190.6 106.3c2.1-1 3.4-0.7 5.2-0.6 6.2 10.3 12.5 20.9 19.3 32.2 6.8-11 13.3-21.6 19.6-31.8 2-0.8 3.4-0.7 5.2-0.3 6.4 10.4 12.8 20.9 19.6 32.1 6.7-11.1 13.1-21.5 19.5-31.9 1.7-0.7 3.2-0.7 5.2 0-7.3 12.1-14.4 23.9-21.7 35.8-1.7 0.7-3.5 0.3-5.6 0.3-6.3-10.1-12.7-20.3-19.4-31-4 4.8-6.6 10.2-9.9 15.2-3.3 5.1-6.5 10.4-9.7 15.5-1.8 0.6-3.6 0.5-5.7 0.1-7.1-11.7-14.2-23.5-21.6-35.6z"/>
		<path id="&lt;Compound Path&gt;" fill-rule="evenodd" class="s0" d="m416 124.9c1.1 7.3 5.9 10.3 11.3 12.1 10.8 3.6 21.5 3.1 31.7-2.7 0.7 0.4 1.4 0.7 2 1.2 0.3 0.2 0.4 0.5 0.6 0.8-0.1 0.3-0.2 0.7-0.4 0.8-3.3 2.6-7.2 4.1-11.3 4.6-8.6 1-17.2 1.3-25.6-1.6-2.8-1-5.5-2.4-7.8-4.2-8.6-6.8-8.4-17.4-0.1-24.1 4.8-3.9 10.5-5.6 16.5-6.2 7.3-0.8 14.6-0.1 21.4 2.8 3.7 1.6 6.9 3.9 9.2 7.3 1.9 2.7 2.7 5.6 2 9.2-16.4 0-32.7 0-49.5 0zm43.9-3c-0.7-4.7-1.7-6.1-5-8.6-4.1-3.1-9-4.1-13.9-4.6-6.5-0.7-12.9 0.4-18.5 3.9-3.4 2.1-6 4.9-6.4 9.3 14.7 0 29.1 0 43.8 0z"/>
		<path id="&lt;Compound Path&gt;" fill-rule="evenodd" class="s0" d="m338 141.8c-2 0.6-3.6 0.5-5.2 0.1-1-1.3-0.2-2.9-0.8-4.3-0.2-0.3-0.5-0.4-0.8-0.2-9.8 6.2-20.5 5.7-31.2 3.7-2.6-0.5-5.1-1.7-7-3.7-3.2-3.1-3.3-7.3-0.2-10.5 3-3.2 7.1-3.9 11.2-4.6 6-1 11.9-0.7 17.9-0.7q4.8-0.1 9.4 0c1.5-5.6-0.1-9.3-5.1-11.2-7.1-2.5-14.3-2.3-21.5-0.6-3.4 0.8-6.7 1.9-9.6 3.3-1.2-0.6-1.8-1.3-2.3-2.3 0.3-0.4 0.5-0.9 0.9-1.1 4.5-2.3 9.4-3.4 14.3-3.9 6.9-0.8 13.8-1 20.6 1.4 5.2 1.9 9.7 5.2 9.4 12.9-0.2 7.2 0 14.5 0 21.7zm-6.2-17.3c-9.4 0-18.4-0.6-27.5 0.8-3.9 0.6-7.3 2.1-8.1 6.4 0.6 3.8 3 5.6 6.3 6.4 6.3 1.8 12.7 1.6 19 0.2 4.4-0.9 8-3.1 10.5-6.7 0.2-2.3 0.3-4.4-0.2-7.1z"/>
		<path id="&lt;Path&gt;" class="s0" d="m380.4 142.1c-2.2 0-4 0-6.1 0-8.5-11.9-17.1-23.8-25.8-36 2.1-0.9 3.7-0.6 5.8-0.3q11.3 15.7 23.1 32.3c7.8-10.9 15.5-21.5 23-31.9 2-1.1 3.6-0.5 6-0.6-8.5 12.7-17.5 24.3-26 36.5z"/>
		<path id="&lt;Path&gt;" class="s0" d="m300.2 3.9c4.2-6 9.1-7.6 14.9-5 3.4 1.5 5.1 4 5.1 7.7 0.1 3.7-1.1 6.8-4.6 8.5-3.8 1.8-7.7 1.8-11.4-0.2-4.5-2.5-4.8-6.7-4-11z"/>
	</g>
</svg>