<svg version="1.2" xmlns="http://www.w3.org/2000/svg" viewBox="0 0 2575 2667" width="869" height="900">
	<title>Login ai file-ai</title>
	<defs>
		<clipPath clipPathUnits="userSpaceOnUse" id="cp1">
			<path d="m1669.17 2512.33h-1610.16v-1570.88h1610.16z"/>
		</clipPath>
	</defs>
	<style>
		.s0 { fill: #ecf2fa } 
		.s1 { fill: #101c3a } 
		.s2 { fill: #29517a } 
		.s3 { fill: #cfe0fa } 
		.s4 { fill: #ffffff } 
		.s5 { fill: #1b3854 } 
		.s6 { fill: #2b173f } 
		.s7 { fill: #425fec } 
		.s8 { fill: #fc721a } 
		.s9 { fill: #1f4168 } 
		.s10 { fill: #091022 } 
		.s11 { fill: #5681a3 } 
		.s12 { fill: #cbcbcb } 
		.s13 { fill: #ffddd2 } 
		.s14 { fill: #00b5f6 } 
		.s15 { fill: #131313 } 
	</style>
	<g id="Layer 1">
		<g id="&lt;Group&gt;">
			<g id="&lt;Group&gt;">
				<g id="&lt;Group&gt;">
					<g id="&lt;Group&gt;">
						<path id="&lt;Path&gt;" class="s0" d="m1349.8 608.8c-343 72.5-291.9 473.2-882.6 698.1-633.1 241-249.6 1150.3 470.6 1202.1 716.9 51.5 1047.6-271.8 1121.2-886.1 55.3-461.9-199.3-1121.8-709.2-1014.1z"/>
					</g>
					<g id="&lt;Group&gt;">
						<path id="&lt;Path&gt;" class="s0" d="m543.5 1224.5c153.8-52.9 387.1-300 302.7-576.7-84.3-276.8-757 732.8-302.7 576.7z"/>
					</g>
				</g>
				<g id="&lt;Group&gt;">
					<g id="&lt;Group&gt;">
						<path id="&lt;Path&gt;" class="s1" d="m1881.5 2514h-680.4c-20.2 0-34.3-16.4-31.5-36.6l65.3-497.5c2.9-20.2 21.6-36.7 41.8-36.7h680.4c20.2 0 34.3 16.5 31.5 36.7l-65.3 497.5c-2.9 20.2-21.6 36.6-41.8 36.6z"/>
						<path id="&lt;Path&gt;" class="s2" d="m1858.9 2479.5h-680.3c-20.3 0-34.4-16.5-31.5-36.7l65.3-462.9c2.8-20.2 21.6-36.7 41.8-36.7h680.4c20.2 0 34.3 16.5 31.5 36.7l-66.5 468.2c-2.8 20.2-20.4 31.4-40.7 31.4z"/>
						<g id="&lt;Group&gt;">
							<path id="&lt;Path&gt;" class="s3" d="m1835.1 2459.8h-627.2c-18.6 0-31.6-15.1-29-33.8l60.6-429.3c2.6-18.7 19.9-33.8 38.5-33.8h627.2c18.6 0 31.6 15.1 29 33.8l-60.6 429.3c-2.6 18.7-19.8 33.8-38.5 33.8z"/>
						</g>
						<g id="&lt;Group&gt;">
							<path id="&lt;Path&gt;" class="s1" d="m1555.4 2129.7l-8.2-37.4c-1.7-7.9-8.6-13.4-16.9-13.4h-221c-10.3 0-19.1 8.3-19.9 18.6l-3.2 45.6-1.8 25.7-21.8 312.4c-0.7 10.2 7 18.5 17.3 18.5h514.2c10.2 0 19.1-8.3 19.8-18.5l22.4-319.5c0.7-10.3-7-18.6-17.3-18.6h-246.7c-8.3 0-15.2-5.5-16.9-13.4z"/>
							<g id="&lt;Group&gt;">
								<g id="&lt;Group&gt;">
									<path id="&lt;Path&gt;" class="s4" d="m1734 2439.1l-0.6-506.7-416.9 0.4 0.5 506.8z"/>
								</g>
								<g id="&lt;Group&gt;">
									<g id="&lt;Group&gt;">
										<path id="&lt;Path&gt;" class="s1" d="m1549.4 2043.9l-171.2 0.2v-13l171.2-0.2z"/>
									</g>
									<g id="&lt;Group&gt;">
										<path id="&lt;Path&gt;" class="s1" d="m1463.9 2080.9l-85.6 0.1-0.1-13 85.6-0.1z"/>
									</g>
									<g id="&lt;Group&gt;">
										<path id="&lt;Path&gt;" class="s1" d="m1574 2080.7l-85.6 0.1v-12.9l85.6-0.1z"/>
									</g>
									<g id="&lt;Group&gt;">
										<path id="&lt;Path&gt;" class="s1" d="m1685.3 2080.6l-85.6 0.1v-13h85.6z"/>
									</g>
									<g id="&lt;Group&gt;">
										<path id="&lt;Path&gt;" class="s1" d="m1685.3 2043.8l-119.3 0.1v-13l119.2-0.1z"/>
									</g>
									<g id="&lt;Group&gt;">
										<path id="&lt;Path&gt;" class="s1" d="m1685.3 2116.3l-171.2 0.2v-13l171.2-0.2z"/>
									</g>
									<g id="&lt;Group&gt;">
										<path id="&lt;Path&gt;" class="s1" d="m1497.5 2116.5l-119.2 0.1v-13l119.2-0.1z"/>
									</g>
								</g>
								<g id="&lt;Group&gt;">
									<g id="&lt;Group&gt;">
										<path id="&lt;Path&gt;" class="s1" d="m1549.6 2151.8l-171.3 0.2v-13l171.2-0.2z"/>
									</g>
									<g id="&lt;Group&gt;">
										<path id="&lt;Path&gt;" class="s1" d="m1464 2188.7l-85.6 0.1v-12.9l85.6-0.1z"/>
									</g>
									<g id="&lt;Group&gt;">
										<path id="&lt;Path&gt;" class="s1" d="m1574.1 2188.6l-85.6 0.1v-13l85.6-0.1z"/>
									</g>
									<g id="&lt;Group&gt;">
										<path id="&lt;Path&gt;" class="s1" d="m1685.4 2188.5l-85.6 0.1v-13l85.6-0.1z"/>
									</g>
									<g id="&lt;Group&gt;">
										<path id="&lt;Path&gt;" class="s1" d="m1685.4 2151.6l-119.2 0.2-0.1-13 119.3-0.1z"/>
									</g>
									<g id="&lt;Group&gt;">
										<path id="&lt;Path&gt;" class="s1" d="m1685.5 2224.1l-171.2 0.2-0.1-12.9 171.3-0.2z"/>
									</g>
									<g id="&lt;Group&gt;">
										<path id="&lt;Path&gt;" class="s1" d="m1497.7 2224.3l-119.3 0.2v-13l119.2-0.1z"/>
									</g>
								</g>
							</g>
							<path id="&lt;Path&gt;" class="s5" d="m1452.8 2142.3l-17.4-37.4c-3.7-8-12-13.4-20.2-13.4h-221c-10.3 0-17.1 8.3-15.3 18.5l8 45.7 4.6 25.7 55 312.4c1.8 10.2 11.6 18.5 21.9 18.5h514.2c10.2 0 17.1-8.3 15.3-18.5l-56.4-319.6c-1.8-10.2-11.6-18.5-21.8-18.5h-246.7c-8.3 0-16.5-5.5-20.2-13.4z"/>
						</g>
						<g id="&lt;Group&gt;">
							<g id="&lt;Group&gt;">
								<path id="&lt;Path&gt;" class="s1" d="m1015.9 2457.2h-77.1v-13h77.1z"/>
							</g>
							<g id="&lt;Group&gt;">
								<path id="&lt;Path&gt;" class="s1" d="m1106.6 2457.2h-77.1v-13h77.1z"/>
							</g>
							<g id="&lt;Group&gt;">
								<path id="&lt;Path&gt;" class="s1" d="m1197.4 2457.2h-77.1v-13h77.1z"/>
							</g>
							<g id="&lt;Group&gt;">
								<path id="&lt;Path&gt;" class="s1" d="m1466.5 2457.2h-255.5v-13h255.5z"/>
							</g>
							<g id="&lt;Group&gt;">
								<path id="&lt;Path&gt;" class="s1" d="m1560.2 2457.2h-77.1v-13h77.1z"/>
							</g>
							<g id="&lt;Group&gt;">
								<path id="&lt;Path&gt;" class="s1" d="m1651 2457.2h-77.1v-13h77.1z"/>
							</g>
							<g id="&lt;Group&gt;">
								<path id="&lt;Path&gt;" class="s1" d="m1741.7 2457.2h-77.1v-13h77.1z"/>
							</g>
							<g id="&lt;Group&gt;">
								<path id="&lt;Path&gt;" class="s1" d="m1832.4 2457.2h-77.1v-13h77.1z"/>
							</g>
						</g>
						<g id="&lt;Group&gt;">
							<path id="&lt;Path&gt;" class="s1" d="m1858.3 2514h-924.4c-25.2 0-45.6-3.3-45.6-28.5v-28.3h1015.5v28.3c0 25.2-20.4 28.5-45.5 28.5z"/>
							<path id="&lt;Path&gt;" class="s2" d="m1868.5 2485.5h-979.2v-28.9h1008.2c0 16-13 28.9-29 28.9z"/>
						</g>
						<path id="&lt;Path&gt;" class="s1" d="m1898.1 2459.4l2.4-10.6 13.7 4.5-7.1 41.4-12 15.5-10.6 2.6c0 0-1.5 0.3-3.1 0.3-1.5 0-33.4 0-33.4 0 0 0 21-23.1 22.8-23.1 1.8 0 18.2-1 18.2-1l5-14.8 3.5-4.4z"/>
					</g>
				</g>
				<g id="&lt;Group&gt;">
					<g id="&lt;Group&gt;">
						<g id="&lt;Group&gt;">
							<path id="&lt;Path&gt;" class="s4" d="m2214.2 983.6v763.1c0 40.1-32.4 72.4-72.4 72.4h-1026.2c-40 0-72.4-32.3-72.4-72.4v-763.1c0-32.5 26.3-58.9 58.8-58.9h1053.4c32.5 0 58.8 26.4 58.8 58.9z"/>
							<g id="&lt;Group&gt;">
								<path id="&lt;Compound Path&gt;" fill-rule="evenodd" class="s0" d="m2141.8 1824.9h-1026.2c-43.1 0-78.1-35.1-78.1-78.2v-763.1c0-35.7 28.9-64.6 64.5-64.6h1053.4c35.6 0 64.5 28.9 64.5 64.6v763.1c0 43.1-35 78.2-78.1 78.2zm-1039.8-894.5c-29.2 0-53.1 23.9-53.1 53.2v763.1c0 36.8 29.9 66.7 66.7 66.7h1026.2c36.8 0 66.7-29.9 66.7-66.7v-763.1c0-29.3-23.9-53.2-53.1-53.2z"/>
							</g>
						</g>
					</g>
					<g id="&lt;Group&gt;">
						<g id="&lt;Group&gt;">
							<path id="&lt;Path&gt;" class="s6" d="m2085.9 957.4c-5 0-9.1 4.1-9.1 9.1 0 5.1 4.1 9.1 9.1 9.1 5 0 9.1-4 9.1-9.1 0-5-4.1-9.1-9.1-9.1z"/>
							<path id="&lt;Path&gt;" class="s7" d="m2124.3 957.4c-5 0-9.1 4.1-9.1 9.1 0 5.1 4.1 9.1 9.1 9.1 5.1 0 9.1-4 9.1-9.1 0-5-4-9.1-9.1-9.1z"/>
							<path id="&lt;Path&gt;" class="s8" d="m2162.8 957.4c-5.1 0-9.1 4.1-9.1 9.1 0 5.1 4 9.1 9.1 9.1 5 0 9.1-4 9.1-9.1 0-5-4.1-9.1-9.1-9.1z"/>
						</g>
					</g>
					<g id="&lt;Group&gt;">
						<path id="&lt;Path&gt;" class="s9" d="m2210.8 1031.8h-884.5v-11.5h884.5z"/>
					</g>
				</g>
				<g id="&lt;Group&gt;" style="opacity: .3">
					<path id="&lt;Compound Path&gt;" class="s10" d="m1723.3 1381.7c-12.8-16.9-14.6-38.6-34.7-50.2-16.7-9.6-25.2-20-33.9-29.3 18.5-13.7 44.4-39.1 56-62.1 9.6-19 7.4-33.5-1.1-27.1-19.6 14.5-82.1 49.6-101.8 71-0.1 0.2-0.3 0.4-0.4 0.6-16.4 12.3-47.3 79.4-49.1 94.3-2.6 22.4 40.9 36.7 28 90.6-0.6 0.6-72.5 162.9-97.8 211.6-9.7 16-19.5 32.1-28.8 47.9-12.4-6.8-25.3-13.8-38.2-20.8-4.3-13-98.1 67.5-105 54.4 0 0-156.7-104.2-273.3-149v133.1c0 40.1 32.4 72.4 72.4 72.4h539.2c10.8-135.1 14.6-311.4 14.6-311.4-7.2-48.9 21.2-49 38.8-67 17.5-17.9 28-42 15.1-59z"/>
				</g>
				<g id="&lt;Group&gt;" style="opacity: .3">
					<path id="&lt;Path&gt;" class="s10" d="m1992.5 1639.5h-755.7c-31.4 0-56.9-25.5-56.9-56.9v-284.4c0-31.4 25.5-56.9 56.9-56.9h755.7c31.4 0 56.9 25.5 56.9 56.9v284.4c0 31.4-25.5 56.9-56.9 56.9z"/>
				</g>
				<g id="&lt;Group&gt;">
					<path id="&lt;Path&gt;" class="s2" d="m731 472.7l-67.7-95.3 116.3-11z"/>
					<g id="&lt;Group&gt;">
						<g id="&lt;Group&gt;">
							<path id="&lt;Compound Path&gt;" fill-rule="evenodd" class="s1" d="m724 451.4l-70-98.5 120.3-11.4zm-65.7-96.6l65.3 91.9 46.9-102.5z"/>
						</g>
					</g>
				</g>
				<g id="&lt;Group&gt;">
					<path id="&lt;Path&gt;" class="s11" d="m316.1 1130.4l0.4 0.3 25.4-32.9-40.4-5.5-0.4 2.1c-1.7 13.3 3.6 27.1 15 36z"/>
				</g>
				<path id="&lt;Path&gt;" class="s11" d="m330.1 670.3c-1 4.8-5.6 7.9-10.5 7-4.8-1-7.9-5.7-7-10.5 1-4.8 5.7-7.9 10.5-7 4.8 1 7.9 5.7 7 10.5z"/>
				<path id="&lt;Path&gt;" class="s11" d="m2034 222.7c-0.9 4.8-5.6 8-10.4 7-4.8-0.9-8-5.6-7-10.4 0.9-4.9 5.6-8 10.4-7 4.9 0.9 8 5.6 7 10.4z"/>
				<path id="&lt;Path&gt;" class="s11" d="m788.4 779.3c-1 4.8-5.7 8-10.5 7-4.8-0.9-8-5.6-7-10.4 1-4.9 5.6-8 10.5-7 4.8 0.9 7.9 5.6 7 10.4z"/>
				<path id="&lt;Path&gt;" class="s11" d="m1176.3 271.4c-1.9 9.6-11.3 15.9-20.9 14-9.7-1.9-16-11.3-14-20.9 1.9-9.7 11.2-15.9 20.9-14 9.6 1.9 15.9 11.3 14 20.9z"/>
				<path id="&lt;Path&gt;" class="s11" d="m2389.1 348.7c-1.9 9.6-11.3 15.9-20.9 14-9.6-1.9-15.9-11.3-14-20.9 1.9-9.7 11.3-15.9 20.9-14 9.7 1.9 15.9 11.2 14 20.9z"/>
				<g id="&lt;Group&gt;">
					<g id="&lt;Group&gt;">
						<path id="&lt;Path&gt;" class="s1" d="m1456.8 1187.8h-14.8v-63.9c0-37.4 30.5-67.9 68-67.9 29.3 0 53.1-23.9 53.1-53.2v-237.8h14.8v237.8c0 37.5-30.5 67.9-67.9 67.9-29.4 0-53.2 23.9-53.2 53.2z"/>
					</g>
					<g id="&lt;Group&gt;">
						<path id="&lt;Path&gt;" class="s1" d="m1610.6 1187.8h-14.8v-63.9c0-37.4 30.5-67.9 67.9-67.9 29.4 0 53.2-23.9 53.2-53.2v-237.8h14.8v237.8c0 37.5-30.5 67.9-68 67.9-29.3 0-53.1 23.9-53.1 53.2z"/>
					</g>
					<path id="&lt;Path&gt;" class="s2" d="m1445.1 1144.2l10.7 0.2c5.8 0.1 10.7 4.3 11.7 10.1l9 54.5-54.2-0.9 10.8-54.2c1.1-5.7 6.2-9.8 12-9.7z"/>
					<path id="&lt;Path&gt;" class="s2" d="m1598.9 1144.2l10.7 0.2c5.8 0.1 10.7 4.3 11.7 10.1l9 54.5-54.2-0.9 10.8-54.2c1.1-5.7 6.2-9.8 12-9.7z"/>
					<path id="&lt;Path&gt;" class="s2" d="m1728.7 881.5l-10.6-0.1c-5.9-0.1-10.8-4.4-11.7-10.1l-9-54.5 54.1 0.9-10.8 54.1c-1.1 5.7-6.2 9.8-12 9.7z"/>
					<path id="&lt;Path&gt;" class="s2" d="m1574.9 881.5l-10.6-0.1c-5.9-0.1-10.8-4.4-11.7-10.1l-9-54.5 54.1 0.9-10.8 54.1c-1.1 5.7-6.2 9.8-12 9.7z"/>
				</g>
				<g id="&lt;Group&gt;">
					<path id="&lt;Path&gt;" class="s1" d="m1930.3 1571.9h-755.7c-31.4 0-56.9-25.5-56.9-56.9v-284.4c0-31.5 25.5-56.9 56.9-56.9h755.7c31.4 0 56.9 25.4 56.9 56.9v284.4c0 31.4-25.5 56.9-56.9 56.9z"/>
					<path id="&lt;Path&gt;" class="s2" d="m1954.9 1230.6v284.4c0 31.4-25.5 56.8-56.9 56.8h-755.7c-31.4 0-56.8-25.4-56.8-56.8v-284.4c0-31.4 25.4-57 56.8-57h755.7c31.4 0 56.9 25.6 56.9 57z"/>
					<g id="&lt;Group&gt;">
						<path id="&lt;Compound Path&gt;" fill-rule="evenodd" class="s4" d="m1788.6 1512.1h-536.9c-28 0-50.9-22.8-50.9-50.8 0-28.1 22.9-50.9 50.9-50.9h536.9c28.1 0 50.9 22.8 50.9 50.9 0 28-22.8 50.8-50.9 50.8zm-536.9-90.2c-21.7 0-39.3 17.7-39.3 39.4 0 21.6 17.6 39.3 39.3 39.3h536.9c21.7 0 39.4-17.7 39.4-39.3 0-21.7-17.7-39.4-39.4-39.4z"/>
						<path id="&lt;Compound Path&gt;" fill-rule="evenodd" class="s4" d="m1788.6 1335.1h-536.9c-28 0-50.9-22.8-50.9-50.8 0-28.1 22.9-50.9 50.9-50.9h536.9c28.1 0 50.9 22.8 50.9 50.9 0 28-22.8 50.8-50.9 50.8zm-536.9-90.2c-21.7 0-39.3 17.7-39.3 39.4 0 21.7 17.6 39.3 39.3 39.3h536.9c21.7 0 39.4-17.6 39.4-39.3 0-21.7-17.7-39.4-39.4-39.4z"/>
						<g id="&lt;Group&gt;">
							<path id="&lt;Compound Path&gt;" class="s4" d="m1319.3 1479.8l-8.5-6.6q4-4.6 8.4-8.8 1.8-1.6 2.2-2.1-1.4-0.2-8-1.9-4.8-1.1-6.3-1.7l3.3-9.9q7.4 3 13.2 6.6-1.4-9.2-1.4-15h10q0 4.1-1.5 15.1 1.1-0.5 4.9-2.2 5-2.3 9.3-3.9l3 10.1q-6.3 1.5-14.5 2.8l6.8 7.6q2 2.3 3.2 3.8l-8.6 5.7-7.6-12.6q-3.5 6.1-7.9 13z"/>
							<path id="&lt;Compound Path&gt;" class="s4" d="m1396.2 1479.8l-8.5-6.6q4-4.6 8.4-8.8 1.8-1.6 2.2-2.1-1.4-0.2-8-1.9-4.8-1.1-6.3-1.7l3.3-9.9q7.4 3 13.2 6.6-1.4-9.2-1.4-15h10q0 4.1-1.5 15.1 1.1-0.5 4.9-2.2 5-2.3 9.3-3.9l3 10.1q-6.3 1.5-14.5 2.8l6.8 7.6q2 2.3 3.2 3.8l-8.6 5.7-7.6-12.6q-3.5 6.1-7.9 13z"/>
							<path id="&lt;Compound Path&gt;" class="s4" d="m1473.1 1479.8l-8.5-6.6q4-4.6 8.4-8.8 1.8-1.6 2.2-2.1-1.4-0.2-8-1.9-4.8-1.1-6.3-1.7l3.3-9.9q7.4 3 13.2 6.6-1.4-9.2-1.4-15h10q0 4.1-1.5 15.1 1.1-0.5 4.9-2.2 5-2.3 9.3-3.9l3 10.1q-6.3 1.5-14.5 2.8l6.8 7.6q2 2.3 3.2 3.8l-8.6 5.7-7.6-12.6q-3.5 6.1-7.9 13z"/>
							<path id="&lt;Compound Path&gt;" class="s4" d="m1550 1479.8l-8.5-6.6q4-4.6 8.4-8.8 1.8-1.6 2.2-2.1-1.4-0.2-8-1.9-4.8-1.1-6.3-1.7l3.3-9.9q7.4 3 13.2 6.6-1.4-9.2-1.4-15h10q0 4.1-1.5 15.1 1.1-0.5 4.8-2.2 5.1-2.3 9.4-3.9l3 10.1q-6.3 1.5-14.5 2.8l6.8 7.6q2 2.3 3.2 3.8l-8.6 5.7-7.6-12.6q-3.5 6.1-7.9 13z"/>
							<path id="&lt;Compound Path&gt;" class="s4" d="m1626.9 1479.8l-8.5-6.6q4-4.6 8.4-8.8 1.8-1.6 2.2-2.1-1.4-0.2-8-1.9-4.8-1.1-6.3-1.7l3.3-9.9q7.4 3 13.2 6.6-1.4-9.2-1.4-15h10q0 4.1-1.5 15.1 1.1-0.5 4.8-2.2 5.1-2.3 9.4-3.9l3 10.1q-6.3 1.5-14.5 2.8l6.8 7.6q2 2.3 3.2 3.8l-8.6 5.7-7.6-12.6q-3.5 6.1-7.9 13z"/>
							<path id="&lt;Compound Path&gt;" class="s4" d="m1703.8 1479.8l-8.5-6.6q4-4.6 8.4-8.8 1.8-1.6 2.2-2.1-1.4-0.2-8-1.9-4.8-1.1-6.3-1.7l3.3-9.9q7.3 3 13.1 6.6-1.3-9.2-1.3-15h10q0 4.1-1.5 15.1 1.1-0.5 4.8-2.2 5.1-2.3 9.4-3.9l3 10.1q-6.3 1.5-14.5 2.8l6.8 7.6q2 2.3 3.2 3.8l-8.6 5.7-7.6-12.6q-3.5 6.1-7.9 13z"/>
						</g>
						<path id="&lt;Path&gt;" class="s4" d="m1748.3 1297h-458.9v-25.9h458.9z"/>
					</g>
				</g>
				<g id="&lt;Group&gt;" style="opacity: .3">
					<path id="&lt;Compound Path&gt;" class="s10" d="m1668 1381.7c-12.8-16.9-14.6-38.6-34.7-50.2-16.7-9.6-25.2-20-33.9-29.3 18.5-13.7 44.4-39.1 56-62.1 9.6-19 7.4-33.5-1.1-27.1-19.6 14.5-82.1 49.6-101.8 71-0.1 0.2-0.3 0.4-0.4 0.6-16.4 12.3-47.3 79.4-49.1 94.3-2.6 22.4 40.9 36.7 28 90.6-0.3 0.3-22.4 49.8-46.3 102.3h127.6c1.2-38.8 1.8-64.1 1.8-64.1-7.2-48.9 21.2-49 38.8-67 17.5-17.9 28-42 15.1-59z"/>
				</g>
				<g id="&lt;Group&gt;">
					<g id="&lt;Group&gt;">
						<path id="&lt;Path&gt;" class="s2" d="m2202.2 506.7c-16.3-0.5-32.1 1.3-47.3 5 1.5-8.3 2.6-16.7 2.9-25.3 3.6-102.5-76.5-188.6-179.1-192.3-47.3-1.7-91.1 14.7-124.9 42.8-38.5-97.2-131.6-167.5-242.8-171.5-149.7-5.3-275.5 111.8-280.8 261.6q-0.5 14 0.4 27.7c-25.9-14.4-55.3-23.2-86.9-24.4-106.6-3.7-196 79.6-199.8 186.1-3.8 106.6 79.5 196.1 186.1 199.8l976.9 34.8v-0.9c87.3-5.4 157.8-76.2 161-165.4 3.4-94.9-70.8-174.6-165.7-178z"/>
						<g id="&lt;Group&gt;">
							<path id="&lt;Path&gt;" class="s11" d="m2305.1 674.5c0 89.2-68 162.6-155 171.1v0.8h-977.6c-106.6 0-193-86.4-193-193.1 0-106.6 86.4-193 193-193q1.8 0 3.4 0h0.1c30.3 0.6 58.9 8.2 84.3 21.2q-1.4-13.6-1.5-27.7 0-11.4 1-22.6c11.5-139.3 128.2-248.7 270.4-248.7q8.6 0 17.1 0.5c103.9 6.4 191.9 71.4 231.6 162.2 27.2-24.2 61.5-40.7 99.4-45.6q11.8-1.6 24-1.6c17.4 0 34.2 2.4 50.1 6.9 78.3 21.9 135.7 93.7 135.7 178.9 0 8.6-0.9 17.1-2 25.4 15-4.2 30.7-6.7 47.1-6.7 94.9 0 171.9 77 171.9 172z"/>
						</g>
					</g>
					<g id="&lt;Group&gt;">
						<g id="&lt;Group&gt;">
							<path id="&lt;Compound Path&gt;" fill-rule="evenodd" class="s2" d="m1466.3 708.3l-19-62.3 38.2-15.4c-1.5-19.4 0.5-38.6 5.5-56.8l-34.6-22.5 30.6-57.4 37.9 16.1c12.3-14.4 27.1-26.7 44.1-36.3l-8.6-40.3 62.3-19.1 15.4 38.3c19.3-1.6 38.6 0.4 56.8 5.5l22.4-34.6 57.5 30.5-16.2 37.9c14.5 12.4 26.8 27.1 36.4 44.1l40.3-8.6 19.1 62.3-38.3 15.4c1.5 19.4-0.4 38.6-5.5 56.9l34.6 22.4-30.5 57.5-38-16.2c-12.3 14.4-27.1 26.8-44 36.4l8.6 40.3-62.3 19-15.4-38.2c-19.5 1.5-38.6-0.5-56.9-5.5l-22.4 34.6-57.5-30.6 16.2-37.9c-14.4-12.3-26.8-27.2-36.4-44.1zm218.9 22c62.1-19 97-84.7 78.1-146.8-19-62.1-84.7-97-146.8-78-62.1 18.9-97.1 84.6-78.1 146.7 19 62.1 84.7 97.1 146.8 78.1z"/>
						</g>
						<g id="&lt;Group&gt;">
							<path id="&lt;Path&gt;" class="s12" d="m1828.9 601.5l27.2-11-14.3-46.9-2.8 0.8 13.6 44.5-24.8 9.9z"/>
						</g>
						<g id="&lt;Group&gt;">
							<path id="&lt;Path&gt;" class="s12" d="m1739.9 802.7l2.8-0.6-8.4-39.3c19.4-9.8 34.3-26.2 34.5-26.4l-2.2-1.9c-0.1 0.1-15.2 16.7-34.6 26.3l-1 0.5z"/>
						</g>
						<g id="&lt;Group&gt;">
							<path id="&lt;Path&gt;" class="s12" d="m1584.6 716.7l1.7-2.3c-75.7-53.2-45.4-134.1-45.1-134.9l-2.6-1.1c-0.4 0.9-31.5 83.9 46 138.3z"/>
						</g>
						<g id="&lt;Group&gt;">
							<path id="&lt;Path&gt;" class="s12" d="m1486.5 605.3c2.2-17 5.9-31 5.9-31.2l0.3-1-12.7-8.2-1.6 2.4 11 7.1c-0.9 3.6-3.9 16-5.7 30.5z"/>
						</g>
						<g id="&lt;Group&gt;">
							<g id="&lt;Group&gt;">
								<g id="&lt;Group&gt;">
									<path id="&lt;Compound Path&gt;" fill-rule="evenodd" class="s1" d="m1645.7 780.1c-28.4 3.4-50.3-3.5-55.4-5.3l-22.5 34.7-59.8-31.8 16.2-38.1c-21.2-17.3-32.9-38.1-35.4-42.9l-40.6 8.6-19.8-64.8 38.5-15.5c-2.8-27.8 3.7-50.3 5.3-55.4l-34.8-22.5 31.8-59.8 38.2 16.2c14.8-19.1 38-32.6 42.9-35.3l-8.6-40.6 64.8-19.8 15.5 38.4c29.8-2.8 50.5 3.6 55.4 5.3l22.5-34.7 59.8 31.8-16.2 38.1c17.2 12.3 32.3 37.7 35.3 43l40.6-8.7 19.8 64.8-38.5 15.5c2.2 27.3-3.8 50.3-5.3 55.4l34.8 22.5-31.8 59.8-38.1-16.2c-15.5 19.4-38.1 32.6-42.9 35.4l8.6 40.5-64.8 19.9zm68.4-23.5l1-0.5c0.2-0.1 26.7-14.3 43.6-36l0.7-0.8 37.7 16 29.4-55.1-34.5-22.4 0.4-1c0.1-0.2 8.1-25.7 5.4-56.3l-0.1-1.1 38-15.3-18.2-59.8-40.1 8.5-0.6-0.9c-0.1-0.3-17.2-30.8-35.9-43.6l-0.9-0.7 16.1-37.8-55.2-29.3-22.4 34.5-1-0.5c-0.3 0-22.8-8.8-56.3-5.4l-1 0.1-15.4-38-59.8 18.3 8.6 40.1-1 0.5c-0.3 0.2-27.4 14.5-43.6 36l-0.7 0.9-37.8-16.1-29.3 55.2 34.5 22.3-0.4 1.1c-0.1 0.2-8.8 24.8-5.4 56.2l0.1 1.1-38.1 15.3 18.3 59.8 40.2-8.5 0.5 1c0.1 0.2 12 24.4 35.9 43.6l0.9 0.7-16.1 37.7 55.2 29.4 22.3-34.6 1.1 0.5c0.3 0.1 24.1 9.6 56.2 5.4l1.1-0.2 15.3 38.1 59.9-18.3z"/>
								</g>
							</g>
							<g id="&lt;Group&gt;">
								<g id="&lt;Group&gt;">
									<path id="&lt;Compound Path&gt;" fill-rule="evenodd" class="s1" d="m1514.8 613.2c0-65.7 53.4-119.1 119-119.1 65.7 0 119.1 53.4 119.1 119.1 0 65.6-53.4 119-119.1 119-65.6 0-119-53.4-119-119zm2.8 0c0 64 52.2 116.2 116.2 116.2 64.1 0 116.2-52.2 116.2-116.2 0-64.1-52.1-116.3-116.2-116.3-64 0-116.2 52.2-116.2 116.3z"/>
								</g>
							</g>
						</g>
					</g>
				</g>
				<g id="&lt;Clip Group&gt;" clip-path="url(#cp1)">
					<g id="&lt;Group&gt;">
						<g id="&lt;Group&gt;">
							<path id="&lt;Path&gt;" class="s1" d="m434.3 2076.7c1 16.6-86.8 35.5-196 42-109.3 6.6-148.6-8.1-149.6-24.7-1-16.7 36.7-29 145.9-35.6 109.3-6.5 198.7 1.6 199.7 18.3z"/>
							<g id="&lt;Group&gt;">
								<path id="&lt;Path&gt;" class="s13" d="m365.7 2594.3c32.6 7 85 9.5 85 9.5 0 0-81.4-437.6-96.9-561.6-5-39.7-189.4-119.8-203.7 48.8-11.3 133 195.1 350.3 198.9 460.3 0.7 21 10.5 41.6 16.7 43z"/>
								<path id="&lt;Path&gt;" class="s13" d="m352.1 2581.2c0 0-20.2 149.6 28.7 125.3 52.5-26 154.3-2.6 154.3-2.6 0 0-3.6-92.2-44.1-106.9-95.9-35-95.8-103-95.8-103z"/>
							</g>
							<g id="&lt;Group&gt;">
								<path id="&lt;Path&gt;" class="s9" d="m575.7 1519.5c-45.9-34-156.5-42.9-239.4 46.8-82.9 89.6-185.3 248.8-247.5 526 0 0 174.1-73.9 345.4-14.6 0 0 147-202 181.3-312.2 34.4-110.2 10.9-208.5-39.8-246z"/>
							</g>
						</g>
						<g id="&lt;Group&gt;">
							<path id="&lt;Path&gt;" class="s13" d="m153.9 3683.3l129.5 57.1 106.8-153.7-162.2-71.5z"/>
							<g id="&lt;Group&gt;">
								<path id="&lt;Path&gt;" class="s14" d="m325.7 3692.7c0 0-29-25.6-75.2-3.8-46.2 21.7-51.3-12.3-59.2-20.7-7.9-8.3-19.6-16.5-37.8-16.6 0 0-44.6 160.1-34.6 285.3l433.3 6.6c0 0 14.1-43.4-23-64-37.1-20.7-200.6-70.6-221.7-113.4-21.1-42.8 18.2-73.4 18.2-73.4z"/>
								<g id="&lt;Group&gt;">
									<path id="&lt;Path&gt;" class="s1" d="m202.8 3907.5l-7.1-0.1c1.2-79.6-67.9-106.1-70.8-107.2l2.4-6.7c0.8 0.3 76.8 29.3 75.5 114z"/>
								</g>
								<path id="&lt;Path&gt;" class="s1" d="m116.8 3897.2c-0.7 15.6 1.8 29.4 2.1 39.7l433.3 6.6c0 0 6.6-20.3-1.1-39.7z"/>
								<g id="&lt;Group&gt;">
									<path id="&lt;Path&gt;" class="s1" d="m345.6 3843.5l-0.8-0.2c-4-0.8-98.2-20.3-107.4-62.4-9.2-41.6 25.3-81.3 26.8-82.9l5.3 4.7c-0.3 0.4-33.6 38.6-25.2 76.7 7.9 35.8 92 54.8 101.1 56.8l50.2-13 1.8 6.9z"/>
								</g>
								<g id="&lt;Group&gt;">
									<path id="&lt;Path&gt;" class="s1" d="m300.8 3816.9l-2.2-6.8 45.4-14.8 2.2 6.8z"/>
								</g>
								<g id="&lt;Group&gt;">
									<path id="&lt;Path&gt;" class="s1" d="m263.9 3789.1l-2.2-6.7 45.5-14.8 2.2 6.7z"/>
								</g>
							</g>
						</g>
						<path id="&lt;Path&gt;" class="s8" d="m353.6 3058.7c-65.1 68.3-93.3 75.3-185.3 275.8-26.1 56.9-126.8 528.8-126.8 528.8 31.4 48.3 291.6-34.4 436.4-5.4 0 0 195.2-482.1 195.2-818.6 0-91.7-205.8-99.9-319.5 19.4z"/>
						<path id="&lt;Path&gt;" class="s8" d="m259.5 2502c-18.5 77.6-27.3 592.2 12.9 674.3 28.7 58.5 351.3 203.4 381.2 40.5 26.3-143 104.2-621.1 97.5-706.3-6.6-82.2-436.2-241.5-491.6-8.5z"/>
						<g id="&lt;Group&gt;">
							<path id="&lt;Path&gt;" class="s1" d="m241.1 3194.8l-5.6-4.3c60-79.6 167.1-43.8 168.1-43.4l-2.3 6.7c-1-0.4-103.3-34.4-160.2 41z"/>
						</g>
						<path id="&lt;Path&gt;" class="s1" d="m763.8 2341c-3.7-54.7-193.7-145.7-337.9-132.5l-41.7 506.8c12.5 14.6 52.7 75.1 60.3 91.7 57.2 125.5 109.2 212.9 238.3 247.6 36.1-248.8 85.3-648.5 81-713.6z"/>
						<g id="&lt;Group&gt;">
							<path id="&lt;Path&gt;" class="s13" d="m855.5 3682.4l130.2 55.6 105-155-163-69.6z"/>
							<g id="&lt;Group&gt;">
								<path id="&lt;Path&gt;" class="s14" d="m1027.4 3689.8c0 0-29.3-25.3-75.2-3-45.9 22.3-51.5-11.6-59.5-19.9-8-8.3-19.7-16.3-38-16.2 0 0-42.7 160.6-31.2 285.7l433.4 1.5c0 0 13.5-43.5-23.8-63.8-37.4-20.2-201.4-68.2-223-110.7-21.7-42.5 17.3-73.6 17.3-73.6z"/>
								<g id="&lt;Group&gt;">
									<path id="&lt;Path&gt;" class="s1" d="m907 3906h-7.1c0.3-79.7-69.1-105.3-72.1-106.4l2.4-6.7c0.8 0.3 77.1 28.3 76.8 113.1z"/>
								</g>
								<path id="&lt;Path&gt;" class="s1" d="m820.9 3896.8c-0.5 15.5 2.2 29.2 2.6 39.6l433.4 1.5c0 0 6.3-20.3-1.7-39.7z"/>
								<g id="&lt;Group&gt;">
									<path id="&lt;Path&gt;" class="s1" d="m1049 3840.3l-0.8-0.1c-4-0.8-98.3-19.2-108.1-61.2-9.6-41.5 24.4-81.5 25.9-83.2l5.3 4.6c-0.3 0.4-33.1 39.1-24.3 77 8.3 35.7 92.7 53.8 101.8 55.6l50-13.5 1.9 6.8z"/>
								</g>
								<g id="&lt;Group&gt;">
									<path id="&lt;Path&gt;" class="s1" d="m1003.9 3814.2l-2.2-6.7 45.2-15.3 2.3 6.7z"/>
								</g>
								<g id="&lt;Group&gt;">
									<path id="&lt;Path&gt;" class="s1" d="m966.7 3786.9l-2.2-6.7 45.3-15.4 2.2 6.8z"/>
								</g>
							</g>
						</g>
						<path id="&lt;Path&gt;" class="s8" d="m770.3 3135.5c-31.7 88.9-186.1 501.4-60 784.9 48.3 31.3 275.6-50.9 419.8-74.1 0 0 61.2-530.5-64.9-921.4-28.2-87.3-239.5 55.4-294.9 210.6z"/>
						<path id="&lt;Path&gt;" class="s8" d="m406.9 2436.8c11.7 78.9 262.8 728.3 330.7 789.5 48.3 43.6 227 54 318-84.4 90.9-138.5-151.4-803.8-189.3-880.3-36.7-73.8-494.8-61.7-459.4 175.2z"/>
						<path id="&lt;Path&gt;" class="s9" d="m845.6 1493.9c113.1 68.9 156.9 238.9 165.1 530.9 8.1 292.1 60.2 482.3 28.1 558.1 0 0-337.2 307.1-828.3 111.1 0 0 15-83.5 48.4-445.5 33.5-362.1 32.6-460.3 80.7-601.5 48.2-141.3 276.9-270.1 338.6-236.2 62 34.1 80.2 29.9 167.4 83.1z"/>
						<g id="&lt;Group&gt;">
							<path id="&lt;Path&gt;" class="s13" d="m1150 1641.1c0 0 75.5 44.1 136.8 82.3 12.8-15.9 25.9-32 39-47.9 35.7-48.8 142.1-211 142.7-211.6 24.4-53.9-16-68.3-8.6-90.6 4.9-15 50.1-82 69.1-94.3q0.2-0.4 0.5-0.7c24.3-21.3 94.2-56.4 116.8-71 10-6.4 9.1 8.1-4.6 27.1-16.5 23.1-47.7 48.5-69.2 62.1 6.8 9.4 13.1 19.7 27.7 29.3 17.7 11.6 14.9 33.3 24.1 50.3 9.2 16.9-6.4 41-27.7 59-21.4 17.9-49.8 18-53.1 67 0 0-83.7 358.1-127.1 444.9-27.9 55.8-63.7 74.6-98.1 71.2-87 0.5-242.9-50.8-352.9-134.1-116.6-88.1 25.1-322.9 184.6-243z"/>
							<path id="&lt;Path&gt;" class="s9" d="m694.4 1536.8c-30.5 36.4-52.9 90.4 12.3 185.8 65.1 95.4 245.4 222.8 401.3 292.6 0 0 192.3-177.2 136.7-351.9 0 0-266.7-130-356.5-164-89.7-34-160.2-2.7-193.8 37.5z"/>
							<g id="&lt;Group&gt;">
								<path id="&lt;Path&gt;" class="s4" d="m1035.5 1845.8c-1 0.5-95.6 55.4-186-24.5l4.7-5.3c86.5 76.4 176.7 24.2 177.6 23.7z"/>
							</g>
							<g id="&lt;Group&gt;">
								<path id="&lt;Path&gt;" class="s4" d="m1186.2 1932.1c-35.2 52.4-72.7 86.6-73.3 87.1l-1.3 1.2-1.8-0.4c-2.3-0.5-225.7-51.1-351.1-191l5.2-4.8c118 131.7 324.2 183.4 345.6 188.5 10-9.4 73.1-70.7 107.5-151.3l6.5 2.7c-10.5 24.8-23.8 47.7-37.3 68z"/>
							</g>
						</g>
						<g id="&lt;Group&gt;">
							<path id="&lt;Path&gt;" class="s1" d="m784.4 3138.7c-42.1-47.6-113.5-28.4-114.3-28.2l-2.9 0.8-122.4-277 6.5-2.8 119.9 271.5c14.6-3.3 78.5-14.2 118.5 31z"/>
						</g>
						<g id="&lt;Group&gt;">
							<path id="&lt;Path&gt;" class="s4" d="m527.8 2425.4c-86.1 0-139.4-47.1-140.2-47.9l4.8-5.2c1.2 1.1 119.7 105.4 289.1-4l3.8 6c-59.5 38.4-112.9 51.1-157.5 51.1z"/>
						</g>
						<g id="&lt;Group&gt;">
							<path id="&lt;Path&gt;" class="s1" d="m670.2 3796.7c-0.5-1.3-40.8-135.8 26.9-425.2l6.9 1.6c-67.2 287.2-27.5 420.2-27.1 421.5z"/>
						</g>
						<path id="&lt;Path&gt;" class="s1" d="m730.8 1405.8c0 0-24.8-26.6-53.6-78.9l49.1 12z"/>
						<path id="&lt;Path&gt;" class="s13" d="m814 1200.5c-7-55.7-4.5-141.1-70.2-129.3-16.8 3-94.7 11.2-111.9 19.7-41 20.2-26.4 83.2-37.2 140.3-3.2 17-1.7 49.9 4.7 64.8l-16.7-1.6-4.1 136.5c0 0 89 60 154.5 8.6l-5-73.1c15.3 3.7 27.9 5.3 34.8 3.8 47.7-9.9 58.9-107.1 51.1-169.7z"/>
						<path id="&lt;Path&gt;" class="s1" d="m786.8 1101.1c-6 2.9-24.5 10.5-24.5 10.5 0 0-3.8 47.2-10.4 65-6.7 17.7 17.7 79 50.5 84.1 32.8 5.2 13.1 40.7 10.6 55.8-3.6 21.7 17 44-23.4 59.5-26.9 10.3-95.5-3.3-78.8-46.7 16.7-43.4 46-97.9 14.4-144.3-31.6-46.4 6.6 57.6-51.3 96.8-16.1 10.8-28.8 19.8-38.9 27.1-16 11.7-37.1 10.8-53.7 0.1-1.9-1.2-3.9-2.2-6-2.8-16.9-5.6-66.2-62.3-69.8-137-3.6-74.8 29.8-100.9 95.7-115.8 66-14.8 41.7-42.1 82.8-50.9 41.1-8.8 92.3-59.8 92.3-59.8 0 0 65.4 131.8 10.5 158.4z"/>
						<path id="&lt;Path&gt;" class="s13" d="m656.9 1228.1c12.1 23.7 38.4 34.6 58.7 24.2 20.3-10.4 27-38 14.9-61.7-12.1-23.7-38.3-34.5-58.6-24.2-20.4 10.4-27 38-15 61.7z"/>
						<g id="&lt;Group&gt;">
							<path id="&lt;Path&gt;" class="s1" d="m717.9 1234.6c-0.9 1.1-2 2.1-3.3 2.8-2.7 1.5-5.8 1.6-8.9 0.3-6.6-2.7-7-7.9-7.3-12-0.3-4-0.6-7.8-5.5-11.9-3.9-3.3-8.2-4.5-11.9-5.5-6.4-1.9-13.7-3.9-12.3-16.6 0.5-4.2 2.4-7.6 5.7-10.2 9.5-7.4 27.7-5.2 28.5-5.1l-0.9 7c-4.5-0.5-17.3-1-23.2 3.7-1.8 1.4-2.8 3.2-3 5.4-0.8 6.7 0.9 7.2 7.1 8.9 4.2 1.2 9.5 2.7 14.5 6.9 7.3 6.1 7.8 12.3 8.1 16.9 0.3 3.9 0.5 4.9 2.9 5.9 1.4 0.6 2.2 0.4 2.8 0.1 2.7-1.5 4.5-7.2 5-9.8l7 1.4c-0.2 0.9-1.5 7.4-5.3 11.8z"/>
						</g>
						<g id="&lt;Group&gt;">
							<path id="&lt;Path&gt;" class="s4" d="m284.7 1988.5l-5.9-0.1c3.8-188.6 60.6-349.3 61.2-350.9l5.6 2c-0.6 1.6-57.1 161.4-60.9 349z"/>
						</g>
					</g>
				</g>
				<g id="&lt;Group&gt;">
					<path id="&lt;Path&gt;" class="s15" d="m2303.7 2527h-2163v-14.7h2163z"/>
				</g>
			</g>
		</g>
	</g>
</svg>