<svg version="1.2" xmlns="http://www.w3.org/2000/svg" viewBox="0 0 1551 1035" width="1551" height="1035">
	<title>404-2-ai</title>
	<style>
		.s0 { fill: #377298 } 
		.s1 { fill: #1b2e35 } 
		.s2 { fill: #395a66 } 
		.s3 { fill: #ebebeb } 
		.s4 { fill: #1a2e36 } 
		.s5 { fill: #204166 } 
		.s6 { fill: #244167 } 
		.s7 { fill: #c68877 } 
		.s8 { fill: #fdd4bb } 
		.s9 { fill: #f8d1bb } 
		.s10 { fill: #c38476 } 
		.s11 { fill: #3a5965 } 
		.s12 { fill: #224167 } 
		.s13 { fill: #264165 } 
		.s14 { fill: #1a2d36 } 
		.s15 { fill: #4f4058 } 
		.s16 { fill: #284067 } 
		.s17 { fill: #f7d1bb } 
		.s18 { fill: #504357 } 
		.s19 { fill: #7684a0 } 
		.s20 { fill: #72819d } 
		.s21 { fill: #131f20 } 
		.s22 { fill: #182226 } 
		.s23 { fill: #dcdee1 } 
		.s24 { fill: #101b1f } 
		.s25 { fill: #524555 } 
		.s26 { fill: #567b9f } 
		.s27 { fill: #151c1f } 
		.s28 { fill: #12191a } 
		.s29 { fill: #141d20 } 
		.s30 { fill: #182225 } 
		.s31 { fill: #172127 } 
		.s32 { fill: #edbbc4 } 
		.s33 { fill: #1a2529 } 
		.s34 { fill: #131d21 } 
		.s35 { fill: #68829d } 
		.s36 { fill: #616161 } 
		.s37 { fill: #1c2629 } 
		.s38 { fill: #73819f } 
		.s39 { fill: #676767 } 
		.s40 { fill: #112224 } 
		.s41 { fill: #f2bec9 } 
		.s42 { fill: #54455c } 
		.s43 { fill: #5e5d5d } 
		.s44 { fill: #625b73 } 
		.s45 { fill: #626262 } 
		.s46 { fill: #9ab1c3 } 
		.s47 { fill: #9c8196 } 
		.s48 { fill: #5a4461 } 
		.s49 { fill: #6d6d6d } 
		.s50 { fill: #9db7ca } 
		.s51 { fill: #a6bbcc } 
		.s52 { fill: #5e5e5e } 
		.s53 { fill: #4c4d57 } 
		.s54 { fill: #72797e } 
		.s55 { fill: #6e576b } 
		.s56 { fill: #646464 } 
		.s57 { fill: #8ca5ba } 
		.s58 { fill: #99b0c1 } 
		.s59 { fill: #6f6f6f } 
		.s60 { fill: #8396ac } 
		.s61 { fill: #565656 } 
		.s62 { fill: #444048 } 
		.s63 { fill: #94a9bc } 
		.s64 { fill: #969696 } 
		.s65 { fill: #ababab } 
		.s66 { fill: #666666 } 
		.s67 { fill: #939393 } 
		.s68 { fill: #8da8be } 
		.s69 { fill: #464552 } 
		.s70 { fill: #535353 } 
		.s71 { fill: #a2a2a2 } 
		.s72 { fill: #9eb8d0 } 
		.s73 { fill: #94aec4 } 
		.s74 { fill: #5d5d5d } 
		.s75 { fill: #9d9ba6 } 
		.s76 { fill: #224066 } 
		.s77 { fill: #234067 } 
		.s78 { fill: #483e5b } 
		.s79 { fill: #513f56 } 
		.s80 { fill: #a2a9be } 
		.s81 { fill: #7e88a3 } 
		.s82 { fill: #a9b3c6 } 
		.s83 { fill: #7084a2 } 
		.s84 { fill: #6f6279 } 
		.s85 { fill: #6c90ab } 
		.s86 { fill: #8d86a8 } 
		.s87 { fill: #838dab } 
		.s88 { fill: #543d5a } 
		.s89 { fill: #bbb3c2 } 
		.s90 { fill: #c6c2d3 } 
		.s91 { fill: #937b8c } 
		.s92 { fill: #b0bbc9 } 
		.s93 { fill: #385a65 } 
		.s94 { fill: #ebf0f1 } 
		.s95 { fill: #484b65 } 
		.s96 { fill: #583c5d } 
		.s97 { fill: #a8afc0 } 
		.s98 { fill: #597d9c } 
		.s99 { fill: #7082a1 } 
		.s100 { fill: #c1b5c2 } 
		.s101 { fill: #74708d } 
		.s102 { fill: #b2cbd5 } 
		.s103 { fill: #b6d1d9 } 
		.s104 { fill: #b6d0da } 
		.s105 { fill: #c1d9e2 } 
		.s106 { fill: #cad5d9 } 
		.s107 { fill: #fbfcfc } 
		.s108 { fill: #bfd1d9 } 
		.s109 { fill: #fefefe } 
		.s110 { fill: #523c57 } 
		.s111 { fill: #553d55 } 
		.s112 { fill: #fdfdfd } 
		.s113 { fill: #4d3e5c } 
		.s114 { fill: #574861 } 
		.s115 { fill: #7e8aaa } 
		.s116 { fill: #7e799d } 
		.s117 { fill: #9085a5 } 
		.s118 { fill: #7f86a6 } 
		.s119 { fill: #a08fae } 
		.s120 { fill: #a36157 } 
		.s121 { fill: #643f2f } 
		.s122 { fill: #44332f } 
		.s123 { fill: #332923 } 
		.s124 { fill: #2a2326 } 
		.s125 { fill: #4a3525 } 
		.s126 { fill: #5a271e } 
		.s127 { fill: #493525 } 
		.s128 { fill: #5e4b3b } 
		.s129 { fill: #453934 } 
		.s130 { fill: #463a30 } 
		.s131 { fill: #624d40 } 
		.s132 { fill: #604c37 } 
		.s133 { fill: #6c5140 } 
		.s134 { fill: #34241a } 
		.s135 { fill: #3b3427 } 
		.s136 { fill: #c38673 } 
		.s137 { fill: #f7fbf9 } 
		.s138 { fill: #747da0 } 
		.s139 { fill: #8c849f } 
		.s140 { fill: #978ba3 } 
		.s141 { fill: #183039 } 
		.s142 { fill: #a993ae } 
		.s143 { fill: #766f92 } 
		.s144 { fill: #e4e7ec } 
		.s145 { fill: #224165 } 
		.s146 { fill: #4c3b53 } 
		.s147 { fill: #1d373d } 
		.s148 { fill: #8b6f86 } 
		.s149 { fill: #977f9a } 
		.s150 { fill: #1a2f35 } 
		.s151 { fill: #98869d } 
		.s152 { fill: #f7fbfb } 
		.s153 { fill: #f9fcfc } 
		.s154 { fill: #f9fafa } 
		.s155 { fill: #edf1f1 } 
		.s156 { fill: #ecf2f3 } 
		.s157 { fill: #9c92a2 } 
		.s158 { fill: #e3d6df } 
		.s159 { fill: #785e65 } 
		.s160 { fill: #183038 } 
		.s161 { fill: #143038 } 
		.s162 { fill: #152f3b } 
		.s163 { fill: #192c39 } 
		.s164 { fill: #162f3e } 
		.s165 { fill: #f9fbfa } 
		.s166 { fill: #213b44 } 
		.s167 { fill: #213945 } 
		.s168 { fill: #172e33 } 
		.s169 { fill: #172f36 } 
		.s170 { fill: #17303c } 
		.s171 { fill: #1a2e3b } 
		.s172 { fill: #162f38 } 
		.s173 { fill: #192d38 } 
		.s174 { fill: #182e37 } 
		.s175 { fill: #172d39 } 
		.s176 { fill: #162e3a } 
		.s177 { fill: #172c39 } 
		.s178 { fill: #172e3d } 
		.s179 { fill: #a8b4c9 } 
		.s180 { fill: #90a3bb } 
		.s181 { fill: #a0bad4 } 
		.s182 { fill: #ceb0c4 } 
		.s183 { fill: #c49ebe } 
	</style>
	<g id="Layer 1">
		<path id="&lt;Path&gt;" class="s0" d="m1394.7 704.1c2.3 6 6.6 10.7 10.1 16 0.5 3 2.5 5.4 4.1 7.9 5.3 11.3 9.1 23 12 35.2 3.9 15.6 2.7 31.5 1.6 47.1-0.9 13.4-5 26.5-10.2 39.2-2.3 5.5-7.7 9.8-7.2 16.6 0.1 1.6-1.2 3.6-2.5 4.8-5.5 5-7.5 12.3-11.8 18.2-2.5 3.5-5.5 6.6-8.1 9.9-5.9 7.8-12.3 15.4-19.7 21.9-7.9 6.9-16 13.6-24.7 19.5-7.5 5-14.9 10.1-23.1 13.9-7.2 3.4-13.4 8.7-21.8 10-4.6 0.7-8.8 4.2-13.3 6.1-11 4.8-22.7 6.7-34.3 9.6-23.5 5.8-47.5 7.2-71.6 5.7-9.4-0.6-18.8-2.3-28.1-4.9-6.3-1.7-13-3-19.5-4.6-2.3-0.6-4.2-1.5-6.2-2.5-9.8-4.5-20.7-6.9-29.5-13.5-7-5.4-15.1-9-21.8-15.1-5.2-4.6-11.1-9.3-17.3-13.1-2.9-1.7-3-5.6-6.2-6.9 2.1-3.6-1.9-1.3-2.4-2.4 2.6-3.8 6.7-1.9 10.1-2.7 3.4 0.9 6.8 0.6 10.3 0.6 1.4 0.1 2.7-0.1 3.3-1.6 1-1 2.2-1 3.5-0.9 5 0.7 9.9 0.8 14.8-0.8 5.2-1.6 10.8-1.7 16.1-2.2 11.3-1.2 22-5 33.2-6.1 9-0.9 18-2.5 26.8-4.5 4.8-1.2 9.8-1.5 14.6-3 1.8-0.5 3.6-0.7 5.3 0.1 3.2 1.5 5.4 0.3 7.2-2.4 0.2-0.8 0.5-1.5 1-2.2 0.8-1.1 2-1.6 3.4-1.9q0.7-0.1 1.5-0.1c4.1-0.2 8.1-1 12.1 0.3 1.5 4.4 4 8.3 6.3 12.3 0 1.1-0.8 2.5 0.8 2.9 2.8 0.8 4.1 3.1 5.8 5.1q0.3 0.6 0.5 1.3c0.2 0.8 0.2 1.6-0.1 2.4-0.9 2.2-1.2 4.3 0.7 6 2.1 1.9 4.7 1.2 7.1 0.8 2.2-0.4 2.3-2.4 1.8-4-2.6-8.6-1.8-17.8-5-26.3-0.7-2 0.1-3.8 0.3-5.8 0.1-0.5-1.2-0.1-0.5 0.1 0.2 0 0.2 0.1 0.2 0.4 0 1.2-0.3 1.9-1.7 1.3-1.9-4.3-0.9-8.6-0.4-13 0.4-3.6 0.9-7.2-2.6-9.8q-0.7-0.5-1.2-1.2-0.9-2 0-4c0.9-1.2 2.1-1.7 3.5-1.6 5.2 1.7 10.1-0.6 14.5-2.1 11-3.9 22.5-6.4 33.6-10 0.5-0.1 0.7-0.6 0.7-1.1-0.3-1.8-1.9-3.1-1.4-5 2.5-2.9 3.7 1.2 5.7 1 2.9-0.4 6.8 1.3 7.8-3.5 2.7-2 6.1-2.6 9.5-4.2-1.8-1.5-3-3.2-1.7-5.4 0.5-0.6 1.2-0.8 1.9-1 1.3-0.2 2.5-0.2 3.7 0.2q0.7 0.3 1.3 0.8c1.2 1.3 2.2 2.8 2.7 4.6 1 3.8 3.2 4.9 6.8 3.3q0.5 0.4 0.9 1c0.4 3.5 2.1 5.5 5.8 6.4 2.5 0.7 4.9 2.6 7.3 4.1 1.1 0.8 2.3 1.5 3.7 1 0.7-0.3 0.9-0.9-0.2-1.1-0.3-0.1-0.6-0.1-0.9-0.3-9.7-16.1-18.8-32.5-27.9-49q-1-1.9-2.1-3.9c-1.4-2.3-3.1-2.6-5.5-1.4-10.1 5.3-20.2 10.6-30.5 15.4-2.2 1.1-4.3 1.9-6.7 0.5-3.5-1.7-7.1-1.2-10.7-0.7-22.1 3.3-44.2 6.4-66.2 9.7-15.6 2.5-31.4 4-46.8 7.3-5 1.1-9 0.1-12.7-3.8-14-14.6-29.5-27.8-43.9-42.1-1.8-1.7-3.7-3.3-4.6-5.8-0.8-3.9-4.2-5.7-6.7-8.3-5.2-5.3-10.9-10.5-13.5-17.9-0.7-2-1.9-3.8-3.9-4.9-4.8-7-5.9-15.4-8.4-23.2 1.2-4.9 5.8-3.5 9-4.9q2.3-1.1 4.8-0.6c24.1 4.4 45.8-1.8 65.7-15.2 6.5-4.4 12.3-10 18.1-15.5 3.4-3.3 7.1-5.9 11.4-7.9 1.7-0.9 3.9-1.4 3.5-4.1-0.5-2.9 0-5.3 2.9-6.6 13.3-2.4 25.9 0 37.1 7.4 8.5 5.6 12.4 14.4 13 24.5 0.3 6 0.1 12 0.1 18 0.9 2.1 2 1.4 3.3 0.3 2.1-1.7 3-4.2 4.5-6.2 4.1-5.3 8.4-10.4 12.1-16 3.4-1.9 5.4-5.2 8-8 7.6-7.2 16.1-13.1 25.4-17.9 4.7-2.4 9.8-3.9 14.6-6.1q33.2-9.4 66.5-0.3c0.7 0.2 1.6 0.2 2.4 0.3 11.5 3.6 22.2 8.8 32.3 15.2 4 2.5 6.5 6.6 10.7 8.8l-0.1 0.1c5 5.6 10 11.2 15.9 16z"/>
		<path id="&lt;Path&gt;" class="s0" d="m118.1 603.7c-3.3-4.6-4-10.3-5.8-15.5-3-8.4-6-16.8-7.7-25.7-1.4-7.2-2.4-14.6-3.7-21.9-3.9-21-1.7-42.1-1.8-63.1-0.1-12.4 4-24.1 7.9-35.7 2.2-6.8 4.7-13.5 8.2-19.7 4.1-4.8 7.3-10.2 10.6-15.5 5.5-9.1 13.5-15.7 21.2-22.6 4-2.7 8-5.5 12.1-7.9 13.1-7.3 26.7-12.4 41.7-14.8 20.9-3.2 40.6-0.5 59.9 7.3 4.9 2 9.5 5 14.2 7.5 0.7 2-0.8 3.2-1.9 4.3-6.3 6.3-11.1 13.6-16.1 20.9-3.5 5.3-6.1 11.1-8.6 16.9-1 2.4-2 4.8-3.4 7 2.8-2.4 3.1-0.2 2.8 1.6-0.5 3.3-0.8 6.7-1.7 9.9-4.4 17.1-4.8 34.1-0.5 51.3 0.4 1.5 1 3.6-1.2 4.2-1.7 0.5-2-1.2-2.5-2.4 4 16.8 10.9 32.1 24.8 42.9 12 9.2 26.3 10 40.5 8.2 11.4-1.3 22.6-4 33.9-5.8 4.7-0.7 9-2.5 13.4-3.9 12.4-3.9 24.1-9.6 36-14.6 5.6-2.4 11.1-5.4 17.3-6.1 5 3.7 6.7 9.5 9.3 14.8 1.2 2.5 1 5.7 3.7 7.5 0.5 0.9 0.8 1.9 0.7 2.9-0.4 9.7 1.3 19.4 1 29.2q-0.9 13.1 3.1 25.6c5.4 17 17.5 28.2 32.3 37 7 4.2 14.8 6.5 22.4 9.4 0 2.5-2.2 3.2-3.8 4.2-12.1 7.8-25.3 13.4-38.8 18.1-12.4 4.2-24.8 8.7-37.8 11.2-24.7 4.7-49.1 5.4-73-4.1-4.7-1.9-9.4-3.4-13.4-6.5-3.2-2.6-3-3.7 0.7-5.4 9.4-4.5 18.3-9.9 25.5-17.3 13.9-14.5 13.4-37.8-0.2-52.7-7.6-8.3-17.1-13-27.7-14.7-12-1.8-21.8 3.2-28.8 13.2-3.1 3.1-4.5 7.1-5.3 11-1.9 9.7-2 19.6 0.1 29.4 3.1 10.4 7.9 20.1 14.2 29 0.3 1.4 0.3 2.7-0.6 3.9-8.6 2.8-17.5 4.7-26.7 5.1-23.4 1.1-45.8-3.8-67.5-12.2-15.4-5.9-29.9-13.6-44.1-21.9-10.7-6.2-20.6-13.3-30.1-21-1.5-1.1-3-2.1-4.8-2.5z"/>
		<path id="&lt;Path&gt;" class="s1" d="m1221.8 863.1q-1.3 0.4-2.7 0.8c-6.3 3.3-13.3 4.2-20 6.3-6 1.2-11.9 2.8-17.9 4.4-2.5 0.6-3.3 1.9-3.2 4.6 0.3 5.3 1 10.5 1.3 15.8 0.1 1.9 0.1 3.7-0.7 5.4-5.4 3.5-11.8 3-17.7 4.4-15.3 3.5-30.9 5.3-46.3 8.3-13.8 2.6-27.7 4.7-41.6 6.3-1 0.1-2 0.1-3-0.2-1-0.1-2.1-0.4-2.9 0.6-4.2 1.9-8.6 1.7-13 1.4-3.6 0.5-7.4 0.3-10.9 1.5-9 0.8-17.9 1.6-26.9 1.2-4.7-0.2-8.2-2.1-11-5.8-10.9-14.6-19.2-30.8-27.7-46.8-16.3-30.5-31.5-61.6-46.5-92.7-3.8-8-5-16.9-7.3-25.4-0.2-2.6 1.9-2.2 3.4-2.5 24.9-4.7 48.7-13 71.4-24.4 5.5-2.7 10.6-6.1 15.9-9.3 3.9-2.5 7.7-3.6 12.1-2.2 1.5 0.4 3 0.8 4.4 1.5 1.9 1.8 3.8 3.5 3.2 6.5 3.5 7.5 4.4 16 8.7 23.2 0.7 0.5 1.2 1.2 1.5 1.9 3.9 10.5 11.8 17.8 19.6 25.2 1.1 1 2.3 1.9 2.9 3.3 3.1 5.5 8.2 9.1 12.6 13.3 12.4 11.6 24.9 23.1 36.8 35.1 2.6 2.8 5.4 3.7 8.9 3 24.7-4.8 49.8-7.3 74.7-11.5 14-2.5 28.2-4.3 42.3-6.1 3.2-0.4 7-1.9 9.7 1.7 8.5 9.4 12.8 21 18 32.3q1 2.3 2 4.6c-0.3 0.8-1 1.5-1.8 1.6-7.5 1.7-14.7 4.7-22.2 6.3-6.1 1.4-11.7 4.1-17.9 5.2-2.7 0.5-5.3 1.6-8.2 1.2z"/>
		<path id="&lt;Path&gt;" class="s0" d="m560.1 648.1c-2 8.2-6.3 15.6-10.3 22.7-6.8 11.9-16.2 22.2-25.8 32-6.3 6.4-13.6 11.6-20.9 16.6-11.5 7.9-23.4 15.5-36.3 21.1-14.9 6.5-30.2 11.8-46.1 15.8-13 3.2-26.1 5-39.2 6.8-14 1.9-28.3 1-42.4 0.7-10.6-0.3-21-2-31.3-4.1-15.3-3.1-30.8-6.3-45.2-12.5-9-3.9-18.6-6.9-26.9-11.9-7.6-4.5-15.3-9-22.8-13.9-19.5-12.6-36.1-28.2-51.2-45.6-7.4-8.5-14-17.9-19.7-27.7-0.5-1.2-1.4-2.2-1.9-3.5-1.6-4.8 0.5-7.6 5.8-7.4 3.2 0.1 6.5 0.4 9.7 1.1 5 0.6 8.8 3.8 12.9 6.3 11.7 7 24.4 11.6 37.3 16 2 0.7 4 1.5 5.7 2.8 3.9 2.8 8.2 3.9 12.9 4.5 7 0.8 14.1 1.1 21 2.7 2.6 0.6 5.3-0.3 7.7-1.5 1.3-0.3 2.6-0.3 3.9-0.1 7.2 1.9 14.3 3 20.9-1.7 0.9-0.4 1.9-0.8 2.9-0.8 2.8 0.4 5.9 2.8 8-1.3 1.4-3.5 4.7-2.8 7.4-3.5 4.8-1.9 7.9 2.2 11.7 3.5 9.5 2.1 17.7 7.6 27.1 10.1 20.2 5.4 40.4 7.3 61.1 2.1 9.8-2.5 19.8-4.4 29.4-7.5 14.4-4.7 28.6-9.9 42.1-16.9 4.7-2.4 9.3-5.2 14.4-6.9 2.4-0.4 4.7-0.9 7.1-1.2 1.2-0.2 1.7-0.7 1.4-1.9q0-0.7 0.4-1.2c1.5-0.4 2.9-0.8 3.9-2 1-0.4 1.9-0.1 2.7 0.2q0.7 0.3 1.3 0.8c0.7 0.4 1.3 0.9 1.9 1.3 9.8 1.1 19.6 0.3 29.4 0.5 8.7 0.1 17.5-0.3 26.1-2.1 5-1 6 1.2 3.9 7.6z"/>
		<path id="&lt;Path&gt;" class="s1" d="m497.8 641q-0.4-0.2-0.7-0.2c-2.3-2.3-1.1-3.8 1-5.2 9.6-6.4 17.8-14.5 25.7-22.7 12.9-13.2 23.1-28.3 31.2-44.8 2.7-5.5 5.6-11 7.2-16.9 0.8-3.1 2.4-4.7 5.8-3.3 33 7.2 66.8 11.8 98.3 25 4 1.7 7.8 3.8 11.4 6.1 7.7 5.1 12.2 11.7 12.7 21.3 2 35.2 4.4 70.4 6.5 105.6 1.6 27.4 2.9 54.8 4.4 82.2 0 1.2 0 2.3 0 3.5 0.6 8.3 0.2 8.7-9.3 8.8q-9.7 0.9-19.4 1.9c-2.7 0.3-4 1.4-3.1 4.2 0.9 2.9 0.9 6 2.1 8.7 0.8 2.6 0.9 5.4 2 7.9q0.2 0.6 0.4 1.3c0.7 6.2 0.7 6.2 6.2 4.5 2.8-0.8 5.5-2.5 8.5-0.8 0.9 2.7 0 3.7-2.9 3.8-3.4 0-6.9-0.1-10.2 1.3-1.3 1.2-3 1.3-4.7 1.2-7.8-0.1-15.5 1-23.3 1.7-1.7 0.1-3.3 0-4.8-1-7.2 0.7-7.3 0.8-8.7-6.3-4.1-21.7-8-43.5-11-65.5-3.2-23.6-0.7-46.8 4.4-69.9 0.5-2.4-0.1-3.6-1.5-5.2q-22.2-23-44.3-46.1c-1.5-1.5-3-2.3-5.2-2.2-4.1 0.1-8.3 0-12.5 0-13.8 1-27.6 0.6-41.4 0.5-1.8 0-3.7 0-5.4 0.6q-9.7 0.9-19.4 0z"/>
		<path id="&lt;Path&gt;" class="s0" d="m1170.9 423.9c6-9.3 9.9-19.9 19.6-27 4.5-3.3 9.1-7.1 13.2-11.3 2.5-2.6 6.8-3.2 10.1-5.3 4.6-2.8 9.8-4.6 14.8-6.5 6.3-2.4 12.7-4.3 19.1-6.1 4.7-1.2 9.3-1.7 14-1.7 12 0.1 22.6 4.4 32.7 10.5 3.7 2.3 7.1 5 10.4 7.8 3.7 4 5.9 9.1 10 12.8 1.9 3.3 3.8 6.7 5.8 9.8 5.6 8.8 6.5 18.5 7.6 28.3 1.3 11.8-2.3 22.9-6.1 33.4-4.9 13.1-13.2 24.9-23.6 34.4-4.2 3.7-9.4 7.1-14.6 10-4.9 2.8-9.8 6.8-15 8.8-8.5 3.4-17.3 6.8-26.9 6.3-3.7-0.1-7.4-0.4-11 0.1-9.3 1.3-17.8-2.1-25.9-5.2-12-4.6-22-12.4-29.6-23.2-11.1-15.8-13.9-33.2-11.7-51.9 1-5.7 4.4-10.8 3.8-16.9-0.2-2.6 2.9-4.4 3.3-7.1z"/>
		<path id="&lt;Path&gt;" class="s2" d="m973.8 533c0.1 8.5 0.1 8.1 8.5 7.5 17.1-1.3 33.3 0.8 45.7 14.5 4.3 4.7 9.4 8.6 13.4 13.4 8 9.8 18.5 15.3 30 19.7 25.6 9.8 51.1 19.9 76.6 29.9 2.5 7.3 2.5 14.6-0.1 22-3.7 2.9-8 3.7-12.6 3.7-17.3 0.1-33.6-5.3-50.3-9.2-25.4-5.8-48.4-17.2-71.6-28.3-3.3-1.6-4-0.9-4.6 2.4-4.9 25.5-3.8 51-1 76.5 0.2 1.7 1 3 2.2 4.3 3.8 4.4 7.4 8.9 11.1 13.4-3.2 4.2-7.3 2.8-10.8 1.2-10.3-4.7-20.9-9-30.7-15-4.9-3.1-10.3-5.5-15.5-8-4.8-2.3-8.6-5.7-12.7-8.7-11.1-7.9-22.3-15.8-32-25.4-8.1-8-17.8-14.2-24.8-23.1-2.8-3.6-7.6-6.1-8.1-11.3 2.4-2.4 3.7 0.6 4.8 0.7-1.2 0.1-2.5-3.7-5-0.7-4.8 1.6-2.1-3.9-4.5-4.6-0.4-3.4 0.2-6.8-1.8-10-1-1.7-0.1-3.9 0.5-5.8 3.2-9.4 7.2-18.6 12.5-27 5.5-8.8 13.7-14.1 23.4-16.8 6.3-1.7 9.9-4.8 9.2-11.6-0.3-3.6 2.1-3.4 4.4-3.8 1.6-1.4 3.6-1.5 5.6-1.5 10.7-0.1 21.4 0 32.2 0 2.1 0 4.2 0.3 6 1.6z"/>
		<path id="&lt;Path&gt;" class="s0" d="m525.8 963.9c-8.5 0.4-15.8-1.8-23.4-3.4-10.6-2.2-19.3-7.4-28.1-12.6-7.8-4.6-13.9-11.2-19.5-18.3-4.1-5.2-6.3-11-9.4-16.4-9.8-16.7-8.6-33.8-4.1-51.3 1.2-4.6 3.8-9.2 6.4-12.7 4.9-6.7 11-12.6 18.1-17.9 16.1-11.9 33.9-14.4 52.7-13.1 7.9 0.5 15.5 3.9 23.1 6.4 8.4 2.8 15.6 7.7 22.4 12.8 7.6 5.8 15.6 11.6 20.3 20.6 1.4 2.9 4.2 5 6 7.7 8.7 13.7 10.3 28.4 6.8 44.1-2.9 12.9-9.2 23.9-18.1 33.3-6.4 6.8-14.4 11.7-22.8 15.8-3.5 1.8-7.5 1.6-11.2 2.6-6.3 1.7-13 3.6-19.2 2.4z"/>
		<path id="&lt;Path&gt;" class="s3" d="m163.3 779c9.9-0.4 19.1 2.9 28.4 5.8 8.6 2.7 17.2 5.4 25.8 8.2 3.3 1.1 6.4 2.6 9.6 4 2.6 1.1 5.1 1.8 7.5-0.2 2.2-1.9 1.1-4.1 0.9-6.5-0.5-4.9-0.6-10-0.3-14.9 0.3-4.5 7-6.6 12.1-4.7 8.7 3.3 13.7 10.7 19.6 17 7.4 7.9 14.7 15.8 22.1 23.6 2.5 2.6 4.1 2 5.2-1.5 1.3-4.8 0.9-9.6 0.8-14.4-0.2-4 1.2-7.6 2.8-11 3.4-7.2 10.6-8.8 17.1-3.9 6.1 4.6 11.3 10.2 16 16.2 3.4 4.5 6.2 9.4 9.5 14 0.9 1.1 1.8 3.4 3.8 2.3 1.7-0.9 2.5-2.3 2.2-4.9-0.8-6.9-2-13.8-1.3-20.8 0.4-3.7 2.1-7.1 5.5-8.9 3-1.5 6.1-0.4 8.8 1.7 2.3 1.9 4.8 3.6 6.9 5.7 9.4 9.5 16.2 20.6 21 33.1 2.3 5.8 4.8 11.6 6.7 17.6 2.3 7.7 3.9 15.6 5.8 23.4 0.4 1.5-0.6 2.4-1.7 3.3-12 10.7-23.1 22.4-37.2 30.6-10.9 6.3-22.1 11.8-34.7 14-8 1.4-14.8-3.9-12.9-10.2 1-3.6 2.3-7.2 4.8-10.2 3.2-3.9 6.1-7.8 9.1-11.8 0.6-1 2.4-1.9 1-3.4-0.9-1-2.3-1.5-3.7-1.2-3.3 0.9-6.6 2-9.7 3.6-9.2 4.7-19 7.6-29.3 8.3-11.1 0.8-14.2-6-12-15.7 1.5-6.3 5.1-11.5 8.6-16.8 1.2-1.8 2.7-3.6 1.5-5.9-1.3-2.7-3.5-0.9-5.3-0.6-9.7 1.7-19.1 4.9-28.6 7.4-7.9 2.1-15.5 5.6-24.1 4.8-4.2-0.5-7.4-1.8-9.5-5.3-2.3-3.8-0.5-7.2 1.5-10.6 2-3.4 5-5.8 7.2-8.8 2.7-3.7 2-6.5-2.2-8.1-3.7-1.4-7.6-2.7-11.5-3.1-12.6-1.3-24.5-5.7-36.6-8.9-8.2-2.2-16.6-4.8-23.1-11.2-4.5-4.4-6.2-9-4.3-14.1 1.3-3.6 7.1-7 12.2-7q2-0.1 4 0z"/>
		<path id="&lt;Path&gt;" class="s3" d="m1067 326.6c0.9-7.7-1.6-16.9-1-26.2 0.4-6.3 1-12.5 6.2-17.3 3.7-3.3 7.7-4.7 12.2-3 4.7 1.9 7.3 5.5 6.6 10.9-0.3 2.7-0.4 5.7 2.8 6.8 3.1 1 5.1-1.4 6.8-3.3 6.5-7.3 10.3-16.3 14.5-25 5.2-10.7 10.9-21 23.9-24 6.8-1.6 13-0.8 18.4 4.4 5.7 5.4 4.4 17.2 0.1 23-5.8 7.6-11.4 15.5-18.6 22-2.4 2.1-5.4 3.7-7.9 5.8-2.6 2.3-6.3 4.7-4.6 8.6 1.6 3.6 4.7 6.2 9.5 5.8 5.4-0.3 11-1 15.7 3.1 3.7 3.2 4.8 7.6 2 11.7-5.7 8.3-14.2 13.3-22.4 18.4-5.6 3.5-11.7 6.1-18 8.2-3.2 1.1-5.9 3.1-7.9 5.9-2.4 3.3-3.4 6.3-0.5 10.3 3.1 4.2 6.6 3.9 10.5 2.6 5.2-1.8 10.2-4.1 15.4-5.6 7.3-2.1 14.6 0.1 18.1 5.8 3.7 6.1 3.1 12.6-0.5 18.5-7.7 12.3-17.7 22.5-30 30.5-10.2 6.6-21.1 11.1-33 13.9-11.5 2.6-22.6 2.2-33.7-0.8-4.1-1.1-7.7-4-10.7-7.2-13.7-14.7-21.5-32.1-24.2-52.2-1.6-12.4-1.7-24.8-1.7-37.2 0-7.9 5.4-13.1 12.5-13 3.8 0 5.9 2.2 7.3 5.1 3.4 6.9 8.3 12.3 14.5 16.7 3.8 2.7 8.3 3.5 11.8 1.7 3.7-2 6.4-6.1 5.9-11.3-0.3-3.9 0-8 0-13.6z"/>
		<path id="&lt;Path&gt;" class="s2" d="m1027 715.9c-7.6-2.6-12.8 2.8-18.2 6.1-15.9 9.5-32.8 16.5-50.3 22.1-11.1 3.5-22.2 6.6-33.7 8.2-0.4 0-0.7 0.6-1 0.9-2.7-0.7-5.3 0.5-7.9 0.7-7.7 0.3-9.7-0.7-12.9-7.6-3.7-8.1-4.9-16.8-6-25.6-1.9-15.1-2-30.4-2.1-47.1-2.8 4.3-5.1 7.4-7.8 10.1-11.2 11-26.6 10.4-36.9-1.5-13.5-15.8-25.2-33-37.8-49.5-2.5-3.3-2.6-5.3 1.5-6.8 0.8-0.2 1.5-0.8 2.2-1.2 4.1-4.4 9.9-6.1 14.7-9.5 3.5-2.3 6.3-1.5 9.2 1.5 6.2 6.5 12.7 12.8 19.1 19.1 3 3 3.3 2.9 4.9-1.1 2.7-7.2 4-14.8 7.6-21.6 2.7 0.7 5.5 1.7 6.8 3.9 1.6 2.6 3.4 2.7 5.7 2.3 2 1.1 2.2 2.7 1.3 4.6-4.3 1.6-8.2-1.9-12.2-0.5 5-1.1 9.7 2 14.9 2 4.5 1.4 7.5 4.9 10.5 8.2 6 6.4 12.8 11.9 19.5 17.6 6 5.2 11.8 10.6 18.2 15.3 7.4 5.5 15.3 10.3 22.7 15.9 10.3 7.7 21.9 13.4 33.3 19.1 8.3 4.2 17.2 8 26.7 9.2 2.8 0.4 5.3 1.7 8 2.7 1.4 0.5 1.5 1.6 0 2.5z"/>
		<path id="&lt;Path&gt;" class="s4" d="m329 342.3c4.7-8 12.2-10.5 20.7-10.7 2.9-0.1 3.1-0.9 3.2-3.3 0.2-6.8 2.5-10.3 9.1-12 8.4-2.1 12.9-7 14.9-15.4 2.2-9.1 9.2-14.7 18.4-13.4 14.5 2 23-4.2 30-16.1 15.6-26.2 58.8-24.4 73.2-1.8 3.8 6 8.8 11.2 12.4 17.4 3.9 6.9 3.7 13.3-1.5 19.4-3.8 4.6-7.5 9.3-11.3 14-1.6-1.4-1.4-3.3-1.1-5.1 1.3-8.6 0.6-17.3 0.6-25.9-0.1-6.3-3-11.6-7.3-16-3.5-3.7-5.6-3.4-8.9 0.4-3.6 4.1-8.2 6.7-13.7 7.5-1.9 0.3-4 0.4-5.6 1.7-1.2 1-2.5 2.2-2.2 3.7 0.4 1.8 2.3 0.9 3.4 1.2 1 0.2 2 0.3 2.9 0.7 1.4 0.7 3.1 1.3 2.8 3.1-0.4 1.9-2.2 2-3.7 1.8-7.5-1.4-12.7 3.9-18.9 6.3-2.1 0.8-2.9 3.1-3.7 5.2-2 5.4-4.1 6.8-9.8 6-3.8-0.4-7-0.4-8.6 3.9-1.7 4.7-0.8 9.8 3.2 12 4.9 2.7 5.5 6.2 5.3 11.5-0.4 10.1-2.2 20.1-2.5 30.3-1 4.8 1.5 9.3 1.2 14.2-0.3 4.7-1.1 8.7-5.8 10.5-4.9 1.9-9.1 0.3-12.8-3.2-1.3-1.3-2.3-2.8-3.4-4.2-1.7-2.2-3.5-2.1-5.6-0.5-2.1 1.5-1.4 2.9 0 4.4 0.8 0.8 1.7 1.9 0.8 3.1-0.6 0.9-1.9 0.7-2.7 0.2-5.2-3.6-12.2-3.4-16.8-8.1-3.9-3-7.7-2.5-11.7-0.3-1.4 0.9-2.9 1.7-4.3 2.6-5.9 3.8-11.5 3.6-17-0.9-5-4-9.9-5.2-15.8-1.1-4.6 3-10.7 1.6-14.2-2.2-3.6-4-4.2-9.5-1.1-14.3 1.7-2.7 3.3-5.4 4.1-8.5 1-3.4 0.2-6.9 0.5-10.4 0.2-2.9 0.1-6 3.3-7.7z"/>
		<path id="&lt;Path&gt;" class="s5" d="m884.9 624.2c-0.1-1.7 0.8-3.7-1.8-4.3-1.9-1.1-3.7-2.3-5-4-3.5-4.3-8-6.2-13.4-6.7-6.8-0.7-11.8-9-9.2-15.4-3.3 0.6-3.7 4.1-6.1 5.6-4.6 2.9-10 3.9-14.4 6.9-1.1 0.8-2.6 0.7-3.8 0-2-1.1-4.2-1.1-6.3-1-3.6 0.2-6.7-0.7-9-3.4-1.9-2.1-3.9-1.8-6.3-0.7-7.4 3.4-9.7 2.6-14-4.1-1.2-1.8-1.9-3.6-0.8-5.6 1.5-3 0.3-5.3-2.1-6.9-6.9-4.9-12.7-11-19.9-15.7-6-3.8-11.6-8.7-17-13.5-2.8-2.5-2.8-5.7-0.2-8.4 1.8-1.7 2.5-3.4 1.7-5.7 0.6-3 2.5-4.9 4.8-6.6 4.4-2.3 5.6-7.8 10.1-9.9 9.1 7.6 18.6 14.8 27.7 22.5 1 0.9 2 3.3 3.8 1 1.5-1.8 1.2-3.5-0.8-5.1-6.5-5.1-12.6-10.7-19-15.8-1.6-1.3-3.2-2.4-4-4.3-1.8-2.9-1-5.1 1.1-7.6 4.7-5.8 10-11.1 14.7-16.9 4-4.8 6.7-4.9 11.3-0.8 8.1 7.5 16.7 14.6 25.7 21 1.9 1.3 3.1 3 4.1 4.9 1 2 2.3 3.2 4.6 2.9 5.5 1.4 11.3-1.5 16.6 1.4 4.5 5 5.3 8.7 2.2 14.1-1.3 2.2-0.7 3 0.7 4.5 2.9 3.2 5.4 6.6 6.2 11 0.4 2.5 0.6 4.9 0.9 7.4 0.8 8-2.3 14.8-7.2 21.3 4-2.3 7-0.8 9.8 1.8 1.6 1.5 3.2 3 5.6 2.5q0.5 0 0.7 0.5c1.7 3.7 2.2 7.9 3.3 11.8 0.6 2 1.2 3.8 2.8 5.2 1 1.6 0.4 4.8 3.9 3.9h0.1c1.5 4.5 5.2 7.6 8.3 10.5 2.9 2.9 5 6.5 8.5 9 10.3 7.4 18.8 17 28.8 24.9 6.4 5 12.9 10 19.4 15 8.5 6.7 18.4 11.6 28.2 16.7 10.2 5.3 20.6 10.1 30.9 15 3.3 1.6 6.7 1.5 10-0.3 0 0 0 0.1 0 0.1 0.9 3 3.6 2.7 5.9 3.1 10.5 1.8 21 3.9 31.8 4.1 3.8 2.7 8 1.6 12 1.2 7-0.7 13.7-2.8 20.2-5.3 9-5.3 17.9-10.7 25.9-17.5 4.2-3.6 7.5-8.3 12.8-10.7 4.7 1.4 8.5-1.4 12.6-2.9 1.5-0.5 3.1-1.2 4.7 0 1.4 0.4 2.2 0.8 0.7 2.2-2 2-4.6 2.5-6.9 3.7-6.5 3.4-11.3 9-16.8 13.8-9.4 8.2-19.4 15.2-31.3 19.6-11.9 4.2-23.9 6-36.4 5.7-3 0-6-0.4-8.8-1.3-1.6-0.4-2.9-0.7-4.2 0.4-4.3-0.2-8.8 0.6-12.7-2.1-1.4 0.2-2.5-0.3-3.6-1-1.3-3.6-5.4-3.6-7.6-3.6-6 0.1-10.6-3.3-15.7-5.1-2.4-0.8-4.7-0.9-7-1.7-5.8-1.9-11.5-5.1-16.2-8.3-9.9-6.7-21.2-11-30-19.6-5.1-4.9-12.6-7.2-17.8-12-4.6-4.2-9.4-8.3-14.2-12.2-4.8-3.9-8.8-8.8-14-12.2-5.8-3.9-8.9-10.6-14.9-14.2q-0.9-0.5-1.7-1c-1.4 0.1-2.9 0.2-3-1.8z"/>
		<path id="&lt;Path&gt;" class="s6" d="m568 547.9c-2.6-0.2-3.8 1-4.6 3.4-10.5 30.3-29.1 55-52.6 76.2-3.8 3.5-8.1 6.5-12.4 9.2-2 1.3-1.8 2.4-1.3 4.1q-1-0.4-2-0.8c-1.1 1.3-2.8 1.1-4.1 1.9-2 3-5.4 3.4-8.2 5.1-8 4-15.8 8.4-24 12-7.5 3.4-15.2 6-22.9 8.8-7.8 2.9-15.7 5.1-23.8 7.1-19.4 4.9-38.6 9.3-59 5.6-9.7-1.7-19.4-3.7-28.4-7.1-5.8-2.2-11.8-4.6-17.6-7.4-3.5-3.3-6.2-7.5-11.2-9.3-2.1-0.8-3-3.5-5-4.7-7.1-8.1-11.2-17.6-13.8-27.9q0.2-0.2 0.4-0.4c1.2-2.4 0-4.8 0.2-7.2 0-4.1 0-8.2 0-12.3-0.7-6.6 1.9-12.7 3.2-19 0.6-1 0.5-2.3 1.2-3.2 6.9-10.8 17.4-15.4 29.5-13.7 12.1 1.8 22.9 7.4 30.7 17.4 8.3 10.5 10.9 22.5 7.6 35.2-2.1 8.2-6.2 15.6-13.7 21-5.9 4.2-11.9 8.4-18.1 12.1-1.9 1.1-3.7 2.2-6.5 2 3 4.5 7.5 6 11.5 7.7 20 9 41.4 9.9 62.7 7.9 10.1-0.9 20.3-3.4 30.2-6.8 8.9-2.9 18-5.6 26.7-8.9 13.1-5 26-10.4 37.2-18.9-0.2-0.7-0.2-1.4 0.4-1.8 6.2-3.9 11.5-9.3 18.3-12.3 3.4-0.4 6.1-2.5 9.2-3.5 5.9-3.8 10.2-9.4 15.3-14 2.1-2.8 4.4-5.6 6.1-8.8 0.8-2 0.4-4 0.3-6 1.8-5.6 6.1-9.8 9-14.8 6-10.1 10.5-20.7 14.7-31.6 5.2-13.6 7.4-27.9 9.3-42.2 0.3-2.7-0.1-3.9-3.3-3.8-5.2 0-10.2-1.4-13.7-5.8-0.3-1.7 0.2-3.2 1.2-4.5 2-1.4 3.9-0.1 5.7 0.2 3.1 0.6 6.2 1.5 9.2-0.4 1.1-0.8 2.5-0.5 3.8 0.1 4.6 2.4 8.7 2.2 11.5-1.8 3-4.5 6.7-4.7 11.2-3.9 1.9 0.4 4.2 1.3 5-1.6 0.6-2.4 0.8-4.6-1.7-6.7-6.4-5.3-7.3-14.9-2.2-21.2 5 0.5 2 5.2 4.2 7.5 0.3-4.3 0.2-8.3-1-12.3-2.6-8.9-4.1-18-6.5-26.9-0.4-1.5-0.2-3 0.4-4.4 2.2-2.1 3.2-0.4 4 1.3 1 2.3 1.2 4.9 1.7 7.3 0.2 1-0.1 2.5 0.5 2.9 5.8 3.7 2.2 11.5 7.3 15.1 0.4-0.8-0.1-2.7 1.6-3.5 2.6-0.2 2 2 2.5 3.3 0.5 1.6-0.4 3.6 1.2 5v0.1c0.8 4 0.8 8 1.3 12.1 0.2 1.5 0.3 2.9 1.7 3.8v0.1c0.2 4.8 1.2 9.5 2.9 14 0.6 3 1.4 6.1 1.8 9.1 0.4 3.3-0.1 6.2-3.9 7.5-3.8 1.2-7.3 0.9-9-2.8-1.6-3.6-3.6-3.3-6.6-2.4-5.3 1.5-10.6 2.7-16 3.9-2.4 0.6-3.5 1.6-3.5 4.4-0.3 15.7-3.6 31-8.2 45.9-1.1 3.5 0.5 3.5 2.4 4.3z"/>
		<path id="&lt;Path&gt;" class="s1" d="m798.2 145.7c0 15.3-2.9 29.7-12.9 42-17.8 21.6-60.1 21.5-74.4-11.1-9-20.4-9-41.6 0.5-61.9 8.4-17.9 24.1-26.2 44.4-24.8 17.8 1.2 32.1 12.6 38.3 30.3 2.9 8.3 4.2 16.8 4.1 25.5z"/>
		<path id="&lt;Path&gt;" class="s7" d="m429.2 368.9c0.8-11.1 1.5-22.2 2.4-33.2 0.3-3.4 0-5.3-3.7-6.8-6.5-2.5-8.1-12.8-3.1-17.8 2-2 4.2-2.8 7.2-1.8 5.7 2 8.1 0.5 9.7-5.5 0.6-1.9 1-4.1 3.1-4.9 7.2-2.6 13.3-8.9 22.1-6.5 0.4 0.1 0.9-0.2 1.4-0.3-2.5-3-3.8-3.3-10.4-2.6 0.3-6.5 2.2-8.8 8.3-9.4 6.7-0.6 12.1-3.5 15.6-9.3 1.5-2.5 3-2.4 5.3-1.3 7.8 3.9 11 11 11.8 19 0.9 8.8 0.7 17.6-0.6 26.4-0.3 1.8-0.1 3.6-0.2 5.5 0.7 0.7 1.1 1.6 0.8 2.6-1 5.8-1.7 11.8-3.8 17.3-3.4 9.1-9.3 15.6-19.1 17.9-9.3 0.8-17.4-2.9-24.8-6.7 3.2 5.3 8.9 8.1 15.3 8.9 6.3 0.7 7.1 2.3 7 7.8 0 0.6 0.4 1.2 0.5 1.9 0.3 1.3 0.4 2.6 0.4 3.9-0.6 9.5-5.5 14.2-14.8 14.3-10.7 0.2-26.7-10-30.4-19.4z"/>
		<path id="&lt;Path&gt;" class="s1" d="m887.4 91.5c-16.1 22.2-31.6 43.5-47.6 65.6 9.4 0 17.9-0.1 26.5 0 2.5 0 2.5-1.5 2.5-3.3 0-4.6 0.1-9.3-0.1-13.9-0.1-2.7 0.8-3.3 3.4-3.2 5.8 0.2 11.7 0.2 17.5 0 2.8-0.2 3.4 0.8 3.2 3.3-0.1 4.5 0.2 9-0.1 13.5-0.1 2.9 0.9 4 3.7 3.6 0.5-0.1 1-0.1 1.5 0 4.1 0.2 8.3-0.7 12.4 0.5 0 6.3 0.2 12.6 0.1 18.9 0 1.6-1.5 1.4-2.7 1.4-3.3 0-6.7 0.3-10-0.1-4.3-0.6-5.3 1.2-5 5.2 0.4 4.6 0 9.3 0.2 14 0.1 2.7-0.7 3.9-3.6 3.8-6-0.2-12-0.2-18 0-2.7 0.1-3.5-0.8-3.4-3.4 0.2-5.2-0.2-10.4 0.2-15.5 0.2-3.5-1.1-4.1-4.3-4.1-16.4 0.2-32.9-0.1-49.4 0.2-4.2 0-5.1-1.2-5.4-5.3-0.7-8.5 2-15 7.2-21.7 14.4-18.5 28.1-37.6 42.1-56.4 1.2-1.6 2.2-3.2 4.7-3.1 7.8 0.1 15.6 0 24.4 0z"/>
		<path id="&lt;Path&gt;" class="s1" d="m674.2 91.6c-16.1 22.1-31.6 43.4-47.6 65.5 9.3 0 17.9-0.1 26.5 0 2.3 0 2.7-1.1 2.6-3.1-0.1-4.7 0.1-9.3-0.1-14-0.1-2.5 0.4-3.5 3.2-3.4 5.9 0.3 11.7 0.3 17.5 0.1 2.9-0.2 3.4 0.8 3.3 3.4-0.2 4.3 0.1 8.6-0.2 12.9-0.2 3.4 1.2 4.4 4.4 4.1 3.4-0.3 7 0.1 10.4-0.1 2.6-0.1 3.2 0.8 3.1 3.1-0.2 5-0.2 10 0 15 0 2.3-0.8 2.9-2.9 2.8-3.8-0.1-7.6 0.1-11.5-0.1-2.5-0.1-3.5 0.7-3.4 3.4 0.2 5.5-0.1 11 0 16.5 0.1 2.4-0.7 3.2-3.1 3.1-6.2-0.1-12.3-0.1-18.5 0-2.3 0-3.2-0.7-3.1-3.2 0.1-5.3-0.2-10.6 0.1-16 0.1-3.1-1-3.8-4-3.8-16.8 0.1-33.6 0-50.5 0.2-3.5 0-4.1-1-4.4-4.4-0.8-8.9 1.9-16.1 7.4-23.2 14.1-17.9 27.5-36.4 40.9-54.9 2.3-3.2 4.8-4.2 8.7-4 6.7 0.4 13.5 0.1 21.2 0.1z"/>
		<path id="&lt;Path&gt;" class="s8" d="m973.8 533c-12.4-0.7-24.9 0.3-37.3 0.1q-3.3-0.1-6.5-0.2c0.1-2.3-0.3-3.6-2.9-5-6.7-3.8-12.4-8.5-12.3-17.7 0-9.7 1.4-19.1 3.3-28.5 0.5-2.4 0.5-4.5-0.1-6.8 1.6-3.2 0.9-6.8 1.9-10.1 1-3.4 2.7-5.3 6.3-5.1 8.4 0.4 15.1-3.2 21.3-8.4 7.4-6.2 14.5-6.3 22.2-0.4 4.3 3.3 6.2 7.3 4.7 13-1.9 7.2-1.5 14.6-0.3 21.8 0.8 4.4 2.1 4.9 6.3 3.5 2.2-0.7 4.3-2.1 6.6-0.2 5.1 2.9 4.4 7.7 3.6 12.2-0.8 4.9-4.8 6.5-9.1 6.7-3.6 0.1-4.3 1.7-4.7 4.8-0.7 6.8-1.9 13.6-3 20.3z"/>
		<path id="&lt;Path&gt;" class="s6" d="m329 342.3c-2.3 4-2 8.5-1.9 12.9 0 2 0.5 4-0.8 5.8-2.1-1.4-1.2-3.4-1.1-4.5-15.5 6.2-29 16.2-42 27.1-8.8 4.4-12.8 13-17.8 20.7-11.2 17.1-16.3 36-17.1 56.3-0.6 15.5 2 30.1 8 44.3 2.9 6.9 7.2 13 12.5 18.4 1.9 2 4.2 3.2 6.7 4.2 9 4.3 18.5 5.5 28.3 5.1 1.3-0.1 2.2-0.8 3.2-1.3 5.5-1.6 11.3 0 16.8-1.4 11.6-2.8 23.3-5.3 34.5-9.4 4.6-1.7 9.3-3.4 13.9-5.1 8.9-5.8 19.3-8.1 28.7-12.6 4.2-2 8.6-3.6 13.1-5.1 3.2-0.8 5.8-3 8.9-4.2 5.2-2 10.2-0.3 12.6 4.1-4 3.9-9.8 4.6-14.2 7.8-1.8 1.2-3.9 1.9-5.5 3.3-2.2 1.9-4.6 3.1-7.6 2.6-5 1.7-10.2 2.8-14.7 5.2-7.5 4.1-15.5 7.2-23.2 10.5-6.7 2.9-13.8 5.4-21.1 7.2-16.2 4.1-32.5 7.7-49.1 8.5-14.3 0.7-28.2-1.9-39.2-13-6.3-6.4-10.1-14.2-14.7-21.6-3.7-6.1-3.7-13.4-6.4-19.8-0.5-1.3 0.3-1.9 1.3-2.6 1.9 1.5 1.3 4.2 3.4 5.8-6.2-22.5-3.1-44.6 2.7-66.9-2.5 1.1-1.6 3.7-4.3 5.1 1.6-6.5 4.1-11.9 6.6-17.3 6.1-13.7 15.4-25.3 25.4-36.3 11.3-11.9 24.9-20.5 39.4-27.7 4.8-2.3 9.4-4.9 14.7-6.1z"/>
		<path id="&lt;Path&gt;" class="s3" d="m263.9 312.7c-4.3-7.8-8.3-15-12.2-22.3-1.1-2.1-2.7-3.5-4.7-4.2-11-3.8-18-12-24-21.3-5.5-8.7-8.5-18-8.1-28.5 0.4-9.2 7.5-11.4 14.3-8.2 14.1 6.6 20.1 18.6 22 33.5 0.9 7.5 1.3 14.8 0.1 22.2-0.5 3.3 2.5 4.9 3.7 7.4 4.8 9.2 9.7 18.4 14.9 27.5-0.8-8.4 1.6-16.8-2-25.4-3.9-9.4 1-21 9.9-26.2q1.2-0.8 2.4-1.8c3.9-3.3 8.3-3.3 12.5-0.9 4.7 2.7 4.3 7.6 2.7 11.5-3.8 9-8.4 17.8-18.2 21.8-3.9 1.6-5.2 4-5.2 8-0.1 7.9 0.2 15.8 2 23.9-2-2.6-4.2-5.1-5.8-7.9-0.9-1.7-2-3-3.3-4.3-3.6-3.5-6.5-3.6-11.3-0.9-8.6 4.7-18.4 4.4-28 2.6-4.7-0.8-9.1-2.8-12.6-6.2-2.2-2.1-4.6-4.3-3.7-7.6 0.8-3 3-4.5 6.3-5.5 16.8-5.4 30.7 0.8 43.8 10.5 1.2 0.9 2 2.3 4.5 2.3z"/>
		<path id="&lt;Path&gt;" class="s1" d="m987 489c-2.6 0-4.8 0.6-7.1 1.9-3.8 2.2-6.4 0.9-7-3.5-1.3-8.9-2.4-17.8 0.9-26.6 0.4-0.9 0.8-1.9 0.3-2.9-4.8-8.7-17.3-13.5-24-7.1-7.3 6.9-15.5 11.6-26 10.5-2.4-0.2-2.6 1.6-2.9 3.2-0.5 2.8-0.9 5.6-1.3 8.4-0.1 1.1 0 2.5-1.9 2-0.5-2.2-1-4.4-1.5-6.8-3.6 1.1-7.5 5.4-10.1 1.8-4.6-6.5 4-6.1 6.5-9.5-2 0.2-3.6 0.6-5.1 0.6-4.9 0.1-7.6-3.4-6.4-8.1 0.3-1.1 0.9-1.2 1.8-1.2 7 0.2 11.8-3.8 16.3-8.3 4.9-4.8 10.2-9 16.1-12.6 10-6.3 20.5-5.9 31.2-2.3 6.5 2.1 9.9 7.1 11.1 13.8 0.9 0.5 2 0.4 3.1 0.7 7.3-1.1 12.3 2.9 16.6 8 4 4.6 7.5 9.7 12.8 12.9-0.7 1.7-2.2-0.2-3 0.8 0.1 1.9 3.5 2.3 2.2 4-1.9 2.5-4.8 2.5-7.6 1.2-1.4 1.9 3.2 4.3-0.8 5.7-3.2 1.2-5.4-0.1-7.4-3.3-1.9 6.1-4.1 11.5-6.8 16.7z"/>
		<path id="&lt;Path&gt;" class="s3" d="m768.4 884.3c-2.2 4.4-6.6 6.6-9.1 10.6-1.6 2.5-2.3 5.2-3.6 7.7-1.3 2.6 0.9 3.7 2.4 4.7 9.3 6.4 14.5 25.9 10.6 35.9-1 2.7-2.4 5.1-5.7 5.7-3.5 0.7-5.7-1.6-7.3-4.1-3.8-5.8-5.3-12.2-5.9-19.2-0.5-6.6 0.7-12.7 2.7-18.8 0.5-1.2 0.7-2.5 0.2-4.2-2.8 1.1-3.9 3.9-5.7 5.7-3.4 3.2-6.1 7-9.3 10.4-3.2 3.4-1.3 7.6-2.4 11.4-2.8 10-7.5 18.7-15.5 25.2-4.7 3.8-9.1 8.1-15.4 9.6-7.4 1.6-10.7 0.1-11.4-7.4-1.1-10.9 4.7-18.2 12-24.9 7.6-7.1 17.2-10.2 27.1-12.7 0.9-0.3 2-0.6 2.6-1.3 7.2-7.7 13.5-16.2 21.1-23.6-5.5 0.8-10.2 4.1-15.8 4.2-2.1 0.1-2.5 2.9-4 4.2-6.7 6-13.7 4.6-21.3 2-5.3-1.8-8.2-5.6-10.9-9.7-1.9-2.7-0.9-5.8 2.3-8 5-3.5 10.5-2.6 15.6-1.1 5.7 1.5 11.2 3.9 15.3 8.6 1.4 1.6 3.6 2 6 1.3 8.2-2.4 16.1-5 22.3-11.3 0.7-0.8 1.5-1.4 3.1-0.9z"/>
		<path id="&lt;Path&gt;" class="s3" d="m1278.8 595.8c6-0.4 10.3-3.6 15.2-4.5 6-1 8.6-6.1 12-10 11.9-13.4 26.5-18.7 44.1-15.2 4.3 0.8 6.3 4.9 4.5 9.2-2.9 6.8-8.3 11.6-14.6 14.3-11 4.8-22.4 4.7-33.8 0.9-2.7-0.9-5.9 0.4-8.6 1.5-8 3.1-15.6 7.1-24.2 9 6.1 0.8 11.6 3.4 18.1 2.4 14.5-2.2 21.2 2.5 25.2 16.7 1.8 6.4-2.5 10.5-9 8.6-9.5-2.9-15.6-9.7-18.6-19-0.8-2.6-1.8-3.1-4.2-3.9-8.4-2.7-16.8-1.9-26.6-1.1 5-3.9 10.5-3.2 14.5-6.5 3.5-2.9 5.6-5.1 3.4-10.3-4.4-10.4 0.4-27.5 8.9-34.6 3.8-3.1 9.1-0.8 9.6 4.9 1 10.6-0.8 20.7-8.4 28.9-2.4 2.7-4.7 5.4-7.5 8.7z"/>
		<path id="&lt;Path&gt;" class="s6" d="m296.1 663.1c-2.7 0.2-5.4 0-7.1 2.7-2.5 1.4-5.2 1.9-8 1.2q-1 0.5-2 1c-7.3 1.5-14.6 2.9-22.1 1.9q-1.8 0-3.7 0c-3.8 1.7-7.9 0.9-11.7 0.2-7.4-1.3-14.9-1.2-22.2-3.1q-4.4-1.1-8.4-3c-10.5-3.9-21.2-7.5-31.5-12.1-8.4-3.7-15.6-9.5-24.2-12.9-3.6-0.7-6.1-3.3-8.9-5.2-8-5.6-16.4-10.6-23.1-17.8-2.2-3.9-4.3-7.8-5.1-12.3 1.1-3.1 2.9-0.8 3.7-0.1 7.8 7.4 16.7 13.5 25.6 19.1 6.9 4.3 13.9 8.7 21.4 12.1 7 3.3 13.7 7.5 20.9 10.1 9.2 3.2 17.9 7.8 27.7 9.4 6.4 1.1 12.8 2.8 19.2 4.1 14.2 2.9 28.3 2 42.5-0.2 4-0.7 7.6-3.2 11.9-2.2 4.4 0.2 5.5 1.7 5.1 7.1z"/>
		<path id="&lt;Path&gt;" class="s9" d="m1147.9 640q0.1-11 0.1-22c9.5 0.8 17.7-4.1 26.5-6.4 3-0.8 5.8-0.2 8.8-0.1 13.6 0.3 22.3 9.6 31.8 17.3 1.4 1.1 2.5 2.4 1.2 4.2-1.1 1.5-2.4 2.4-4.3 1.5-1.9-0.9-3.9-1.6-6.1-2.6 0.4 3.7 3.5 3.6 5.5 4.9 1.3 0.8 3.6 1.2 2.6 3.4-0.8 2-2.6 1.2-4.3 1-4.2-0.6-7.6-2.8-11.3-4.7-1.3-0.7-3.9-2.1-4.7 0-0.7 1.9 1.7 2.9 3.5 3.4 4 1 7.3 3.1 10.1 6 0.5 0.5 1.4 1.1 0.9 2-0.5 0.9-1.4 1.1-2.2 1-3-0.2-5.9-0.8-8.6-2.2-8.8-4.6-18-5.5-27.9-4.1-5.6 0.8-11.9 2.3-17.2-2.1-1-0.8-2.9-0.4-4.4-0.5z"/>
		<path id="&lt;Path&gt;" class="s10" d="m625.1 383.1c5.9-4.7 11.7-9.3 17.6-13.9 1.6-1.4 3.3-2.1 5.4-2 2.3 0.1 4.7 0.2 7-0.1 6.7-0.9 12 1.5 16.5 6.3 2.3 2.4 4.9 4.5 7.4 6.6 3 2.6 4.3 4.8-0.4 7-2.3 1.1-2.5 6.2-6.8 3.1-0.4 1.7 2.2 2.7 0.4 4.2-1.5 1.2-3.1 1.1-4.7 0.5-2.8-1-4.9-3.5-8-3.7-9.3-0.6-16.7 3.8-23.4 9.7-5.2-4.9-9.3-10.6-11-17.7z"/>
		<path id="&lt;Path&gt;" class="s11" d="m625.1 383.1q5.5 8.8 11 17.7c-9.4 8.2-19.7 15.3-30.2 21.9-3.9 2.5-4.4 5-3.5 9 1.1 5.3 2.6 10.7 2.7 16.2-2.6-0.1-1.9-2.1-2.1-3.6-0.2-1.6 0.8-3.8-2-4.3-1.2-5.2-4.1-9.7-4.5-15.3-0.8-9.9-3.6-19.7-2.5-29.8-0.2-1.5 0-2.8 1-4 8.6-3.2 17.2-6.3 25.7-9.7 2.4-0.9 3.3 0.5 4.4 1.9z"/>
		<path id="&lt;Path&gt;" class="s12" d="m642.8 835.1c10.9-1.1 21.8-2.8 32.8-1.9 0.2 0.6 0.6 1.3 0.4 1.9-2 8 2.5 10.9 9.2 12.8 7.8 2.1 14.7 6.4 21.8 10 0.7 3.8-2.3 3.4-4.3 3.5-7.2 0.2-14.3 0.5-21.4-0.3-6.8-1.6-13.6-0.2-20.4-0.6-3.8-0.2-7.6 0.2-11.5-0.1-4.9-0.4-5.8-1.5-5.9-6.6 0-2 0.3-4-0.2-5.9q-0.3-6.4-0.5-12.8z"/>
		<path id="&lt;Path&gt;" class="s13" d="m670.7 815.9c-2.7-3.6-1.6-8.3-3.4-12.2-0.7-1.6 1-2.5 2.6-2.7q10.6-1 21.1-2c2.9 1.3 6.1-0.5 9 1q0.4 0.3 0.2 0.7c0.4 0.9-0.1 1.5-0.6 2.2-1.4 2.4-0.4 2.9 2 3.5 7.8 2.1 15.9 2.2 23.8 3.4 3.4-0.4 6.2 1.8 9.4 2.2 1.4 3.5-1.8 3.4-3.5 3.8-8.7 1.9-17.4 3.8-26.3 5.5-4.5 0.8-8.9 2.7-13.7 2.1-4.7 0-9.1 2.7-14 2.1-1.6-0.3-3.3 0.2-4.3-1.6v0.1c-1.2-2.6-0.3-5.7-2.3-8.1z"/>
		<path id="&lt;Path&gt;" class="s14" d="m473.3 374q-0.3-2-0.5-4c-0.7-3 0.1-6.1-0.7-9.2-0.7-3 2-3.1 4-3.7 15.3-4.6 18.9-17.1 21-30.8 0.2-1.1-1.4-3.7 1.8-3.3 0.6 3.8 3.2 6.4 5.4 9.3 6.4 8.7 5.2 15.1-4 21-3.7 2.7-8.1 5.1-6.9 11 0 1.2 0 2.5-0.1 3.8-1.6 6.2-6.9 10.7-13 10.7-3.2 0-6.2-1-7-4.8z"/>
		<path id="&lt;Path&gt;" class="s15" d="m595 390.9q0 2.1 0.1 4.2c-2.7 4.3-5.1 0.1-7.6-0.3-1.8 1.7 1.1-4.7-1.9-1.1-1.9 2.2-2.7 4.4-0.8 6.9 0.6 2.5-0.2 4.6-2.4 5.4-3.4 1.1-6.3 3.2-9.7 4.5-2.5-1.6-4.7-1.5-7.9-0.5-6.6 2.1-13.7 2.2-20.4 4.3-4.1 1.3-7.5 4.6-8.2 8.7 0 1.1-0.2 2.4-1.1 3.2-3.7 3.2-3.2 6.6-0.6 10.1 2.9 4 2.2 8.9 3.4 13.3q2.8 10.8 5.7 21.7c0.6 2.2 1 4.5 0.5 6.8-0.4 1.7-1.3 2.7-3.1 2.7-1.5 0-2.5-0.8-2.9-2.2-2.5-8.2-4.6-16.6-6.5-25-1-4.8-1.6-9.7-3.4-14.4-0.8-1-1.6-2.1-1.7-3.4-0.2-4.8-2.6-4.9-6-3-3.8 0.7-7.8-0.4-11.4 2-1 0.7-2.6 0.1-3.4-1.1q-0.3-0.8-0.3-1.5c1-3.7 4.8-3.2 7.2-4.7 1.1-0.4 2.2-0.3 3.3 0.4 2.1 1.1 4 1.1 5-1.7 0.9-1.3 2.2-1.3 3.6-0.8 1.3 1.4 2.2 0.5 3.1-0.6 1.4-1.6 2.6-3.4 3-5.6 3.4-3.6 5.6-8.4 10.6-10.3 2.2-0.2 4.4-0.6 4.5-3.5 0.1-3.9 2.3-4.2 5.3-3.3 4.1 2.3 8 1.4 12.1-0.2 4.8-1.9 9.6-3.4 14.5-5.1 1.4-0.5 2.6-1 3.5-2.4 3.7-5.5 5.2-5.9 11.5-3.8 0.7 0.3 1.6 0.2 2.4 0.3z"/>
		<path id="&lt;Path&gt;" class="s16" d="m551 402.1c-2.8 0.2-4.4 1-4.1 4.5 0.3 4.2-3.2 3.3-5.8 3.3-4.8-4.2-6.7-10.6-11.1-15.3-4.8-5.2-8.8-11.2-15.2-14.8-6.6-5.3-13.5-10.2-20-15.7-2-2.2-1.7-4.6 0-6.7 1.8-2.2 3.9-3.1 6.6-1.5 4.7 1.5 7.7 5.5 11.7 8.1 1.5 1.5 3.3 2.6 5.1 3.9 9 9.2 18.4 18.2 25.7 29 1.6 2.3 4.7 3.5 7.1 5.2z"/>
		<path id="&lt;Path&gt;" class="s17" d="m831 616.2c-4.6 3.4-9.7 6.1-14.9 8.5-2.5-4.4-7.4-5.9-11.3-8.3-4.7-3-9.3-6.3-14.5-8.6-0.6-0.3-1.4-1-1.6-1.7-1.8-5.3-4.2-10.4-4.9-16.1-0.3-1.8 0.1-3.1 1.7-3.5 1.8-0.5 1.4 1.4 1.9 2.3 1.8 3.4 2.5 7.2 4.9 10.3 0 0 0.3-0.1 0.4-0.2 0.1-0.3 0.2-0.6 0.3-0.9 2.3-0.4 3.1 1.7 4.3 2.9 3.1 3 6.5 3.9 10.4 1.9 3.5-1.9 6.6-1.5 9.8 0.6 5.3 3.5 11.7 1.7 17.4 3.3 1.5 2.1-3.9 1.2-1.6 4.1 1.6 2-1.1 3.7-2.3 5.4z"/>
		<path id="&lt;Path&gt;" class="s18" d="m835 607.3c-7.6 0.6-14.9-0.2-21.4-4.6-1.1-0.7-1.8-0.5-3 0.1-8.4 4.1-12.2 3-17.6-4.8-0.3-2.5-1.7-5.1-0.3-7.4 1.5-2.5 0-3.3-1.6-4.6-12.9-10.2-25.8-20.5-38.7-30.7-2.6-2.1-5.3-3.9-0.6-6.8 1.3-0.8 1.8-2.9 2.7-4.5 0.7-1.5 1.4-3.2 3.5-3.2 2 2.9 1.3 4.9-1.4 7-2.8 2.2-2.5 5.2 0.3 7.1 9.9 6.7 18.9 14.7 28.7 21.6 3.3 2.4 6.8 5.3 9.8 8.4 1.9 1.9 2.4 4.4 1.1 6.3-3.5 5.4 2.4 6.8 4 9.8 1 2 4.4 1.4 6.6-0.2 3.9-2.7 7.6-3.6 10.8 1.1 1.3 2 3.5 1.9 5.7 2.1 2.9 0.3 6.3-1.5 8.7 1.8 0.2 0.3 1.4 0.2 1.8-0.2 4.4-3.9 10.6-4.2 15.3-7.6 1.1-0.8 1.3-1.7 1.8-2.7 1.1-1.9 2.5-3.5 5-3.3 0.8 0.1 1.8-0.2 2.2 0.8 0.5 0.9-0.4 1.5-0.9 2.1-3.3 4-1.9 4.5 0.8 8.6 3.5 5.3 8.7 4.2 13 5.8 5.6 2.1 8.4 6.5 11.8 10.6-2.4 1.8-2.6 1.9-4.3-1-1.5-2.8-5.4-2.8-6.6-5.9-2.9 2.1-5.6 1.1-8.3-0.4-3.4-1.7-6.2-4.4-8.8-7.2-2.7-2.8-5.1-3.2-8.7-1.1-3.4 2-6.9 4.8-11.4 3z"/>
		<path id="&lt;Path&gt;" class="s19" d="m784.2 508.9q-9.1-7.4-18.2-14.9c-1.2-2-2.8-3.6-4.8-4.9-3.1-2-4.4-4.7-3.3-8.3 2.9-3.5 5.8-3.9 9.7-1 3.6 2.8 6.5 6.5 11 8.2q4.7 4 9.5 7.9c4.4 6.1 3 10.8-3.9 13z"/>
		<path id="&lt;Path&gt;" class="s20" d="m758 540.8c-1.3 0.9-1.5 3-3.5 3.2q-7.3-4.8-13.6-10.9c-1.6-3.6-5.3-4.8-8-7.3-3.5-3.2-4.8-6.6-2.7-9.3 2-2.6 5.2-2.5 9.1 0.2 0.6 0.4 1.1 0.8 1.8 0.3 7.2 5.6 14.4 11.3 21 17.7 0.1 3-2.8 4-4.1 6.1z"/>
		<path id="&lt;Path&gt;" class="s21" d="m650.9 252.7c-8 4.9-15 4.5-19.6-1.2-3.8-4.6-3.5-12.2 0.7-16.4 4.7-4.8 12.2-4.8 18.6 0 2.1-0.2-0.3-4.2 2.8-3.5 2.7 0.8 1.4 3.1 1.4 4.7 0.2 6 0.1 11.9 0.1 17.9-0.1 5-1.2 9.7-6.3 11.5-5.7 2.1-11.5 1.6-16.8-1.6-0.9-0.6-1.6-1.4-0.9-2.5 0.6-1.1 1.6-1.1 2.5-0.4 2.1 1.5 4.5 2.1 7 2.4 7.6 0.9 11.4-3.1 10.5-10.9z"/>
		<path id="&lt;Path&gt;" class="s22" d="m569.1 240c0-4.6 0.1-9.3 0-13.9 0-2.2 0.6-3 2.9-2.9 4.3 0.1 8.6-0.2 12.9 0.2 6.9 0.6 11.1 5.3 10.9 11.8-0.2 6.3-4.3 10.4-11.2 11-1.2 0.2-2.3 0.2-3.5 0.2-7.7 0.1-7.7 0.1-8.3 7.8-0.1 1.3 0.3 2.9-1.7 3-2.4 0.1-1.9-1.8-1.9-3.2-0.1-4.7-0.1-9.3-0.1-14z"/>
		<path id="&lt;Path&gt;" class="s23" d="m780.9 523.2q11.4 9.6 22.9 19.2c2.8 2.3 2.9 5.7 0.2 8-1.1 1-1.7 1.1-3.1-0.1-7.5-6.5-14.8-13.2-22.9-19.1-2.3-1.6-5.4-2.9-5.8-6.4-0.6-2.8 2.6-2.9 3.3-4.8 2.7-0.4 4.2 1.2 5.4 3.2z"/>
		<path id="&lt;Path&gt;" class="s24" d="m933.5 253.4c-6.5 5.1-14.1 5.1-18.7 0.2-4.4-4.7-4.3-13.6 0.1-18.4 4.5-4.9 12-4.9 19.1 0.5 0-4.4-0.1-8.2 0-12.1 0-1-0.5-2.4 1.4-2.5 1.9-0.2 2 1.1 2 2.5q0 15.5 0 30.9c0 1.1 0.3 2.6-1.4 2.7-2.7 0.2-1.5-2.4-2.5-3.8z"/>
		<path id="&lt;Path&gt;" class="s25" d="m780.9 523.2q-2.7-1.6-5.4-3.2 4.3-5.5 8.7-11.1c1.2-1.3 2.5-2.6 3.8-3.8 2.8-2.8 4-5.5-0.3-8.1-0.5-0.3-0.1-0.8 0.4-1.1 3.1 3.9 5.7 3.2 8-0.9 2.5-4.6 5-4.3 8.9-0.9 11.5 10.2 23.7 19.5 35 30 0.6 1.3 1.1 2.5 0 3.8-1.4 0.1-2.8 0-3.2-1.6-2.2-7.3-9.5-9.2-14.4-13.6-5.4-4.8-11.5-8.9-16.6-14.2-3-3.2-5.4-3.3-8.2-0.1-5.7 6.5-11.2 13.1-17.1 19.5-2.1 2.3 1.2 3.5 0.4 5.3z"/>
		<path id="&lt;Path&gt;" class="s26" d="m123.2 616c5.5 2.3 9.4 7.2 14.4 10.3 6.2 3.7 11.8 8.4 17.6 12.7-2.6 1.2-5.7 0.3-7.8-0.3-2.7-0.7-3.9 0.6-5.8 1.1-1.9 0.5-1.8 1-1 2.6 0.8 1.7 1 3.7 1.4 5.7-4.3-5.5-7.4-11.6-11-17.5-2.8-4.7-4.4-10.2-7.8-14.6z"/>
		<path id="&lt;Path&gt;" class="s27" d="m621.9 247.7c0 2.5 0 5-0.1 7.5 0 2.3-2.5 2.6-2.8 1.5-1-3.9-2.4-1.2-3.6-0.6-3.2 1.6-6.5 1.7-9.7 0.7-3.6-1.1-5.5-3.7-5.3-7.5 0.2-3.6 2.5-5.5 5.6-6 2.8-0.5 5.7-0.4 8.5-0.6 1.2 0 2.9 0.7 3.5-0.9 0.6-1.6 0.3-3.3-1-4.7-3.4-3.7-7.3-3-11.4-1.4-1.2 0.4-2.7 2.6-3.7 0.4-1.1-2.3 1.2-2.7 2.6-3.3 10.3-4.5 17.4 0 17.4 10.9q0 2 0 4 0 0 0 0z"/>
		<path id="&lt;Path&gt;" class="s28" d="m675.9 245.5c-2.5 0-5 0.1-7.5-0.1-3.4-0.1-3.1 1.5-2 3.7 2.4 5 8.9 6.6 14.7 3.5 1.1-0.6 2.3-1.9 3.3-0.2 1 1.7-0.8 2.4-1.8 3.1-4.3 3.1-12.7 2.3-16.8-1.5-4.1-3.9-5.2-10.9-2.4-16.1 2.7-5.2 8.4-7.5 14.5-6 4.9 1.2 8.4 5.8 8.8 10.8 0.1 2.4-0.7 2.9-2.8 2.8-2.7-0.1-5.4 0-8 0q0 0 0 0z"/>
		<path id="&lt;Path&gt;" class="s29" d="m749.7 257.3c-7.6 0-12.8-5.3-12.9-12.8-0.1-7.7 5.4-13.1 13.2-13.1 7.5 0.1 12.8 5.5 12.8 12.9 0 7.8-5.3 13.1-13.1 13z"/>
		<path id="&lt;Path&gt;" class="s30" d="m881.1 244.4q0-5.3 0-10.5c0-1 0-2 1.3-2.3 0.9-0.1 2.1 0 2.1 0.8-0.1 5.4 2.1 1.2 3 0.7 4.1-2.2 8.3-2.4 12.4-0.3 3.8 1.9 4.8 5.6 4.8 9.6q0.1 6 0.1 12c0 1.3 0.2 2.8-1.9 2.8-2-0.1-1.8-1.6-1.8-2.9 0-3.8 0.1-7.6 0-11.4-0.1-5.2-2.7-8.2-7.2-8.4-4.9-0.2-8.7 3-9 7.9-0.3 4-0.1 8-0.1 12-0.1 1.3 0.1 2.8-1.9 2.8-2 0-1.8-1.6-1.8-2.9q0-4.9 0-9.9 0 0 0 0z"/>
		<path id="&lt;Path&gt;" class="s31" d="m710.3 235.2c3.4-3.4 7.3-4.3 11.6-3.6 5 0.9 7.6 4.1 8 8.9 0.3 4.7 0.1 9.3 0.1 14 0 1.4 0 2.8-2 2.7-2.1-0.1-1.6-1.8-1.6-3-0.1-3.8 0-7.6-0.1-11.5-0.1-5.4-2.5-8-7.2-8.1-5.1-0.2-8.7 2.9-9 8-0.3 3.9-0.1 7.9-0.1 11.9 0 1.2 0.2 2.5-1.5 2.6-2 0.2-2.1-1.2-2.1-2.6 0-6.3-0.1-12.6 0-18.9 0-1.5-1-3.7 1.6-4 2.5-0.4 1.5 2.3 2.3 3.6z"/>
		<path id="&lt;Path&gt;" class="s32" d="m691.1 822.2c8.9-0.9 17.5-3.2 26.2-5 5.1-1 10.2-2.2 15.4-3.3 1.1-0.2 2.4-0.1 2.1-1.9 2.6-0.6 4 1.3 4.3 3 0.5 2.5-2.2 1.9-3.5 2.2-15.6 3.7-31.3 7.3-46.9 10.9q-4.3 0.9-8.6 1.9c-2.4-1.1-0.6-2.3 0.2-2.8 3.5-1.9 6.7-4.4 10.8-5z"/>
		<path id="&lt;Path&gt;" class="s33" d="m867.8 253.6c-4.5 4.4-9.5 4.9-14.5 2.5-4.6-2.1-5.1-6.5-5.1-11q0.1-5.5 0-11c0-1.3 0.1-2.4 1.7-2.5 1.9-0.2 2 1.2 2 2.6 0 4-0.1 8 0 12 0.1 4.9 2.6 7.7 7 8 4.8 0.3 8.6-2.7 9-7.4 0.3-4 0.1-8 0.1-12 0-1.4-0.6-3.3 1.9-3.1 2 0.1 1.8 1.6 1.8 2.9 0 6.5 0 13 0 19.5 0 1.2 0.5 2.9-1.6 3.1-2.4 0.3-1.7-1.9-2.3-3.6z"/>
		<path id="&lt;Path&gt;" class="s34" d="m828.5 257.3c-7.9-0.1-13.1-5.4-12.9-13.3 0.2-7.3 5.5-12.5 12.8-12.6 7.7-0.1 13.4 5.6 13.2 13.2-0.1 7.6-5.4 12.8-13.1 12.7z"/>
		<path id="&lt;Path&gt;" class="s35" d="m517 639.9c3.9-1.5 7.9-0.8 11.8-0.8 10.1-0.1 20.3 0 30.4 0.1 1.6 0 3.4-0.4 4.8 0.7-1.9 0.3-1.7 2-2 3.4-0.3 1.7-0.2 3.6-1.9 4.8 0-0.8-0.1-1.7 0.2-2.5 1.3-4-0.7-5.3-4-3.7-4.4 2.3-9.1 1.7-13.5 1.9-13.3 0.5-26.5 0.2-39.8 0.2-1.5-0.1-3.4 0.6-4-1.8 1.1-1.7 2.9-1.2 4.5-1.2 7.2 0 14.4 0 21.3 0-2.4-0.6-5.3 1-7.8-1.1z"/>
		<path id="&lt;Path&gt;" class="s36" d="m762.8 417.4c9-5.2 18.1-10.4 27-15.9 2.4-1.4 3.5-0.9 4.8 1.1 2.5 3.5 5.2 6.9 7.4 10.6 1.7 2.9 3.2 2.8 6 1.5 15.7-8 31.4-15.8 47.2-23.7 1.1-0.5 2.2-1.4 5-0.9-7.9 4.1-14.7 7.6-21.5 11-10.4 5.3-20.8 10.3-31.1 15.8-3.1 1.7-4.6 0.9-6.3-1.8-1.6-2.6-4-4.9-5.4-7.7-2.3-4.8-4.7-5.2-9.2-2.2-7.6 5-15.8 9.2-23.7 13.7q-0.8-0.7-0.2-1.5z"/>
		<path id="&lt;Path&gt;" class="s37" d="m770.2 243.6q0-2.5 0-5c0-0.6-0.1-1.3 0-2 0.8-3.6-5.8-0.6-4-4.2 0.7-1.5 5-0.6 4-4.5-0.2-1.1 0.6-1.8 1.9-1.9 1.2 0 1.9 0.6 1.7 1.8-0.6 3.8 1.6 4 4.4 3.8 1.3-0.1 3.5-0.7 3.4 1.7-0.1 1.9-2 1.5-3.2 1.3-3.8-0.6-5 0.8-4.6 4.6 0.4 3.1 0.2 6.3 0.1 9.5-0.1 4.2 1.6 6.4 6.1 5.3 1.2-0.3 2.4-0.9 2.8 0.7 0.5 1.9-1.3 2-2.4 2.4-5.6 1.5-9.6-1.2-10.1-7-0.2-2.2-0.1-4.3-0.1-6.5q0 0 0 0z"/>
		<path id="&lt;Path&gt;" class="s38" d="m643.3 847.9c1.4 1.7 0.9 3.8 0.7 5.7-0.3 4.1 1.6 5.2 5.3 5.2 9-0.1 17.9 0.1 26.9 0.2 1.6 0 3.3-0.3 4.8 0.7-1.5 1.6-4.1 1.8-5 4.2-9.8 0-19.5-0.1-29.2 0-1.8 0.1-2.5-0.4-2.9-2.3-1-4.6-0.9-9.1-0.6-13.7z"/>
		<path id="&lt;Path&gt;" class="s39" d="m758 466c14.4-5.7 29.3-9 44.3-12.1 1.1-0.2 2.3-0.4 3.4-0.7 3.5-0.9 6.3-0.7 6.3 3.9 0 4.1 2.8 2.9 4.9 2.5 15.3-2.7 30.6-5.6 46-8.3 0.3-0.1 0.6 0 1.6 0.2-10.2 3.1-20.1 4.3-29.9 6.5-6.6 1.5-13.3 2.6-20 3.9-1.7 0.3-3.7 1-3.9-2.1-0.2-5.7-3.7-5.1-7.7-4.3-14.2 2.8-28.2 6.3-42.1 9.9-1 0.3-1.9 0.4-2.9 0.6z"/>
		<path id="&lt;Path&gt;" class="s40" d="m802.8 245.5c0-2.3-0.1-4.7 0-7 0.1-2.2 0.5-4.5-3-4-1 0.2-1.7-0.4-1.7-1.4 0-1 0.8-1.6 1.7-1.5 3.4 0.5 2.9-1.9 3.1-4.1 0.5-5.3 5.7-8.3 10.7-6.1 0.9 0.4 1.8 0.8 1.5 2.1-0.3 1.3-1.2 1.3-2.3 0.9-0.9-0.4-1.9-0.5-2.9-0.4-3.1 0.4-3.8 2.7-3.9 5.5 0 3.2 2.5 1.7 4 2.1 1.4 0.4 4-1.2 3.9 1.6-0.1 2.5-2.7 1.4-4 1.3-3.4-0.4-3.9 1.1-3.8 4 0.2 5.3 0.1 10.7 0.1 16 0 1.3 0.1 2.8-1.9 2.6-1.7-0.1-1.4-1.5-1.5-2.6 0-3 0-6 0-9q0 0 0 0z"/>
		<path id="&lt;Path&gt;" class="s41" d="m676 863.9c-1.9-5.8 3-3.2 5-4.2 7.6 0.1 15.1 0.2 22.6 0.1 1.4 0 3.6 1 3.4-1.9 0.8 0.3 1.7 0.4 2.2 0.9 0.9 1 2.9 1.8 2.1 3.5-0.6 1.3-2.4 0.6-3.6 0.7-10.6 1.2-21.2 1-31.7 0.9z"/>
		<path id="&lt;Path&gt;" class="s42" d="m876.2 590.6c-1.8 1.9-3.3 2-5.3-0.1-2.6-2.6-5.3-7.5-9.5-1.6-0.5 0.7-1.6 1.1-2 0.1-0.7-1.5-0.9-3.4 0.4-4.7 1.3-1.2 2.2-2.9 3.3-4.1 5.4-5.9 3.6-12.9 3.9-19.6q0-1.5 0.1-3c2.7 6.6 2.5 13.2 0 19.7-1.2 2.9-0.4 4.4 1.7 6.2 2.6 2.3 5 4.8 7.4 7.1z"/>
		<path id="&lt;Path&gt;" class="s43" d="m699.9 360.2c1.3 4 2.6 8.1 4.1 12.1 1.1 3.1 0.8 4.6-3 4.1-2.3-0.2-4.6 0.1-6.9-0.2-3.6-0.5-4.6 0.8-3.9 4.3 2.3 11.5 4.3 23 6.5 34.5 0.2 1.3 0.3 2.6 0.4 4 0.4 1-0.1 1.2-1 0.9-2.6-13.6-5.1-27.2-7.9-40.7-0.7-3.6 0-4.9 3.8-4.5 3.4 0.4 6.9 0.1 10.8 0.1-1.3-4.7-2.6-9.2-4-13.7-0.3-1 0.2-1.2 1.1-0.9z"/>
		<path id="&lt;Path&gt;" class="s44" d="m1147 674.9c-2.8 0.8-5.6 1.6-8.2 2.9-2.9 1.4-6.1 3.9-9.1 0 5.3-5.5 11.7-8.6 19.2-9.8-1.7 2-2.3 4.3-1.9 6.9z"/>
		<path id="&lt;Path&gt;" class="s45" d="m699.9 559.9c1.5-21 3.9-41.9 6.8-62.8-0.9 22.4-3.7 44.5-5.8 66.8-2.5-0.8-1.2-2.6-1-4z"/>
		<path id="&lt;Path&gt;" class="s46" d="m147 384c-2.6 4.4-6.7 7.5-10.5 10.8-6.9 6.2-11.1 14.2-16.2 21.6-1.4 2.1-2.1 4.9-5.1 5.7 6.7-13 14.9-25 26-34.7 1.8-1.5 3-3.8 5.8-3.4z"/>
		<path id="&lt;Path&gt;" class="s47" d="m1091 706c-3.2 4.1-8.3 4.3-12.6 5.5-5.1 1.4-10.6 2.3-16.1 1.7-2.1-0.3-3.6-0.7-3.5-3.1 7.4 0.3 14.6-1.2 21.9-2.2 3.4-0.5 6.5-2.8 10.3-1.9z"/>
		<path id="&lt;Path&gt;" class="s48" d="m725.4 809.8c-4.8 0.1-9.6 0.3-14.4 0.1-4.2-0.2-7.8-3.8-12.5-2.2-1 0.4-1.2-1.1-1.5-2.1-0.7-2.8 1.8-3.5 3.2-4.9 1.2 3.8 4.2 4.6 7.8 5.2 5.8 1 11.9 1.1 17.4 3.9z"/>
		<path id="&lt;Path&gt;" class="s49" d="m791.1 435.8c-17.5 6.4-35.3 11.5-53.3 15.7 17.4-6.4 35.3-11.4 53.3-15.7z"/>
		<path id="&lt;Path&gt;" class="s50" d="m1378.9 688c-1.6 0.1-3-0.4-4-1.6-5.5-6.6-13.2-10-20.2-14.3-4.8-2.9-10.7-4.3-16.1-6.2-1.1-0.4-2.1-0.8-2.7-1.9 6.8 0.3 13 3.2 18.5 6.3 7.9 4.4 16.7 7.9 22.8 15.3 0.6 0.8 1.1 1.6 1.7 2.4z"/>
		<path id="&lt;Path&gt;" class="s51" d="m1267 664c-3 3.4-7.5 3.7-11.2 5.5-9.4 4.4-17.8 10-25.4 16.9-1.1 1-2 1.7-3.4 1.6 7.4-9.4 17.4-15.2 28.1-19.9 3.7-1.6 7.3-4.6 11.9-4.1z"/>
		<path id="&lt;Path&gt;" class="s52" d="m732.3 384.8q-10.6 21.8-21.2 43.7-0.7-0.3-1.3-0.6c6.8-14.8 13.8-29.4 21.4-43.9q0.5 0.4 1.1 0.8z"/>
		<path id="&lt;Path&gt;" class="s42" d="m883 608.1c-2.8 0.2-4-0.8-4.1-3.9-0.2-4.4-2.9-8.5-2-13.1 1.3 0 1.6 3.3 3.6 1 0 5.5 3.7 10.4 2.5 16z"/>
		<path id="&lt;Path&gt;" class="s53" d="m741.1 517c-1.2 2-2 0.2-2.7-0.4-2.8-2.4-5.8-2.2-7.7 0.7-1.9 2.8-0.5 5.5 2.2 7.6 2.6 2 5.1 4.1 7.6 6.3 0.6 0.5 1.5 1.1 0.4 1.9q-4.1-3.2-8.2-6.5c-4.9-4-5.8-7.4-2.8-10.8 2.9-3.3 6.4-2.9 11.2 1.2z"/>
		<path id="&lt;Path&gt;" class="s54" d="m981 443c-1.4 1.1-2.5 1.3-3.1-0.7 3.5-3.3 1.5-7.9 2.6-12.3 2.5 3.2 1.3 6.3 0.9 10 4.3-1.9 8.5-2.9 13.9-1.5-5.4 1.3-10.8 0.2-14.3 4.5z"/>
		<path id="&lt;Path&gt;" class="s55" d="m840 527.9c0-1.2-1-2.5 0-3.8 3.1 1.8 6.3 2.3 10 1.3 2.9-0.7 5.8 0.3 8 2.6q-9 0-18-0.1z"/>
		<path id="&lt;Path&gt;" class="s56" d="m651 486.9c-7.8 3.6-15.3 7.6-23.8 9.4q11.2-5.3 22.4-10.5 1.5-0.5 1.4 1.1z"/>
		<path id="&lt;Path&gt;" class="s57" d="m1394.7 704.1c-1.4 0.1-2.5-0.5-3.6-1.4-3.9-3.7-6.7-8.4-11.3-11.5-1-0.6-0.9-2-1-3.1 5.9 4.7 11.3 10 15.9 16z"/>
		<path id="&lt;Path&gt;" class="s58" d="m1219 696c-2.5 6.5-6.7 11.7-12.1 16 0.1-0.8-0.1-2 0.4-2.4 4.5-4 6.7-10 11.7-13.6z"/>
		<path id="&lt;Path&gt;" class="s59" d="m651 486.9q-0.7-0.6-1.4-1.1c6.4-3.3 12.8-6.4 19.6-8.9q0.2 0.6 0.5 1.1-9.4 4.5-18.7 8.9z"/>
		<path id="&lt;Path&gt;" class="s2" d="m501.4 355.9q-9.7 1-5.4 8.1c-1.2 1.1-2.5 0.7-3.7 0.2-0.5-7.1 0.7-8.7 8-10.9q0.5 1.3 1.1 2.6z"/>
		<path id="&lt;Path&gt;" class="s60" d="m1170.9 423.9c-2.9 6-1.7 13.1-5.1 18.8-1 1.7 0.1 4.1-2 5.2 2.1-8 1.7-16.9 7.1-24z"/>
		<path id="&lt;Path&gt;" class="s11" d="m608.1 463.9c-2.5 0.4-3.1-0.9-3.1-3.1 0.1-4.3 0.1-8.6 0.1-12.8 1.8 5.1 2.6 10.5 3 15.9z"/>
		<path id="&lt;Path&gt;" class="s61" d="m674.2 510.8c4-6.6 9-12.4 14.7-17.7-4 6.6-9.2 12.3-14.7 17.7z"/>
		<path id="&lt;Path&gt;" class="s62" d="m778.6 488c-4.7-0.5-7.2-4.3-10.4-7-3.7-3-6.8-3.5-10.1 0.2q-0.8-0.6-0.2-1.3c2.9-4 6.3-3.7 9.7-1 3.8 2.9 7.3 6 11 9.1z"/>
		<path id="&lt;Path&gt;" class="s63" d="m1314.8 397.1c-5.9-2.2-7-8.3-10-12.8 4.6 3.3 7.6 7.8 10 12.8z"/>
		<path id="&lt;Path&gt;" class="s64" d="m699.9 559.9c0.5 1.3-0.5 2.9 1 4-0.6 5-0.5 10.1-2.4 15-0.3-6.4 0-12.8 1.4-19z"/>
		<path id="&lt;Path&gt;" class="s65" d="m866.6 386.4c4-3.4 8.5-5.8 13.6-7.1-4 3.4-8.7 5.5-13.6 7.1z"/>
		<path id="&lt;Path&gt;" class="s66" d="m738.5 431.9c5.2-3.8 10.9-6.7 16.5-9.8q0.9 0.6 0.1 1.3-7.5 4.3-15 8.7-0.9 0.6-1.6-0.2z"/>
		<path id="&lt;Path&gt;" class="s67" d="m738.5 431.9q0.8 0.1 1.6 0.2c-4.5 3.1-9.2 5.9-14.4 7.7 3.8-3.4 8.1-5.9 12.8-7.9z"/>
		<path id="&lt;Path&gt;" class="s68" d="m159.1 376.1c-3.6 3.3-7.1 6.7-12.1 7.9 3-4.3 7.4-6.4 12.1-7.9z"/>
		<path id="&lt;Path&gt;" class="s69" d="m757.9 479.9q0.1 0.6 0.2 1.3c-0.5 3.3 0.9 5.5 3.6 7.4 1.9 1.4 4.6 2.3 4.3 5.4-2-1.7-4.1-3.3-6.2-5-2.9-2.5-4.2-5.5-1.9-9.1z"/>
		<path id="&lt;Path&gt;" class="s70" d="m671.5 424.1c-3.5-4.2-5.5-9.1-7.4-14.2 3.7 4.1 5.6 9.2 7.4 14.2z"/>
		<path id="&lt;Path&gt;" class="s71" d="m699.9 360.2q-0.5 0.4-1.1 0.9c-2.1-3.8-3.1-8-2.6-12.5q1.8 5.8 3.7 11.6z"/>
		<path id="&lt;Path&gt;" class="s11" d="m611 478c-2.9-4.3-4.2-8.9-2.9-14 1.7 4.5 2.2 9.3 2.9 14z"/>
		<path id="&lt;Path&gt;" class="s72" d="m1227 688c-1.7 3.6-3.3 7.4-8 8 2-3.3 4.7-6 8-8z"/>
		<path id="&lt;Path&gt;" class="s71" d="m696.1 419.9q0.5-0.5 1-0.9c1.7 3.9 2 8 1.7 12.2-1.6-3.6-2.3-7.4-2.7-11.3z"/>
		<path id="&lt;Path&gt;" class="s58" d="m1206.9 712c-0.2 3.1-2.1 5.4-4.4 7.3-1.3 1.1-3.5 1.9-3.4-1.4 2.2 1.6 2.9-0.5 3.9-1.6 1.3-1.4 1.8-3.6 3.9-4.3z"/>
		<path id="&lt;Path&gt;" class="s48" d="m700 800c-3-0.4-6.2 0.9-9-1q1.2 0 2.4-0.1c7.2-0.2 7.2-0.2 7.9-7.3 0.7 3 1.9 6-1.3 8.4z"/>
		<path id="&lt;Path&gt;" class="s73" d="m1408.9 728c-3.3-1.7-4.4-4.4-4.1-7.9 1.3 2.6 4.4 4.4 4.1 7.9z"/>
		<path id="&lt;Path&gt;" class="s74" d="m755.1 423.4q0-0.7-0.1-1.3 3.9-2.3 7.8-4.7 0.1 0.8 0.2 1.5-3.9 2.2-7.9 4.5z"/>
		<path id="&lt;Path&gt;" class="s75" d="m518.2 367.9c-2.8 0.1-4.3-1.5-5.1-3.9 2.1 0.8 4.5 1.1 5.1 3.9z"/>
		<path id="&lt;Path&gt;" class="s2" d="m1027 706c-2.7 0.3-5.8 1.4-5.9-3.1 1.7 1.5 3.7 2.4 5.9 3.1z"/>
		<path id="&lt;Path&gt;" class="s76" d="m1257 811c5.9-4.1 12.9-6.1 19-10.2 3.8-2.5 9.1-4.2 13.6-6.5 2.2-1.1 3.6 0.4 4.7 2.4 8.9 16 17.8 31.9 26.6 48 1.1 2 3.5 3.3 3.1 6-1.9 1.3-3.4 0.2-4.9-0.7-4.4-2.7-8.2-6.1-12.2-9.3q0-0.3-0.1-0.5c-4-1.9-7.2-4.8-9.8-8.3-1-0.1 0.4-2.5-2.3-1.9-2 0.5-0.9-2.7-1.2-4.1-1 1.7 1.5 4.3-1 6q-0.7 0.1-1.5 0.1c-0.6 0.5-1.3 0.6-2.1 0.4-1.9-0.5-2.2-2.8-3.8-3.7-0.6 0.3-0.7 0.8-0.8 1.3-1.3 5.4-2 5.7-6.1 1.9-2.4-2.2-5-3.2-8.1-2.2-2.3 0.7-3.5-0.2-5-1.9-3.7-4.2-5.2-9.6-8.3-14.1-0.5-0.8-0.7-1.9 0.2-2.7z"/>
		<path id="&lt;Path&gt;" class="s77" d="m1192.8 895.8q-1.3 0.5-2.7 1.1-0.7 0.6-1.4 0.1-0.4-0.7-0.3-1.5c1.4-5.7-0.9-9-6.4-8.9-3.1 0.1-4.2-1.4-4-4.2 0.1-1.4 0.4-2.7 1.4-3.6 5.6-4.9 11.9-8 19.6-7.4 2.9 2 5.2 2.3 7-1.7 1.6-3.7 10.2-4.6 12.9-1.7l0.1-0.1c2.1 4.7 2.1 9.8 2.8 14.8 0.5 3.2 0.5 6.5 1 9.7 2.7 8.3 3.7 17 5.2 25.6 0.4 2.1 0.8 4.9-1.4 5.8-2.2 0.9-3.6-1.6-5-3.2-1.3-1.4-1.4-3.3-2.6-4.7-1.1-1.5-2-3.2-2.6-4.9 2-4 0.4-6-3.6-6.8q-0.4-0.5-0.6-1.2c0.1-2.5 2.7-6-2.7-6.6-1.5-0.2-1.6-2.3-1.7-3.8-0.1-1.2 0.3-2.9-1.6-3-1.7-0.1-1.9 1.5-2.2 2.7q-0.2 0.8-0.5 1.4-0.5 0.6-1.2 0.6c-2.8-0.2-3.5-3.2-5.8-4.1-1.7 1.6-1.8 4.2-3.7 5.6z"/>
		<path id="&lt;Path&gt;" class="s78" d="m1257 811c3.1 5.9 5.9 11.9 9.9 17.3 0.3 0.3 0.8 0.9 0.9 0.8 6.2-3.5 10.2 0.4 13.9 4.5 1.8-1.4 1-3 1.2-4.4 0.2-1.2-0.2-2.8 1.7-3.1 1.8-0.3 2.1 1 2.5 2.4 0.3 1.2 1.2 2.3 1.9 3.4 0.5 2.6-1.6 3.4-3.2 4.3-2.4 1.4-4.8 2.9-7.2 4.2-0.6 0.5-1.3 1-1.7 1.7 0.6-0.7 1.3-1.2 2.2-1.5 0.8 0.1 1.2 0.6 1.3 1.4-0.8 2.5-2.3 4.2-5.1 4.2-2.5 0.9-3.1-2.8-5.4-2-6.9-10.3-11.3-21.9-18-32.3 2 1.3 3.4-0.5 5.1-0.9z"/>
		<path id="&lt;Path&gt;" class="s79" d="m1189.3 896.9q0.4-0.1 0.8 0-0.1 0.8-0.1 1.6c-5 4.9-6.4 5.1-12 1.5-0.4-7.8-0.2-15.7-2.3-23.4-0.6-2.1 1.2-2.1 2.2-2.5 6.9-2.1 13.9-4.1 21.1-5.1 0.7 1.1 0.8 2.1-0.2 3-6.7 0.7-12.7 3.1-18.1 7.2-1.9 1.4-2.4 3.6-1.5 5.3 1.1 1.9 2.9 1 4.6-0.1 1.1-0.8 2.4-0.5 3.1 1.1 1.6 3.4 7 6 2.1 10.7-1.8 0.7-3.5 1.7-5.2 2.3 1.9-0.1 3.2-2.3 5.5-1.6z"/>
		<path id="&lt;Path&gt;" class="s80" d="m1178 900c4.4 3.1 8.2 0.5 12-1.5-1 3.5-3.3 6.6-6.9 5-6.1-2.5-11.4 0.7-16.9 1.3-5.6 0.6-11.3 2-16.8 3.4-12.4 3.1-25.4 2.3-37.3 7.5-0.3 0.1-0.6 0.2-0.9 0.2-10.8 0.3-21.3 2.5-31.9 4-3 0.4-6.3 1.1-9.3-0.7 35.5-5 70.6-11.4 105.7-18.2 0.8-0.2 1.5-0.6 2.3-1z"/>
		<path id="&lt;Path&gt;" class="s81" d="m1219 915.9c3.7 1.1 3.3 6.4 7.9 7.3-0.5-10.4-3.5-20.2-4.7-30.3q0.1-0.7 0.7-0.9c1.1-0.7 1-2 1.3-3 3.8 10.4 3.5 21.6 6.5 32.2 0.5 1.9 1.5 5.7-0.9 6.2-3.3 0.6-7.5 2.2-10.3-0.4-1.7-1.6-4.4-4.6-1-7.8 0.6-0.6 0.3-2.2 0.5-3.3z"/>
		<path id="&lt;Path&gt;" class="s82" d="m1221.8 863.1q25.1-7.2 50.1-14.3c1.6 1.1 2 2.1-0.3 2.4-8.8 1.5-16.9 5.4-25.7 7.1-5.3 1-10.3 3.5-15.7 4.9-2.9 0.7-5.6 1.7-8.4-0.1z"/>
		<path id="&lt;Path&gt;" class="s83" d="m1306.9 840.7c2.9 0.2 4.8 2.1 6.7 3.8 3.1 2.8 6.4 5.2 10.4 6.2 1.2-0.2 0.6-2.6 2.1-2.2 1.4 0.5 0.7 2 0.8 3.1 0.1 1.7-0.8 2.4-2.4 2.3-3.9-0.1-6.2-3.5-9.7-4.6-0.5-0.2-0.9-1.2-1.8-1.2-5.1 0-6.2-3.2-6.1-7.4z"/>
		<path id="&lt;Path&gt;" class="s84" d="m1198.8 872q0.1-1.5 0.2-3c6.7-1.6 13.1-4.4 20.1-5.1q-0.1 2-0.2 4.1c-2.6-2.5-5.1 0.6-7.7 0-3.7-0.9-4.1 1.6-4.6 4.5-0.6 2.9-5.4 2.5-7.8-0.5z"/>
		<path id="&lt;Path&gt;" class="s83" d="m1278 839.7c3.2-3.1 8.3-3.8 11-7.8q1 0 2 0.1c-1 3.8 2.2 3.8 5.3 4.7-4.6 2.7-8.8 4-13 5.2-1 1.3-2.1-2-3.1 0.1q-0.6-0.6-1.2-1.1c-0.6-0.1-1-0.5-1-1.2z"/>
		<path id="&lt;Path&gt;" class="s85" d="m1066.9 776.4c-10.5-8.1-19.8-17.3-24-30.4 2.7-0.9 2.9 2 3.3 3 3.2 8.9 9.9 14.9 16.4 21.2 1.8 1.7 4.5 3 4.3 6.2z"/>
		<path id="&lt;Path&gt;" class="s86" d="m1222.9 892q-0.4 0.4-0.7 0.9c-0.5-8.4-4-16.4-3.2-25 5.6-0.3 4.9 4.3 4.8 7.3-0.2 5.6-1 11.2-0.9 16.8z"/>
		<path id="&lt;Path&gt;" class="s83" d="m1297 831.9c3.7 2.2 7.3 4.6 9.8 8.3-2.4 3.4-4.6 3.2-6.4-0.4-1.3-2.6-2.3-5.3-3.4-7.9z"/>
		<path id="&lt;Path&gt;" class="s87" d="m1212.8 903.2q0 0.4 0.2 0.7c1.9 1.3 2.8 3 2.4 5.4-2.2 2.1-3.2 1.3-3.5-1.4-0.1-0.6-0.1-1.7-0.5-1.9-4.4-2-5.8-5.3-4.6-9.9q0.3-0.2 0.6-0.4c3.8 1.1 3.8 4.9 5.4 7.5z"/>
		<path id="&lt;Path&gt;" class="s88" d="m1192.8 895.8c-0.5-2.6 2.1-4 2.1-6.3 1.4 0.2 3.1-2.6 3.8 0.1 0.6 2.1 2.4 2.6 3.3 4.1-2.4 2.1-5.6 1.1-8.3 2.1h-0.4z"/>
		<path id="&lt;Path&gt;" class="s89" d="m1030.6 716.9q6.3 1.1 12.7 2.1c-0.9 1.6-2.6 1.3-3.9 1.1-2.5-0.3-3.9 0.9-5.2 2.7q-1.8-2.9-3.6-5.9z"/>
		<path id="&lt;Path&gt;" class="s90" d="m1280.2 842c0.8-0.7 0.6-2.4 2.3-2.2 1.7 0.3-0.6 1.9 0.8 2.1-0.2 1.5-0.3 3-0.5 4.5 0 0.9-1.1 1.9-1.2 1.5-1.4-4.1-4.7 0.4-6.3-1.7 2-0.9 3.6-2.3 4.9-4.2z"/>
		<path id="&lt;Path&gt;" class="s91" d="m1193.7 895.8c2.5-1.9 5.5-1.7 8.3-2.1q0.4 0.1 0.9 0c0.8-0.5 0.6-2.5 2.3-1.8 1.6 0.8 2.8 1.8 1.9 3.8 0 0-0.3 0.4-0.3 0.4q-6.5-0.1-13.1-0.3z"/>
		<path id="&lt;Path&gt;" class="s81" d="m1211.9 907.9c0.8 1.1 1.4 2.9 3.1 0.9 1.8-0.2 1.3 1.4 1.8 2.2 1.7 1.2 2.6 2.8 2.2 4.9-2.9-0.8-3.6-4.8-7.4-4.7-0.8 0-0.8-2.2 0.3-3.3z"/>
		<path id="&lt;Path&gt;" class="s92" d="m1054.1 921.2q6.5-0.7 13-1.4c1.2 0.5 2.6 1.6 0.2 1.9-4.3 0.5-8.8 1.2-13.2-0.5z"/>
		<path id="&lt;Path&gt;" class="s83" d="m1292.5 831.9q0.4-3.4 0.8-6.9c1.7 0.8-1.6 5.8 3.3 4q0.2 1.5 0.4 2.9-2.3 0-4.5 0z"/>
		<path id="&lt;Path&gt;" class="s1" d="m498.8 624c-6.7 3.8-12.6 8.6-18.9 13-12.6-1.8-23.5-7.6-33.4-15.4-17.8-14.1-26.9-32.4-25.3-55.5 4.2-14.2 16.1-19.4 28.4-23 19.6-5.7 39.8-6.4 60.2-4.8 11.4 0.9 22.8 1.3 34.1 3.3 3.5 1 7.7-0.3 10.2 3.5-4.1 13.8-11.5 25.9-18.4 38.3-1.5 2.7-4.5 4.5-5.7 7.5-0.4 5.3-4.5 8.5-7.6 11.8-6.6 7-13 14.2-21 19.9-0.8 0.5-1.7 0.8-2.6 1.4z"/>
		<path id="&lt;Path&gt;" class="s93" d="m544.3 542.8c-12.6-1.8-25.3-2.7-38-3.5-7.4-0.4-14.9-0.6-22.4-0.1-10.5 0.7-21 1.6-31.2 4.6-12.6 3.6-24.1 8.2-30.1 20.9-0.3 0.6-0.9 0.9-1.4 1.4-0.1-10.3-1.8-20.5-1.2-30.9 0.1-1.1 0.1-2.3-0.8-3.2-2.2-4.2-1.5-8.8-1.6-13.2-0.1-3.8 0.2-7.7-2.6-10.9 6-4.5 12.5-7.9 19.8-9.9 2.1-2.2 5.5-0.5 7.7-2.5 2.7-1.9 5.9-1.6 9-2q0.6-0.4 1.1-0.7c1.7-2.2 3.3-4.3 6.1-5.4 1.7-0.8-0.5-0.8-0.5-1.2-1.7-1.7-5-2.8-4.3-5.6 0.5-2.5 3.9-1.8 5.9-2.8 1.5-0.4 2.9-0.9 4.5-0.9 1.4 0.1 3.2 0.4 3.2 1.8 0 4.3 3.3 4.3 6 5 5.3 1.4 10.7 1.7 15.9-0.9 2.8-1.4 5.8-2.2 9-2.2 5-1.4 5.1 2.5 6 5.4 0.1-2.1-2.7-4.4 0.2-6.5 2-0.5 2.8 0.6 3 2.3 0.3 4.2 2.6 7.1 5.5 9.6 0.8 0.7 1.5 1.4 1.8 2.4 0.3 0.9-0.8 2.8 1.6 2 1.4-0.5 3.3 1.4 4.2-1.2 0.9-3 3.5-3.5 6.2-4 4.9-0.8 9.8-1.7 14.5-3 2-0.5 3.9-1.3 5.6 0.4 0.2 1.5-0.3 2.9-1.1 4.2-5.1 1.4-10.3 2.4-15.4 3.8-4.9 1.3-5.2 1.9-3.3 6.5 4.7 11.7 10.6 22.8 15.7 34.3 0.8 1.9 2.4 3.7 1.4 6z"/>
		<path id="&lt;Path&gt;" class="s94" d="m415 507.9c2.5-0.7 3.5-0.1 3.5 2.7 0 7.1 0.4 14.3 0.7 21.4-2.1 0.2-1.5-1.7-1.8-2.7-2.4-6.4-5.8-12.2-9.2-18q3.4-1.7 6.8-3.4z"/>
		<path id="&lt;Path&gt;" class="s95" d="m282.1 582q0 1.5-0.1 3c-3.7 9.2-5.2 18.9-4.8 29 0.8-3.4-2.1-7.3 1.7-10.1q0.1 7 0.2 14.1c-2.1 1.5 0 4.4-2 6 0 0 0 0.1 0 0.1-1.4-1.2-1.9-3-1.8-4.4 0.1-11.1-1.9-22.5 3.3-33.1 0.9-1.8 2.1-3.2 3.5-4.6z"/>
		<path id="&lt;Path&gt;" class="s96" d="m296.1 663.1c-1.2-2.7-1.2-6.3-5.1-7.1q0-2-0.1-4c1.8 0 3.8-0.5 4.2 2.2 0.1 0.9 0.7 1.6 1.6 1.6 5.3-0.3 5.8 6.2 10.1 7.4 0.4 0.1 0.2 1.8 0.3 2.8-2.3-0.1-3.7-1.9-5.6-2.9-1.9-0.9-3.6-1.5-5.4 0z"/>
		<path id="&lt;Path&gt;" class="s97" d="m1060.1 865.6c0.8 1.1 2.6 0.7 3.2 2.7-4.3 0.6-8.5 1.1-12.7 1.7-1.8 0.2-3.1-0.6-4-2.3-4.1-7.3-8.3-14.6-13.1-23.1 9.5 6.3 17.7 12.1 24.6 19.3-2.3 1.9-4 0.2-5.7-1-2.5-1.8-4.5-4.3-7.3-5.8 1.3 3.6 4.5 5.8 6.6 8.7 0.8 1.2 2.5 0.8 3.7 0.3 1.6-0.5 3-1.5 4.7-0.5z"/>
		<path id="&lt;Path&gt;" class="s98" d="m1060.1 865.6c-1.1 0.6-2.4 1.2-3.5 1.6-2.7 1-5.7 1.7-7.4-2.1-0.9-1.9-2.8-3.3-4.4-4.7-1.8-1.7-2.2-3.6-1.5-6.1 3.9 1.5 6.1 4.8 9.2 7.1 1.7 1.3 3.1 3.2 5.6 2.5 1.1 0.1 1.7 0.7 2 1.7z"/>
		<path id="&lt;Path&gt;" class="s99" d="m210.9 664c5.4 1.1 10.9 2 16.3 3.3 4.5 1 9.1 0.3 13.7 1.4 4 0.9 8.2 0.9 12.3 1.2-3.9 3.4-8.7 2.8-12.7 1.4-3.3-1.1-6.4-1.3-9.6-1.2-6.8 0.3-12.9-2-19-4.5-0.5-0.2-0.7-1.1-1-1.6z"/>
		<path id="&lt;Path&gt;" class="s100" d="m517 639.9c4.4 0.8 9.1-0.6 13.5 0.8q0 0.8 0 1.5-15.8 0-31.5 0-0.6-0.6-1.2-1.2c4.1-2.1 8.6-0.3 12.8-0.8 2.1-0.3 4.3-0.2 6.4-0.3z"/>
		<path id="&lt;Path&gt;" class="s99" d="m256.9 669.9c7.3-1.3 14.7-2.4 22.1-1.9-6.9 5.7-14.4 4.7-22.1 1.9z"/>
		<path id="&lt;Path&gt;" class="s35" d="m482.8 647c1.9-3 5.3-3.7 8.2-5.1-0.2 1.9 2.2 1.7 2.6 3.7-3.6 0.5-7.2 0.9-10.8 1.4z"/>
		<path id="&lt;Path&gt;" class="s99" d="m281 667q3.9-1.3 8-1.2c-2.5 4.1-2.5 4.1-8 1.2z"/>
		<path id="&lt;Path&gt;" class="s35" d="m491 641.9c0.5-2.5 2.4-2 4.1-1.9q-0.6 4.1-4.1 1.9z"/>
		<path id="&lt;Path&gt;" class="s101" d="m691.1 822.2q-5.1 2.8-10.2 5.7c-0.7 0.5-2 0.8-0.8 2.1-6.8 2.3-7.2 1.9-7.1-6.1 4.6 0.1 9.4 0.7 13.8-1.3 1.4-0.7 2.9-0.6 4.3-0.4z"/>
		<path id="&lt;Path&gt;" class="s101" d="m670.7 815.9c3.2 2 1.9 5.3 2.3 8.1-1.9-2.4-1.9-5.3-2.3-8.1z"/>
		<path id="&lt;Path&gt;" class="s102" d="m902.9 618.7c33.2 3.2 65.7-0.5 97.5-10.5-31.6 12.1-64.1 15.5-97.5 10.5z"/>
		<path id="&lt;Path&gt;" class="s103" d="m1003.1 615.6c-29.6 16.9-61.5 22.1-95.2 16.5 33.3 3.8 65.1-1.5 95.2-16.5z"/>
		<path id="&lt;Path&gt;" class="s104" d="m1038.5 612.5c2.5-11.6 8.8-20.5 18.9-26.7-8.6 7.2-14.8 16.2-18.9 26.7z"/>
		<path id="&lt;Path&gt;" class="s105" d="m1061.5 592.3c-7.2 6.4-12.6 14-16 23 1.6-10.2 7.6-17.4 16-23z"/>
		<path id="&lt;Path&gt;" class="s106" d="m886.9 612c-0.2-0.8-1.2-2.3 0.7-1.7 3.1 1.1 6.1 2.5 8.8 5.7-3.8-0.9-6.1-3.7-9.4-4 0 0-0.1 0-0.1 0z"/>
		<path id="&lt;Path&gt;" class="s107" d="m835 607.3c4.7-0.9 9.4-2.2 13.2-5.3 1.8-1.5 3.2-1.8 4.9 0.1 2.2 2.3 4.7 4.2 7 6.4 3.4 3.3 7.2 5.2 12.1 4.5-3 9.3-6 18.7-8.8 27.4-7.9-7.5-15.8-14.7-23.4-22.3-2.8-2.8-5.2-4.6-9-1.9 0.1-2.3 2.6-4 0.9-7-1-1.7 2.6-0.4 3.1-1.9z"/>
		<path id="&lt;Path&gt;" class="s108" d="m884.9 624.2q1.5 0.9 3 1.8c-0.4 1.1-1.2 1.1-2 0.7-4.4-2.3-9.2-2.9-15.5-2.8 5.9-2.6 10.2-0.5 14.5 0.3z"/>
		<path id="&lt;Path&gt;" class="s2" d="m464 478q-2.2 0.4-4.4 0.9c-3.2-5.5-7.9-9.7-12-14.5-1.7-2-4.2-2.5-6.7-2.9-1.8-0.2-3.7 0-5.4-0.6-4.3-1.4-8.1-1.7-10.2 3.5-0.3 0.7-1.1 1.2-1.9 1.5-4.1 1.6-5 4.9-5.1 8.8 0 2 0.6 4.5-2.1 5.5-1.1-2.9-0.7-6.1-1.8-9-0.5-1.4-1.2-2.4-2.8-2.2-1.3 0.1-2.2 0.9-2.3 2.2-0.2 1.6 0.9 2.8 2.3 2.8 4.9-0.1 3.8 3.4 4 6.2-0.9 4 0.1 7.7 1.5 11.5 1.9 5.1 1.8 5.1-3.3 6.5-0.6 0.2-1.2 0.5-1.8 0.7-17.4 3.3-35 4.6-52.7 5.5-3.5-0.1-6.9 0.6-10.4 1-4.7 0-9.4 0-14 0-2.3 0-4.5 0-6.5-1.1-1.9-1.2-3.8-2.4-5.1-4.4-0.7-1-1.5-1.9-2.2-2.8-2-2.9-3.6-6.1-4.5-9.5-1.8-7.1-1.3-14.2-0.2-21.4 0.9-3.9 4.4-6.5 5.6-10.3 0.8-2.1 1.9-3.9 3.4-5.5 5-5.1 8.8-11.2 13.5-16.5 1.2-1.4 2-3.2 4.1-3.3 1.7 0.3 2.5 1.6 3.4 2.7 1 1.1 2.2 1.5 3.5 0.8 0.8-0.4 1.3-1.1 1.4-2 0-1.6-1.1-2.3-2.4-2.7-1-0.3-2-0.4-2.8-1.1-1.1-2.5 0.7-4 2.1-5.6 8.8-9.6 17.3-19.5 26.6-28.7 3.6-3.6 6.3-8.1 11.4-10 4.6 5.5 12.8 3.8 17.5 9.4 1.1-1.9-0.2-2.5-0.7-2.8-4.3-2.2-3.2-3.9 0-6.2 4-2.9 5.4-2.9 8.1 1.4 2.1 3.3 4.6 6.1 8.6 7 5.6 1.4 10.3-2.2 10.3-7.9 0-4 0.8-8-1.3-11.7-0.9-1.6 0.4-2.9 0.5-4.3 6.2 6.9 13 13.1 21.8 16.6 4.9 2 10 2.4 15 0.4 5.2-2.1 7.1-6.5 7.3-11.9 2.8 3.3 6.3 4.5 10.5 2.9 4.1-1.6 7.6-4 8.3-8.9 4.1-0.8 7.1 2.1 10.4 3.6 4.5 2.1 8 5.9 12.8 7.4 5.8 1.7 8.4 7.1 12.3 11 5.6 5.8 10.1 12.6 13.5 19.9-4.1 2.5-6.5 6.9-10.1 10-2 0.8-3-0.9-4.2-1.8-8.6-6.3-15.6-14.2-21.5-23.6 4.8 8.7 12.4 14.8 17.2 22.9 1.6 2.6 3.8 5.1 2.4 8.6-1.3 0.2-2.9-0.4-3.9 1.1-1.5 0.9-3 1.1-3-1.2 0-2.1 0.3-4.4-2.7-3.9-2.4 0.4-2.7 2.5-2.3 4.6 0.1 0.5 0.1 1 0.1 1.5-1.4 3-5.7 0.9-7.1 3.9-8.2 3.8-11.8 9.9-10.1 19.1 0.7 3.9-1.1 7-5.3 8.5-4.1 1.4-8.3 1.9-12.5 3-4.8 1.2-8.4 3.7-9.9 8.7-0.8 2.6-3.2 4.2-4.2 6.7z"/>
		<path id="&lt;Path&gt;" class="s109" d="m386.2 384c-13.1 12.7-25.3 26.3-37.3 40-1.1 1.2-2 2.6-3 3.9-0.2 1.7-1.2 2.7-2.8 3.1q-8.7 10.3-17.3 20.7c-4.4-13.1-10.1-25.5-17.6-37.1-2.8-4.4-3.8-9.6-6.6-14-2.8-4.5-6.1-8.5-11-11.2-3-1.7-6.4-3.4-7.6-7.2 12.9-11.2 26.7-21 43.3-27.4 0 2.3 0 4.2 0 6.2-0.8 2.9-2 5.5-3.8 8-3.2 4.6-2.7 10.1 0.9 13.7 3.8 3.7 9.7 4.3 14.1 0.6 4.3-3.6 8.1-2.9 12.2 0q2 1.4 4 2.9c4.2 3.1 8.5 3.7 13 1 1.9-1.1 3.8-2.2 5.6-3.3 4.7-3.1 9.3-3.3 13.9 0.1z"/>
		<path id="&lt;Path&gt;" class="s110" d="m805 576c-2.4-0.3-2.7-2.4-1.3-3.5 5.4-4.2 7.7-11.2 13.8-14.7 2.4-1.4 3.3-4.5 4.5-6.8 3.5-6.3 10.9-9.3 13.6-16.2 0.3-1 1.8-1 2.6-0.3 1.2 1.1 0.7 2.3-0.2 3.5-6.1 7.6-11.5 15.8-18.2 23-3.5 3.8-7.3 7.6-10.3 11.9-1 1.4-2.3 2.9-4.5 3.1z"/>
		<path id="&lt;Path&gt;" class="s111" d="m852 550.4c0.1 4.9-1 9.2-4.6 12.5-8.5 8-16.5 16.3-22.8 26.2-0.9 1.5-2.8 3.8-4.8 2.4-2.2-1.4 0.4-3 0.9-4.6 1.3-4.3 5-6.5 7.6-9.6 7.7-9.1 15.8-18 23.7-26.9z"/>
		<path id="&lt;Path&gt;" class="s5" d="m547 488c-4.8 0.9-9.6 1.6-14.3 2.8-2.1 0.6-4.1 1.4-6.2 1.2-1.9-0.2-3.4 0.5-4.3 2-2.5 3.7-4.6 4.1-10.3 1.8-0.3-1.4 3.6-0.5 1.6-2-4.8-3.6-6.6-8.7-8.5-13.9-2.2-8.1-4.1-16.2-3.1-24.7 0.3-3.1 0.6-6.2 0.5-9.4-0.2-4.6 3.1-7.9 7.1-7.9 2.5 0 4.4 0.6 3.3 3.8-0.4 1.1-1.3 2.9 0.9 2.9 1.7 0 3.1-1.6 2.8-3-0.9-3.1-2.1-5.4 2.6-6.8 4.2-1.3 6.6 0.4 8.9 3.2 1.2 0.1 2.8-0.1 2.8 1.4 0 4.2 1.4 8 2 12 0.6 4.6 2.8 8.7 3.3 13 0.4 4.5 2.4 8.3 2.9 12.6 0.2 1.4 0 2.9 2 2.9 2.2 0 2-1.7 2-3.2 0.2-4.4-1.9-8.3-2.8-12.5-0.8-4.1-1.6-8.3-3.3-12.1-2.5-5.3 0.3-12.2-5.2-16.7-2.1-1.7-0.5-7.8 2.2-9.5 1.4-1 1-2.3 1.1-3.6 2.5-3.9 5.8-6.4 10.2-8 7.5-2.8 15.4-2.9 23-5.2 1.2-0.3 2.6-0.2 3.7 0.8 3.3-2.1 6.3-4.3 10.3-5.1 2.2-0.4 1.8-2.9 1.8-4.7-1.6-3.3-0.9-5.5 3-6.1 2.9-1.6 4.9 4.2 8.1 1.1 0.3 0.5 0.9 1.2 0.8 1.6-2.4 9.8 2.1 18.9 2.2 28.3 0.1 5.4 5.2 9.5 2.9 15q0 3.7 0 7.3c-3.2-3.4-4.3-7.7-6.8-11.3-1.1-1.6 0.3-3.6 1.8-5.6-4.9 2.3-4.6-0.4-5.2-3.5-0.7-3.7 0.5-8.3-3.8-10.9-1.1-0.3-1.4-1.8-3-2.1-0.6 2.8 0.1 5.6 0.6 8.2 2 8.7 2.8 17.6 5.1 26.2 0.5 1.7 0.7 3.3-0.7 4.7-2.3 5.2-2.2 10.4-0.2 15.7 0.6 1.6 1.1 3.1 2.7 3.9 1.2 0.7 3.4 0.1 3.4 2.3 0 2.7 0.1 5.6-0.5 8.2-0.5 1.7-2.7 0.9-4.1 0.8-2.4-0.2-4.8-1.2-7.3-0.9-1.4 0.1-3.1 0-3.4 1.4-1.1 5.2-6.1 5-9.3 7.2-1.4 1-3.6 1-4.4-1.5-0.5-1.7-2-2.8-3.5-1.6-4.8 4.1-9.3 1.1-13.9-0.4-0.5-0.1-1-0.1-1.5-0.1z"/>
		<path id="&lt;Path&gt;" class="s0" d="m285.9 623.9c-0.9-13.5-4.4-27.4 5.1-39.6 4.1-5.3 9.6-7.3 16.4-6.8 7.2 0.4 13.7 2.1 19.8 6.3 9 6.1 14.2 14 15.1 25.2 1.2 15.4-9.6 26.6-18.8 31-4.8 1.6-10.4 3-14 5.6-6.3 4.6-8.6 0.3-12.2-2.6-1.1-1-2.2-2-3.3-3-1.5-1.3-1.2-3.8-3-5h0.1c-0.8-4-3.3-7.5-4.1-11.6-0.3-1.4-0.4 0.9-1.1 0.5z"/>
		<path id="&lt;Path&gt;" class="s112" d="m544.3 542.8c-6.4-14-12.7-28-19.2-41.9-1.8-3.8-0.8-5 3-5.7 4.2-0.7 8.3-2 12.5-3 1.7-0.5 3.5-1.2 5.3 0 4.5 3.4 9.6 4.8 15.2 4.6 1.7 0 3.3-0.3 3 2.3-1.9 15.7-3.5 31.4-10 46q-4.9-1.1-9.8-2.3z"/>
		<path id="&lt;Path&gt;" class="s113" d="m589 453c-1.4-5.6-2.4-11.4-3.4-17.1-1-5.5-2.1-11-2.6-16.6-0.3-3.1-2-6.1 1.3-8.9q2.2 2.4 2.7 5.6c0.3 5.9 1.9 11.4 3.6 17 0.9 2.8 0.8 5.8 1.7 8.7 2 6.1 3.5 12.4 2.7 18.9-0.1 1.2 0.5 3-1.4 3.2-1.8 0.1-1.7-1.8-2.1-3-0.4-1.4-0.4-2.9-0.5-4.4-0.1-1.5 0.1-3.1-2-3.4z"/>
		<path id="&lt;Path&gt;" class="s114" d="m498.8 624c5.7-5.5 11.4-11.1 17.2-16.5 5.4-4.9 9.6-10.8 14-16.6 1.5 2.1 1.6 4.2-0.2 6.2-2.2 3.1-5 5.7-6.7 9.2-5.6 4.1-9.8 9.6-15.1 13.9-2.8 2-5.7 3.5-9.2 3.8z"/>
		<path id="&lt;Path&gt;" class="s115" d="m294 640c3.8 1 6.7 3.2 8.9 6.4 1.4 2.1 2.5 3.1 2.3-0.6-0.1-0.9 0.4-1.7 1.4-1.7 6.1 0.6 11-3.9 16.9-4.1-4.5 3.4-9.5 6-14.7 8.4-1.4 0.6-4.2 1.1-2.1 4.6-6-3.2-10.1-7.4-12.7-13z"/>
		<path id="&lt;Path&gt;" class="s5" d="m603 459.5c0 2.3 0.4 4.6-3 4.5-3.8-0.1-3.5-3-3.9-5.2-0.3-2.2 0.7-4.4 3-4.3 2.9 0 4.3 2.1 3.9 5z"/>
		<path id="&lt;Path&gt;" class="s5" d="m611 486.5c0.3 3.4-2 5-4.3 5.1-2 0.1-4.2-1.9-4-4.2 0.2-4.1 4.4-2.9 6.8-4 1.7-0.8 1.3 2 1.5 3.1z"/>
		<path id="&lt;Path&gt;" class="s116" d="m278.9 603.9c-2.1 3.5 0 7.5-1.6 11-1.6-10.4-1-20.5 4.7-29.9-0.2 6.4-3.8 12.3-3.1 18.9z"/>
		<path id="&lt;Path&gt;" class="s117" d="m508 620.2c4.4-5.2 8.7-10.5 14.5-14.3q0.8-0.8 1.5 0.1c-5.2 4.9-9.2 11.1-16 14.2z"/>
		<path id="&lt;Path&gt;" class="s118" d="m285.9 623.9c0.1-0.9 0.1-1.9 0.2-3.1 2.8 3.7 5.1 10.2 5 14.2-3.5-2.9-3.2-7.5-5.2-11.1z"/>
		<path id="&lt;Path&gt;" class="s119" d="m524 606q-0.7-0.1-1.5-0.1c1.4-3.8 4.2-6.5 7.3-8.8-1.1 3.5-3.3 6.3-5.8 8.9z"/>
		<path id="&lt;Path&gt;" class="s116" d="m277.1 624c0.8-1.9-2.1-5.1 2-6 0.1 2.3 0.3 4.7 0.4 7.3q-1.2-0.6-2.4-1.3z"/>
		<path id="&lt;Path&gt;" class="s5" d="m600.1 473.7c-1.4-0.6-1.4-2.2-1.6-3.5-0.2-0.8 0.6-1.1 1.2-1 1.8 0.3 2.4 1.6 2.2 3.2-0.1 0.9-0.5 1.5-1.8 1.3z"/>
		<path id="&lt;Path&gt;" class="s109" d="m730.3 146c0.4-8.3 0.8-16.4 4.5-23.9 3.4-6.8 8.7-10.8 16.5-10.9 7.8-0.1 13.6 3.5 16.7 10.5 6.9 15.8 6.6 32 0.5 48-2.8 7.4-8.9 11.4-17.1 11.3-8.1 0-13.4-4.3-16.8-11.3-3.7-7.5-4-15.7-4.3-23.7z"/>
		<path id="&lt;Path&gt;" class="s120" d="m476.1 357.1c-3.4 1.1-3 3.9-3.1 6.5 0 2.1-0.1 4.3-0.2 6.4-0.3-5.2-1.7-8.1-8.3-8.7-6.7-0.6-12.9-4.6-16.2-12.5 9.3 4.4 17.8 8.9 27.8 8.3z"/>
		<path id="&lt;Path&gt;" class="s121" d="m476.4 302.8c3.8 5.8 5.3 12.6 6.4 19.2 0.6 3.8-2.9 2.9-5.8 2.3 5.2-0.8 4-3.7 3.1-6.8-1.4-4.9-2.5-9.8-3.7-14.7z"/>
		<path id="&lt;Path&gt;" class="s122" d="m496.3 292.7c-3.1-0.4-5.3-0.6-7.6-0.9-0.9-0.1-2.2-0.1-2.1-1.4 0.1-0.9 1.1-1.2 1.9-1.3 2.9-0.6 5.6-0.3 7.8 3.6z"/>
		<path id="&lt;Path&gt;" class="s123" d="m465 309.9c-1.7-0.1-2.8-1-2.7-2.5 0-1.8 1.3-2.6 3-2.4 1.2 0.1 2.2 0.7 2.2 2.1 0 1.8-1 2.6-2.5 2.8z"/>
		<path id="&lt;Path&gt;" class="s124" d="m493.1 309.9c0 1.7-1 2.5-2.4 2.6-1.4 0.1-2.6-0.6-2.6-2.3-0.1-1.6 0.8-2.5 2.3-2.6 1.5-0.1 2.5 0.8 2.7 2.3z"/>
		<path id="&lt;Path&gt;" class="s125" d="m466.8 301.1c-3 0.2-5.9-1-8.9-0.3 3.2-3.6 6.1-2.1 8.9 0.3z"/>
		<path id="&lt;Path&gt;" class="s126" d="m464.7 327.4c2.4 2 4.8 3.9 7.8 6.4-5-0.5-6.9-3-7.8-6.4z"/>
		<path id="&lt;Path&gt;" class="s127" d="m485.4 303.7c3.7-3.6 5.4-3.4 9.7 0.7-3.5-0.4-6.5-2.2-9.7-0.7z"/>
		<path id="&lt;Path&gt;" class="s128" d="m943.1 474.1c-2.4 5.1-4.7 10.1-7.3 15.1-1.6 3-2.9 5.5 2.8 6-2.8 1.3-4.8 0.8-6.1-0.9-1.3-1.6 0.4-3.1 1.1-4.5 2.7-5.4 5.5-10.9 8.3-16.3q0.6 0.3 1.2 0.6z"/>
		<path id="&lt;Path&gt;" class="s129" d="m954 465.9c4.1-2.8 7.6-2.1 10.4 2.2q-5.2-1.1-10.4-2.2z"/>
		<path id="&lt;Path&gt;" class="s130" d="m925.1 466.3c3.5-2.5 6.9-2.2 9.8 1.3q-4.9-0.6-9.8-1.3z"/>
		<path id="&lt;Path&gt;" class="s131" d="m962.2 478.6c-3.7-0.8-7.5-1-11.2-1.3 4-2.4 7.7-1.7 11.2 1.3z"/>
		<path id="&lt;Path&gt;" class="s132" d="m923.5 474.2c4.1-2 7.9-1.9 11.3 1.2-3.7-0.4-7.4-1.5-11.3-1.2z"/>
		<path id="&lt;Path&gt;" class="s133" d="m948.1 498.7c-0.6 3.8-2.7 6-6.5 6.1 2.3-1.9 4.7-3.6 6.5-6.1z"/>
		<path id="&lt;Path&gt;" class="s134" d="m927.8 479.8c-0.3 1-0.9 1.7-2.1 1.5-1.3-0.2-2-1-1.7-2.4 0.3-1 1.1-1.5 2.2-1.2 1 0.3 1.7 0.9 1.6 2.1z"/>
		<path id="&lt;Path&gt;" class="s135" d="m951.7 480.4c1.1 0.2 2 0.7 2.1 1.8 0 1.4-0.9 2.2-2.2 2.1-1.1-0.2-1.8-0.9-1.8-2.1 0.1-1.2 0.9-1.7 1.9-1.8z"/>
		<path id="&lt;Path&gt;" class="s0" d="m283 382.2c2.2 1.7 4.1 3.8 6.6 5 9.4 4.6 13.6 13.1 17.5 22 1.9 4.3 3.7 8.7 6.8 12.5 2.5 3.2 4.3 6.9 5.4 11 1.2 4.2 3.5 8.1 5.6 11.9 1.2 2.3 2 4.5 0.9 7.1q-1.4 2.1-2.8 4.3c-2.1 3.1-5.3 5.5-5.1 9.8-1.4 7.4-1.5 14.9 0 22.4-0.3 3.7 0.7 7 4.4 8.8q0.8 0.9 1.7 1.8c-0.4 3.2 1.9 3.7 4.2 4.2 1.8 1.4 4 0.9 6 1.2 4.9 1.4 9.8 1.2 14.7 0 3.4-0.7 6.8-1.8 10.4-1 2.9 1.7 5.3 3.8 6.8 6.9 1.4 2.9 4 4.6 6.8 6-4.4 3.1-9.7 3.9-14.5 5.9-7.3 3.1-15.6 3.6-22.8 6.4-9.3 3.7-18.7 3.4-28.2 3.6-4.8 2-10.1 1.7-14.7 0.6-6-1.4-12.1-2.8-18.1-4.6-2.6 0.6-4.1-1-5.6-2.5-9-8.6-14.3-19.3-18.1-31-4.6-14.2-4.7-28.8-3.7-43.3 0.8-10.3 5-20 7.7-29.9 3-11.1 11.7-18.6 15.8-28.8 2-5 8.1-6.9 12.3-10.3z"/>
		<path id="&lt;Path&gt;" class="s136" d="m413.2 497.8c1-1.3 2.9-0.1 4-1.1-0.3-5.7-6.2-10.5-2.2-16.7q0.3-0.5 0.9-0.4c1.8-1.4 0.8-3.4 1-5.1 0.3-4.3 0.5-8.5 5.9-9.5 1.1-0.2 1.8-1 2.1-2 1.3-5.1 4.6-4.3 8.8-4.1 10.2 0.5 17.4 5.2 22.8 13.4 1.3 2.1 4.6 3.1 3.1 6.6-1.3 1.4-3.4 0.6-5.4 1.7 1.7 1.9 3.2 3.6 4.8 5.4 0 0.5 0 1.3-0.3 1.3-3.7 0.7-4.5 3.8-5.8 6.5v0.1c-3.9 1.1-7.5 0.6-10.3-2.3-2.3-2.3-5.3-2.6-9-4.5 3.3 4 7.7 5 9.4 8.9-1.9 4.1-5.5 1.1-8.2 2-2.2-3.7-7.5-5.2-11.3-3.3-3.1 1.5-6 3.6-9.5 4.2q-0.8-0.3-0.8-1.1z"/>
		<path id="&lt;Path&gt;" class="s137" d="m413.2 497.8q0.4 0.6 0.8 1.1-18.1 7.5-36.2 15c-1.7 0.7-3.3 1.5-4.9 2.2-3.1 0.1-5.6-0.1-7.1-3.8-1.3-3.4-4.3-6.1-6.5-9.1 18-1.1 35.9-3.3 53.9-5.4z"/>
		<path id="&lt;Path&gt;" class="s138" d="m274.6 528c6.1-0.6 11.7 1.1 17.5 3.4 4.7 1.9 10.1 0.3 15.3 0.6-0.5 1.6-1.7 1.8-3.1 1.9-9.7 0.7-19.1-1-28.2-4-0.7-0.2-1-1.2-1.5-1.9z"/>
		<path id="&lt;Path&gt;" class="s139" d="m256.4 403.4c1.6 5.6-1.5 7.5-4 11.2-0.3-4.8 2.6-6.9 4-11.2z"/>
		<path id="&lt;Path&gt;" class="s140" d="m227.8 660.8c8.2 0.6 16.4 1.7 25.5 1.2-4.3 3-5.1 3-25.5-1.2z"/>
		<path id="&lt;Path&gt;" class="s141" d="m598.9 416.7c0.1-2 0-4 0.4-5.9 0.7-3.4 3.5-3.1 6-2.7 2.3 0.5 2.9 2.6 2.5 4.7-0.5 2.4-2.4 3.4-4.8 3.2-1.4-0.1-3.3-2.7-4.1 0.7z"/>
		<path id="&lt;Path&gt;" class="s142" d="m658.2 844.2c0 1.7-1 2.4-2.5 2.5-1.7 0.2-2.9-0.6-2.8-2.5 0-1.7 1-2.3 2.6-2.3 1.6 0 2.5 0.7 2.7 2.3z"/>
		<path id="&lt;Path&gt;" class="s143" d="m684.6 809.2c-0.7 1.8-1.7 2.8-3.7 2.8-1.9-0.1-2.6-1.4-2.6-2.9 0-1.7 0.9-3.3 3-3 1.8 0.3 2.6 1.7 3.3 3.1z"/>
		<path id="&lt;Path&gt;" class="s144" d="m515.3 379c-1.5 2.6-2.6 0.1-3.5-0.4-6.5-3.7-12.6-8.2-19.7-10.6q0.1-1.9 0.2-3.8c1.1-2.4 2.5 0.1 3.7-0.2q9.6 7.5 19.3 15z"/>
		<path id="&lt;Path&gt;" class="s145" d="m528 438c-3.8-2.9-7.9-3.2-12-0.4 3.1 1.5 3.6 3.9 1.2 6.6-1.5 1.8-3.3 4-5.8 2.2-3.3-2.3 0.7-4.5 0.8-6.9-6.5-0.9-9.3 1.5-8.3 7.6 0.6 3.6-0.6 6.9-1 10.3-0.9 7.7 3.1 14.9 2.1 22.5-2.6 2.2 0.7 4.6-0.2 7-2.5-1-0.4-7.5-5.8-4.9-3.7-2.1-7.4-0.6-11 0.4-2.9 0.8-5.8 1.3-8.8 1-7.8-0.8-10.8-4-9.4-10.7 0.8-3.4 3.6-4.8 6.2-6.5 5.3-1.9 11-1.7 16.2-3.6 2.7-1.2 5.2-1.7 7 1.5 2 4.1 0.2 8.8 2.3 12.8 0-4.7-0.9-9.3-3-13.6-1.5-3.4-0.9-6.8-0.2-10.3 0.4-1.3 0.4-2.6 0.2-3.9-0.9-6.6 1.7-11.4 8-13.4 3.9-1.2 7.6-3.4 11.9-2.7 1 0.1 2-0.1 2.6-1.1 1.1-2.9 3.6-1.6 5.3-1.4 1.2 0.2 1.6 2 1.2 3.8-0.2 1.1 0.4 2.4 0.5 3.7z"/>
		<path id="&lt;Path&gt;" class="s146" d="m500 453.2c-1.7 3.5-0.7 7.2-0.8 10.8l-0.2 0.1c-2-2-4.2-0.8-6.4-0.2q-8.5 0.3-16.7 2.7c-1.9 1.5-4.6 2.2-4.9 5.2 0.7 2.7-1.6 6.1 1.8 8.1 4.5 2.7 9.2 2.8 14.2 1.2 4-1.3 8.3-3 12 0.9-2.5-0.2-5 0.1-7.2 1.3-6.8 3.6-13.7 3.8-20.8 0.9-1.6-0.7-3.6 0.3-5.4-0.8 0.3-2.1 3.9-5.2-1.6-5.4-0.2-0.9-1-2.2-0.7-2.7 5.1-7.9 10.2-14.7 21.3-15.8 8.2-0.7 11.2-0.3 9.5-11.6-1.1-7.8 4.9-15.5 11.9-15.9q0 0.6 0 1.2c-1.1 2.4-4 3-5.4 5.1-2.2 3.5-5.5 7.1-1.4 11.6 0.7 0.8 0 2.3 0.8 3.3z"/>
		<path id="&lt;Path&gt;" class="s147" d="m524.9 426c-2-8-7.3-13.9-12.4-19.9-3.7-4.4-6.6-9.1-9.1-14.3 7.6 11 16.8 20.4 27.6 28.1 0 3.7-2 6.2-5.2 7.6-1.8 0.9-0.9-0.8-0.9-1.5z"/>
		<path id="&lt;Path&gt;" class="s148" d="m500 453.2c-5.3-5.5-4.8-10.8 0-16.3 1.7-1.9 4-2.5 6-3.7 0.9 1 2.5 1.1 3.1 0.5 3.7-3.3 7.9-1.6 11.9-1.8-1.2 2.1-1.2 2.1-3.6 2.2-4.9 0.2-9.4 1.9-13.4 4.4-3.4 2.1-6.5 5.2-4.3 10.3 0.5 1.3 0.2 2.9 0.3 4.4z"/>
		<path id="&lt;Path&gt;" class="s149" d="m571.9 409.9c-10.9 1.6-22 2.7-31.9 8.4-1.8 1.1-3.3 2.7-5 4 0.3-4.8 3.8-7.5 7.6-8.6 5.9-1.8 11.8-4.2 18.3-3.9 3.5 0.1 6.4-3.4 10.4-1.9 1.6 0.6 1.2 1.1 0.6 2z"/>
		<path id="&lt;Path&gt;" class="s150" d="m513.1 428.1c-1.8-1.8-3-3.6-0.8-5.9 1.4-1.5 3-3.1 5.1-1.8 1.9 1.2 3.5 3.1 1.6 5.7-0.5 0.7 0.1 0.8 0.5 0.9 0.5 0.1 1 0 1.5 0.1 1.3 0.2 1.9 0.5 0.5 1.6-3 2.1-5.7 0.5-8.4-0.6z"/>
		<path id="&lt;Path&gt;" class="s151" d="m587 394c-2.8 1.2-3.1 3.6-3 6.1-3.1-0.8-1.9-3-1.2-4.6 1.2-2.9 3.1-4.9 6.7-4.2 0 1.8-2.2 1.4-2.5 2.7z"/>
		<path id="&lt;Path&gt;" class="s152" d="m651.5 243.7c0.1 5.2-4 9.2-9.5 9.4-5.3 0.1-9.8-3.9-9.9-9-0.1-5.4 4.1-9.5 9.8-9.7 5.3-0.1 9.5 4 9.6 9.3z"/>
		<path id="&lt;Path&gt;" class="s153" d="m572.8 234.9c0-9.5 0-9.6 9.5-8.6 2.4 0.3 4.9 0.5 7 2.3 2.6 2.4 3.4 5.3 2.5 8.6-0.9 3.4-3.5 5.3-6.8 5.7-3.3 0.4-6.6 0.2-10 0.3-1.7 0.1-2.3-0.7-2.2-2.3 0-2 0-4 0-6z"/>
		<path id="&lt;Path&gt;" class="s154" d="m924.5 254.3c-5.4 0-9.6-4.4-9.5-10.1 0.1-5.4 4.1-9.7 9.3-9.7 5.5-0.1 9.7 4.1 9.7 9.8 0 5.7-4.1 10-9.5 10z"/>
		<path id="&lt;Path&gt;" class="s155" d="m613.1 245.2c1.3 1.1 5-2.2 5.2 2.5 0.2 3.9-3.3 6.9-8 6.8-3.1 0-6.2-0.5-6.4-4.6-0.2-3.4 2.2-4.6 9.2-4.7z"/>
		<path id="&lt;Path&gt;" class="s156" d="m674.3 234.3c2.2 0 4.3 0.7 5.9 2.2 1.6 1.4 3.5 3.2 2.8 5.4-0.8 2.2-3.2 0.9-4.8 1-3.3 0.2-6.6-0.1-9.9 0-3.4 0.2-3.1-1.4-1.9-3.6q2.5-4.7 7.9-5z"/>
		<path id="&lt;Path&gt;" class="s154" d="m759.2 244.5c-0.1 5.9-4 9.8-9.6 9.8-5.3-0.1-9.5-4.8-9.3-10.3 0.2-5.5 4.1-9.4 9.5-9.4 5.7 0 9.5 4 9.4 9.9z"/>
		<path id="&lt;Path&gt;" class="s154" d="m838 244.4c0 5.7-4.1 10-9.6 9.9-5.2-0.1-9.3-4.4-9.4-9.7-0.1-5.7 4.2-10.2 9.5-10.1 5.7 0.1 9.6 4.2 9.5 9.9z"/>
		<path id="&lt;Path&gt;" class="s157" d="m1284.4 813.9c-1.8-0.3-2.3-1.8-2.3-3.2 0-1.6 0.8-2.8 2.7-2.7 2 0 2.7 1.3 2.8 2.7 0 1.8-1.3 2.9-3.2 3.2z"/>
		<path id="&lt;Path&gt;" class="s88" d="m1207.1 895.7c-0.6-2.3-1.7-3.8-4.2-2 0-1.2 0-2.4 0.1-3.5 0.3-3.2 2.8-2.1 4.6-2.2 2.5-0.1 1.7 1.6 1.6 3.1-0.2 1.9-1.3 4.8 2.3 4.7 5.5-0.1 4.4 2.1 2.1 5.1-0.4 0.6-0.5 1.5-0.8 2.3-3.7-1.1-2.3-6.1-5.7-7.5z"/>
		<path id="&lt;Path&gt;" class="s88" d="m1216.8 911q-0.9-1.1-1.8-2.2-1-2.4-2-4.9c1.9 0.4 4.5-1.2 5.6 1.2 1.1 2.3 0.3 4.4-1.8 5.9z"/>
		<path id="&lt;Path&gt;" class="s80" d="m1189.3 896.9c-2.7 0.7-4.4 4.3-8.3 2.7 2-3.1 5-3.2 8-3.5q0 0.5 0.3 0.8z"/>
		<path id="&lt;Path&gt;" class="s158" d="m1278 839.7q0.5 0.6 1 1.2c-1.3 1.6-2.6 3.2-5.4 3.7 0.3-2.9 2.9-3.4 4.4-4.9z"/>
		<path id="&lt;Path&gt;" class="s159" d="m443 496q-5.8-4.2-11.6-8.3c4.5-1.9 8.3-0.6 10.8 2 3.2 3.1 6.6 4.2 10.7 4.2-3 2.2-6.8 0.4-9.9 2.1z"/>
		<path id="&lt;Path&gt;" class="s160" d="m431 502.8c3.7 0.4 6.1 0.8 6 4-0.2 2.6-1.8 4.9-4.2 4.7-2-0.2-4.2-2.1-4-4.9 0.1-2.1 0.6-4.1 2.2-3.8z"/>
		<path id="&lt;Path&gt;" class="s161" d="m465.1 523.6c-0.3 2.3-1.3 4.5-3.9 4.1-2.4-0.4-4.2-2.3-4-5 0.2-2.5 1.9-3.9 4.4-3.6 2.5 0.3 3.9 1.8 3.5 4.5z"/>
		<path id="&lt;Path&gt;" class="s162" d="m429.5 546c-2.8 0.3-4.4-1.1-4.2-3.6 0.2-2.3 2-4.1 4.3-4.1 2.1 0 4.3 0.9 4.3 3.8 0 2.7-1.5 4.3-4.4 3.9z"/>
		<path id="&lt;Path&gt;" class="s163" d="m511.2 514.3c2.4 0.8 4.1 1.8 3.8 4.6-0.2 2.4-1.5 4.1-4 4-2.8-0.1-4.1-2-3.9-4.7 0.1-2.6 2.3-3.2 4.1-3.9z"/>
		<path id="&lt;Path&gt;" class="s164" d="m480.8 492.9c3.2 0.2 5.1 1.3 5.1 4.1 0 2.5-1.7 4.1-4.2 3.9-2.3-0.2-4.2-1.8-4.2-4.1 0-2 0.7-4.4 3.3-3.9z"/>
		<path id="&lt;Path&gt;" class="s159" d="m452.9 493.8c-0.3-4.4 3.2-5.9 6.1-7.8 0.6 0.4 4-0.4 1.5 1.5-2.8 1.9-5.4 3.8-7.6 6.3z"/>
		<path id="&lt;Path&gt;" class="s165" d="m387.7 448.1c4.4-1.9 7.7-6.5 13.3-6 5.7 3.6 6.1 9.6 6.9 15.4 0.2 1.4-0.8 2.4-2.2 2.9-8.5-1.1-17.1-1.3-25.5-2.8-1-0.2-2.1 0-2.5-1.3-0.3-1.1 0.6-1.8 1.5-2.3 3-1.7 5.2-4.6 8.5-5.9z"/>
		<path id="&lt;Path&gt;" class="s166" d="m406 459.9c2.2-5.3-1.2-9.5-2.7-14-0.5-1.4-1.5-2.6-2.3-3.8-0.3-1-1.2-1.1-1.9-1.4 9.8-3.6 18.7-2 24.4 1.1 1.6 0.8 3.8 1.5 3 3.9-0.6 1.9-2.5 2.5-4.5 2.3-4.3-0.3-7.8 1.3-10.7 4.3-1.5 1.7-2 3.7-1.3 6 0.7 2.4 2.6 1.5 4.1 1.8 2.2 0.4 4.3 1 6.3 2.4q-7.2-0.8-14.4-1.5-0.8-0.5 0-1.1z"/>
		<path id="&lt;Path&gt;" class="s167" d="m406 459.9q0 0.5 0 1.1c-9.3-0.8-18.7-1.2-28-2.5-3.9-0.6-7.3-3.5-11.7-3.6-5.9 0-10.9 2.1-15.9 4.9-1.2 0.6-2.3 2.8-4.2 0.8-1.8-1.8-0.7-3.2 0.3-4.8 2.4-4 9.9-6.8 15.8-5.5 2.7 0.6 5.6 1.3 7.9 2.7 4.6 2.7 7.9 1.3 11.4-1.9 1.6-1.5 3.4-3.3 6.1-3-2.9 2.9-6.1 5.5-10.3 8 9.8 2.7 19.4 2.1 28.6 3.8z"/>
		<path id="&lt;Path&gt;" class="s168" d="m415.9 479.6q-0.4 0.2-0.9 0.4c-0.3-2 1.5-5.3-3.3-4.3-2.4 0.4-4.5-1.9-4.3-4.5 0.1-2.2 2-3.9 4.4-4 2.8-0.1 4.2 1.7 4.2 4.4 0.1 2.7 0 5.3-0.1 8z"/>
		<path id="&lt;Path&gt;" class="s169" d="m343.1 431q1.4-1.5 2.8-3.1c1.3 0.1 2.6 0 3.9 0.3 1.9 0.4 3.1 1.7 3.2 3.8 0 2-1.3 3.4-3.1 3.9-1.8 0.4-3.8 0.4-4.6-1.7-0.5-1.4-1.4-2.2-2.2-3.2z"/>
		<path id="&lt;Path&gt;" class="s170" d="m390.3 490.2c-0.4 3.6-1.4 5.7-4 5.5-2.8-0.2-4.5-1.9-4.3-5 0.1-2.6 1.7-3.7 3.9-3.5 2.2 0.3 4.8 0.9 4.4 3z"/>
		<path id="&lt;Path&gt;" class="s171" d="m381.6 443.1c-2.7 0.4-3.2-2.3-3.3-4.4-0.1-2.5 1.9-3.7 4.4-3.6 2.5 0 4.2 1.3 4.2 3.8 0 2.9-1.9 4-5.3 4.2z"/>
		<path id="&lt;Path&gt;" class="s160" d="m493.3 374.2c3.1 0.3 4.3 2.2 4.3 4.4 0 2.6-2 4.3-4.5 4.2-2.6-0.1-3.9-2.4-3.9-4.8 0.1-2.6 2.5-3.1 4.1-3.8z"/>
		<path id="&lt;Path&gt;" class="s172" d="m523 400c-2.7 0.1-4.7-1.1-4.7-3.4 0.1-2.2 1.3-4.5 4.2-4.5 2.5-0.1 4.4 1.1 4.3 3.6-0.2 2.1-0.6 4.8-3.8 4.3z"/>
		<path id="&lt;Path&gt;" class="s173" d="m457.9 442.3c2.1 0.5 4 1.2 4.2 4 0.1 2.9-1.8 4.3-4.2 4.5-2.5 0.2-3.7-1.7-3.9-4.1-0.2-2.7 1.6-3.7 3.9-4.4z"/>
		<path id="&lt;Path&gt;" class="s174" d="m364.9 467.2c-0.1 2.7-2.6 4-4.2 4-2.3 0.1-4.4-1.9-4.4-4.5-0.1-2.8 2.4-3.4 4.5-3.6 2.8-0.3 3.4 2 4.1 4.1z"/>
		<path id="&lt;Path&gt;" class="s175" d="m429 420c-0.1-2.6 1-4.1 3.8-4 2.5 0.1 4.1 1.5 4.1 4 0 2.5-1.5 3.9-4.1 4-2.8 0.1-3.9-1.3-3.8-4z"/>
		<path id="&lt;Path&gt;" class="s176" d="m396.9 407.1c-0.3 2.4-1.5 3.7-3.8 3.9-2.7 0.4-4.3-1.1-4.6-3.4-0.2-2.3 1.2-4.1 3.6-4.5 3.1-0.4 3.7 2.2 4.8 4z"/>
		<path id="&lt;Path&gt;" class="s177" d="m329.2 481c2.5 0.5 3.9 1.9 3.9 4.4-0.1 2.9-2.1 3.7-4.4 3.6-2.2-0.2-3.8-1.3-3.6-3.9 0.1-2.5 1.6-3.8 4.1-4.1z"/>
		<path id="&lt;Path&gt;" class="s178" d="m488 412.8c0.1 2.7-0.7 4.3-3 4.1-2-0.2-4.8-0.1-4.8-3 0-2.4 1-4.8 3.9-4.8 2.6 0 3.8 1.8 3.9 3.7z"/>
		<path id="&lt;Path&gt;" class="s179" d="m348.9 504.2c-4.7 3.4-9.9 1.8-14.9 1.6-0.8-0.1-0.1-1.1 0.2-1.6q7.3 0 14.7 0z"/>
		<path id="&lt;Path&gt;" class="s180" d="m322.3 497c-0.4 0.7-0.8 2.6-1.8 1.3-2.1-2.9-5.1-5.9-2.6-10.1q2.2 4.4 4.4 8.8z"/>
		<path id="&lt;Path&gt;" class="s181" d="m317.9 465.8c-0.8-4.6 0.8-7.9 5.1-9.8-0.6 3.9-4.1 6.2-5.1 9.8z"/>
		<path id="&lt;Path&gt;" class="s180" d="m328.2 503c-4.4 0.6-5.6-0.7-4.2-4.2q2.1 2.1 4.2 4.2z"/>
		<path id="&lt;Path&gt;" class="s93" d="m499.2 464c0.9 0.1 2.7 0 2.3 1-1.4 4.1 2 7 2.1 10.8 0 1.9 0.2 3.4-1.9 3.6-2.1 0.1-2.7-1.5-2.7-3.4 0.1-3.9 0-7.9 0-11.9 0 0 0.2-0.1 0.2-0.1z"/>
		<path id="&lt;Path&gt;" class="s182" d="m475.1 466.1c4.9-2.7 10.7-1.5 15.8-3.4 0.9-0.4 1.5 0.2 1.7 1.2q-8.1 1.6-16.2 3.3c-1.2 0.6-1.3-0.2-1.3-1.1z"/>
		<path id="&lt;Path&gt;" class="s183" d="m475.1 466.1q0.6 0.6 1.3 1.1-2.7 2.3-5.4 4.6c-0.5-0.2-2.3 1.5-1.4-0.5 1-2.3 2.9-4.3 5.5-5.2z"/>
	</g>
</svg>