<svg version="1.2" xmlns="http://www.w3.org/2000/svg" viewBox="0 0 1571 1427" width="991" height="900">
	<title>730 [Converted]-ai</title>
	<defs>
		<clipPath clipPathUnits="userSpaceOnUse" id="cp1">
			<path d="m1225.09 111.64c-138.25-103.78-435.13 18.25-676.89 63.89-241.76 45.63-585.39 300.36-361.1 720.6 224.3 420.24 402.79 474.5 802.51 397.58 399.72-76.92 581.55-395.86 444.44-597.91-137.11-202.04-75.22-483.77-208.96-584.16z"/>
		</clipPath>
	</defs>
	<style>
		.s0 { fill: #37729b } 
		.s1 { fill: #1f4168 } 
		.s2 { fill: #000000 } 
		.s3 { fill: #ffffff } 
	</style>
	<g id="BACKGROUND">
	</g>
	<g id="OBJECT">
		<path id="&lt;Path&gt;" class="s0" d="m1225.1 111.6c-138.3-103.7-435.1 18.3-676.9 63.9-241.8 45.7-585.4 300.4-361.1 720.6 224.3 420.3 402.8 474.5 802.5 397.6 399.7-76.9 581.6-395.8 444.5-597.9-137.2-202-75.3-483.8-209-584.2z"/>
		<g id="&lt;Group&gt;">
			<path id="&lt;Compound Path&gt;" fill-rule="evenodd" class="s1" d="m766.8 1217.8c-6 5.5-12.6 10.1-19.7 13.8l14.2 27c-19 10-40.4 14.8-61.8 14l1.2-30.5c-8-0.3-15.9-1.7-23.7-4.1l-9.1 29.1c-10-3.1-19.7-7.6-29-13.4-9.3-5.9-17.5-12.8-24.6-20.5l22.5-20.7c-5.6-5.9-10.2-12.5-13.9-19.6l-27 14.2c-10-19-14.8-40.4-14-61.9l30.5 1.3c0.3-8 1.7-15.9 4.1-23.7l-29.1-9.1c3.1-10 7.6-19.7 13.4-29 5.9-9.3 12.8-17.5 20.5-24.6l20.7 22.4c5.9-5.5 12.5-10.1 19.6-13.8l-14.2-27c19-10 40.4-14.8 61.9-14l-1.3 30.5c8 0.3 15.9 1.7 23.7 4.1l9.1-29.1c10 3.1 19.7 7.5 29 13.4 9.3 5.9 17.5 12.8 24.6 20.4l-22.4 20.7c5.5 6 10.1 12.6 13.8 19.7l27-14.2c10 19 14.8 40.4 14 61.8l-30.5-1.2c-0.3 8-1.7 15.9-4.1 23.7l29.1 9.1c-3.1 10-7.5 19.7-13.4 29-5.9 9.3-12.8 17.5-20.4 24.6zm-29.2-46.6c1.9-3 3.4-6.1 4.4-9.3 1-3.3 1.6-6.8 1.7-10.2 0.1-3.4-0.2-6.8-0.9-10.2-0.8-3.3-2-6.6-3.6-9.6-1.5-3.1-3.5-5.9-5.9-8.4-2.3-2.5-4.9-4.7-7.9-6.6-3-1.9-6.1-3.3-9.3-4.3-3.4-1.1-6.8-1.7-10.2-1.8-3.4-0.1-6.9 0.2-10.2 1-3.3 0.7-6.6 1.9-9.6 3.5-3.1 1.6-5.9 3.6-8.5 5.9-2.4 2.3-4.6 4.9-6.5 7.9-1.9 3-3.3 6.1-4.3 9.4-1.1 3.3-1.7 6.7-1.8 10.1-0.1 3.4 0.2 6.9 0.9 10.2 0.8 3.4 2 6.6 3.6 9.7 1.6 3 3.6 5.8 5.9 8.4 2.3 2.5 4.9 4.7 7.9 6.6 3 1.8 6.1 3.3 9.4 4.3 3.3 1 6.7 1.6 10.1 1.7 3.4 0.2 6.9-0.2 10.2-0.9 3.4-0.8 6.6-2 9.7-3.6 3-1.5 5.8-3.5 8.4-5.9 2.4-2.3 4.7-4.9 6.5-7.9z"/>
		</g>
		<g id="&lt;Group&gt;">
			<path id="&lt;Compound Path&gt;" fill-rule="evenodd" class="s1" d="m944.8 1307.8c-3.2 5.1-6.9 9.7-11.1 13.8l15.4 16.2c-11.4 10.8-25.5 18.5-40.8 22.3l-5.3-21.8c-5.7 1.4-11.6 2-17.5 1.9l-0.6 22.4c-7.7-0.2-15.4-1.4-23.2-3.7-7.7-2.3-14.9-5.5-21.4-9.5l11.6-19.1c-5.1-3.1-9.7-6.9-13.7-11.1l-16.2 15.5c-10.9-11.5-18.6-25.6-22.3-40.9l21.8-5.3c-1.4-5.6-2-11.5-1.9-17.5l-22.4-0.5c0.2-7.7 1.4-15.5 3.7-23.2 2.2-7.8 5.5-14.9 9.5-21.5l19.1 11.7c3.1-5.1 6.8-9.7 11.1-13.7l-15.5-16.3c11.4-10.8 25.6-18.5 40.9-22.2l5.2 21.7c5.7-1.4 11.6-2 17.6-1.9l0.5-22.3c7.7 0.1 15.5 1.3 23.2 3.6 7.7 2.3 14.9 5.5 21.5 9.5l-11.7 19.1c5.1 3.1 9.7 6.9 13.7 11.1l16.2-15.5c10.9 11.5 18.6 25.6 22.3 40.9l-21.8 5.3c1.4 5.7 2.1 11.5 1.9 17.5l22.4 0.6c-0.2 7.6-1.4 15.4-3.6 23.1-2.3 7.8-5.5 15-9.5 21.5zm-29.9-27q1.1-3.8 1.1-7.5 0.1-3.8-0.8-7.5c-0.6-2.4-1.5-4.8-2.7-7-1.2-2.2-2.7-4.3-4.4-6.1-1.7-1.8-3.7-3.4-5.9-4.8q-3.2-1.9-6.9-3-3.7-1.1-7.5-1.2c-2.5 0-5 0.2-7.5 0.8-2.4 0.6-4.8 1.5-7 2.7-2.2 1.3-4.3 2.7-6.1 4.5-1.8 1.7-3.4 3.7-4.7 5.9q-2 3.1-3.1 6.9-1.1 3.7-1.2 7.4c0 2.6 0.3 5.1 0.8 7.5 0.6 2.5 1.6 4.8 2.8 7.1 1.2 2.2 2.7 4.2 4.4 6.1 1.7 1.8 3.7 3.4 5.9 4.7 2.1 1.3 4.4 2.3 6.9 3.1 2.5 0.7 5 1.1 7.4 1.1 2.6 0.1 5.1-0.2 7.5-0.8 2.5-0.6 4.9-1.5 7.1-2.7q3.3-1.8 6.1-4.4 2.7-2.6 4.7-5.9 2-3.2 3.1-6.9z"/>
		</g>
		<g id="&lt;Group&gt;">
			<path id="&lt;Compound Path&gt;" fill-rule="evenodd" class="s1" d="m1079.8 1110.8c-8.9 8.2-18.7 15.1-29.2 20.6l21.1 40.2c-28.3 14.9-60.2 22.1-92.2 20.8l1.9-45.4c-11.9-0.5-23.7-2.5-35.3-6.1l-13.5 43.4c-14.9-4.6-29.5-11.3-43.3-20-13.8-8.7-26-19-36.6-30.5l33.4-30.8c-8.2-8.9-15.1-18.8-20.6-29.3l-40.3 21.2c-14.9-28.4-22-60.2-20.8-92.2l45.4 1.8c0.5-11.8 2.5-23.7 6.1-35.3l-43.4-13.5c4.6-14.9 11.3-29.4 20-43.2 8.8-13.9 19-26.1 30.5-36.7l30.8 33.4c9-8.2 18.8-15.1 29.3-20.6l-21.1-40.3c28.3-14.8 60.2-22 92.2-20.7l-1.9 45.4c11.9 0.5 23.7 2.5 35.3 6.1l13.5-43.4c14.9 4.6 29.5 11.2 43.3 20 13.8 8.7 26 19 36.6 30.5l-33.4 30.8c8.2 8.9 15.1 18.8 20.6 29.2l40.3-21.1c14.8 28.4 22 60.2 20.8 92.2l-45.5-1.8c-0.4 11.8-2.4 23.7-6 35.3l43.4 13.5c-4.7 14.9-11.3 29.4-20 43.2-8.8 13.8-19.1 26.1-30.5 36.7zm-43.4-69.4c2.8-4.5 5-9.1 6.4-13.9 1.6-5 2.4-10.1 2.6-15.1 0.2-5.2-0.2-10.3-1.4-15.3-1.1-5-2.8-9.8-5.2-14.4-2.4-4.5-5.3-8.7-8.9-12.5-3.4-3.7-7.3-7-11.8-9.8-4.4-2.8-9.1-4.9-13.9-6.4-4.9-1.6-10-2.4-15.1-2.6-5.1-0.2-10.2 0.2-15.2 1.4-5 1.1-9.8 2.9-14.4 5.2-4.5 2.4-8.7 5.4-12.5 8.9-3.7 3.4-7 7.3-9.8 11.8-2.8 4.4-5 9.1-6.5 13.9-1.5 4.9-2.4 10-2.6 15.1-0.2 5.1 0.3 10.2 1.4 15.2 1.2 5 2.9 9.9 5.3 14.4 2.4 4.5 5.3 8.7 8.9 12.5 3.4 3.7 7.3 7 11.7 9.8 4.5 2.8 9.2 5 13.9 6.5 5 1.5 10.1 2.4 15.1 2.6 5.2 0.2 10.3-0.3 15.3-1.4 5-1.2 9.8-2.9 14.4-5.3 4.5-2.4 8.7-5.3 12.5-8.8 3.7-3.5 7-7.4 9.8-11.8z"/>
		</g>
		<g id="&lt;Group&gt;">
			<g id="&lt;Group&gt;">
				<path id="&lt;Path&gt;" class="s2" d="m1382.5 264.5h-32.4c46.5 0 84.2 37.6 84.2 84.1v567.9c0 46.5-37.7 84.2-84.2 84.2h32.4c46.4 0 84.1-37.7 84.1-84.2v-567.9c0-46.5-37.7-84.1-84.1-84.1z"/>
				<path id="&lt;Compound Path&gt;" fill-rule="evenodd" class="s2" d="m1382.5 1002.2h-32.4v-3c45.6 0 82.7-37.1 82.7-82.7v-567.9c0-45.6-37.1-82.6-82.7-82.6v-3h32.4c47.2 0 85.6 38.4 85.6 85.6v567.9c0 47.3-38.4 85.7-85.6 85.7zm-9.9-3h9.9c45.5 0 82.6-37.1 82.6-82.7v-567.9c0-45.6-37.1-82.6-82.6-82.6h-9.9c36.4 9.9 63.2 43.2 63.2 82.6v567.9c0 39.5-26.8 72.8-63.2 82.7z"/>
			</g>
			<g id="&lt;Group&gt;">
				<path id="&lt;Compound Path&gt;" fill-rule="evenodd" class="s3" d="m438.3 262.9h911.6c46.5 0 84.2 37.7 84.2 84.2v567.9c0 46.5-37.7 84.2-84.2 84.2h-911.6c-46.4 0-84.1-37.7-84.1-84.2v-567.9c0-46.5 37.7-84.2 84.1-84.2zm0.1 640.1h911.5c32.4 0 58.7-26.3 58.7-58.7v-497.2c0-32.4-26.3-58.7-58.7-58.7h-911.5c-32.4 0-58.8 26.3-58.8 58.7v497.2c0 32.4 26.4 58.7 58.8 58.7z"/>
				<path id="&lt;Compound Path&gt;" fill-rule="evenodd" class="s2" d="m1349.9 1000.7h-911.6c-47.2 0-85.6-38.4-85.6-85.7v-567.9c0-47.2 38.4-85.7 85.6-85.7h911.6c47.2 0 85.7 38.5 85.7 85.7v567.9c0 47.3-38.5 85.7-85.7 85.7zm-911.6-736.3c-45.5 0-82.6 37.1-82.6 82.7v567.9c0 45.6 37.1 82.7 82.6 82.7h911.6c45.6 0 82.7-37.1 82.7-82.7v-567.9c0-45.6-37.1-82.7-82.7-82.7zm911.6 640.1h-911.5c-33.2 0-60.3-27-60.3-60.2v-497.2c0-33.2 27.1-60.2 60.3-60.2h911.5c33.2 0 60.2 27 60.2 60.2v497.2c0 33.2-27 60.2-60.2 60.2zm-911.5-614.6c-31.6 0-57.3 25.7-57.3 57.2v497.2c0 31.5 25.7 57.2 57.3 57.2h911.5c31.6 0 57.2-25.7 57.2-57.2v-497.2c0-31.5-25.6-57.2-57.2-57.2z"/>
			</g>
			<g id="&lt;Group&gt;">
				<path id="&lt;Path&gt;" class="s0" d="m1408.8 348.6v497.2c0 23.5-13.8 43.8-33.7 53.1-7.6 3.6-16.1 5.6-25 5.6h-911.5c-32.4 0-58.8-26.3-58.8-58.7v-497.2c0-29.1 21.4-53.4 49.3-57.9q4.6-0.8 9.5-0.8h911.5q4.9 0 9.5 0.8c27.9 4.5 49.2 28.8 49.2 57.9z"/>
				<path id="&lt;Compound Path&gt;" fill-rule="evenodd" class="s2" d="m1350.1 906h-911.5c-33.3 0-60.3-27-60.3-60.2v-497.2c0-29.6 21.3-54.6 50.5-59.4 3.2-0.5 6.5-0.8 9.8-0.8h911.5c3.3 0 6.5 0.3 9.7 0.8 29.3 4.8 50.5 29.8 50.5 59.4v497.2c0 23.2-13.6 44.6-34.6 54.5-8 3.8-16.6 5.7-25.6 5.7zm-911.5-614.6c-3.1 0-6.2 0.3-9.3 0.8-27.8 4.5-48 28.2-48 56.4v497.2c0 31.6 25.7 57.2 57.3 57.2h911.5c8.5 0 16.7-1.8 24.3-5.4 20-9.4 32.9-29.7 32.9-51.8v-497.2c0-28.2-20.2-51.9-48-56.5-3-0.4-6.1-0.7-9.2-0.7z"/>
			</g>
			<g id="&lt;Group&gt;">
				<path id="&lt;Path&gt;" class="s1" d="m1408.8 348.6v11.8h-1029v-11.8c0-29.1 21.4-53.4 49.3-57.9h930.5c27.9 4.5 49.2 28.8 49.2 57.9z"/>
				<path id="&lt;Compound Path&gt;" fill-rule="evenodd" class="s2" d="m1410.3 361.9h-1032v-13.3c0-29.6 21.3-54.6 50.5-59.4h0.3 930.6 0.1c29.3 4.8 50.5 29.8 50.5 59.4zm-1029-3h1026v-10.2c0-28.2-20.1-51.9-47.8-56.5h-930.3c-27.7 4.6-47.9 28.3-47.9 56.5z"/>
			</g>
			<g id="&lt;Group&gt;">
				<path id="&lt;Path&gt;" class="s3" d="m453 325.5c0 7.4-6 13.4-13.4 13.4-7.4 0-13.4-6-13.4-13.4 0-7.4 6-13.3 13.4-13.3 7.4 0 13.4 5.9 13.4 13.3z"/>
				<path id="&lt;Compound Path&gt;" fill-rule="evenodd" class="s2" d="m439.6 340.4c-8.2 0-14.9-6.7-14.9-14.9 0-8.2 6.7-14.8 14.9-14.8 8.2 0 14.9 6.6 14.9 14.8 0 8.2-6.7 14.9-14.9 14.9zm0-26.7c-6.6 0-11.9 5.3-11.9 11.8 0 6.6 5.3 11.9 11.9 11.9 6.5 0 11.9-5.3 11.9-11.9 0-6.5-5.4-11.8-11.9-11.8z"/>
			</g>
			<g id="&lt;Group&gt;">
				<path id="&lt;Path&gt;" class="s3" d="m522 325.5c0 7.4-5.9 13.4-13.3 13.4-7.4 0-13.4-6-13.4-13.4 0-7.4 6-13.3 13.4-13.3 7.4 0 13.3 5.9 13.3 13.3z"/>
				<path id="&lt;Compound Path&gt;" fill-rule="evenodd" class="s2" d="m508.7 340.4c-8.2 0-14.9-6.7-14.9-14.9 0-8.2 6.7-14.8 14.9-14.8 8.2 0 14.8 6.6 14.8 14.8 0 8.2-6.6 14.9-14.8 14.9zm0-26.7c-6.6 0-11.9 5.3-11.9 11.8 0 6.6 5.3 11.9 11.9 11.9 6.5 0 11.8-5.3 11.8-11.9 0-6.5-5.3-11.8-11.8-11.8z"/>
			</g>
			<g id="&lt;Group&gt;">
				<path id="&lt;Path&gt;" class="s3" d="m587.6 325.5c0 7.4-6 13.4-13.4 13.4-7.3 0-13.3-6-13.3-13.4 0-7.4 6-13.3 13.3-13.3 7.4 0 13.4 5.9 13.4 13.3z"/>
				<path id="&lt;Compound Path&gt;" fill-rule="evenodd" class="s2" d="m574.2 340.4c-8.2 0-14.8-6.7-14.8-14.9 0-8.2 6.6-14.8 14.8-14.8 8.2 0 14.9 6.6 14.9 14.8 0 8.2-6.7 14.9-14.9 14.9zm0-26.7c-6.5 0-11.8 5.3-11.8 11.8 0 6.6 5.3 11.9 11.8 11.9 6.6 0 11.9-5.3 11.9-11.9 0-6.5-5.3-11.8-11.9-11.8z"/>
			</g>
			<g id="&lt;Group&gt;">
				<g id="&lt;Group&gt;">
					<path id="&lt;Path&gt;" class="s1" d="m1012.9 511.3c0 28.8-12.2 54.9-31.8 73.2-17.9 16.7-42 27-68.5 27-28.8 0-54.7-12.1-73-31.6-16.9-17.9-27.2-42.1-27.2-68.6 0-55.4 44.9-100.3 100.2-100.3 55.4 0 100.3 44.9 100.3 100.3z"/>
					<path id="&lt;Compound Path&gt;" fill-rule="evenodd" class="s2" d="m912.6 613c-28.3 0-54.7-11.4-74.1-32.1-17.8-18.9-27.6-43.6-27.6-69.6 0-56.1 45.6-101.8 101.7-101.8 56.1 0 101.8 45.7 101.8 101.8 0 28-11.8 55.1-32.2 74.3-18.9 17.7-43.6 27.4-69.6 27.4zm0-200.5c-54.4 0-98.7 44.3-98.7 98.8 0 25.2 9.5 49.2 26.8 67.6 18.9 20.1 44.4 31.1 71.9 31.1 25.2 0 49.2-9.4 67.5-26.6 19.9-18.6 31.3-44.9 31.3-72.1 0-54.5-44.3-98.8-98.8-98.8z"/>
				</g>
				<g id="&lt;Group&gt;">
					<g id="&lt;Group&gt;">
						<path id="&lt;Path&gt;" class="s3" d="m947.7 490.2c0 21.1-17.1 38.3-38.3 38.3-21.1 0-38.3-17.2-38.3-38.3 0-21.2 17.2-38.3 38.3-38.3 21.2 0 38.3 17.1 38.3 38.3z"/>
						<path id="&lt;Compound Path&gt;" fill-rule="evenodd" class="s2" d="m909.4 530c-21.9 0-39.8-17.9-39.8-39.8 0-22 17.9-39.8 39.8-39.8 22 0 39.8 17.8 39.8 39.8 0 21.9-17.8 39.8-39.8 39.8zm0-76.6c-20.3 0-36.8 16.5-36.8 36.8 0 20.3 16.5 36.8 36.8 36.8 20.3 0 36.8-16.5 36.8-36.8 0-20.3-16.5-36.8-36.8-36.8z"/>
					</g>
					<g id="&lt;Group&gt;">
						<path id="&lt;Path&gt;" class="s3" d="m981.1 584.5c-17.9 16.7-42 27-68.5 27-28.8 0-54.7-12.1-73-31.6 12-26.5 38.8-45 69.8-45 32.8 0 60.8 20.6 71.7 49.6z"/>
						<path id="&lt;Compound Path&gt;" fill-rule="evenodd" class="s2" d="m912.6 613c-28.3 0-54.7-11.4-74.1-32.1l-0.7-0.7 0.4-0.9c12.7-27.9 40.6-45.9 71.2-45.9 32.4 0 61.7 20.3 73.2 50.5l0.3 1-0.7 0.7c-18.9 17.7-43.6 27.4-69.6 27.4zm-71.2-33.4c18.8 19.6 44 30.4 71.2 30.4 24.9 0 48.5-9.2 66.8-25.9-11.2-28.6-39.2-47.7-70-47.7-29.1 0-55.7 16.9-68 43.2z"/>
					</g>
				</g>
				<g id="&lt;Group&gt;">
					<path id="&lt;Path&gt;" class="s3" d="m1219.3 654.4v24.6c0 12-9.8 21.7-21.7 21.7h-574.4c-12 0-21.7-9.7-21.7-21.7v-24.6c0-11.9 9.7-21.7 21.7-21.7h574.4c11.9 0 21.7 9.8 21.7 21.7z"/>
					<path id="&lt;Compound Path&gt;" fill-rule="evenodd" class="s2" d="m1197.6 702.2h-574.4c-12.8 0-23.2-10.4-23.2-23.2v-24.6c0-12.8 10.4-23.2 23.2-23.2h574.4c12.8 0 23.2 10.4 23.2 23.2v24.6c0 12.8-10.4 23.2-23.2 23.2zm-574.4-68c-11.2 0-20.2 9.1-20.2 20.2v24.6c0 11.2 9 20.2 20.2 20.2h574.4c11.1 0 20.2-9 20.2-20.2v-24.6c0-11.1-9.1-20.2-20.2-20.2z"/>
				</g>
				<g id="&lt;Group&gt;">
					<path id="&lt;Path&gt;" class="s3" d="m1219.3 750.2v24.6c0 11.9-9.8 21.7-21.7 21.7h-574.4c-12 0-21.7-9.8-21.7-21.7v-24.6c0-11.9 9.7-21.7 21.7-21.7h574.4c11.9 0 21.7 9.8 21.7 21.7z"/>
					<path id="&lt;Compound Path&gt;" fill-rule="evenodd" class="s2" d="m1197.6 798h-574.4c-12.8 0-23.2-10.4-23.2-23.2v-24.6c0-12.8 10.4-23.2 23.2-23.2h574.4c12.8 0 23.2 10.4 23.2 23.2v24.6c0 12.8-10.4 23.2-23.2 23.2zm-574.4-68c-11.2 0-20.2 9.1-20.2 20.2v24.6c0 11.2 9 20.2 20.2 20.2h574.4c11.1 0 20.2-9 20.2-20.2v-24.6c0-11.1-9.1-20.2-20.2-20.2z"/>
				</g>
				<g id="&lt;Group&gt;">
					<path id="&lt;Path&gt;" class="s1" d="m775.4 632.7v68h-152.2c-12 0-21.7-9.7-21.7-21.7v-24.6c0-11.9 9.7-21.7 21.7-21.7z"/>
					<path id="&lt;Compound Path&gt;" fill-rule="evenodd" class="s2" d="m776.9 702.2h-153.7c-12.8 0-23.2-10.4-23.2-23.2v-24.6c0-12.8 10.4-23.2 23.2-23.2h153.7zm-153.7-68c-11.2 0-20.2 9-20.2 20.2v24.6c0 11.1 9 20.2 20.2 20.2h150.7v-65z"/>
				</g>
				<g id="&lt;Group&gt;">
					<path id="&lt;Path&gt;" class="s1" d="m623.2 728.5h152.2v68h-152.2c-12 0-21.7-9.8-21.7-21.7v-24.6c0-11.9 9.7-21.7 21.7-21.7z"/>
					<path id="&lt;Compound Path&gt;" fill-rule="evenodd" class="s2" d="m776.9 798h-153.7c-12.8 0-23.2-10.4-23.2-23.2v-24.6c0-12.8 10.4-23.2 23.2-23.2h153.7zm-153.7-68c-11.2 0-20.2 9-20.2 20.2v24.6c0 11.1 9 20.2 20.2 20.2h150.7v-65z"/>
				</g>
				<path id="&lt;Path&gt;" class="s0" d="m1157.9 685.5h-340.2c-9.6 0-17.3-7.8-17.3-17.4 0-9.6 7.7-17.4 17.3-17.4h340.2c9.5 0 17.3 7.8 17.3 17.4 0 9.6-7.8 17.4-17.3 17.4z"/>
				<g id="&lt;Group&gt;">
					<path id="&lt;Compound Path&gt;" class="s2" d="m844.2 758.7l5.2 2.8-2.4 3.9-5.2-3.1 0.1 5.8h-4.5l0.1-5.8-5.2 3.1-2.3-3.9 5.2-2.8-5.2-2.8 2.3-3.9 5.2 3.1-0.1-5.8h4.5l-0.1 5.8 5.2-3.1 2.4 3.9z"/>
					<path id="&lt;Compound Path&gt;" class="s2" d="m865.8 758.7l5.1 2.8-2.3 3.9-5.2-3.1 0.1 5.8h-4.5l0.1-5.8-5.3 3.1-2.2-3.9 5.1-2.8-5.1-2.8 2.2-3.9 5.3 3.1-0.1-5.8h4.5l-0.1 5.8 5.2-3.1 2.3 3.9z"/>
					<path id="&lt;Compound Path&gt;" class="s2" d="m887.3 758.7l5.2 2.8-2.3 3.9-5.3-3.1 0.1 5.8h-4.4v-5.8l-5.2 3.1-2.3-3.9 5.2-2.8-5.2-2.8 2.3-3.9 5.2 3.1v-5.8h4.4l-0.1 5.8 5.3-3.1 2.3 3.9z"/>
					<path id="&lt;Compound Path&gt;" class="s2" d="m908.9 758.7l5.2 2.8-2.4 3.9-5.2-3.1 0.1 5.8h-4.5l0.1-5.8-5.2 3.1-2.3-3.9 5.2-2.8-5.2-2.8 2.3-3.9 5.2 3.1-0.1-5.8h4.5l-0.1 5.8 5.2-3.1 2.4 3.9z"/>
					<path id="&lt;Compound Path&gt;" class="s2" d="m930.4 758.7l5.2 2.8-2.3 3.9-5.2-3.1 0.1 5.8h-4.5v-5.8l-5.2 3.1-2.3-3.9 5.2-2.8-5.2-2.8 2.3-3.9 5.2 3.1v-5.8h4.5l-0.1 5.8 5.2-3.1 2.3 3.9z"/>
					<path id="&lt;Compound Path&gt;" class="s2" d="m952 758.7l5.2 2.8-2.4 3.9-5.2-3.1 0.1 5.8h-4.4v-5.8l-5.2 3.1-2.3-3.9 5.2-2.8-5.2-2.8 2.3-3.9 5.2 3.1v-5.8h4.4l-0.1 5.8 5.2-3.1 2.4 3.9z"/>
					<path id="&lt;Compound Path&gt;" class="s2" d="m973.6 758.7l5.1 2.8-2.3 3.9-5.2-3.1 0.1 5.8h-4.5l0.1-5.8-5.3 3.1-2.2-3.9 5.1-2.8-5.1-2.8 2.2-3.9 5.3 3.1-0.1-5.8h4.5l-0.1 5.8 5.2-3.1 2.3 3.9z"/>
					<path id="&lt;Compound Path&gt;" class="s2" d="m995.1 758.7l5.2 2.8-2.3 3.9-5.3-3.1 0.1 5.8h-4.4v-5.8l-5.2 3.1-2.3-3.9 5.2-2.8-5.2-2.8 2.3-3.9 5.2 3.1v-5.8h4.4l-0.1 5.8 5.3-3.1 2.3 3.9z"/>
					<path id="&lt;Compound Path&gt;" class="s2" d="m1016.7 758.7l5.2 2.8-2.4 3.9-5.2-3.1 0.1 5.8h-4.5l0.1-5.8-5.2 3.1-2.3-3.9 5.2-2.8-5.2-2.8 2.3-3.9 5.2 3.1-0.1-5.8h4.5l-0.1 5.8 5.2-3.1 2.4 3.9z"/>
					<path id="&lt;Compound Path&gt;" class="s2" d="m1038.2 758.7l5.2 2.8-2.3 3.9-5.2-3.1 0.1 5.8h-4.5l0.1-5.8-5.3 3.1-2.3-3.9 5.2-2.8-5.2-2.8 2.3-3.9 5.3 3.1-0.1-5.8h4.5l-0.1 5.8 5.2-3.1 2.3 3.9z"/>
					<path id="&lt;Compound Path&gt;" class="s2" d="m1059.8 758.7l5.2 2.8-2.3 3.9-5.3-3.1 0.1 5.8h-4.4v-5.8l-5.2 3.1-2.3-3.9 5.2-2.8-5.2-2.8 2.3-3.9 5.2 3.1v-5.8h4.4l-0.1 5.8 5.3-3.1 2.3 3.9z"/>
					<path id="&lt;Compound Path&gt;" class="s2" d="m1081.4 758.7l5.1 2.8-2.3 3.9-5.2-3.1 0.1 5.8h-4.5l0.1-5.8-5.3 3.1-2.2-3.9 5.1-2.8-5.1-2.8 2.2-3.9 5.3 3.1-0.1-5.8h4.5l-0.1 5.8 5.2-3.1 2.3 3.9z"/>
					<path id="&lt;Compound Path&gt;" class="s2" d="m1102.9 758.7l5.2 2.8-2.3 3.9-5.2-3.1 0.1 5.8h-4.5v-5.8l-5.2 3.1-2.3-3.9 5.2-2.8-5.2-2.8 2.3-3.9 5.2 3.1v-5.8h4.5l-0.1 5.8 5.2-3.1 2.3 3.9z"/>
					<path id="&lt;Compound Path&gt;" class="s2" d="m1124.5 758.7l5.2 2.8-2.4 3.9-5.2-3.1 0.1 5.8h-4.4v-5.8l-5.2 3.1-2.3-3.9 5.2-2.8-5.2-2.8 2.3-3.9 5.2 3.1v-5.8h4.4l-0.1 5.8 5.2-3.1 2.4 3.9z"/>
					<path id="&lt;Compound Path&gt;" class="s2" d="m1146.1 758.7l5.1 2.8-2.3 3.9-5.2-3.1 0.1 5.8h-4.5l0.1-5.8-5.3 3.1-2.2-3.9 5.1-2.8-5.1-2.8 2.2-3.9 5.3 3.1-0.1-5.8h4.5l-0.1 5.8 5.2-3.1 2.3 3.9z"/>
				</g>
			</g>
			<g id="&lt;Group&gt;" style="mix-blend-mode: soft-light">
				<path id="&lt;Path&gt;" class="s3" d="m815.1 904.5h-175.5l-197.9-614.6h175.5z"/>
				<path id="&lt;Path&gt;" class="s3" d="m915 904.5h-52.4l-198-614.6h52.4z"/>
				<path id="&lt;Path&gt;" class="s3" d="m1329.4 904.5h-175.5l-198-614.6h175.6z"/>
				<path id="&lt;Path&gt;" class="s3" d="m1408.8 841v4.8c0 23.5-13.8 43.8-33.7 53.1l-196.2-609h52.4z"/>
			</g>
		</g>
		<g id="&lt;Group&gt;">
			<g id="&lt;Group&gt;">
				<g id="&lt;Group&gt;">
					<path id="&lt;Path&gt;" class="s1" d="m181.6 502.5l23.9 2.3c1.7 0.2 3.2-0.6 4-2l2.2-3.9-35-3.3 1.4 4.2c0.6 1.5 1.9 2.6 3.5 2.7z"/>
					<path id="&lt;Compound Path&gt;" fill-rule="evenodd" class="s2" d="m205.9 506.3q-0.2 0-0.5 0l-23.9-2.3c-2.2-0.2-4.1-1.6-4.8-3.7l-2.2-6.5 39.7 3.8-3.4 5.9c-1 1.8-2.9 2.8-4.9 2.8zm-27.1-9l0.7 2c0.4 1 1.3 1.7 2.3 1.7l23.9 2.3c1 0.1 2-0.4 2.5-1.3l1.1-1.8z"/>
				</g>
				<g id="&lt;Group&gt;">
					<g id="&lt;Group&gt;">
						<path id="&lt;Path&gt;" class="s1" d="m159.9 435l79.7 7.6-3.1 33.6c-0.3 3.1-1.8 6.1-4.1 8.3l-11.1 10.7c-2.8 2.6-6.6 4-10.4 3.6l-33.4-3.2c-3.8-0.3-7.3-2.4-9.5-5.5l-9-12.6c-1.8-2.6-2.6-5.8-2.3-8.9z"/>
						<path id="&lt;Compound Path&gt;" fill-rule="evenodd" class="s2" d="m212.1 500.4q-0.7 0-1.4-0.1l-33.3-3.2c-4.3-0.4-8.2-2.6-10.7-6.1l-8.9-12.6c-2-2.9-3-6.4-2.6-9.9l3.3-35.1 82.8 7.8-3.4 35.1c-0.3 3.5-1.9 6.8-4.4 9.3l-11.1 10.7c-2.8 2.6-6.5 4.1-10.3 4.1zm-50.9-63.8l-3 32.1c-0.3 2.8 0.4 5.6 2.1 7.9l8.9 12.6c2 2.8 5 4.6 8.5 4.9l33.3 3.2c3.4 0.3 6.8-0.8 9.3-3.2l11.1-10.7c2-2 3.3-4.6 3.6-7.4l3-32.1z"/>
					</g>
					<g id="&lt;Group&gt;">
						<path id="&lt;Path&gt;" class="s3" d="m126 359.1c-36.3-65.9 25.2-151.5 99.1-138.2 48.2 6.9 83.4 48.9 82.1 97.3-0.4 20.4-7.6 40.6-20.3 56.6-21.2 27.2-35 27.1-41.1 61.6-0.6 3.8-4.1 6.4-7.9 6q-38.7 1.7-76.6-7.3c-3.8-0.3-6.7-3.5-6.6-7.4 0.5-35-12.6-37.2-28.4-68.1q-0.2-0.3-0.3-0.5z"/>
						<path id="&lt;Compound Path&gt;" fill-rule="evenodd" class="s2" d="m225.9 444.2c-21.7 0-43.5-2.6-64.8-7.6-4.5-0.5-8-4.4-7.9-8.9 0.3-23.3-5.5-31.7-14.2-44.5-4.2-6.1-9-13-14.1-22.9l-0.2-0.5c-17.1-31-13.9-69.4 8.3-100.4 22.2-30.9 57.6-46.3 92.4-40 48.8 7 84.7 49.5 83.3 98.8-0.4 20.8-7.8 41.3-20.6 57.5-6.9 8.9-13 14.9-18.4 20.1-11 10.8-18.3 18-22.4 40.9-0.8 4.4-4.9 7.6-9.4 7.2q-6 0.3-12 0.3zm-15.9-223.2c-28.6 0-56.2 14.6-74.6 40.2-21.5 30-24.6 67.2-8.1 97.1l0.3 0.6c5 9.8 9.7 16.6 13.9 22.6 8.7 12.8 15 21.9 14.7 46.3-0.1 3 2.3 5.6 5.3 5.8l0.2 0.1c25 5.9 50.7 8.3 76.1 7.2h0.2 0.1c3 0.3 5.7-1.8 6.2-4.8 4.3-23.8 12.3-31.6 23.3-42.4 5.3-5.2 11.3-11.1 18.1-19.8 12.5-15.8 19.6-35.6 20-55.8 1.3-47.8-33.4-89-80.8-95.8q-7.4-1.3-14.9-1.3z"/>
					</g>
					<g id="&lt;Group&gt;">
						<path id="&lt;Compound Path&gt;" fill-rule="evenodd" class="s2" d="m214.3 442.8l-3-0.3c0.3-3 5.6-56.7 15.3-87.2-6.7 0.3-15.3-0.3-26.3-2.6q-5.1-1.1-9.3-2.3c0.7 4.2 1.1 9.2 1 15-1 62.3-2.4 74.6-2.5 75.1l-2.9-0.3c0-0.1 1.4-12.9 2.4-74.8 0.1-6.4-0.3-11.7-1.2-16-15.3-5.2-20.4-12-19.7-16.9 0.5-3.2 3.3-5.2 7-4.9 4.8 0.4 12.1 5.2 15.3 19.4q4.6 1.5 10.5 2.7c11 2.3 19.8 3 26.7 2.5 2.7-7.7 5.7-13.5 9-16.2 4.8-3.8 9.1-3.1 11.5-1.3 2.8 2.3 3.5 6.3 1.8 10-1.2 2.6-5.7 8.9-20.2 10.4-9.7 29.9-15.3 86.9-15.4 87.7zm29.3-106.6c-1.5 0-3.3 0.8-5.1 2.2-2.8 2.2-5.4 7-7.7 13.5 9.3-1.1 14.5-4.5 16.4-8.5 1.1-2.4 0.7-5-1-6.3q-1.1-0.9-2.6-0.9zm-69.2-5.6c-1.8 0-3.1 0.9-3.3 2.4-0.5 3.1 3.7 8.4 15.9 12.9-3-11.2-8.6-15-12.1-15.3q-0.2 0-0.5 0z"/>
					</g>
					<g id="&lt;Group&gt;">
						<path id="&lt;Path&gt;" class="s3" d="m242.3 462.4q-0.2 0-0.3 0l-87.5-19.5c-0.8-0.2-1.3-1-1.1-1.8 0.2-0.8 1-1.3 1.8-1.1l87.4 19.4c0.8 0.2 1.3 1 1.2 1.8-0.2 0.7-0.8 1.2-1.5 1.2z"/>
					</g>
					<g id="&lt;Group&gt;">
						<path id="&lt;Path&gt;" class="s3" d="m241.4 471.5q-0.1 0-0.3 0l-87.4-19.5c-0.8-0.2-1.3-1-1.2-1.8 0.2-0.8 1-1.3 1.8-1.1l87.5 19.4c0.8 0.2 1.3 1 1.1 1.8-0.2 0.7-0.8 1.2-1.5 1.2z"/>
					</g>
					<g id="&lt;Group&gt;">
						<path id="&lt;Path&gt;" class="s3" d="m240.6 480.6q-0.2 0-0.4 0l-87.4-19.5c-0.8-0.2-1.3-1-1.1-1.8 0.2-0.8 1-1.3 1.8-1.1l87.4 19.5c0.8 0.1 1.3 0.9 1.1 1.7-0.1 0.7-0.8 1.2-1.4 1.2z"/>
					</g>
					<g id="&lt;Group&gt;">
						<path id="&lt;Path&gt;" class="s3" d="m235.6 488.8q-0.2 0-0.3 0l-83.4-18.6c-0.8-0.2-1.3-1-1.1-1.8 0.2-0.8 1-1.3 1.8-1.1l83.3 18.5c0.8 0.2 1.3 1 1.1 1.8-0.1 0.7-0.7 1.2-1.4 1.2z"/>
					</g>
				</g>
			</g>
			<g id="&lt;Group&gt;">
				<path id="&lt;Path&gt;" class="s2" d="m354 330.8l-30.7-3 0.3-2.9 30.7 2.9z"/>
				<path id="&lt;Path&gt;" class="s2" d="m314.4 270.3l-1.3-2.7 28.1-12.9 1.3 2.8z"/>
				<path id="&lt;Path&gt;" class="s2" d="m277.9 224.9l-2.5-1.7 18-25.2 2.4 1.7z"/>
				<path id="&lt;Path&gt;" class="s2" d="m223.6 203.9l-3-0.3 2.9-30.8 3 0.3z"/>
				<path id="&lt;Path&gt;" class="s2" d="m163.3 214l-12.8-28.1 2.7-1.2 12.9 28.1z"/>
				<path id="&lt;Path&gt;" class="s2" d="m118.9 251.7l-25.1-17.9 1.7-2.4 25.2 17.9z"/>
				<path id="&lt;Path&gt;" class="s2" d="m99.3 306.5l-30.7-2.9 0.3-3 30.7 3z"/>
			</g>
		</g>
		<g id="&lt;Clip Group&gt;" clip-path="url(#cp1)">
			<g id="&lt;Group&gt;">
				<g id="&lt;Group&gt;">
					<g id="&lt;Group&gt;">
						<path id="&lt;Path&gt;" class="s1" d="m420.7 700.5q1.6 0.4 3 0.8 1.5 0.4 3 0.9 3.6 1.2 6.8 2.9 0.5 0.2 1 0.5 0.6 0.3 1.2 0.7 0.6 0.4 1.1 0.7 0 0 0 0 0.6 0.4 1.1 0.8 3.3 2.3 5.7 5.3 0.4 0.5 0.7 1 2.3 3.1 3.8 6.9 0.2 0.4 0.3 0.8 0.2 0.4 0.3 0.9 0.2 0.6 0.4 1.2 0.3 1.2 0.6 2.5 0.1 0.6 0.2 1.2 0.1 0.6 0.2 1.2 0.1 0.6 0.2 1.2c1.9 16.4 14.5 24.2 18.5 40.4q0.6 2 0.9 4.2c3.5 24.9-3.6 29-9.9 49.7-2.2 7.2 5 32.3 13.8 58.4 3.3 0.7 6.6 1.2 9.7 1.6 6.9 0.8 13.4 1.1 19.7 1 12.7-0.1 14.3-59.2 5.9-61.3-4.3-1-8.2-2.3-11.7-3.7-0.9-0.4-1.8-0.7-2.6-1.1q-1.2-0.5-2.4-1.1l-2-1.1c-0.8-0.4-1.2-0.8-1.8-1.2-2.3-1.5-3.4-6.8-3.4-6.8l-0.8-2.7-0.4-1.3c-0.1-0.5-0.2-1-0.3-1.6l-0.7-3-0.7-3-0.6-3.2c-0.4-2.2-0.8-4.3-1.2-6.6-0.4-2.8-1.3-10.2-2.3-20.5-0.6-5.8-1.2-12.6-1.9-20-2.1-22-18.1-38.9-43.5-44.5 0 0-4.8-1-11.9-2.1z"/>
						<path id="&lt;Compound Path&gt;" fill-rule="evenodd" class="s2" d="m500.7 886.9c-5.9 0-11.8-0.4-17.6-1.1-2.8-0.3-6.1-0.9-9.8-1.6l-0.8-0.2-0.3-0.8c-11.3-33.4-15.9-52.8-13.9-59.3 1.8-5.9 3.7-10.5 5.4-14.5 4.2-10.3 6.9-17.1 4.5-34.6-0.2-1.4-0.5-2.7-0.8-4.1-1.8-7.2-5.5-12.8-9-18.2-4.2-6.5-8.5-13.2-9.6-22.3q-0.1-0.6-0.2-1.2-0.1-0.6-0.2-1.1-0.1-0.6-0.2-1.1c-0.2-0.9-0.4-1.7-0.6-2.5q-0.1-0.6-0.3-1.1c-0.1-0.4-0.2-0.6-0.3-0.9q-0.1-0.3-0.3-0.7-1.4-3.7-3.6-6.7-0.3-0.4-0.6-0.8-2.4-2.9-5.5-5.1l-1-0.7q-0.5-0.4-1.1-0.7c-0.4-0.3-0.7-0.5-1.1-0.7q-0.5-0.3-1-0.5c-2-1.1-4.2-2-6.6-2.8q-1.4-0.4-2.9-0.9-1.4-0.3-2.9-0.7l0.6-2.9c7 1 11.9 2.1 11.9 2.1 25.8 5.6 42.5 22.7 44.7 45.8 0.7 7.4 1.3 14.2 1.9 20 1.1 11.1 1.9 17.8 2.3 20.4 0.2 1.4 0.5 2.7 0.7 3.9q0.3 1.3 0.5 2.6l0.6 3.2 1.4 6q0 0.4 0.1 0.7 0.1 0.4 0.2 0.8l1.1 4c0.5 2.1 1.6 5.2 2.8 6 0.2 0.1 0.4 0.3 0.7 0.5 0.3 0.2 0.6 0.4 0.9 0.5l2.2 1.2c0.7 0.3 1.5 0.7 2.3 1.1q0.7 0.3 1.4 0.6 0.6 0.2 1 0.4c4 1.5 7.7 2.7 11.5 3.6 7.1 1.8 7.1 27 5.5 40-1.1 9.1-4 24.3-11.7 24.3q-1.1 0.1-2.3 0.1zm-26-5.5c3.3 0.6 6.2 1.1 8.8 1.4 6.4 0.8 12.9 1.2 19.5 1 3.7 0 7.2-8.5 8.7-21.6 2.4-19.3-0.3-36-3.2-36.8-3.9-0.9-7.8-2.1-11.9-3.7q-0.5-0.2-0.9-0.4c-0.6-0.2-1.2-0.5-1.8-0.7q-1.1-0.6-2.3-1.1l-2.2-1.2c-0.5-0.2-0.9-0.5-1.3-0.8q-0.2-0.2-0.5-0.4c-2.7-1.9-3.9-7.2-4.1-7.8l-1.1-3.9q-0.1-0.5-0.2-1-0.1-0.3-0.2-0.6l-1.3-6-0.7-3.4q-0.2-1.3-0.4-2.5c-0.3-1.3-0.5-2.6-0.7-4-0.5-2.7-1.3-9.4-2.4-20.6-0.6-5.8-1.2-12.6-1.9-20.1-1.9-20.3-15.9-35.7-37.8-42q0.2 0.2 0.5 0.3h0.1l0.4 0.4 1 0.6q3.5 2.6 6 5.7 0.4 0.5 0.8 1c1.6 2.2 2.9 4.7 3.9 7.3q0.2 0.4 0.3 0.8 0.2 0.5 0.3 1c0.2 0.3 0.3 0.8 0.4 1.2q0.4 1.3 0.6 2.6 0.2 0.6 0.3 1.3 0.1 0.5 0.2 1.2 0.1 0.6 0.2 1.3c1 8.4 4.9 14.5 9.1 20.9 3.7 5.7 7.5 11.5 9.4 19.2 0.4 1.4 0.7 2.9 0.9 4.4 2.5 18.3-0.5 25.8-4.8 36.1-1.6 4-3.4 8.5-5.2 14.3-1.2 3.9 0.2 16.9 13.5 56.6z"/>
					</g>
					<g id="&lt;Group&gt;">
						<path id="&lt;Path&gt;" class="s1" d="m279.7 809.2l0.2 3.8 3.9 62.7 1.7 89 213.6-13.2c0 0-14.1-35.2-25.5-68.8-8.8-26.1-16-51.2-13.8-58.4 6.3-20.7 13.4-24.8 9.9-49.7q-0.3-2.2-0.9-4.2c-4-16.2-16.6-24-18.5-40.4-2.1-17.1-12.9-25.6-29.6-29.5-8.6-1.9-18.6-2.7-29.8-2.8q-1.1 0-2.2 0-0.7 0-1.4 0-4.5 0.1-9.3 0.2 0 0-1.3 0.1c-1.9 0.2-6.1 0.6-11.8 1.5q-0.2 0.1-0.3 0.1c-85.7 0.5-88.2 56.3-84.9 109.6z"/>
						<path id="&lt;Compound Path&gt;" fill-rule="evenodd" class="s2" d="m284 966.3l-1.7-90.5-4.1-66.5c-1.9-31.1-2.3-66.2 18.4-88.3 14.2-15.2 36.4-22.7 67.8-22.9q0.1 0 0.3 0c4.1-0.7 8.1-1.3 11.9-1.6l1.3-0.1q4.7-0.1 9.4-0.2c1.2 0 2.4 0 3.6 0 12.3 0.1 22.1 1 30.1 2.9 19 4.3 28.8 14.1 30.7 30.7 1.1 8.5 5 14.6 9.2 21 3.7 5.7 7.5 11.5 9.4 19.2 0.4 1.4 0.7 2.9 0.9 4.4 2.5 18.3-0.5 25.8-4.8 36.1-1.6 4-3.4 8.5-5.2 14.3-1.2 3.9 0.2 17.1 13.8 57.4 11.3 33.2 25.3 68.4 25.4 68.7l0.8 1.9zm104.7-267.1q-0.7 0-1.4 0c-3.1 0-6.2 0.1-9.2 0.2l-1.3 0.1c-3.6 0.3-7.6 0.8-11.7 1.5l-0.5 0.1c-30.7 0.2-52.2 7.3-65.8 21.9-19.9 21.2-19.5 55.6-17.6 86.2l0.2 3.7 3.9 62.7 1.7 87.5 209.9-13c-3.1-7.8-15-38.1-24.7-66.9-11.3-33.4-15.9-52.8-13.9-59.3 1.8-5.9 3.7-10.5 5.3-14.5 4.3-10.3 7-17.1 4.6-34.6-0.2-1.4-0.5-2.7-0.8-4.1-1.8-7.2-5.5-12.8-9-18.2-4.2-6.5-8.6-13.2-9.6-22.3-1.8-15.2-10.9-24.2-28.5-28.2-7.7-1.8-17.4-2.7-29.4-2.8q-1.1 0-2.2 0z"/>
					</g>
					<g id="&lt;Group&gt;">
						<g id="&lt;Group&gt;">
							<path id="&lt;Path&gt;" class="s3" d="m360.2 654.1l55.2 9.5-7.3 20.9v0.1l-2.1 5.8-1.9 5.5-0.4 1.2-2.3 5c0 0-2.1 8.7-19.5 8.7-17.4 0-23.6-8.6-23.6-8.6z"/>
							<path id="&lt;Compound Path&gt;" fill-rule="evenodd" class="s2" d="m381.9 712.3c-18 0-24.5-8.8-24.8-9.2l-0.3-0.4 1.9-50.4 58.7 10.1-12.3 35.2-2.3 5c-0.4 1.3-3.6 9.7-20.9 9.7zm-22.1-10.6c1.4 1.6 7.8 7.6 22.1 7.6 15.8 0 18-7.3 18.1-7.6l0.1-0.2 2.2-5.1 11.1-31.6-51.8-8.9z"/>
						</g>
						<g id="&lt;Group&gt;">
							<path id="&lt;Path&gt;" class="s3" d="m358.4 637.2c-1.2 26 13 47.4 37.9 54.8 19.1 5.7 33.8-2.3 56.1-50.4 10.9-23.6-18.9-48-44.8-49.2-26-1.2-48 18.9-49.2 44.8z"/>
							<path id="&lt;Compound Path&gt;" fill-rule="evenodd" class="s2" d="m406.3 695.1c-3.4 0-6.8-0.6-10.4-1.6-25.3-7.6-40.3-29.2-39-56.4 1.2-26.7 24-47.4 50.8-46.2 17.1 0.8 35.6 11.4 43.9 25.1 5.3 8.7 6 17.8 2.1 26.3-18.9 40.9-32.7 52.8-47.4 52.8zm-46.4-57.8c-1.2 25.7 12.9 46.1 36.9 53.3 17.4 5.2 31.9-1.3 54.2-49.6 4.4-9.5 1.3-18-2-23.5-7.8-12.9-25.3-22.8-41.5-23.6-25.1-1.2-46.4 18.3-47.6 43.4z"/>
						</g>
						<path id="&lt;Path&gt;" class="s2" d="m399.5 705.2c0 0 1.3-1.1 1.9-3.1 0.8-2.2 3.9-8.6 3.9-8.6 0 0-29.8-3.5-36.7-23.4 0 0-5.3 24.6 30.9 35.1z"/>
						<path id="&lt;Path&gt;" class="s2" d="m357.6 626.2c0 0 58.6 19.5 90.1-12 0 0-20 22.7-33.8 20.3 0 0 19.6 6.1 33.8-16.2 0 0 3.9 20.5 14.1 24.7 0 0 9.3-57.2-39.9-64.3-49.3-7.1-61.9 24.9-64.3 47.5z"/>
						<path id="&lt;Path&gt;" class="s2" d="m462.4 636.4c0 0-2.2 25.7-12.8 33.7-10.6 8-11.8 12.3-11.8 12.3 0 0-0.6-4.9 6.5-24.5 7.2-19.6 1.8-35.4 3.4-43.7 1.5-8.3 16.3 12.1 14.7 22.2z"/>
						<path id="&lt;Path&gt;" class="s2" d="m415.4 630.5c0 0-4.2 2-19.4 4-15.2 1.9-13.9 12.9-13.6 17.1 0.3 4.1-5.2-6.5 0-17.5 5.2-11.1 4.4-15.2 4.4-15.2z"/>
						<path id="&lt;Path&gt;" class="s2" d="m386.8 630.3c0 0-16.6 5.5-16.6 25.5-0.1 20.1 13.4 58.9-1.9 66.9 0 0 11.3-12.2-1.6-32-12.9-19.7-15.5-59.4-3.8-85.2 11.7-25.8 23.9 24.8 23.9 24.8z"/>
						<path id="&lt;Path&gt;" class="s2" d="m386.8 581.5c0 0 5-20.1-24.6-23.5-29.7-3.4-25.9 69.2-46.8 72.3 0 0 2 11.9 21.3-5.4 19.3-17.3 23.6-49.4 40.7-39.1 17.1 10.2 9.4-4.3 9.4-4.3z"/>
					</g>
					<path id="&lt;Path&gt;" class="s2" d="m349.9 788.9c0 0 5.5 58 61.1 82.7 0 0-43.5-7-55.9-33.2-12.3-26.2-5.2-49.5-5.2-49.5z"/>
					<g id="&lt;Group&gt;">
						<path id="&lt;Path&gt;" class="s2" d="m405.7 909.9l-1.3-0.1c-3.5-0.2-85.6-5.4-109.6-52.3-23.8-46.6-14.8-102.1-14.7-102.7l3 0.5c-0.1 0.6-8.9 55.2 14.4 100.8 21.5 42.2 94.9 49.7 105.8 50.6l5.9-33.8c-6.9-1-34.2-6.1-50.7-26.8-10.2-12.9-14.1-29.3-11.6-48.8l3 0.4c-2.4 18.6 1.3 34.3 11 46.5 17.7 22.4 49.9 25.9 50.2 25.9l1.6 0.2z"/>
					</g>
					<path id="&lt;Path&gt;" class="s2" d="m404.5 908.3c0 0-112.2 16-122.8-46.4 0 0-3.7-71.1-1.9-70.4 1.4 0.6 1.2 69.5 43.5 93.2 42.3 23.6 81.2 23.6 81.2 23.6z"/>
				</g>
				<g id="&lt;Group&gt;">
					<g id="&lt;Group&gt;">
						<path id="&lt;Path&gt;" class="s3" d="m488 908.4l-83.5-0.1c1.7 0 3.3 0.6 4.5 1.6 1.2 1 1.9 2.3 1.9 3.8 0 2.9-2.9 5.4-6.4 5.3l171.6 0.2c3.6 0 6.4-2.5 6.4-5.4 0-1.5-0.7-2.8-1.8-3.8-1.2-1-2.8-1.6-4.5-1.6z"/>
						<path id="&lt;Compound Path&gt;" fill-rule="evenodd" class="s2" d="m576.2 920.7q-0.1 0-0.1 0l-171.6-0.2q0 0 0 0v-3q0 0 0 0c1.3 0 2.6-0.4 3.5-1.2 0.9-0.7 1.4-1.6 1.4-2.6 0-1-0.5-1.9-1.3-2.6-1-0.8-2.2-1.3-3.6-1.3v-3q0 0 0 0l171.7 0.1c2 0 4 0.7 5.4 2 1.6 1.3 2.4 3 2.4 4.9 0 1.9-0.8 3.6-2.4 4.9-1.5 1.3-3.4 2-5.4 2zm-165.2-3.1l165.1 0.1q0 0 0 0c1.4 0 2.6-0.5 3.6-1.3 0.9-0.7 1.3-1.6 1.3-2.6 0-1-0.4-1.9-1.3-2.6-0.9-0.8-2.2-1.3-3.6-1.3l-165.1-0.1c0.9 1.1 1.4 2.5 1.4 3.9 0 1.4-0.5 2.7-1.4 3.9z"/>
					</g>
					<g id="&lt;Group&gt;">
						<path id="&lt;Path&gt;" class="s3" d="m310.9 908.3c-2.9 0-5.3 2.4-5.3 5.3 0 1.5 0.5 2.8 1.5 3.8 1 1 2.4 1.6 3.8 1.6h94.7c2.9 0.1 5.3-2.4 5.4-5.3 0-1.5-0.6-2.8-1.6-3.8-1-1-2.3-1.6-3.8-1.6h-92.7z"/>
						<path id="&lt;Compound Path&gt;" fill-rule="evenodd" class="s2" d="m405.6 920.6q0 0 0 0l-94.7-0.1c-1.8 0-3.5-0.7-4.8-2-1.3-1.3-2-3.1-2-4.9 0-1.8 0.7-3.5 2-4.8 1.3-1.3 3-2 4.8-2q0 0 0 0h94.7c1.8 0 3.5 0.7 4.8 2 1.3 1.3 2.1 3 2.1 4.9 0 1.8-0.8 3.5-2.1 4.8-1.3 1.3-3 2.1-4.8 2.1zm-94.7-10.8c-1 0-2 0.4-2.7 1.1-0.7 0.7-1.1 1.7-1.1 2.7 0 1 0.4 2 1.1 2.7 0.7 0.8 1.7 1.2 2.7 1.2l94.7 0.1q0 0 0 0c1 0 2-0.5 2.7-1.2 0.7-0.7 1.2-1.7 1.2-2.7 0-1-0.4-2-1.2-2.7-0.7-0.8-1.7-1.2-2.7-1.2h-94.7q0 0 0 0z"/>
					</g>
					<g id="&lt;Group&gt;">
						<path id="&lt;Path&gt;" class="s1" d="m399.9 905.5c1.5 1.8 3.6 2.8 5.9 2.8h6.8c-2.3 0-4.5-1-5.9-2.8-1.5-1.8-2-4.1-1.5-6.3l22.5-107.2c0.7-3.5 3.8-6 7.4-6h-6.8c-3.5 0-6.7 2.5-7.4 6l-22.5 107.2c-0.5 2.2 0.1 4.5 1.5 6.3z"/>
						<path id="&lt;Compound Path&gt;" fill-rule="evenodd" class="s2" d="m412.6 909.8h-6.8c-2.7 0-5.3-1.2-7-3.3-1.8-2.2-2.4-4.9-1.9-7.6l22.5-107.2c0.9-4.2 4.7-7.2 8.9-7.2q0 0 0 0h6.8q0 0 0 0v3q0 0 0 0c-2.9 0-5.4 2-6 4.8l-22.5 107.2c-0.3 1.8 0.1 3.6 1.3 5.1 1.1 1.4 2.8 2.2 4.7 2.2zm-11.5-5.2c1.2 1.4 2.9 2.2 4.7 2.2q-0.1-0.2-0.3-0.3c-1.7-2.2-2.4-4.9-1.8-7.6l22.5-107.2c0.3-1.6 1.1-3 2.2-4.2 0 0-0.1 0-0.1 0-2.8 0-5.3 2-5.9 4.8l-22.5 107.2c-0.4 1.8 0 3.6 1.2 5.1z"/>
					</g>
					<g id="&lt;Group&gt;">
						<path id="&lt;Path&gt;" class="s3" d="m406.7 905.5c1.4 1.8 3.6 2.8 5.9 2.8l162.9 0.1c3.5 0 6.6-2.5 7.4-6l22.5-107.1c0.4-2.3-0.1-4.6-1.6-6.4-1.4-1.8-3.5-2.8-5.8-2.8l-162.9-0.1c-3.6 0-6.7 2.5-7.4 6l-22.5 107.2c-0.5 2.2 0 4.5 1.5 6.3z"/>
						<path id="&lt;Compound Path&gt;" fill-rule="evenodd" class="s2" d="m575.5 909.9q0 0 0 0l-162.9-0.1c-2.8 0-5.3-1.2-7.1-3.3-1.7-2.2-2.4-4.9-1.8-7.6l22.5-107.2c0.9-4.2 4.6-7.2 8.9-7.2q0 0 0 0l162.9 0.1c2.7 0 5.3 1.2 7 3.4 1.7 2.1 2.4 4.9 1.9 7.6l-22.5 107.1c-0.9 4.2-4.7 7.2-8.9 7.2zm-167.6-5.3c1.1 1.4 2.8 2.2 4.7 2.2l162.9 0.1q0 0 0 0c2.8 0 5.3-2 5.9-4.8l22.5-107.2c0.4-1.8-0.1-3.6-1.2-5-1.2-1.5-2.9-2.3-4.7-2.3l-162.9-0.1q0 0 0 0c-2.9 0-5.4 2-6 4.8l-22.5 107.2c-0.3 1.8 0.1 3.6 1.3 5.1z"/>
					</g>
					<g id="&lt;Group&gt;">
						<path id="&lt;Path&gt;" class="s1" d="m496.4 847.2c0 4.9 4 8.9 8.9 8.9 4.8 0 8.8-4 8.8-8.9 0-4.9-3.9-8.8-8.8-8.8-4.9 0-8.9 3.9-8.9 8.8z"/>
						<path id="&lt;Compound Path&gt;" fill-rule="evenodd" class="s2" d="m505.3 857.6q0 0 0 0c-2.8 0-5.4-1.1-7.3-3.1-2-1.9-3.1-4.5-3.1-7.3 0-2.7 1.1-5.3 3.1-7.3 1.9-1.9 4.5-3 7.3-3q0 0 0 0c2.7 0 5.3 1.1 7.3 3 1.9 2 3 4.6 3 7.3 0 5.7-4.6 10.4-10.3 10.4zm0-17.7c-4.1 0-7.4 3.3-7.4 7.3 0 4.1 3.3 7.4 7.4 7.4q0 0 0 0c4 0 7.3-3.3 7.3-7.4 0-4-3.3-7.3-7.3-7.3q0 0 0 0z"/>
					</g>
				</g>
				<g id="&lt;Group&gt;">
					<g id="&lt;Group&gt;">
						<g id="&lt;Group&gt;">
							<path id="&lt;Path&gt;" class="s3" d="m588.2 1198.7c0 0 3.5 21 10 21.5h-70.8l-1-21.5z"/>
							<path id="&lt;Compound Path&gt;" fill-rule="evenodd" class="s2" d="m598.2 1221.7h-72.3l-1.1-24.5h64.7l0.2 1.2c1.3 8.3 4.9 20 8.6 20.3zm-69.4-3h64.7c-3.7-4.9-5.8-14.5-6.5-18.5h-59z"/>
						</g>
						<g id="&lt;Group&gt;">
							<path id="&lt;Path&gt;" class="s1" d="m619.7 1225.6l-17-4.3c-3.6-0.9-6.7-3.1-8.7-6.3l-4-8.3-28.4 13.2-34.8-11.9 0.3 6 18.5 5.9h-18.5c-3.1 0-5.6 2.5-5.6 5.6v8.5c0 3.3 2.7 6 6 6h21.1l5.2-7.9 10.1 7.9h66.5c1.3 0 2.3-1.3 1.9-2.6-1.9-5.8-6.6-10.3-12.6-11.8z"/>
							<path id="&lt;Compound Path&gt;" fill-rule="evenodd" class="s2" d="m630.4 1241.5h-67.1l-9.1-7.2-4.7 7.2h-22c-4.1 0-7.5-3.4-7.5-7.5v-8.5c0-3.9 3.2-7.1 7.1-7.1h8.8l-10.3-3.3-0.4-9.2 36.3 12.4 29.2-13.6 4.6 9.6c1.8 2.8 4.5 4.7 7.7 5.6l17.1 4.3c6.5 1.6 11.6 6.4 13.6 12.8 0.3 1 0.1 2.2-0.5 3.1-0.7 0.8-1.7 1.4-2.8 1.4zm-66-3h66c0.2 0 0.3-0.2 0.4-0.2 0-0.1 0.1-0.2 0-0.4-1.7-5.4-6-9.4-11.5-10.8l-17-4.3c-4-1-7.4-3.5-9.6-7v-0.1l-3.4-7-27.6 12.8-33.3-11.3 0.1 2.7 26.8 8.5h-28.2c-2.2 0-4.1 1.8-4.1 4.1v8.5c0 2.5 2 4.5 4.5 4.5h20.3l5.7-8.6z"/>
						</g>
					</g>
					<g id="&lt;Group&gt;">
						<path id="&lt;Path&gt;" class="s3" d="m558.6 1036.3l34.5 162.4h-70l-56.7-171.6c0 0 20.3-9.3 49-21.4 28.7-12.2 35.9 12.6 43.2 30.6z"/>
						<path id="&lt;Compound Path&gt;" fill-rule="evenodd" class="s2" d="m594.9 1200.2h-72.9l-57.4-173.9 1.2-0.6c0.2-0.1 20.7-9.4 49-21.4 9.1-3.9 16.6-4.4 23-1.7 10.9 4.6 16.1 17.7 20.7 29.3q0.7 1.9 1.5 3.8l0.1 0.3zm-70.8-3h67.1l-34.1-160.4q-0.7-1.9-1.5-3.8c-4.3-11.1-9.3-23.5-19-27.6-5.7-2.4-12.4-1.9-20.7 1.6-24.4 10.4-42.9 18.7-47.7 20.9z"/>
					</g>
					<g id="&lt;Group&gt;">
						<path id="&lt;Path&gt;" class="s1" d="m594.8 1185.7h-75.7c-3.6 0-6.5 2.9-6.5 6.5 0 3.6 2.9 6.5 6.5 6.5h75.7c3.6 0 6.5-2.9 6.5-6.5 0-3.6-2.9-6.5-6.5-6.5z"/>
						<path id="&lt;Compound Path&gt;" fill-rule="evenodd" class="s2" d="m594.8 1200.2h-75.7c-4.4 0-8-3.6-8-8 0-4.4 3.6-8 8-8h75.7c4.4 0 8 3.6 8 8 0 4.4-3.6 8-8 8zm-75.7-13c-2.8 0-5 2.2-5 5 0 2.7 2.2 5 5 5h75.7c2.7 0 5-2.3 5-5 0-2.8-2.3-5-5-5z"/>
					</g>
					<path id="&lt;Path&gt;" class="s2" d="m508 1008.5l66.4 102.1-10.8-50.8z"/>
				</g>
				<g id="&lt;Group&gt;">
					<g id="&lt;Group&gt;">
						<path id="&lt;Path&gt;" class="s1" d="m417 1083.2h-345.7l169.3-61.9h345.7z"/>
						<path id="&lt;Compound Path&gt;" fill-rule="evenodd" class="s2" d="m417.3 1084.7h-354.5l177.5-64.9h354.5zm-337.5-3h337l161.1-59h-337z"/>
					</g>
					<g id="&lt;Group&gt;">
						<path id="&lt;Path&gt;" class="s2" d="m417 1401.7h-345.7l169.3-61.9h345.7z"/>
						<path id="&lt;Compound Path&gt;" fill-rule="evenodd" class="s2" d="m417.3 1403.2h-354.5l177.5-64.9h354.5zm-337.5-3h337l161.1-58.9h-337z"/>
					</g>
					<g id="&lt;Group&gt;">
						<path id="&lt;Path&gt;" class="s3" d="m71.3 1083.2v318.5h340.1v-318.5z"/>
						<path id="&lt;Compound Path&gt;" fill-rule="evenodd" class="s2" d="m412.9 1403.2h-343.1v-321.5h343.1zm-340.1-3h337.1v-315.6h-337.1z"/>
					</g>
					<g id="&lt;Group&gt;">
						<path id="&lt;Path&gt;" class="s0" d="m586.3 1021.3v318.5l-174.9 61.9v-318.5z"/>
						<path id="&lt;Compound Path&gt;" fill-rule="evenodd" class="s2" d="m409.9 1403.9v-321.8l1-0.3 176.9-62.7v321.8l-1 0.3zm3-319.6v315.4l171.9-60.9v-315.3z"/>
					</g>
				</g>
				<g id="&lt;Group&gt;">
					<g id="&lt;Group&gt;">
						<g id="&lt;Group&gt;">
							<path id="&lt;Path&gt;" class="s3" d="m705.3 1101.3c0 0 15.6 16.3 21.3 13.1l-59.2 39-12.6-17.5z"/>
							<path id="&lt;Compound Path&gt;" fill-rule="evenodd" class="s2" d="m667 1155.4l-14.3-19.8 52.8-36.3 0.8 0.9c6 6.3 16.3 14.7 19.5 12.9l1.6 2.6zm-10.1-19.1l10.8 15 54.1-35.6c-6.1-2.1-13.7-9.4-16.8-12.5z"/>
						</g>
						<g id="&lt;Group&gt;">
							<path id="&lt;Path&gt;" class="s1" d="m747.5 1107.2l-16.6 5.7c-3.5 1.2-7.3 1.1-10.7-0.5l-7.9-4.7-16.5 26.6-35.5 9.2 3.5 4.9 18.7-5.3-15.5 10.2c-2.5 1.7-3.3 5.1-1.6 7.7l4.7 7.1c1.8 2.8 5.5 3.5 8.3 1.7l17.6-11.6 0.1-9.4 12.7 1 55.6-36.6c1.1-0.7 1.1-2.2 0.1-3.1-4.8-3.8-11.2-4.9-17-2.9z"/>
							<path id="&lt;Compound Path&gt;" fill-rule="evenodd" class="s2" d="m675.1 1172.3c-2.4 0-4.8-1.2-6.2-3.4l-4.7-7.1c-1.1-1.5-1.4-3.4-1-5.3 0.3-1.8 1.4-3.4 3-4.5l7.4-4.8-10.4 2.9-5.4-7.5 37.1-9.6 16.9-27.4 9.1 5.5c3 1.3 6.4 1.5 9.5 0.4l16.6-5.8c6.4-2.2 13.3-0.9 18.5 3.3 0.8 0.7 1.3 1.7 1.2 2.8 0 1.1-0.6 2.1-1.5 2.7l-56.1 36.9-11.5-1-0.1 8.6-18.3 12.1c-1.3 0.8-2.7 1.2-4.1 1.2zm16.3-33.3l-23.5 15.5c-1 0.6-1.6 1.5-1.8 2.6-0.2 1.1 0 2.2 0.6 3.1l4.7 7.1c1.3 2.1 4.1 2.6 6.1 1.3l17-11.2 0.1-10.2 13.8 1.1 55.1-36.3c0.2-0.1 0.2-0.3 0.2-0.3 0-0.1 0-0.3-0.1-0.4-4.4-3.6-10.2-4.6-15.6-2.7l-16.6 5.7c-3.9 1.4-8 1.2-11.8-0.5l-0.1-0.1-6.7-4-16 25.9-34 8.8 1.6 2.2z"/>
						</g>
					</g>
					<g id="&lt;Group&gt;">
						<path id="&lt;Path&gt;" class="s3" d="m287.5 992.8h0.1c8.3 48.3 32.4 60.1 96.1 52.7 80-9.2 124.3-37 124.3-37l138.8 128 59.3-42c0 0-35.9-45.6-82.7-102-49.6-59.6-60.2-92.9-153.8-70.5-57.7 13.9-102.1 14.7-143.9 24.2-24.2 5.5-39.6 9.4-39.6 9.4-1.1 12.3-0.7 25 1.4 37.2z"/>
						<path id="&lt;Compound Path&gt;" fill-rule="evenodd" class="s2" d="m646.7 1138.5l-0.9-0.9-138-127.2c-7 4-51 28.2-123.9 36.6-11.3 1.3-21.4 2-30.4 2-42.6 0-60.1-15.5-67.2-54.7l-0.2-1.3c-2.2-12.2-2.7-24.9-1.5-37.6l0.1-1 1-0.3c0.2 0 15.8-3.9 39.6-9.4h0.2c18.7-4.2 38-6.8 58.4-9.5 25.1-3.2 53.5-7 85.4-14.6 82.8-19.9 101.4 3.5 138.3 50 5.3 6.7 10.8 13.6 16.9 21 46.4 55.7 82.4 101.5 82.8 102l1 1.2zm-138.5-131.8l0.9 0.7 137.8 127.3 57.1-40.5c-6.1-7.6-39.7-50.1-81.8-100.7-6.1-7.4-11.6-14.3-16.9-21-36.2-45.5-54.3-68.3-135.3-48.9-32.1 7.6-60.5 11.4-85.7 14.7-20.4 2.6-39.7 5.2-58.3 9.4l-0.1 0.1c-20.3 4.6-34.5 8.1-38.4 9-1 11.6-0.5 23.2 1.3 34.5l0.2 1.3c8.2 46.9 30.3 58.9 94.6 51.5 78.6-9.1 123.2-36.6 123.6-36.8z"/>
					</g>
					<g id="&lt;Group&gt;">
						<path id="&lt;Path&gt;" class="s3" d="m287.5 992.8h0.1c49.4 3.1 38.1-46.6 38.1-46.6-24.2 5.5-39.6 9.4-39.6 9.4-1.1 12.3-0.7 25 1.4 37.2z"/>
						<path id="&lt;Compound Path&gt;" fill-rule="evenodd" class="s2" d="m291.9 994.4q-2.1 0-4.4-0.1l-1.2-0.1-0.2-1.2c-2.2-12.2-2.7-24.9-1.5-37.6l0.1-1 1-0.3c0.2 0 15.8-3.9 39.6-9.4h0.4 1.2l0.2 1.2c0.3 0.9 5.2 23.4-6.8 37.6-6.2 7.2-15.8 10.9-28.4 10.9zm-3.1-3c13.3 0.6 23.1-2.7 29.2-9.9 9.4-11 7.4-28.4 6.5-33.5-19.5 4.5-33.2 7.8-37 8.8-1 11.6-0.5 23.2 1.3 34.6z"/>
					</g>
					<g id="&lt;Group&gt;">
						<path id="&lt;Path&gt;" class="s1" d="m701.5 1088l-61.5 44.2c-2.9 2.1-3.5 6.2-1.5 9.1 2.1 2.9 6.2 3.6 9.1 1.5l61.5-44.3c2.9-2 3.5-6.1 1.4-9-2-2.9-6.1-3.6-9-1.5z"/>
						<path id="&lt;Compound Path&gt;" fill-rule="evenodd" class="s2" d="m643.8 1145.5q-0.6 0-1.3-0.1c-2.1-0.4-3.9-1.5-5.2-3.2-1.2-1.8-1.7-3.9-1.4-6 0.4-2.1 1.5-3.9 3.2-5.2l61.5-44.2c3.6-2.6 8.6-1.8 11.2 1.8 2.5 3.6 1.7 8.6-1.9 11.2l-61.4 44.2c-1.4 1-3 1.5-4.7 1.5zm58.6-56.3l-61.5 44.3c-1.1 0.7-1.8 1.9-2 3.2-0.2 1.3 0.1 2.6 0.9 3.7 0.7 1.1 1.9 1.8 3.2 2 1.3 0.2 2.6-0.1 3.7-0.8l61.5-44.3c2.2-1.6 2.7-4.7 1.1-6.9-1.6-2.3-4.7-2.8-6.9-1.2z"/>
					</g>
				</g>
			</g>
		</g>
	</g>
</svg>